<?xml version="1.0" encoding="utf-8"?>
<!-- Generator: Adobe Illustrator 28.0.0, SVG Export Plug-In . SVG Version: 6.00 Build 0)  -->
<svg version="1.1" id="Layer_1" xmlns="http://www.w3.org/2000/svg" xmlns:xlink="http://www.w3.org/1999/xlink" x="0px" y="0px" width="700" height="700"                                                                                           
         viewBox="0 0 700 700" style="enable-background:new 0 0 700 700;" xml:space="preserve">
<style type="text/css">
	.st0{clip-path:url(#SVGID_00000005945211438805093340000016283532033953118592_);}
	.st1{fill:#211318;}
	.st2{clip-path:url(#SVGID_00000183947838500775779210000006178535347088628625_);}
	.st3{fill:#167C8C;}
	.st4{fill:#E1D5B6;}
	.st5{fill:#51DE48;}
	.st6{fill:#30E2E2;stroke:#000000;stroke-width:1.05;stroke-miterlimit:10;}
	.st7{clip-path:url(#SVGID_00000120559687202620887790000011500019347029687189_);}
	.st8{fill:none;}
	.st9{fill:#25181C;}
	.st10{clip-path:url(#SVGID_00000109005929871164776860000011939019343805811347_);}
	.st11{opacity:0.25;}
	.st12{fill:#403C3D;}
	.st13{clip-path:url(#SVGID_00000105404586723623248830000003642893982186749864_);}
	.st14{fill:#000001;}
	.st15{clip-path:url(#SVGID_00000165912823180926895690000001483551537603872411_);}
	.st16{fill:none;stroke:#161616;stroke-width:1.052;stroke-miterlimit:10;}
	.st17{fill:none;stroke:#000000;stroke-width:1.05;stroke-miterlimit:10;}
	.st18{clip-path:url(#SVGID_00000031202923358148688590000008254935288918999725_);}
	.st19{clip-path:url(#SVGID_00000078750167646892785570000016419720641026538668_);}
	.st20{clip-path:url(#SVGID_00000071532863487742830850000003271163171414770599_);}
	.st21{fill:#167C8C;stroke:#000000;stroke-width:1.075;stroke-miterlimit:10;}
	.st22{fill:#25181C;stroke:#000000;stroke-width:1.075;stroke-miterlimit:10;}
	.st23{clip-path:url(#SVGID_00000073714263134115888810000008272554780152657299_);}
	.st24{opacity:0.25;fill:#403C3D;enable-background:new    ;}
	.st25{clip-path:url(#SVGID_00000096034667465685913700000005986052266217582002_);}
	.st26{fill:none;stroke:#403C3D;stroke-width:1.05;stroke-miterlimit:10;}
	.st27{fill:none;stroke:#403C3D;stroke-width:1.095;stroke-miterlimit:10;}
	.st28{fill:none;stroke:#403C3D;stroke-width:1.089;stroke-miterlimit:10;}
	.st29{clip-path:url(#SVGID_00000176023467273861029070000018231073484797672377_);}
	.st30{clip-path:url(#SVGID_00000109741429463086581780000016279796570819876743_);}
	.st31{fill:none;stroke:#403C3D;stroke-width:1.048;stroke-miterlimit:10;}
	.st32{fill:none;stroke:#403C3D;stroke-width:0.525;stroke-miterlimit:10;}
	.st33{fill:none;stroke:#403C3D;stroke-width:0.525;stroke-miterlimit:10;stroke-dasharray:0,0,2.123,2.123;}
	.st34{fill:none;stroke:#403C3D;stroke-width:0.525;stroke-miterlimit:10;stroke-dasharray:0,2.1;}
	.st35{fill:none;stroke:#231F20;stroke-width:1.05;stroke-miterlimit:10;}
	.st36{opacity:0.5;fill:#403C3D;enable-background:new    ;}
	.st37{clip-path:url(#SVGID_00000153696640115455937030000000013596324288260522_);}
	.st38{clip-path:url(#SVGID_00000142134051862458505460000003567379762957196944_);}
	.st39{clip-path:url(#SVGID_00000011030248430194255940000011532582551269657744_);}
	.st40{fill:#474747;stroke:#403C3D;stroke-width:1.063;stroke-miterlimit:10;}
	.st41{fill:#515151;}
	.st42{fill:none;stroke:#403C3D;stroke-width:1.05;stroke-miterlimit:10;stroke-dasharray:0,2.314;}
	.st43{fill:#474747;stroke:#403C3D;stroke-width:0.942;stroke-miterlimit:10;}
	.st44{clip-path:url(#SVGID_00000047046936195442784050000004799647525678251934_);}
	.st45{opacity:0.7;}
	.st46{fill:none;stroke:#403C3D;stroke-width:1.05;stroke-miterlimit:10;stroke-dasharray:0,2.285;}
	.st47{clip-path:url(#SVGID_00000053522824103521964960000013850186628314283431_);}
	.st48{fill:none;stroke:#000000;stroke-width:1.048;stroke-miterlimit:10;}
	.st49{clip-path:url(#SVGID_00000180347994256303390380000005529241881520287651_);}
	.st50{clip-path:url(#SVGID_00000031188217180819870110000015187663689198880422_);}
	.st51{clip-path:url(#SVGID_00000114784412806639128690000004730446086143608461_);}
	.st52{clip-path:url(#SVGID_00000114031776353872880130000013955867941570788793_);}
	.st53{fill:#8E23CC;}
	.st54{fill:#A5A8A8;}
	.st55{fill:#808080;}
</style>
<g>
	<defs>
		<path id="SVGID_1_" d="M332.4,890c0,0-12.8,36-7.8,60.2l-1.2,5.4l-7.3,38.7c0,0-18.1,158-12.7,299.3c0,0,116.4,53.9,166.1-10.4
			v-40.6c0,0,40.6,20.1,89.8,12.3c0,0,37.4-5.5,42.4-15.1c0,0,5-98.5,5-122.2s-7.3-105.4-12.8-120.4s-7.3-25.5-7.3-28.3
			s4.1-6.8,3.2-15.1s-1.4-26.5-4.1-36c0,0-22.3,22.3-24.2,18.7s-5-2.7-5-2.7l-45.2,10.9c0,0-1.4,3.2-1.6,3.6s-10.5,0.2-10.5,0.2
			s-73.4,0.7-78.4-5.5c-5-6.2-8.7-14.6-15.5-17.8c-6.8-3.2-50.4-14.8-60-21.4S336.8,898.2,332.4,890L332.4,890z"/>
	</defs>
	<clipPath id="SVGID_00000176009652501098133830000002630254884487169453_">
		<use xlink:href="#SVGID_1_"  style="overflow:visible;"/>
	</clipPath>
	<g style="clip-path:url(#SVGID_00000176009652501098133830000002630254884487169453_);">
		<rect x="297.2" y="815.9" class="st1" width="370.5" height="528.2"/>
		<g>
			<defs>
				<path id="SVGID_00000108994010942876277170000009998145889535656853_" d="M351.7,1312.2c-11.4,0.3-22.7,0.6-34.1,0.8
					c-2.8-80.8-1-161.4,5.1-241.6c10.1,16.4,20.5,32.6,31,48.6C350.1,1183.9,349.5,1248,351.7,1312.2L351.7,1312.2z"/>
			</defs>
			<clipPath id="SVGID_00000070817126388639142420000011352133025864010156_">
				<use xlink:href="#SVGID_00000108994010942876277170000009998145889535656853_"  style="overflow:visible;"/>
			</clipPath>
			<g style="clip-path:url(#SVGID_00000070817126388639142420000011352133025864010156_);">
				<path class="st3" d="M389.3,1319.8c-8.5,11.3-16.9,22.7-25.3,34.2c-61.4-54.2-120.7-113.3-177.4-177c9.3-11.6,18.6-23.1,28-34.5
					C270.4,1206.4,328.9,1265.5,389.3,1319.8z"/>
				<path class="st3" d="M430.8,1266.8c-8.8,10.8-17.5,21.8-26.1,32.9c-60-54.4-117.8-113.6-173-177.4c9.5-11.2,19.1-22.2,28.8-33.2
					C314.8,1153,371.7,1212.3,430.8,1266.8L430.8,1266.8z"/>
				<path class="st4" d="M552.8,1130.6c-42.1,42.7-82.9,88.2-121.9,136.3c-59.1-54.5-116.1-113.7-170.3-177.6
					c43-48.5,87.6-94.1,133.5-136.9C444.3,1016.3,497.3,1075.8,552.8,1130.6L552.8,1130.6z"/>
				<path class="st5" d="M404.7,1299.7c-5.2,6.7-10.3,13.4-15.4,20.1c-60.5-54.3-118.9-113.5-174.6-177.3c5.6-6.8,11.3-13.5,17-20.2
					C286.9,1186.1,344.8,1245.3,404.7,1299.7L404.7,1299.7z"/>
			</g>
		</g>
	</g>
</g>
<g>
	<path class="st6" d="M490.7,186.5c0.1,0,0.1,0,0.1-0.1C490.8,186.5,490.8,186.5,490.7,186.5z"/>
	<path class="st6" d="M476.8,191.6c7.4-2.2,12.3-4.3,13.9-5.1C489.1,187.3,484.2,189.5,476.8,191.6z"/>
	<path class="st3" d="M833.8,624.9L636.1,234.4c-2-3.9-5.2-6.9-9.2-8.6L595.1,212c0,0-57.9-21.4-68.2-20.4l0,0l-24.5-3.5l0,0.2
		c-0.5-0.7-1-1.4-1.6-2h-9.4c0,0,0,0,0,0c0,0,0-0.1,0-0.1s-0.1,0.1-0.4,0.2c0,0-0.1,0-0.1,0.1c0,0,0,0,0,0
		c-1.6,0.8-6.5,2.9-13.9,5.1c0,0,0,0,0,0c-9,2.6-21.7,5.3-36.7,5.3s-27.2-2.6-35.8-5.3c0,0,0,0,0,0c-6.5-2-10.9-4-12.6-4.9
		c-0.6-0.3-0.9-0.5-0.9-0.5s0,0,0,0h-9.3c-0.6,0.6-1.1,1.3-1.6,2.1l0-0.3l-24.5,3.5l0,0l-102.8,35c-3.5,1.2-6.4,3.7-8,7L45,636.8
		c0,0,20.3,22.2,34.9,26.7c14.6,4.6,40,8.2,40,8.2l146.7-207.3l-14.4,279.1h1c0,0,113.2,17.8,142.6,20.5c29.4,2.7,80.7,2.1,97.8,0
		C510.9,762,633,743.6,633,743.6h-1c0,0-14.4-270.9-14.4-277.6s148.8,210.9,148.8,210.9l0,0c0,0,26-2.7,40.6-7.2
		s32.6-31.8,32.6-31.8L833.8,624.9L833.8,624.9z"/>
	<g>
		<defs>
			<path id="SVGID_00000138552822785407295620000001446449532507308717_" d="M833.8,624.9L636.1,234.4c-2-3.9-5.2-6.9-9.2-8.6
				L595.1,212c0,0-57.9-21.4-68.2-20.4l0,0l-24.5-3.5l0,0.2c-0.5-0.7-1-1.4-1.6-2h-9.4c0,0,0,0,0,0c0,0,0-0.1,0-0.1
				s-0.1,0.1-0.4,0.2c0,0-0.1,0-0.1,0.1c0,0,0,0,0,0c-1.6,0.8-6.5,2.9-13.9,5.1c0,0,0,0,0,0c-9,2.6-21.7,5.3-36.7,5.3
				s-27.2-2.6-35.8-5.3c0,0,0,0,0,0c-6.5-2-10.9-4-12.6-4.9c-0.6-0.3-0.9-0.5-0.9-0.5s0,0,0,0h-9.3c-0.6,0.6-1.1,1.3-1.6,2.1l0-0.3
				l-24.5,3.5l0,0l-102.8,35c-3.5,1.2-6.4,3.7-8,7L45,636.8c0,0,20.3,22.2,34.9,26.7c14.6,4.6,40,8.2,40,8.2l146.7-207.3
				l-14.4,279.1h1c0,0,113.2,17.8,142.6,20.5c29.4,2.7,80.7,2.1,97.8,0C510.9,762,633,743.6,633,743.6h-1c0,0-14.4-270.9-14.4-277.6
				s148.8,210.9,148.8,210.9l0,0c0,0,26-2.7,40.6-7.2s32.6-31.8,32.6-31.8L833.8,624.9L833.8,624.9z"/>
		</defs>
		<clipPath id="SVGID_00000016055560672069292120000005958596865240374668_">
			<use xlink:href="#SVGID_00000138552822785407295620000001446449532507308717_"  style="overflow:visible;"/>
		</clipPath>
		<g style="clip-path:url(#SVGID_00000016055560672069292120000005958596865240374668_);">
			<rect x="-13.5" y="109.9" class="st4" width="874" height="721"/>
			<path class="st3" d="M74.1,687l159.2-347.6c23.2-50.6,74.3-82.4,129.9-80.8l72,2.1c3.4,0.1,6.7,0.1,10.1-0.1l81.2-3.6
				c55.5-2.4,107.1,28.5,131,78.7l191.9,401.9l-407.7,69.7L74.1,687L74.1,687z"/>
			<rect y="118.4" class="st8" width="845.3" height="664.6"/>
			<g>
				<rect x="234.3" y="673.1" class="st4" width="408.5" height="31.3"/>
				<rect x="234.3" y="642.1" class="st9" width="408.5" height="31.3"/>
				<rect x="234.3" y="623.6" class="st5" width="408.5" height="8.5"/>
				<rect x="234.3" y="632.1" class="st3" width="408.5" height="10.1"/>
				<rect x="234.3" y="704.1" class="st3" width="408.5" height="10.1"/>
			</g>
			<g>
				
					<rect x="111.9" y="728.9" transform="matrix(0.5446 -0.8387 0.8387 0.5446 -480.46 604.1489)" class="st4" width="408.5" height="31.3"/>
				
					<rect x="85.9" y="712" transform="matrix(0.5446 -0.8387 0.8387 0.5446 -478.1407 574.6834)" class="st9" width="408.5" height="31.3"/>
				
					<rect x="60.8" y="707.1" transform="matrix(0.5446 -0.8387 0.8387 0.5446 -475.8977 546.1889)" class="st5" width="408.5" height="8.5"/>
				
					<rect x="68.5" y="711.4" transform="matrix(0.5446 -0.8387 0.8387 0.5446 -476.593 555.0115)" class="st3" width="408.5" height="10.1"/>
				
					<rect x="128.9" y="750.6" transform="matrix(0.5446 -0.8387 0.8387 0.5446 -481.9852 623.5315)" class="st3" width="408.5" height="10.1"/>
			</g>
			<rect x="265" y="515.4" class="st3" width="290.9" height="81.6"/>
		</g>
	</g>
	<g>
		<defs>
			<path id="SVGID_00000025442951310449077940000017939930193405420477_" d="M832.9,624.9L635.1,234.4c-2-3.9-5.2-6.9-9.2-8.6
				L594.1,212c0,0-57.9-21.4-68.2-20.4l0,0l-24.5-3.5l0,0.2c-0.5-0.7-1-1.4-1.6-2h-9.4c0,0,0,0,0,0c0,0,0-0.1,0-0.1
				s-0.1,0.1-0.4,0.2c0,0-0.1,0-0.1,0.1c0,0,0,0,0,0c-1.6,0.8-6.5,2.9-13.9,5.1c0,0,0,0,0,0c-9,2.6-21.7,5.3-36.7,5.3
				s-27.2-2.6-35.8-5.3c0,0,0,0,0,0c-6.5-2-10.9-4-12.6-4.9c-0.6-0.3-0.9-0.5-0.9-0.5s0,0,0,0h-9.3c-0.6,0.6-1.1,1.3-1.6,2.1l0-0.3
				l-24.5,3.5l0,0l-102.8,35c-3.5,1.2-6.4,3.7-8,7L44.1,636.8c0,0,20.3,22.2,34.9,26.7c14.6,4.6,40,8.2,40,8.2l146.7-207.3
				l-14.4,279.1h1c0,0,113.2,17.8,142.6,20.5c29.4,2.7,80.7,2.1,97.8,0c17.1-2.1,139.2-20.5,139.2-20.5h-1
				c0,0-14.4-270.9-14.4-277.6s148.8,210.9,148.8,210.9l0,0c0,0,26-2.7,40.6-7.2s32.6-31.8,32.6-31.8L832.9,624.9L832.9,624.9z"/>
		</defs>
		<clipPath id="SVGID_00000173141772683798756530000004527150824628398763_">
			<use xlink:href="#SVGID_00000025442951310449077940000017939930193405420477_"  style="overflow:visible;"/>
		</clipPath>
		<g style="clip-path:url(#SVGID_00000173141772683798756530000004527150824628398763_);">
			<g class="st11">
				<path class="st12" d="M230.7,260.6L76.8,664l-35.6-23.7C41.2,640.3,193.1,272.9,230.7,260.6L230.7,260.6z"/>
				<path class="st12" d="M647.3,260.6l165.4,425.4l35.6-23.7C848.4,662.2,685,272.9,647.3,260.6L647.3,260.6z"/>
				<path class="st12" d="M292.8,273.2L292.8,273.2c-36.3,157,16.2,324.1-20.2,481.2c-22.4-2.5-44.9-5.1-67.3-7.6
					C264.1,592.3,234,427.7,292.8,273.2L292.8,273.2z"/>
				<path class="st12" d="M593,272.2L593,272.2c35.9,157.1-17,324.1,18.9,481.2c22.4-2.5,44.9-4.9,67.3-7.4
					C620.9,591.3,651.4,426.8,593,272.2L593,272.2z"/>
			</g>
		</g>
	</g>
</g>
<g>
	<defs>
		<path id="SVGID_00000077303290090110465390000004026285299274786223_" d="M292.7,275.4l-25.9,188.7h0L119.5,671.4
			c0,0-25.5-3.6-40.2-8.2c-14.7-4.6-35-26.7-35-26.7l200.4-403.3c0.2-0.4,0.4-0.7,0.6-1.1c0.2,2.8,1.7,13.6,12.3,24.9
			C265.4,265.4,275.1,271.7,292.7,275.4L292.7,275.4z"/>
	</defs>
	<clipPath id="SVGID_00000095304588329355374310000013391583662823706539_">
		<use xlink:href="#SVGID_00000077303290090110465390000004026285299274786223_"  style="overflow:visible;"/>
	</clipPath>
	<g style="clip-path:url(#SVGID_00000095304588329355374310000013391583662823706539_);">
		<polygon class="st14" points="128.2,700 -20,631.2 -15.1,620.9 133,689.6 		"/>
		
			<rect x="63.7" y="562.1" transform="matrix(0.4222 -0.9065 0.9065 0.4222 -562.2566 443.0331)" class="st4" width="5.5" height="200.9"/>
		<g>
			
				<rect x="112.7" y="312.8" transform="matrix(0.9414 -0.3372 0.3372 0.9414 -152.8722 69.9468)" class="st3" width="24.3" height="324.5"/>
			
				<rect x="180.2" y="288" transform="matrix(0.9414 -0.3372 0.3372 0.9414 -141.1488 87.7959)" class="st3" width="3.9" height="324.5"/>
			
				<rect x="165.9" y="293.1" transform="matrix(0.9414 -0.3372 0.3372 0.9414 -143.7125 83.2762)" class="st3" width="3.9" height="324.5"/>
			
				<rect x="169.4" y="290.5" transform="matrix(0.9414 -0.3372 0.3372 0.9414 -142.4309 85.536)" class="st5" width="11.3" height="324.5"/>
			
				<rect x="142.4" y="297.8" transform="matrix(0.9414 -0.3372 0.3372 0.9414 -146.0984 79.0699)" class="st4" width="24.3" height="324.5"/>
			
				<rect x="119.5" y="306" transform="matrix(0.9414 -0.3372 0.3372 0.9414 -150.2101 71.8207)" class="st9" width="24.3" height="324.5"/>
			<polygon class="st9" points="57.5,679.1 -55.7,363.1 62.6,320.7 190.5,677.7 			"/>
		</g>
	</g>
</g>
<g>
	<defs>
		<path id="SVGID_00000034774398655155694770000008780764999962315933_" d="M833.8,625l5.8,13c0,0-18.1,27.2-32.7,31.8
			c-7.3,2.3-17.4,4.1-25.7,5.3s-14.8,1.9-14.8,1.9S624.3,469.2,617.9,466l-20.8-192.6c11.8-3.8,19.3-9.2,25.5-15.9
			c10.6-11.4,12.1-22.2,12.3-25c0.4,0.6,0.8,1.3,1.2,2L833.8,625L833.8,625z"/>
	</defs>
	<clipPath id="SVGID_00000111160900464174613090000017564738612516381348_">
		<use xlink:href="#SVGID_00000034774398655155694770000008780764999962315933_"  style="overflow:visible;"/>
	</clipPath>
	<g style="clip-path:url(#SVGID_00000111160900464174613090000017564738612516381348_);">
		
			<rect x="714.2" y="676.3" transform="matrix(0.9065 -0.4222 0.4222 0.9065 -213.5569 399.6753)" class="st14" width="162.8" height="11.4"/>
		<line class="st16" x1="864.8" y1="644" x2="754.8" y2="696.4"/>
		<g>
			
				<rect x="603.5" y="453.2" transform="matrix(0.3372 -0.9414 0.9414 0.3372 69.4296 1029.3096)" class="st3" width="324.5" height="24.3"/>
			
				<rect x="540.9" y="445.3" transform="matrix(0.3372 -0.9414 0.9414 0.3372 44.9616 958.3646)" class="st3" width="324.5" height="3.9"/>
			
				<rect x="555.2" y="450.4" transform="matrix(0.3372 -0.9414 0.9414 0.3372 49.6144 975.2126)" class="st3" width="324.5" height="3.9"/>
			
				<rect x="548" y="444.2" transform="matrix(0.3372 -0.9414 0.9414 0.3372 47.2886 966.7886)" class="st5" width="324.5" height="11.3"/>
			
				<rect x="568.5" y="445" transform="matrix(0.3372 -0.9414 0.9414 0.3372 53.9453 990.8921)" class="st4" width="324.5" height="24.3"/>
			
				<rect x="591.4" y="453.2" transform="matrix(0.3372 -0.9414 0.9414 0.3372 61.4074 1017.9147)" class="st9" width="324.5" height="24.3"/>
			<polygon class="st9" points="827.8,676.1 941,360.1 822.7,317.7 694.8,674.7 			"/>
		</g>
	</g>
</g>
<path class="st3" d="M499.9,206.4c0.5,3,0.7,6.5,0.7,10.4c0,22.1-9,47.4-39,64l-0.2-0.5h-40.2l-0.1,0.1
	c-29.6-16.6-38.4-41.7-38.4-63.7c0-3.7,0.2-7,0.7-10c2.9,1.5,22.5,10.6,57.6,10.6C476.6,217.4,497.6,207.5,499.9,206.4L499.9,206.4z
	"/>
<g>
	<g>
		<path class="st9" d="M527.5,191.8c0,0,5.9,19.6-0.4,46.7l-24.3,8.6c3.6-8.7,6-19.1,6-31.3c0,0,0.3-18.2-5.8-27.3l0-0.2
			L527.5,191.8L527.5,191.8z"/>
		<path class="st3" d="M503,188.5c6.1,9.1,5.8,27.3,5.8,27.3c0,12.2-2.4,22.5-6,31.3c-10.7,25.8-32.6,37.5-38,40l-3.1-6.7
			c30-16.5,39-41.9,39-64c0-3.9-0.3-7.3-0.7-10.4c-0.7-4.9-1.9-8.8-3.2-11.8v0c-0.5-1.4-1.2-2.6-1.9-3.7c-0.1-0.2-0.2-0.3-0.3-0.5
			c-0.1-0.2-0.2-0.4-0.4-0.6c-0.3-0.5-0.7-1-1-1.4c-0.1-0.1-0.2-0.2-0.2-0.3c-0.6-0.7-1-1.2-1.1-1.4l0,0c0,0,0,0,0,0l0,0h9.4
			C502,187.1,502.5,187.8,503,188.5L503,188.5z"/>
		<path class="st9" d="M476.9,313.7l0.3-0.1l0.1-0.1L465,287.3l-0.1-0.2c5.4-2.6,27.3-14.3,38-40l24.3-8.6
			c-2.9,12.4-8.4,26.5-18.2,40.9c-7.7,11.4-18.1,23-32,34.4L476.9,313.7L476.9,313.7z"/>
		<polygon class="st9" points="461.8,280.5 464.9,287.1 465,287.3 476.9,313.7 441.1,332.3 404.9,313.7 417.9,286.8 421.2,280.2 
			421.3,280 461.5,280 		"/>
		<path class="st9" d="M381.9,249.8c10.6,22.9,29.9,33.9,36.1,37l-13.4,26.8l0.4,0.2l-0.1,0.1c-13.9-11.4-24.2-23-31.8-34.4
			c-9.1-13.7-14.3-26.9-17.1-38.9L381.9,249.8L381.9,249.8z"/>
		<path class="st3" d="M493.3,188.2c0.3,0.4,0.6,0.9,1,1.4c0.1,0.2,0.2,0.4,0.4,0.6c0.1,0.1,0.2,0.3,0.3,0.5c0.6,1,1.2,2.3,1.9,3.7
			v0c0,0-20.2,11.1-55.7,11.1c-35.2,0-53.9-10.4-54.6-10.8c2.1-5.1,4.4-7.6,5-8.1c0,0,0,0,0,0c0.1,0,0.1,0.1,0.3,0.1
			c0.6,0.3,2.1,1.1,4.3,2c0.2,0.1,0.4,0.2,0.7,0.3c0.2,0.1,0.4,0.1,0.5,0.2c0.4,0.1,0.7,0.3,1.1,0.5c0,0,0.1,0,0.1,0
			c0.6,0.2,1.1,0.4,1.8,0.7c0.4,0.1,0.8,0.3,1.2,0.4c0.7,0.3,1.4,0.5,2.2,0.7c0.9,0.3,1.9,0.6,2.9,0.9c0.4,0.1,0.9,0.3,1.3,0.4
			c0.4,0.1,0.8,0.2,1.2,0.3c0.5,0.1,1,0.3,1.6,0.4c1,0.3,2.1,0.5,3.2,0.8c0.6,0.1,1.2,0.3,1.9,0.4c0.4,0.1,0.8,0.2,1.2,0.2
			c1,0.2,2.1,0.4,3.1,0.6c0.8,0.1,1.6,0.3,2.5,0.4c0.8,0.1,1.6,0.2,2.3,0.3c0.8,0.1,1.5,0.2,2.3,0.3c0,0,0.1,0,0.1,0
			c1.6,0.2,3.3,0.3,5,0.4c0.9,0.1,1.8,0.1,2.7,0.1c0.9,0,1.8,0.1,2.7,0.1h0c0.9,0,1.8,0,2.8,0s1.9,0,2.8,0h0c0.9,0,1.8-0.1,2.7-0.1
			c0.9,0,1.8-0.1,2.7-0.1c1.7-0.1,3.4-0.3,5.1-0.4c0,0,0.1,0,0.1,0c0.8-0.1,1.6-0.2,2.4-0.3c2.1-0.3,4.1-0.6,6.1-0.9
			c0.6-0.1,1.3-0.2,1.9-0.3c2-0.4,3.9-0.8,5.7-1.2c0.6-0.1,1.2-0.3,1.8-0.4c0.4-0.1,0.8-0.2,1.2-0.3c0.6-0.1,1.1-0.3,1.7-0.4
			c0.1,0,0.1,0,0.2-0.1c0.6-0.2,1.2-0.3,1.8-0.5c4.9-1.4,8.8-2.8,11.4-3.9c0.2-0.1,0.5-0.2,0.7-0.3c0.2-0.1,0.4-0.1,0.5-0.2
			c0.7-0.3,1.2-0.5,1.6-0.7c0.1-0.1,0.2-0.1,0.3-0.2c0,0,0,0,0,0c0,0,0.1,0,0.1,0c0.2-0.1,0.3-0.2,0.4-0.2c0,0,0,0,0.1,0l0,0
			c0,0,0,0,0,0c0,0,0,0,0,0c0,0,0,0.1,0.1,0.2c0.2,0.2,0.6,0.6,1.1,1.2C493.2,188,493.2,188.1,493.3,188.2L493.3,188.2z"/>
		<path class="st9" d="M386.5,194.7c0.7,0.4,19.4,10.8,54.6,10.8c35.5,0,55.7-11.1,55.7-11.1c1.3,2.9,2.5,6.8,3.2,11.8
			c-2.3,1.1-23.4,11-58.9,11c-35.1,0-54.8-9.2-57.6-10.6C384.1,201.6,385.3,197.7,386.5,194.7z"/>
		<path class="st3" d="M381.9,249.8c-4.3-9.3-7.2-20.5-7.2-34c0,0-0.3-18.1,5.8-27.3c0.5-0.8,1-1.5,1.6-2.1h9.3
			c-0.3,0.3-2.9,3.1-5,8.2c0,0,0,0,0,0c-1.2,3-2.4,6.9-3.1,11.8c-0.4,2.9-0.7,6.2-0.7,10c0,21.9,8.9,47.1,38.4,63.7l-3.3,6.6
			C411.7,283.7,392.5,272.7,381.9,249.8L381.9,249.8z"/>
		<path class="st9" d="M381.9,249.8l-26-9.2c-6.7-28.2,0.1-48.8,0.1-48.8l24.5-3.5l0,0.3c-6.1,9.2-5.8,27.3-5.8,27.3
			C374.7,229.3,377.6,240.5,381.9,249.8L381.9,249.8z"/>
	</g>
	<g>
		<path class="st17" d="M503,188.5l0-0.2l24.5,3.5c0,0,5.9,19.6-0.4,46.7c-2.9,12.4-8.4,26.5-18.2,40.9c-7.7,11.4-18.1,23-32,34.4
			l-0.1-0.1l0.3-0.1l0.1-0.1L465,287.3"/>
		<path class="st17" d="M496.8,194.4c-0.5-1.4-1.2-2.6-1.9-3.7"/>
		<path class="st17" d="M461.8,280.5c30-16.5,39-41.9,39-64c0-3.9-0.3-7.3-0.7-10.4"/>
		<path class="st17" d="M493.1,187.9c-0.6-0.7-1-1.2-1.1-1.4l0,0c0,0,0,0,0,0l0,0h9.4c0.6,0.6,1.1,1.3,1.6,2
			c6.1,9.1,5.8,27.3,5.8,27.3c0,12.2-2.4,22.5-6,31.3c-10.7,25.8-32.6,37.5-38,40"/>
		<polyline class="st17" points="421.2,280.2 421.3,280 461.5,280 461.8,280.5 464.9,287.1 465,287.3 476.9,313.7 441.1,332.3 
			404.9,313.7 417.9,286.8 		"/>
		<path class="st17" d="M496.8,194.4c1.3,2.9,2.5,6.8,3.2,11.8c-2.3,1.1-23.4,11-58.9,11c-35.1,0-54.8-9.2-57.6-10.6"/>
		<path class="st17" d="M417.9,286.8l-13.4,26.8l0.4,0.2l-0.1,0.1c-13.9-11.4-24.2-23-31.8-34.4c-9.1-13.7-14.3-26.9-17.1-38.9
			c-6.7-28.2,0.1-48.8,0.1-48.8l24.5-3.5l0,0.3"/>
		<path class="st17" d="M386.5,194.7c2.1-5.1,4.4-7.6,5-8.1c0,0,0,0,0,0c0.1,0,0.1,0.1,0.3,0.1c0.6,0.3,2.1,1.1,4.3,2
			c0.2,0.1,0.4,0.2,0.7,0.3c0.2,0.1,0.4,0.1,0.5,0.2c0.4,0.1,0.7,0.3,1.1,0.5c0,0,0.1,0,0.1,0c0.6,0.2,1.1,0.4,1.8,0.7
			c0.4,0.1,0.8,0.3,1.2,0.4c0.7,0.3,1.4,0.5,2.2,0.7c0.9,0.3,1.9,0.6,2.9,0.9c0.4,0.1,0.9,0.3,1.3,0.4c0.4,0.1,0.8,0.2,1.2,0.3
			c0.5,0.1,1,0.3,1.6,0.4c1,0.3,2.1,0.5,3.2,0.8c0.6,0.1,1.2,0.3,1.9,0.4c0.4,0.1,0.8,0.2,1.2,0.2c1,0.2,2.1,0.4,3.1,0.6
			c0.8,0.1,1.6,0.3,2.5,0.4c0.8,0.1,1.6,0.2,2.3,0.3c0.8,0.1,1.5,0.2,2.3,0.3c0,0,0.1,0,0.1,0c1.6,0.2,3.3,0.3,5,0.4
			c0.9,0.1,1.8,0.1,2.7,0.1c0.9,0,1.8,0.1,2.7,0.1h0c0.9,0,1.8,0,2.8,0s1.9,0,2.8,0h0c0.9,0,1.8-0.1,2.7-0.1c0.9,0,1.8-0.1,2.7-0.1
			c1.7-0.1,3.4-0.3,5.1-0.4c0,0,0.1,0,0.1,0c0.8-0.1,1.6-0.2,2.4-0.3c2.1-0.3,4.1-0.6,6.1-0.9c0.6-0.1,1.3-0.2,1.9-0.3
			c2-0.4,3.9-0.8,5.7-1.2c0.6-0.1,1.2-0.3,1.8-0.4c0.4-0.1,0.8-0.2,1.2-0.3c0.6-0.1,1.1-0.3,1.7-0.4c0.1,0,0.1,0,0.2-0.1
			c0.6-0.2,1.2-0.3,1.8-0.5c4.9-1.4,8.8-2.8,11.4-3.9c0.2-0.1,0.5-0.2,0.7-0.3c0.2-0.1,0.4-0.1,0.5-0.2c0.7-0.3,1.2-0.5,1.6-0.7
			c0.1-0.1,0.2-0.1,0.3-0.2c0,0,0,0,0,0c0,0,0.1,0,0.1,0c0.2-0.1,0.3-0.2,0.4-0.2c0,0,0,0,0.1,0l0,0c0,0,0,0,0,0c0,0,0,0,0,0
			c0,0,0,0.1,0.1,0.2c0.2,0.2,0.6,0.6,1.1,1.2c0.1,0.1,0.2,0.2,0.2,0.3c0.3,0.4,0.6,0.9,1,1.4c0.1,0.2,0.2,0.4,0.4,0.6
			c0.1,0.1,0.2,0.3,0.3,0.5c0.6,1,1.2,2.3,1.9,3.7v0c0,0-20.2,11.1-55.7,11.1C405.9,205.5,387.2,195.1,386.5,194.7L386.5,194.7z"/>
		<path class="st17" d="M383.5,206.6c-0.4,2.9-0.7,6.2-0.7,10c0,21.9,8.9,47.1,38.4,63.7l-3.3,6.6c-6.2-3.1-25.5-14.1-36.1-37
			c-4.3-9.3-7.2-20.5-7.2-34c0,0-0.3-18.1,5.8-27.3c0.5-0.8,1-1.5,1.6-2.1h9.3c-0.3,0.3-2.9,3.1-5,8.2c0,0,0,0,0,0
			C385.3,197.7,384.1,201.6,383.5,206.6L383.5,206.6z"/>
		<polyline class="st17" points="355.9,240.6 381.9,249.8 381.9,249.8 		"/>
		<polyline class="st17" points="527.7,238.3 527.1,238.5 502.9,247.1 502.9,247.9 		"/>
	</g>
</g>
<g>
	<path class="st6" d="M1106.8,187c0.1,0,0.1,0,0.1-0.1C1106.9,186.9,1106.8,187,1106.8,187z"/>
	<path class="st6" d="M1092.9,192.1c7.4-2.2,12.3-4.3,13.9-5.1C1105.1,187.7,1100.3,189.9,1092.9,192.1z"/>
	<path class="st3" d="M1449.9,625.3l-197.8-390.5c-2-3.9-5.2-6.9-9.2-8.6l-31.8-13.8c0,0-57.9-21.4-68.2-20.4l0,0l-24.5-3.5l0,0.2
		c-0.5-0.7-1-1.4-1.6-2h-9.4c0,0,0,0,0,0c0,0,0-0.1,0-0.1s-0.1,0.1-0.4,0.2c0,0-0.1,0-0.1,0.1c0,0,0,0,0,0
		c-1.6,0.8-6.5,2.9-13.9,5.1c0,0,0,0,0,0c-9,2.6-21.7,5.3-36.7,5.3s-27.2-2.6-35.8-5.3c0,0,0,0,0,0c-6.5-2-10.9-4-12.6-4.9
		c-0.6-0.3-0.9-0.5-0.9-0.5s0,0,0,0h-9.3c-0.6,0.6-1.1,1.3-1.6,2.1l0-0.3l-24.5,3.5l0,0l-102.8,35c-3.5,1.2-6.4,3.7-8,7L661.1,637.3
		c0,0,20.3,22.2,34.9,26.7c14.6,4.6,40,8.2,40,8.2l146.7-207.3L868.3,744h1c0,0,113.2,17.8,142.6,20.5c29.4,2.7,80.7,2.1,97.8,0
		c17.1-2.1,139.2-20.5,139.2-20.5h-1c0,0-14.4-270.9-14.4-277.6s148.8,210.9,148.8,210.9l0,0c0,0,26-2.7,40.6-7.2
		s32.6-31.8,32.6-31.8L1449.9,625.3L1449.9,625.3z"/>
	<g>
		<defs>
			<path id="SVGID_00000112628022462580499270000009331076690959981987_" d="M1449.9,625.3l-197.8-390.5c-2-3.9-5.2-6.9-9.2-8.6
				l-31.8-13.8c0,0-57.9-21.4-68.2-20.4l0,0l-24.5-3.5l0,0.2c-0.5-0.7-1-1.4-1.6-2h-9.4c0,0,0,0,0,0c0,0,0-0.1,0-0.1
				s-0.1,0.1-0.4,0.2c0,0-0.1,0-0.1,0.1c0,0,0,0,0,0c-1.6,0.8-6.5,2.9-13.9,5.1c0,0,0,0,0,0c-9,2.6-21.7,5.3-36.7,5.3
				s-27.2-2.6-35.8-5.3c0,0,0,0,0,0c-6.5-2-10.9-4-12.6-4.9c-0.6-0.3-0.9-0.5-0.9-0.5s0,0,0,0h-9.3c-0.6,0.6-1.1,1.3-1.6,2.1l0-0.3
				l-24.5,3.5l0,0l-102.8,35c-3.5,1.2-6.4,3.7-8,7L661.1,637.3c0,0,20.3,22.2,34.9,26.7c14.6,4.6,40,8.2,40,8.2l146.7-207.3
				L868.3,744h1c0,0,113.2,17.8,142.6,20.5c29.4,2.7,80.7,2.1,97.8,0c17.1-2.1,139.2-20.5,139.2-20.5h-1c0,0-14.4-270.9-14.4-277.6
				s148.8,210.9,148.8,210.9l0,0c0,0,26-2.7,40.6-7.2s32.6-31.8,32.6-31.8L1449.9,625.3L1449.9,625.3z"/>
		</defs>
		<clipPath id="SVGID_00000144325964330478526390000002728019778638135984_">
			<use xlink:href="#SVGID_00000112628022462580499270000009331076690959981987_"  style="overflow:visible;"/>
		</clipPath>
		<g style="clip-path:url(#SVGID_00000144325964330478526390000002728019778638135984_);">
			<rect x="602.6" y="110.3" class="st4" width="874" height="721"/>
			<path class="st3" d="M690.2,687.4l159.2-347.6c23.2-50.6,74.3-82.4,129.9-80.8l72,2.1c3.4,0.1,6.7,0.1,10.1-0.1l81.2-3.6
				c55.5-2.4,107.1,28.5,131,78.7l191.9,401.9l-407.7,69.7L690.2,687.4L690.2,687.4z"/>
			<rect x="616" y="118.8" class="st8" width="845.3" height="664.6"/>
			<g>
				<rect x="850.4" y="673.6" class="st4" width="408.5" height="31.3"/>
				<rect x="850.4" y="642.6" class="st9" width="408.5" height="31.3"/>
				<rect x="850.4" y="624" class="st5" width="408.5" height="8.5"/>
				<rect x="850.4" y="632.5" class="st3" width="408.5" height="10.1"/>
				<rect x="850.4" y="704.5" class="st3" width="408.5" height="10.1"/>
			</g>
			<g>
				
					<rect x="727.9" y="729.3" transform="matrix(0.5446 -0.8387 0.8387 0.5446 -200.3142 1121.0149)" class="st4" width="408.5" height="31.3"/>
				
					<rect x="701.9" y="712.5" transform="matrix(0.5446 -0.8387 0.8387 0.5446 -197.9956 1091.5488)" class="st9" width="408.5" height="31.3"/>
				
					<rect x="676.8" y="707.6" transform="matrix(0.5446 -0.8387 0.8387 0.5446 -195.7539 1063.0535)" class="st5" width="408.5" height="8.5"/>
				
					<rect x="684.6" y="711.8" transform="matrix(0.5446 -0.8387 0.8387 0.5446 -196.447 1071.8774)" class="st3" width="408.5" height="10.1"/>
				
					<rect x="745" y="751" transform="matrix(0.5446 -0.8387 0.8387 0.5446 -201.8396 1140.3956)" class="st3" width="408.5" height="10.1"/>
			</g>
			<rect x="881.1" y="515.9" class="st3" width="290.9" height="81.6"/>
		</g>
	</g>
</g>
<g>
	<defs>
		<path id="SVGID_00000033343568009760493190000000720256682163933572_" d="M908.4,275.4l-25.9,188.7h0L735.2,671.4
			c0,0-25.5-3.6-40.2-8.2c-14.7-4.6-35-26.7-35-26.7l200.4-403.3c0.2-0.4,0.4-0.7,0.6-1.1c0.2,2.8,1.7,13.6,12.3,24.9
			C881.1,265.4,890.8,271.7,908.4,275.4L908.4,275.4z"/>
	</defs>
	<clipPath id="SVGID_00000163792963626940677640000008468169787481712516_">
		<use xlink:href="#SVGID_00000033343568009760493190000000720256682163933572_"  style="overflow:visible;"/>
	</clipPath>
	<g style="clip-path:url(#SVGID_00000163792963626940677640000008468169787481712516_);">
		<polygon class="st14" points="743.9,700 595.7,631.2 600.6,620.9 748.7,689.6 		"/>
		
			<rect x="679.4" y="562.1" transform="matrix(0.4222 -0.9065 0.9065 0.4222 -206.509 1001.1676)" class="st4" width="5.5" height="200.9"/>
		<g>
			
				<rect x="795.9" y="288" transform="matrix(0.9414 -0.3372 0.3372 0.9414 -105.0829 295.4271)" class="st3" width="3.9" height="324.5"/>
			
				<rect x="781.6" y="293.1" transform="matrix(0.9414 -0.3372 0.3372 0.9414 -107.6469 290.9076)" class="st3" width="3.9" height="324.5"/>
			
				<rect x="785.1" y="290.5" transform="matrix(0.9414 -0.3372 0.3372 0.9414 -106.365 293.1674)" class="st5" width="11.3" height="324.5"/>
			
				<rect x="758.1" y="297.8" transform="matrix(0.9414 -0.3372 0.3372 0.9414 -110.0326 286.7008)" class="st4" width="24.3" height="324.5"/>
			
				<rect x="735.2" y="306" transform="matrix(0.9414 -0.3372 0.3372 0.9414 -114.1441 279.4518)" class="st9" width="24.3" height="324.5"/>
			
				<rect x="728.3" y="312.9" transform="matrix(0.9414 -0.3372 0.3372 0.9414 -116.8737 277.5305)" class="st3" width="24.3" height="324.5"/>
			<polygon class="st9" points="673.2,679.1 560,363.1 678.3,320.7 806.2,677.7 			"/>
		</g>
	</g>
</g>
<g>
	<defs>
		<path id="SVGID_00000068653221351608686250000018253807887521726347_" d="M1449.5,625l5.8,13c0,0-18.1,27.2-32.7,31.8
			c-7.3,2.3-17.4,4.1-25.7,5.3s-14.8,1.9-14.8,1.9S1240,469.2,1233.6,466l-20.8-192.6c11.8-3.8,19.3-9.2,25.5-15.9
			c10.6-11.4,12.1-22.2,12.3-25c0.4,0.6,0.8,1.3,1.2,2L1449.5,625L1449.5,625z"/>
	</defs>
	<clipPath id="SVGID_00000166654134287414557550000010652228912860320154_">
		<use xlink:href="#SVGID_00000068653221351608686250000018253807887521726347_"  style="overflow:visible;"/>
	</clipPath>
	<g style="clip-path:url(#SVGID_00000166654134287414557550000010652228912860320154_);">
		
			<rect x="1262.8" y="489.3" transform="matrix(0.3455 -0.9384 0.9384 0.3455 391.5519 1635.2086)" class="st3" width="210.7" height="95.1"/>
		
			<rect x="1329.9" y="676.3" transform="matrix(0.9065 -0.4222 0.4222 0.9065 -155.9887 659.6292)" class="st14" width="162.8" height="11.4"/>
		<line class="st16" x1="1480.5" y1="644" x2="1370.5" y2="696.4"/>
		<g>
			
				<rect x="1156.6" y="445.3" transform="matrix(0.3372 -0.9414 0.9414 0.3372 453.0337 1538.0011)" class="st3" width="324.5" height="3.9"/>
			
				<rect x="1170.9" y="450.4" transform="matrix(0.3372 -0.9414 0.9414 0.3372 457.6855 1554.8499)" class="st3" width="324.5" height="3.9"/>
			
				<rect x="1163.7" y="444.2" transform="matrix(0.3372 -0.9414 0.9414 0.3372 455.3589 1546.4257)" class="st5" width="324.5" height="11.3"/>
			
				<rect x="1184.2" y="445" transform="matrix(0.3372 -0.9414 0.9414 0.3372 462.0157 1570.5283)" class="st4" width="324.5" height="24.3"/>
			
				<rect x="1207.1" y="453.2" transform="matrix(0.3372 -0.9414 0.9414 0.3372 469.4777 1597.5508)" class="st9" width="324.5" height="24.3"/>
			<polygon class="st9" points="1443.5,676.1 1556.7,360.1 1438.4,317.7 1310.5,674.7 			"/>
		</g>
	</g>
</g>
<g>
	<path class="st21" d="M1108.7,192.7c-11.8,5.2-29.4,10.9-51,11.2v0c-0.1,0-0.3,0-0.4,0c-0.1,0-0.2,0-0.4,0v0
		c-17.1-0.2-31.8-3.8-43-7.9c-3.5-1.3-6.7-2.6-9.5-3.9c-2.3-1.1-4.6-2.4-6.7-3.6c-0.7-0.4-1.4-0.8-2.1-1.2l8.6-1.2
		c2,0,4.8,0,8.3,0.1c0.3,0,0.7,0,1,0c0.3,0,0.5,0,0.8,0c10.8,4.2,26.1,8.6,43,8.7c0.1,0,0.3,0,0.4,0c0.1,0,0.3,0,0.4,0
		c16.4-0.1,31.3-4.3,42.1-8.3c7.9,0,15,0,20.7-0.1C1118.2,188,1114.1,190.3,1108.7,192.7L1108.7,192.7z"/>
	<path class="st22" d="M1014,195.9c11.2,4.1,25.9,7.8,43,7.9v0c0.1,0,0.2,0,0.4,0c0.1,0,0.3,0,0.4,0v0c21.6-0.2,39.2-5.9,51-11.2
		c5.4-2.4,9.5-4.7,12.2-6.3c5.4-0.1,9.5-0.2,11.7-0.3c3.8,0.5,10.2,2.2,17.7,4.5c-5.1,7.4-27.6,33.8-92.4,33.8c-0.4,0-0.9,0-1.3,0
		c-0.4,0-0.9,0-1.3,0c-60.8,0-84.4-21.3-91.3-30.3l2.3-0.8l28.9-6.1c0.6,0.4,1.3,0.7,2,1.1c2,1.1,4.4,2.3,7.1,3.6
		c3.3,1.7,6.6,3.1,9,3.8C1013.5,195.8,1013.7,195.9,1014,195.9L1014,195.9z"/>
</g>
<path class="st12" d="M956.1,836.8h16.8c6.6,0,12,5.4,12,12v53.6c0,6.6-5.4,12-12,12h-16.8c-6.6,0-12-5.4-12-12v-53.6
	C944.1,842.2,949.5,836.8,956.1,836.8z"/>
<g>
	<defs>
		<path id="SVGID_00000114052928594230168070000009438161474315865474_" d="M1032,970.9c0.4-28.8,0.5-60.5,0.1-95.3H894.8
			c0,0-0.5,40,0.9,96.1c0.3,14,0.8,29.1,1.4,44.8c2.4,62.9,7.1,136,16.5,194.8l7.3,18.8c-0.2,0-0.2,0.1-0.2,0.1h0.3l3.6,9.4
			c0,0,40.6-12.8,79.8,0l3.2-9.4l7.8-23c0,0,11.7-55.5,15.8-190.5c0.4-14.1,0.8-29,1-44.8c0.1,0,0.3,0,0.4-0.1L1032,970.9
			L1032,970.9z"/>
	</defs>
	<clipPath id="SVGID_00000176029226548678152820000009700775238497750429_">
		<use xlink:href="#SVGID_00000114052928594230168070000009438161474315865474_"  style="overflow:visible;"/>
	</clipPath>
	<g style="clip-path:url(#SVGID_00000176029226548678152820000009700775238497750429_);">
		<path class="st24" d="M939.9,860.9c0,0-40.1,242.3-1.6,402.1l-37.4-8.3l-6.2-404.4L939.9,860.9L939.9,860.9z"/>
		<path class="st3" d="M880.7,846.5h180.2c6.6,0,12,5.4,12,12v448.1c0,6.6-5.4,12-12,12H880.7c-6.6,0-12-5.4-12-12V858.5
			C868.7,851.9,874.1,846.5,880.7,846.5z"/>
		<g>
			<rect x="786.2" y="1110" class="st4" width="324.5" height="24.3"/>
			<rect x="786.2" y="1085.7" class="st9" width="324.5" height="24.3"/>
			<rect x="786.2" y="1057.6" class="st5" width="324.5" height="11.3"/>
		</g>
	</g>
</g>
<path class="st12" d="M1142.4,836.8h16.8c6.6,0,12,5.4,12,12v53.6c0,6.6-5.4,12-12,12h-16.8c-6.6,0-12-5.4-12-12v-53.6
	C1130.4,842.2,1135.7,836.8,1142.4,836.8z"/>
<g>
	<defs>
		<path id="SVGID_00000118387297874688522970000006540819046691264684_" d="M1218.3,970.9c0.4-28.8,0.5-60.5,0.1-95.3h-137.3
			c0,0-0.5,40,0.9,96.1c0.3,14,0.8,29.1,1.4,44.8c2.4,62.9,7.1,136,16.5,194.8l7.3,18.8c-0.2,0-0.2,0.1-0.2,0.1h0.3l3.6,9.4
			c0,0,40.6-12.8,79.8,0l3.2-9.4l7.8-23c0,0,11.7-55.5,15.8-190.5c0.4-14.1,0.8-29,1-44.8c0.1,0,0.3,0,0.4-0.1L1218.3,970.9
			L1218.3,970.9z"/>
	</defs>
	<clipPath id="SVGID_00000100380921468544481240000009495930499351103889_">
		<use xlink:href="#SVGID_00000118387297874688522970000006540819046691264684_"  style="overflow:visible;"/>
	</clipPath>
	<g style="clip-path:url(#SVGID_00000100380921468544481240000009495930499351103889_);">
		<path class="st24" d="M1126.2,860.9c0,0-40.1,242.3-1.6,402.1l-37.4-8.3l-6.2-404.4L1126.2,860.9L1126.2,860.9z"/>
		<path class="st3" d="M1067,846.5h180.2c6.6,0,12,5.4,12,12v448.1c0,6.6-5.4,12-12,12H1067c-6.6,0-12-5.4-12-12V858.5
			C1055,851.9,1060.3,846.5,1067,846.5z"/>
		<g>
			<rect x="972.4" y="1110" class="st4" width="324.5" height="24.3"/>
			<rect x="972.4" y="1085.7" class="st9" width="324.5" height="24.3"/>
			<rect x="972.4" y="1057.6" class="st5" width="324.5" height="11.3"/>
		</g>
	</g>
</g>
<g>
	<g>
		<g>
			<g>
				<g>
					<path class="st26" d="M1032.1,875.6H894.8c0,0-2.3,203.9,18.7,335.7l10.9,28.3c0,0,40.6-12.8,79.8,0l10.9-32.4
						C1015.2,1207.2,1034.9,1114.1,1032.1,875.6L1032.1,875.6z"/>
					<path class="st27" d="M924.5,1239.5l-3.4-9.5c0,0,43.7-12.6,86.4,0.1l-3.2,9.4"/>
					<g>
						<rect x="948.4" y="889.3" class="st26" width="32.2" height="48.6"/>
						<line class="st26" x1="948.4" y1="937.8" x2="980.6" y2="889.3"/>
						<line class="st26" x1="948.4" y1="889.3" x2="980.6" y2="937.8"/>
					</g>
					<path class="st26" d="M939.9,875.6c0,0,3.4,64-1.7,73.5c-5.1,9.6-13.8,27.4-42.5,22.6"/>
					<path class="st26" d="M988.2,875.6c0,0-3.4,64,1.7,73.5c5.1,9.6,13.8,27.4,42.5,22.6"/>
					<path class="st26" d="M897.1,1016.5c0,0,27.8,1.7,46.6-8.5s46.9,0,46.9,0s11.2,10.8,40.5,8.7"/>
					<line class="st27" x1="1007.5" y1="1230.2" x2="1004.3" y2="1239.5"/>
					<line class="st27" x1="924.5" y1="1239.5" x2="921.1" y2="1230"/>
					<g>
						<g>
							<line class="st28" x1="928.5" y1="1238" x2="925.1" y2="1228.6"/>
							<line class="st28" x1="929.3" y1="1227.8" x2="932.3" y2="1237.2"/>
							<line class="st28" x1="933.6" y1="1227.3" x2="936.2" y2="1236.7"/>
							<line class="st28" x1="937.9" y1="1226.8" x2="940.1" y2="1236.2"/>
							<line class="st28" x1="942.2" y1="1226.3" x2="944" y2="1235.7"/>
							<line class="st28" x1="946.4" y1="1225.9" x2="948" y2="1235.2"/>
							<line class="st28" x1="950.7" y1="1225.4" x2="951.9" y2="1234.7"/>
							<line class="st28" x1="955" y1="1224.9" x2="955.8" y2="1234.2"/>
							<line class="st28" x1="959.3" y1="1224.4" x2="959.7" y2="1233.7"/>
							<line class="st28" x1="963.6" y1="1224.5" x2="963.6" y2="1233.9"/>
						</g>
						<g>
							<line class="st28" x1="1002" y1="1238.8" x2="1005.4" y2="1229.4"/>
							<line class="st28" x1="1001.6" y1="1228.3" x2="998.5" y2="1237.7"/>
							<line class="st28" x1="997.4" y1="1227.3" x2="994.8" y2="1236.7"/>
							<line class="st28" x1="993.2" y1="1226.8" x2="990.9" y2="1236.2"/>
							<line class="st28" x1="988.9" y1="1226.3" x2="987" y2="1235.7"/>
							<line class="st28" x1="984.6" y1="1225.8" x2="983.1" y2="1235.2"/>
							<line class="st28" x1="980.3" y1="1225.3" x2="979.2" y2="1234.7"/>
							<line class="st28" x1="976" y1="1224.8" x2="975.3" y2="1234.2"/>
							<line class="st28" x1="971.7" y1="1224.3" x2="971.4" y2="1233.7"/>
							<line class="st28" x1="967.5" y1="1224.5" x2="967.5" y2="1233.8"/>
						</g>
					</g>
				</g>
				<g>
					<defs>
						<path id="SVGID_00000012440744268154210720000015352729490656616595_" d="M1032,970.9c0.4-28.8,0.5-60.5,0.1-95.3H894.8
							c0,0-0.5,40,0.9,96.1c0.3,14,0.8,29.1,1.4,44.8c2.4,62.9,7.1,136,16.5,194.8l7.3,18.8c-0.2,0-0.2,0.1-0.2,0.1h0.3l3.6,9.4
							c0,0,40.6-12.8,79.8,0l3.2-9.4l7.8-23c0,0,11.7-55.5,15.8-190.5c0.4-14.1,0.8-29,1-44.8c0.1,0,0.3,0,0.4-0.1L1032,970.9
							L1032,970.9z"/>
					</defs>
					<clipPath id="SVGID_00000105391843638801993590000004698812726564657063_">
						<use xlink:href="#SVGID_00000012440744268154210720000015352729490656616595_"  style="overflow:visible;"/>
					</clipPath>
					<g style="clip-path:url(#SVGID_00000105391843638801993590000004698812726564657063_);">
						<path class="st24" d="M939.9,860.9c0,0-40.1,242.3-1.6,402.1l-37.4-8.3l-6.2-404.4L939.9,860.9L939.9,860.9z"/>
						<path class="st24" d="M987.2,866.1c0,0,40.1,242.3,1.6,402.1l37.4-8.3l6.2-404.4L987.2,866.1L987.2,866.1z"/>
					</g>
				</g>
				<path class="st12" d="M944.1,875.6v-26.8c0-6.6,5.4-12,12-12h16.8c6.6,0,12,5.4,12,12v26.8"/>
			</g>
			<g>
				<g>
					<path class="st26" d="M1218.8,875.6h-137.3c0,0-2.3,203.9,18.7,335.7l10.9,28.3c0,0,40.6-12.8,79.8,0l10.9-32.4
						C1202,1207.2,1221.6,1114.1,1218.8,875.6L1218.8,875.6z"/>
					<path class="st27" d="M1111.2,1239.5l-3.4-9.5c0,0,43.7-12.6,86.4,0.1l-3.2,9.4"/>
					<g>
						<rect x="1135.2" y="889.3" class="st26" width="32.2" height="48.6"/>
						<line class="st26" x1="1135.2" y1="937.8" x2="1167.3" y2="889.3"/>
						<line class="st26" x1="1135.2" y1="889.3" x2="1167.3" y2="937.8"/>
					</g>
					<path class="st26" d="M1126.6,875.6c0,0,3.4,64-1.7,73.5s-13.8,27.4-42.5,22.6"/>
					<path class="st26" d="M1174.9,875.6c0,0-3.4,64,1.7,73.5s13.8,27.4,42.5,22.6"/>
					<path class="st26" d="M1083.8,1016.5c0,0,27.8,1.7,46.6-8.5s46.9,0,46.9,0s11.2,10.8,40.5,8.7"/>
					<line class="st27" x1="1194.2" y1="1230.2" x2="1191" y2="1239.5"/>
					<line class="st27" x1="1111.2" y1="1239.5" x2="1107.8" y2="1230"/>
					<g>
						<g>
							<line class="st28" x1="1115.3" y1="1238" x2="1111.9" y2="1228.6"/>
							<line class="st28" x1="1116" y1="1227.8" x2="1119.1" y2="1237.2"/>
							<line class="st28" x1="1120.3" y1="1227.3" x2="1123" y2="1236.7"/>
							<line class="st28" x1="1124.6" y1="1226.8" x2="1126.9" y2="1236.2"/>
							<line class="st28" x1="1128.9" y1="1226.3" x2="1130.8" y2="1235.7"/>
							<line class="st28" x1="1133.2" y1="1225.9" x2="1134.7" y2="1235.2"/>
							<line class="st28" x1="1137.4" y1="1225.4" x2="1138.6" y2="1234.7"/>
							<line class="st28" x1="1141.7" y1="1224.9" x2="1142.5" y2="1234.2"/>
							<line class="st28" x1="1146" y1="1224.4" x2="1146.4" y2="1233.7"/>
							<line class="st28" x1="1150.3" y1="1224.5" x2="1150.3" y2="1233.9"/>
						</g>
						<g>
							<line class="st28" x1="1188.7" y1="1238.8" x2="1192.1" y2="1229.4"/>
							<line class="st28" x1="1188.3" y1="1228.3" x2="1185.3" y2="1237.7"/>
							<line class="st28" x1="1184.2" y1="1227.3" x2="1181.5" y2="1236.7"/>
							<line class="st28" x1="1179.9" y1="1226.8" x2="1177.6" y2="1236.2"/>
							<line class="st28" x1="1175.6" y1="1226.3" x2="1173.7" y2="1235.7"/>
							<line class="st28" x1="1171.3" y1="1225.8" x2="1169.8" y2="1235.2"/>
							<line class="st28" x1="1167" y1="1225.3" x2="1165.9" y2="1234.7"/>
							<line class="st28" x1="1162.7" y1="1224.8" x2="1162" y2="1234.2"/>
							<line class="st28" x1="1158.5" y1="1224.3" x2="1158.1" y2="1233.7"/>
							<line class="st28" x1="1154.2" y1="1224.5" x2="1154.2" y2="1233.8"/>
						</g>
					</g>
				</g>
				<g>
					<defs>
						<path id="SVGID_00000047025875860110998100000004303506248110393534_" d="M1218.7,970.9c0.4-28.8,0.5-60.5,0.1-95.3h-137.3
							c0,0-0.5,40,0.9,96.1c0.3,14,0.8,29.1,1.4,44.8c2.4,62.9,7.1,136,16.5,194.8l7.3,18.8c-0.2,0-0.2,0.1-0.2,0.1h0.3l3.6,9.4
							c0,0,40.6-12.8,79.8,0l3.2-9.4l7.8-23c0,0,11.7-55.5,15.8-190.5c0.4-14.1,0.8-29,1-44.8c0.1,0,0.3,0,0.4-0.1L1218.7,970.9
							L1218.7,970.9z"/>
					</defs>
					<clipPath id="SVGID_00000096043830213699930940000010535898889912660632_">
						<use xlink:href="#SVGID_00000047025875860110998100000004303506248110393534_"  style="overflow:visible;"/>
					</clipPath>
					<g style="clip-path:url(#SVGID_00000096043830213699930940000010535898889912660632_);">
						<path class="st24" d="M1126.6,860.9c0,0-40.1,242.3-1.6,402.1l-37.4-8.3l-6.2-404.4L1126.6,860.9L1126.6,860.9z"/>
						<path class="st24" d="M1174,866.1c0,0,40.1,242.3,1.6,402.1l37.4-8.3l6.2-404.4L1174,866.1L1174,866.1z"/>
					</g>
				</g>
				<path class="st12" d="M1130.8,875.6v-26.8c0-6.6,5.4-12,12-12h16.8c6.6,0,12,5.4,12,12v26.8"/>
			</g>
		</g>
		<g>
			<path class="st31" d="M860.6,231.7c0,0,0,12.4,12.3,25.6c12.3,13.2,29.5,21.4,75.4,21.9h214.4c45.9-0.5,63.1-8.7,75.4-21.9
				c12.3-13.2,12.3-25.6,12.3-25.6"/>
			<g>
				<g>
					<path class="st32" d="M666.5,626.9c0.3,0,0.7,0.1,1,0.1"/>
					<path class="st33" d="M669.7,627.3c29.2,3.4,53.9,15.6,71.6,31.7"/>
					<path class="st32" d="M742.1,659.7c0.3,0.2,0.5,0.5,0.8,0.7"/>
				</g>
				<path class="st32" d="M668.1,621.8c32.1,3.4,58.9,17,77.4,35"/>
				<g>
					<path class="st32" d="M1451,632.7c-0.3,0-0.7,0.1-1,0.1"/>
					<path class="st33" d="M1447.8,633c-29.2,3.4-53.9,15.6-71.6,31.7"/>
					<path class="st32" d="M1375.4,665.5c-0.3,0.2-0.5,0.5-0.8,0.7"/>
				</g>
				<path class="st32" d="M1449.4,627.5c-32.1,3.4-58.9,17-77.4,35"/>
				<path class="st34" d="M868.7,726.1c0,0,113.2,17.8,142.6,20.5c29.4,2.7,80.7,2.1,97.8,0c17.1-2.1,136.8-20.2,136.8-20.2"/>
				<path class="st32" d="M868.7,714.9c0,0,113.2,17.8,142.6,20.5c29.4,2.7,80.7,2.1,97.8,0c17.1-2.1,136.4-20.1,136.4-20.1"/>
			</g>
			<line class="st35" x1="881.9" y1="464.4" x2="907.7" y2="275.7"/>
			<line class="st35" x1="1233.5" y1="469.5" x2="1212.3" y2="273.2"/>
			<line class="st26" x1="660.4" y1="636.8" x2="735.3" y2="671.7"/>
			<g>
				<path class="st17" d="M1005.2,188.4L1005.2,188.4l3.2,0C1006.3,188.4,1005.2,188.4,1005.2,188.4z"/>
				<path class="st17" d="M1455,637.9l-5.8-13l-197.8-390.5c-2-3.9-5.2-6.9-9.2-8.6l-31.8-13.8c0,0-65.7-24.6-75.9-23.6
					c-3.1,0.3-16.5,0.4-33.5,0.5c-10.8,3.9-25.7,7.9-42.1,8c-16.9-0.1-32.2-4.3-43-8.3c-4.8,0-8.6-0.1-10.9-0.1l-37.8,5.1L868,226.6
					c-3.5,1.2-6.4,3.7-8,7L660.4,636.8c0,0,20.3,22.2,34.9,26.7c14.6,4.6,40,8.2,40,8.2L882,464.4l-14.4,279.1h1
					c0,0,113.2,17.8,142.6,20.5c29.4,2.7,80.7,2.1,97.8,0c17.1-2.1,139.2-20.5,139.2-20.5h-1c0,0-14.4-270.9-14.4-277.6
					s148.8,210.9,148.8,210.9l0,0c0,0,26-2.7,40.6-7.2C1436.9,665.1,1455,637.9,1455,637.9L1455,637.9L1455,637.9z"/>
				<path class="st8" d="M1005.1,188.5c2.3,0,6,0.1,10.8,0.1c10.8,4,26.2,8.2,43,8.3c16.4-0.1,31.3-4.1,42.1-8
					c17,0,30.3-0.1,33.5-0.5c10.3-1,75.9,23.6,75.9,23.6l31.8,13.8c3.3,1.4,6,3.7,8,6.6c-0.2,2.7-1.7,13.6-12.3,25
					c-12.3,13.2-29.5,21.4-75.4,21.9H948.2c-45.9-0.5-63.1-8.7-75.4-21.9c-10.5-11.4-12-22.1-12.3-24.9c1.7-2.8,4.3-4.8,7.4-5.8
					l99.2-33.1L1005.1,188.5L1005.1,188.5L1005.1,188.5z"/>
			</g>
			<path class="st36" d="M659.7,636.7c0,0,20.3,22.2,34.9,26.7c14.6,4.6,40,8.2,40,8.2"/>
			<path class="st36" d="M1454.3,637.7c0,0-18.1,27.2-32.6,31.8s-40.6,7.2-40.6,7.2"/>
			<g>
				<defs>
					<path id="SVGID_00000009561219885432298660000007393182638185735586_" d="M1449.5,625l5.8,13c0,0-18.1,27.2-32.7,31.8
						c-7.3,2.3-17.4,4.1-25.7,5.3s-14.8,1.9-14.8,1.9S1240,469.2,1233.6,466l-20.8-192.6c11.8-3.8,19.3-9.2,25.5-15.9
						c10.6-11.4,12.1-22.2,12.3-25c0.4,0.6,0.8,1.3,1.2,2L1449.5,625L1449.5,625z"/>
				</defs>
				<clipPath id="SVGID_00000004527716029364973450000005658534173688495283_">
					<use xlink:href="#SVGID_00000009561219885432298660000007393182638185735586_"  style="overflow:visible;"/>
				</clipPath>
				<g style="clip-path:url(#SVGID_00000004527716029364973450000005658534173688495283_);">
					
						<rect x="1329.9" y="676.3" transform="matrix(0.9065 -0.4222 0.4222 0.9065 -155.9887 659.6292)" class="st14" width="162.8" height="11.4"/>
					<line class="st16" x1="1480.5" y1="644" x2="1370.5" y2="696.4"/>
				</g>
			</g>
			<g>
				<defs>
					<path id="SVGID_00000072971400991060037030000002166642662291818683_" d="M1449.9,624.9l-197.8-390.5c-2-3.9-5.2-6.9-9.2-8.6
						l-31.8-13.8c0,0-57.9-21.4-68.2-20.4l0,0l-24.5-3.5l0,0.2c-0.5-0.7-1-1.4-1.6-2h-9.4c0,0,0,0,0,0c0,0,0-0.1,0-0.1
						s-0.1,0.1-0.4,0.2c0,0-0.1,0-0.1,0.1c0,0,0,0,0,0c-1.6,0.8-6.5,2.9-13.9,5.1c0,0,0,0,0,0c-9,2.6-21.7,5.3-36.7,5.3
						s-27.2-2.6-35.8-5.3c0,0,0,0,0,0c-6.5-2-10.9-4-12.6-4.9c-0.6-0.3-0.9-0.5-0.9-0.5s0,0,0,0h-9.3c-0.6,0.6-1.1,1.3-1.6,2.1
						l0-0.3l-24.5,3.5l0,0l-102.8,35c-3.5,1.2-6.4,3.7-8,7L661.1,636.8c0,0,20.3,22.2,34.9,26.7c14.6,4.6,40,8.2,40,8.2l146.7-207.3
						l-14.4,279.1h1c0,0,113.2,17.8,142.6,20.5c29.4,2.7,80.7,2.1,97.8,0c17.1-2.1,139.2-20.5,139.2-20.5h-1
						c0,0-14.4-270.9-14.4-277.6s148.8,210.9,148.8,210.9l0,0c0,0,26-2.7,40.6-7.2s32.6-31.8,32.6-31.8L1449.9,624.9L1449.9,624.9z"
						/>
				</defs>
				<clipPath id="SVGID_00000145018182692930352870000014609191263274709124_">
					<use xlink:href="#SVGID_00000072971400991060037030000002166642662291818683_"  style="overflow:visible;"/>
				</clipPath>
				<g style="clip-path:url(#SVGID_00000145018182692930352870000014609191263274709124_);">
					<g class="st11">
						<path class="st12" d="M847.7,260.6L693.8,664l-35.6-23.7C658.2,640.3,810.1,272.9,847.7,260.6L847.7,260.6z"/>
						<path class="st12" d="M1264.3,260.6l165.4,425.4l35.6-23.7C1465.4,662.2,1302,272.9,1264.3,260.6L1264.3,260.6z"/>
						<path class="st12" d="M909.8,273.2L909.8,273.2c-36.3,157,16.2,324.1-20.2,481.2c-22.4-2.5-44.9-5.1-67.3-7.6
							C881.1,592.3,851,427.7,909.8,273.2L909.8,273.2z"/>
						<path class="st12" d="M1210,272.2L1210,272.2c35.9,157.1-17,324.1,18.9,481.2c22.4-2.5,44.9-4.9,67.3-7.4
							C1237.9,591.3,1268.4,426.8,1210,272.2L1210,272.2z"/>
					</g>
				</g>
			</g>
		</g>
		<g>
			<g>
				<defs>
					<path id="SVGID_00000114790807770749271070000013135513344408462525_" d="M246.5,779v576.6h426.3V779H246.5z M602,1239.8
						c-5,9.6-42.4,15.1-42.4,15.1c-49.3,7.8-89.9-12.3-89.9-12.3v40.6c-49.7,64.3-166.1,10.4-166.1,10.4
						c-5.5-141.3,12.7-299.3,12.7-299.3l7.3-38.7l1.2-5.4c-5-24.2,7.8-60.2,7.8-60.2c4.3,8.2,3.6,7.3,13.2,13.9
						c9.6,6.6,53.1,18.2,60,21.4c6.8,3.2,10.5,11.6,15.5,17.8c5,6.2,78.4,5.5,78.4,5.5s10.3,0.2,10.5-0.2c0.2-0.5,1.6-3.6,1.6-3.6
						l45.2-10.9c0,0,3.2-0.9,5,2.7c1.8,3.6,24.2-18.7,24.2-18.7c2.7,9.6,3.2,27.8,4.1,36c0.9,8.2-3.2,12.3-3.2,15.1
						s1.8,13.2,7.3,28.3s12.8,96.7,12.8,120.4S602,1239.8,602,1239.8L602,1239.8z"/>
				</defs>
				<clipPath id="SVGID_00000114048933637569544450000017682148993711305124_">
					<use xlink:href="#SVGID_00000114790807770749271070000013135513344408462525_"  style="overflow:visible;"/>
				</clipPath>
				<g style="clip-path:url(#SVGID_00000114048933637569544450000017682148993711305124_);">
					<path class="st40" d="M333.9,843.5c0,0,18.7-2.7,22,0c0,0,0-17.8,2.3-24.6s11.2-16.4,25.3-17.8s38.3-0.5,42.1,2.3
						c3.7,2.7,15,22.8,15,31.9l36.9-5.9c0,0,39.1-2.7,51.8-2.7s36.6,3.6,39.4,6.8s3.3-3.2,7.5,18.2c4.2,21.4,11.3,66.3,9.8,72.1
						c-1.5,5.8,0,33.1-31.8,34.8C522.4,960.3,319.2,911.5,333.9,843.5L333.9,843.5z"/>
					<path class="st41" d="M479.7,916.1c0,0,8.6,15.8,15.1,21.3s13,7.9,14,4.5s5.8-4.5,5.8-4.5s44.8-10.2,48.6-10.6
						s5.8-13.5,3.8-15.3c-2.1-1.8-10.6-17.2-37.6-13.1S481.4,905.7,479.7,916.1L479.7,916.1z"/>
					<path class="st40" d="M496.7,954.6c0,0-37.4-64.6-71.5-77.8s-63.1-14.6-73-18.7c-9.8-4.1-16.4,0-17.3-7.3l-0.9-7.3h-3.3
						c0,0-1.1,10.6,0,20.1c0.3,2.7,3.2,4.4,3.2,4.4s-1.9,22.6-1.2,28c0.7,5.7,44.3,51.5,44.3,51.5l79.1,31.9L496.7,954.6
						L496.7,954.6z"/>
					<path class="st41" d="M415.1,803.8c0,0-35.4-6.8-43.8,5.5c-8.4,12.3-11.6,21.5-6.3,34.2c5.3,12.7,12.6,17.8,17.5,17.8
						s39.3,0.3,43.5-5.1s6.7-8.2,4.6-21.2C428.4,822,429.1,812.1,415.1,803.8L415.1,803.8z"/>
					<path class="st41" d="M576.2,855.5c0,0-6.1,37.6-10.3,38.3s-51.1,0.3-69.2-8.6c-18.1-8.9-25.8-18.8-31.5-23.9
						c-5.6-5.1-9.8-7.5-7-14.4c2.8-6.8,9.8-15.9,42.8-15.3S577,823,576.2,855.5L576.2,855.5z"/>
					<path class="st42" d="M425.6,806.9c0,0,13.7,31.8,13,48.6s-1.4,22.4,3.9,24s36.1,7.3,40,16.4"/>
					<path class="st42" d="M442.4,858.2c0,0,32.9-12.3,62.7-10.9c29.9,1.4,53.8,5.1,58.9,8.9c5,3.8,14.6,8.9,14.6,8.9"/>
					<path class="st42" d="M558.5,909.8c-29.3-16.7-73.7,6.3-73.7,6.3"/>
					<path class="st41" d="M337,858.7c0,0,78.8,15,92,25.6s46.5,46.8,50.7,53.3c4.2,6.5,5.7,11.6-11.5,8.6
						c-11.6-2-25.3-3.5-33.1-4.3c-3.9-0.4-7.5-2.3-10-5.3c-2.1-2.5-4.8-5.8-7.9-9.5c-6.8-8.1-4.7-4.7-19.8-9.1s-42.7-9.4-52.6-19.2
						C334.9,888.8,335.3,863.5,337,858.7L337,858.7z"/>
					<path class="st43" d="M576.2,851.7c0,0-2.9,41.6-10.7,49.8c-7.8,8.2-17.8,41.6-0.6,34.9"/>
				</g>
			</g>
			<g>
				<defs>
					<path id="SVGID_00000160888920167390341410000011828804191992014252_" d="M332.4,890c0,0-12.8,36-7.8,60.2l-1.2,5.4l-7.3,38.7
						c0,0-18.1,158-12.7,299.3c0,0,116.4,53.9,166.1-10.4v-40.6c0,0,40.6,20.1,89.8,12.3c0,0,37.4-5.5,42.4-15.1c0,0,5-98.5,5-122.2
						s-7.3-105.4-12.8-120.4c-5.5-15.1-7.3-25.5-7.3-28.3s4.1-6.8,3.2-15.1s-1.4-26.5-4.1-36c0,0-22.3,22.3-24.2,18.7s-5-2.7-5-2.7
						l-45.2,10.9c0,0-1.4,3.2-1.6,3.6s-10.5,0.2-10.5,0.2s-73.4,0.7-78.4-5.5c-5-6.2-8.7-14.6-15.5-17.8c-6.8-3.2-50.4-14.8-60-21.4
						S336.8,898.2,332.4,890L332.4,890z"/>
				</defs>
				<clipPath id="SVGID_00000127015183612228291260000013840946661159203221_">
					<use xlink:href="#SVGID_00000160888920167390341410000011828804191992014252_"  style="overflow:visible;"/>
				</clipPath>
				<g style="clip-path:url(#SVGID_00000127015183612228291260000013840946661159203221_);">
					<g class="st45">
						<path class="st26" d="M332.4,890c0,0-12.8,36-7.8,60.2l-1.2,5.4l-7.3,38.7c0,0-18.1,158-12.7,299.3c0,0,116.4,53.9,166.1-10.4
							v-40.6c0,0,40.6,20.1,89.8,12.3c0,0,37.4-5.5,42.4-15.1c0,0,5-98.5,5-122.2s-7.3-105.4-12.8-120.4
							c-5.5-15.1-7.3-25.5-7.3-28.3s4.1-6.8,3.2-15.1s-1.4-26.5-4.1-36c0,0-22.3,22.3-24.2,18.7s-5-2.7-5-2.7l-45.2,10.9
							c0,0-1.4,3.2-1.6,3.6s-10.5,0.2-10.5,0.2s-73.4,0.7-78.4-5.5c-5-6.2-8.7-14.6-15.5-17.8c-6.8-3.2-50.4-14.8-60-21.4
							S336.8,898.2,332.4,890L332.4,890z"/>
						<path class="st24" d="M498,1108.4l-43.2,63.9l4.9,134.1l47.4-42.4v-117.2l31.5-29.2l11.9-58.8c0,0-25.1,54.3-28.7,54.7
							C518,1113.9,512.1,1116.6,498,1108.4L498,1108.4z"/>
						<path class="st24" d="M324.7,950.2c0,0,4.6,9.1,19.6,14.1c15.1,5,43.8,16.9,100.8,21.4l45.2,1.8l1.8,12.2l-49.7-1.8
							c-57-4.6-85.7-16.4-100.8-21.4c-15.1-5-19.6-14.1-19.6-14.1"/>
						<path class="st46" d="M490.2,1120c0,0-25.5-60.3-26.4-70.8S451,991.7,451,991.7s-93.5-6.8-122.7-29.2l-4.8-7"/>
						<path class="st46" d="M328.8,902.2c0,0,33.8,19.3,56.6,23.8s21,13.2,25.1,17.8s7.8,7.8,29.2,9.6s47.4,4.1,47.4,4.1"/>
						<polyline class="st46" points="520.3,1033.2 516.2,950.2 553.2,941.5 						"/>
						<path class="st46" d="M560,941.5c0,0,20.4-4.1,23.7-11.7"/>
						<path class="st46" d="M303.3,1286.8c0,0,30,15.7,77.9,19.6c0,0,43.3,0,57-5.5c13.7-5.5,25.5-16,27.8-18.2"/>
						<polyline class="st46" points="502.6,1138.3 497.1,1158.6 497.1,1251.8 						"/>
						<path class="st46" d="M497.1,1243.4c0,0,45.2,5.9,62,4.1s40.5-12.6,43.3-15.4"/>
						<polyline class="st46" points="586.5,989.4 567.3,1065.1 479.3,1156.3 						"/>
						<g>
							<polyline class="st26" points="490.2,950.2 490.2,987.6 496.8,1036.2 502.6,1069.1 498,1108.4 467.4,1185 467.4,1303.2 
															"/>
							<polyline class="st26" points="454.8,986.1 468.1,1044.5 479.7,1084.1 492.1,1114.9 							"/>
							<path class="st26" d="M556.8,933.7l5,41.2l-7.2,52.7l-4.2,31c0,0-7.9,6.6-47.8,10.4"/>
							<polyline class="st26" points="496.8,1036.2 516.2,1036.2 554.7,1027.7 							"/>
							<polyline class="st26" points="585.1,975 563.9,1061.9 482.6,1148.2 							"/>
						</g>
						<path class="st46" d="M501.9,1065.3c0,0,28.4,0.5,48.5-10.9"/>
						<path class="st24" d="M586,917.8c0,0-0.5,17.8,0,30.1c0.5,12.3,2.5,14.7-4.8,19.1s-19.3,8-19.3,8l-1.7,12.4
							c0,0,16.9-5.9,20.7-8c3.7-2.1,7-3.8,6.6-6c-0.3-2.2,2.7-15.2,2.8-16.2S586,917.8,586,917.8L586,917.8z"/>
						<path class="st24" d="M557.2,936.9c0,0-43.9,9.7-43.9,11.4s3,87.9,3,87.9h-3l-3.2-87.9l1.6-3.6l45.2-10.9L557.2,936.9
							L557.2,936.9z"/>
					</g>
				</g>
			</g>
		</g>
		<g>
			<g>
				<defs>
					<path id="SVGID_00000143599542021763742560000015526496716537502354_" d="M13.5,154.6v722.6h867.9V154.6H13.5z M841,639.4
						c-3.8,5.5-19.6,27.5-33,31.7c-6.1,1.9-14.9,3.7-26,5.4c-7.9,1.2-14.2,1.8-14.9,1.9l-0.9,0.1l-0.5-0.7
						c-56.7-82.9-142.9-207.3-148-210.5l-0.7-0.4l-21-194.7l1.2-0.4c10.3-3.3,18-8.1,24.9-15.5c10.1-11,11.6-21.2,11.9-24.1l0.3-4.3
						l2.4,3.6c0.5,0.7,0.9,1.4,1.3,2.2l197.8,390.5l6.8,15.1H841L841,639.4z"/>
				</defs>
				<clipPath id="SVGID_00000085225363483440809110000008667594041462164618_">
					<use xlink:href="#SVGID_00000143599542021763742560000015526496716537502354_"  style="overflow:visible;"/>
				</clipPath>
				<g style="clip-path:url(#SVGID_00000085225363483440809110000008667594041462164618_);">
					<g>
						<path class="st48" d="M508.2,279.3h1.6h37.5c45.9-0.5,63.1-8.7,75.4-21.9c12.3-13.2,12.3-25.6,12.3-25.6"/>
						<path class="st48" d="M245.2,231.7c0,0,0,12.4,12.3,25.6c12.3,13.2,29.5,21.4,75.4,21.9h39.9"/>
						<g>
							<g>
								<path class="st32" d="M51.2,626.9c0.3,0,0.7,0.1,1,0.1"/>
								<path class="st33" d="M54.3,627.3c29.2,3.4,53.9,15.6,71.6,31.7"/>
								<path class="st32" d="M126.7,659.7c0.3,0.2,0.5,0.5,0.8,0.7"/>
							</g>
							<path class="st32" d="M52.8,621.8c32.1,3.4,58.9,17,77.4,35"/>
							<g>
								<path class="st32" d="M835.6,632.7c-0.3,0-0.7,0.1-1,0.1"/>
								<path class="st33" d="M832.5,633c-29.2,3.4-53.9,15.6-71.6,31.7"/>
								<path class="st32" d="M760,665.5c-0.3,0.2-0.5,0.5-0.8,0.7"/>
							</g>
							<path class="st32" d="M834,627.5c-32.1,3.4-58.9,17-77.4,35"/>
							<line class="st34" x1="252.5" y1="733.1" x2="632.2" y2="733.1"/>
							<line class="st32" x1="252.5" y1="724.7" x2="632.2" y2="724.7"/>
						</g>
						<line class="st35" x1="266.7" y1="464.4" x2="292.5" y2="275.7"/>
						<line class="st35" x1="618.3" y1="469.5" x2="597.1" y2="273.2"/>
						<line class="st17" x1="45" y1="636.8" x2="119.9" y2="671.7"/>
						<line class="st26" x1="766.4" y1="676.9" x2="839.6" y2="637.9"/>
						<g>
							<path class="st17" d="M490.7,186.5c0.1,0,0.1,0,0.1-0.1C490.8,186.5,490.8,186.5,490.7,186.5z"/>
							<path class="st17" d="M476.8,191.6c7.4-2.2,12.3-4.3,13.9-5.1C489.1,187.3,484.2,189.5,476.8,191.6z"/>
							<path class="st17" d="M833.8,624.9L636.1,234.4c-2-3.9-5.2-6.9-9.2-8.6L595.1,212c0,0-57.9-21.4-68.2-20.4l0,0l-24.5-3.5
								l0,0.2c-0.5-0.7-1-1.4-1.6-2h-9.4c0,0,0,0,0,0c0,0,0-0.1,0-0.1s-0.1,0.1-0.4,0.2c0,0-0.1,0-0.1,0.1c0,0,0,0,0,0
								c-1.6,0.8-6.5,2.9-13.9,5.1c0,0,0,0,0,0c-9,2.6-21.7,5.3-36.7,5.3s-27.2-2.6-35.8-5.3c0,0,0,0,0,0c-6.5-2-10.9-4-12.6-4.9
								c-0.6-0.3-0.9-0.5-0.9-0.5s0,0,0,0h-9.3c-0.6,0.6-1.1,1.3-1.6,2.1l0-0.3l-24.5,3.5l0,0l-102.8,35c-3.5,1.2-6.4,3.7-8,7
								L45,636.8c0,0,20.3,22.2,34.9,26.7c14.6,4.6,40,8.2,40,8.2l146.7-207.3l-14.4,279.1h1c0,0,113.2,17.8,142.6,20.5
								c29.4,2.7,80.7,2.1,97.8,0C510.9,762,633,743.6,633,743.6h-1c0,0-14.4-270.9-14.4-277.6s148.8,210.9,148.8,210.9l0,0
								c0,0,26-2.7,40.6-7.2s32.6-31.8,32.6-31.8L833.8,624.9L833.8,624.9z"/>
						</g>
						<path class="st36" d="M252.6,743.4c0,0,113.2,17.8,142.6,20.5c29.4,2.7,80.7,2.1,97.8,0c17.1-2.1,139.2-20.5,139.2-20.5"/>
						<path class="st36" d="M44.3,636.7c0,0,20.3,22.2,34.9,26.7c14.6,4.6,40,8.2,40,8.2"/>
						<path class="st36" d="M838.9,637.7c0,0-18.1,27.2-32.6,31.8c-14.6,4.6-40.6,7.2-40.6,7.2"/>
						<g>
							<defs>
								<path id="SVGID_00000149347645580928967960000013861486378802925745_" d="M833.8,624.9L636.1,234.4c-2-3.9-5.2-6.9-9.2-8.6
									L595.1,212c0,0-57.9-21.4-68.2-20.4l0,0l-24.5-3.5l0,0.2c-0.5-0.7-1-1.4-1.6-2h-9.4c0,0,0,0,0,0c0,0,0-0.1,0-0.1
									s-0.1,0.1-0.4,0.2c0,0-0.1,0-0.1,0.1c0,0,0,0,0,0c-1.6,0.8-6.5,2.9-13.9,5.1c0,0,0,0,0,0c-9,2.6-21.7,5.3-36.7,5.3
									s-27.2-2.6-35.8-5.3c0,0,0,0,0,0c-6.5-2-10.9-4-12.6-4.9c-0.6-0.3-0.9-0.5-0.9-0.5s0,0,0,0h-9.3c-0.6,0.6-1.1,1.3-1.6,2.1
									l0-0.3l-24.5,3.5l0,0l-102.8,35c-3.5,1.2-6.4,3.7-8,7L45,636.8c0,0,20.3,22.2,34.9,26.7c14.6,4.6,40,8.2,40,8.2l146.7-207.3
									l-14.4,279.1h1c0,0,113.2,17.8,142.6,20.5c29.4,2.7,80.7,2.1,97.8,0C510.9,762,633,743.6,633,743.6h-1
									c0,0-14.4-270.9-14.4-277.6s148.8,210.9,148.8,210.9l0,0c0,0,26-2.7,40.6-7.2s32.6-31.8,32.6-31.8L833.8,624.9L833.8,624.9z
									"/>
							</defs>
							<clipPath id="SVGID_00000137836654245462401150000001026599099060282804_">
								<use xlink:href="#SVGID_00000149347645580928967960000013861486378802925745_"  style="overflow:visible;"/>
							</clipPath>
							<g style="clip-path:url(#SVGID_00000137836654245462401150000001026599099060282804_);">
								<g>
									<path class="st8" d="M231.6,260.6L77.7,664l-35.6-23.7C42.1,640.3,194,272.9,231.6,260.6z"/>
									<path class="st8" d="M648.3,260.6L810,676.9l40.1-17.2C850.1,659.7,685.9,272.9,648.3,260.6L648.3,260.6z"/>
									<path class="st8" d="M293.7,273.2L293.7,273.2c-36.3,157,16.2,324.1-20.2,481.2c-22.4-2.5-44.9-5.1-67.3-7.6
										C265,592.3,234.9,427.7,293.7,273.2L293.7,273.2z"/>
									<path class="st8" d="M595.4,273.2L595.4,273.2c36.3,157-16.2,324.1,20.2,481.2c22.4-2.5,44.9-5.1,67.3-7.6
										C624.1,592.3,654.1,427.7,595.4,273.2L595.4,273.2z"/>
								</g>
							</g>
						</g>
					</g>
				</g>
			</g>
			<g>
				<g>
					<defs>
						<path id="SVGID_00000180337259452693260120000008416149963786164643_" d="M806.2,570.4l-57.4,80.7
							c10.5,15.4,17.2,25.1,17.2,25.1s6.5-0.7,14.8-1.9c8.3-1.2,18.4-3,25.7-5.3c14.6-4.6,32.6-31.8,32.7-31.8l-5.8-13L806.2,570.4
							L806.2,570.4z"/>
					</defs>
					<clipPath id="SVGID_00000047759858029494699190000002102269684468373947_">
						<use xlink:href="#SVGID_00000180337259452693260120000008416149963786164643_"  style="overflow:visible;"/>
					</clipPath>
					<g style="clip-path:url(#SVGID_00000047759858029494699190000002102269684468373947_);">
						<path class="st48" d="M507.9,278.6h1.6h37.5c45.9-0.5,63.1-8.7,75.4-21.9c12.3-13.2,12.3-25.6,12.3-25.6"/>
						<path class="st48" d="M244.8,231c0,0,0,12.4,12.3,25.6c12.3,13.2,29.5,21.4,75.4,21.9h39.9"/>
						<g>
							<g>
								<path class="st32" d="M50.8,626.2c0.3,0,0.7,0.1,1,0.1"/>
								<path class="st33" d="M54,626.6c29.2,3.4,53.9,15.6,71.6,31.7"/>
								<path class="st32" d="M126.4,659c0.3,0.2,0.5,0.5,0.8,0.7"/>
							</g>
							<path class="st32" d="M52.4,621.1c32.1,3.4,58.9,17,77.4,35"/>
							<g>
								<path class="st32" d="M835.3,632c-0.3,0-0.7,0.1-1,0.1"/>
								<path class="st33" d="M832.1,632.3c-29.2,3.4-53.9,15.6-71.6,31.7"/>
								<path class="st32" d="M759.7,664.8c-0.3,0.2-0.5,0.5-0.8,0.7"/>
							</g>
							<path class="st32" d="M833.6,626.8c-32.1,3.4-58.9,17-77.4,35"/>
							<line class="st34" x1="252.1" y1="732.4" x2="631.8" y2="732.4"/>
							<line class="st32" x1="252.1" y1="724" x2="631.8" y2="724"/>
						</g>
						<line class="st35" x1="266.3" y1="463.7" x2="292.1" y2="275"/>
						<line class="st35" x1="617.9" y1="468.8" x2="596.7" y2="272.5"/>
						<line class="st17" x1="44.7" y1="636.1" x2="119.6" y2="671"/>
						<line class="st26" x1="766.1" y1="676.2" x2="839.3" y2="637.2"/>
						<g>
							<path class="st17" d="M490.4,185.8c0.1,0,0.1,0,0.1-0.1C490.5,185.8,490.4,185.8,490.4,185.8z"/>
							<path class="st17" d="M476.5,190.9c7.4-2.2,12.3-4.3,13.9-5.1C488.7,186.6,483.9,188.8,476.5,190.9z"/>
							<path class="st17" d="M833.5,624.2L635.7,233.7c-2-3.9-5.2-6.9-9.2-8.6l-31.8-13.8c0,0-57.9-21.4-68.2-20.4l0,0l-24.5-3.5
								l0,0.2c-0.5-0.7-1-1.4-1.6-2H491c0,0,0,0,0,0c0,0,0-0.1,0-0.1s-0.1,0.1-0.4,0.2c0,0-0.1,0-0.1,0.1c0,0,0,0,0,0
								c-1.6,0.8-6.5,2.9-13.9,5.1c0,0,0,0,0,0c-9,2.6-21.7,5.3-36.7,5.3s-27.2-2.6-35.8-5.3c0,0,0,0,0,0c-6.5-2-10.9-4-12.6-4.9
								c-0.6-0.3-0.9-0.5-0.9-0.5s0,0,0,0h-9.3c-0.6,0.6-1.1,1.3-1.6,2.1l0-0.3l-24.5,3.5l0,0l-102.8,35c-3.5,1.2-6.4,3.7-8,7
								L44.7,636.1c0,0,20.3,22.2,34.9,26.7c14.6,4.6,40,8.2,40,8.2l146.7-207.3l-14.4,279.1h1c0,0,113.2,17.8,142.6,20.5
								c29.4,2.7,80.7,2.1,97.8,0c17.1-2.1,139.2-20.5,139.2-20.5h-1c0,0-14.4-270.9-14.4-277.6s148.8,210.9,148.8,210.9l0,0
								c0,0,26-2.7,40.6-7.2s32.6-31.8,32.6-31.8L833.5,624.2L833.5,624.2z"/>
						</g>
						<path class="st36" d="M252.3,742.7c0,0,113.2,17.8,142.6,20.5c29.4,2.7,80.7,2.1,97.8,0c17.1-2.1,139.2-20.5,139.2-20.5"/>
						<path class="st36" d="M44,636c0,0,20.3,22.2,34.9,26.7c14.6,4.6,40,8.2,40,8.2"/>
						<path class="st36" d="M838.6,637c0,0-18.1,27.2-32.6,31.8c-14.6,4.6-40.6,7.2-40.6,7.2"/>
						<g>
							<defs>
								<path id="SVGID_00000078029181486357776360000009877861859090931081_" d="M833.5,624.2L635.7,233.7c-2-3.9-5.2-6.9-9.2-8.6
									l-31.8-13.8c0,0-57.9-21.4-68.2-20.4l0,0l-24.5-3.5l0,0.2c-0.5-0.7-1-1.4-1.6-2H491c0,0,0,0,0,0c0,0,0-0.1,0-0.1
									s-0.1,0.1-0.4,0.2c0,0-0.1,0-0.1,0.1c0,0,0,0,0,0c-1.6,0.8-6.5,2.9-13.9,5.1c0,0,0,0,0,0c-9,2.6-21.7,5.3-36.7,5.3
									s-27.2-2.6-35.8-5.3c0,0,0,0,0,0c-6.5-2-10.9-4-12.6-4.9c-0.6-0.3-0.9-0.5-0.9-0.5s0,0,0,0h-9.3c-0.6,0.6-1.1,1.3-1.6,2.1
									l0-0.3l-24.5,3.5l0,0l-102.8,35c-3.5,1.2-6.4,3.7-8,7L44.7,636.1c0,0,20.3,22.2,34.9,26.7c14.6,4.6,40,8.2,40,8.2
									l146.7-207.3l-14.4,279.1h1c0,0,113.2,17.8,142.6,20.5c29.4,2.7,80.7,2.1,97.8,0c17.1-2.1,139.2-20.5,139.2-20.5h-1
									c0,0-14.4-270.9-14.4-277.6s148.8,210.9,148.8,210.9l0,0c0,0,26-2.7,40.6-7.2s32.6-31.8,32.6-31.8L833.5,624.2L833.5,624.2z
									"/>
							</defs>
							<clipPath id="SVGID_00000021095752145723811680000017851462634065885577_">
								<use xlink:href="#SVGID_00000078029181486357776360000009877861859090931081_"  style="overflow:visible;"/>
							</clipPath>
							<g style="clip-path:url(#SVGID_00000021095752145723811680000017851462634065885577_);">
								<g class="st11">
									<path class="st12" d="M231.3,259.9L77.4,663.3l-35.6-23.7C41.8,639.6,193.7,272.2,231.3,259.9z"/>
									<path class="st12" d="M647.9,259.9l161.7,416.4l40.1-17.2C849.7,659,685.6,272.2,647.9,259.9L647.9,259.9z"/>
									<path class="st12" d="M293.4,272.5L293.4,272.5c-36.3,157,16.2,324.1-20.2,481.2c-22.4-2.5-44.9-5.1-67.3-7.6
										C264.7,591.6,234.6,427,293.4,272.5L293.4,272.5z"/>
									<path class="st12" d="M595,272.5L595,272.5c36.3,157-16.2,324.1,20.2,481.2c22.4-2.5,44.9-5.1,67.3-7.6
										C623.7,591.6,653.8,427,595,272.5L595,272.5z"/>
								</g>
							</g>
						</g>
					</g>
				</g>
				<g>
					<defs>
						<path id="SVGID_00000041280468168313101560000005120180177499341729_" d="M748.6,456.8l-113-223c-0.3-0.7-0.7-1.4-1.2-2
							c-0.2,2.7-1.7,13.6-12.3,25c-6.2,6.7-13.7,12.1-25.5,15.9l20.8,192.6c3.2,1.6,39.3,52.8,75.1,104.4L748.6,456.8L748.6,456.8z"
							/>
					</defs>
					<clipPath id="SVGID_00000044170604012092872780000001553423683582087862_">
						<use xlink:href="#SVGID_00000041280468168313101560000005120180177499341729_"  style="overflow:visible;"/>
					</clipPath>
					<g style="clip-path:url(#SVGID_00000044170604012092872780000001553423683582087862_);">
						<path class="st48" d="M507.9,278.6h1.6h37.5c45.9-0.5,63.1-8.7,75.4-21.9c12.3-13.2,12.3-25.6,12.3-25.6"/>
						<path class="st48" d="M244.8,231c0,0,0,12.4,12.3,25.6c12.3,13.2,29.5,21.4,75.4,21.9h39.9"/>
						<g>
							<g>
								<path class="st32" d="M50.8,626.2c0.3,0,0.7,0.1,1,0.1"/>
								<path class="st33" d="M54,626.6c29.2,3.4,53.9,15.6,71.6,31.7"/>
								<path class="st32" d="M126.4,659c0.3,0.2,0.5,0.5,0.8,0.7"/>
							</g>
							<path class="st32" d="M52.4,621.1c32.1,3.4,58.9,17,77.4,35"/>
							<g>
								<path class="st32" d="M835.3,632c-0.3,0-0.7,0.1-1,0.1"/>
								<path class="st33" d="M832.1,632.3c-29.2,3.4-53.9,15.6-71.6,31.7"/>
								<path class="st32" d="M759.7,664.8c-0.3,0.2-0.5,0.5-0.8,0.7"/>
							</g>
							<path class="st32" d="M833.6,626.8c-32.1,3.4-58.9,17-77.4,35"/>
							<line class="st34" x1="252.1" y1="732.4" x2="631.8" y2="732.4"/>
							<line class="st32" x1="252.1" y1="724" x2="631.8" y2="724"/>
						</g>
						<line class="st35" x1="266.3" y1="463.7" x2="292.1" y2="275"/>
						<line class="st35" x1="617.9" y1="468.8" x2="596.7" y2="272.5"/>
						<line class="st17" x1="44.7" y1="636.1" x2="119.6" y2="671"/>
						<line class="st26" x1="766.1" y1="676.2" x2="839.3" y2="637.2"/>
						<g>
							<path class="st17" d="M490.4,185.8c0.1,0,0.1,0,0.1-0.1C490.5,185.8,490.4,185.8,490.4,185.8z"/>
							<path class="st17" d="M476.5,190.9c7.4-2.2,12.3-4.3,13.9-5.1C488.7,186.6,483.9,188.8,476.5,190.9z"/>
							<path class="st17" d="M833.5,624.2L635.7,233.7c-2-3.9-5.2-6.9-9.2-8.6l-31.8-13.8c0,0-57.9-21.4-68.2-20.4l0,0l-24.5-3.5
								l0,0.2c-0.5-0.7-1-1.4-1.6-2H491c0,0,0,0,0,0c0,0,0-0.1,0-0.1s-0.1,0.1-0.4,0.2c0,0-0.1,0-0.1,0.1c0,0,0,0,0,0
								c-1.6,0.8-6.5,2.9-13.9,5.1c0,0,0,0,0,0c-9,2.6-21.7,5.3-36.7,5.3s-27.2-2.6-35.8-5.3c0,0,0,0,0,0c-6.5-2-10.9-4-12.6-4.9
								c-0.6-0.3-0.9-0.5-0.9-0.5s0,0,0,0h-9.3c-0.6,0.6-1.1,1.3-1.6,2.1l0-0.3l-24.5,3.5l0,0l-102.8,35c-3.5,1.2-6.4,3.7-8,7
								L44.7,636.1c0,0,20.3,22.2,34.9,26.7c14.6,4.6,40,8.2,40,8.2l146.7-207.3l-14.4,279.1h1c0,0,113.2,17.8,142.6,20.5
								c29.4,2.7,80.7,2.1,97.8,0c17.1-2.1,139.2-20.5,139.2-20.5h-1c0,0-14.4-270.9-14.4-277.6s148.8,210.9,148.8,210.9l0,0
								c0,0,26-2.7,40.6-7.2s32.6-31.8,32.6-31.8L833.5,624.2L833.5,624.2z"/>
						</g>
						<path class="st36" d="M252.3,742.7c0,0,113.2,17.8,142.6,20.5c29.4,2.7,80.7,2.1,97.8,0c17.1-2.1,139.2-20.5,139.2-20.5"/>
						<path class="st36" d="M44,636c0,0,20.3,22.2,34.9,26.7c14.6,4.6,40,8.2,40,8.2"/>
						<path class="st36" d="M838.6,637c0,0-18.1,27.2-32.6,31.8c-14.6,4.6-40.6,7.2-40.6,7.2"/>
						<path class="st53" d="M806.2,570.4l-57.4,80.7c10.5,15.4,17.2,25.1,17.2,25.1s6.5-0.7,14.8-1.9c8.3-1.2,18.4-3,25.7-5.3
							c14.6-4.6,32.6-31.8,32.7-31.8l-5.8-13L806.2,570.4L806.2,570.4z"/>
					</g>
				</g>
			</g>
		</g>
	</g>
	<path class="st54" d="M499.9,206.4c0.5,3,0.7,6.5,0.7,10.4c0,22.1-9,47.4-39,64l-0.2-0.5h-40.2l-0.1,0.1
		c-29.6-16.6-38.4-41.7-38.4-63.7c0-3.7,0.2-7,0.7-10c2.9,1.5,22.5,10.6,57.6,10.6C476.6,217.4,497.6,207.5,499.9,206.4L499.9,206.4
		z"/>
	<g>
		<g>
			<g>
				<path d="M459.4,304.9l0.1-0.1c0.3-0.3,0.5-0.7,0.5-1.2l0-2.6c0-0.5-0.2-0.9-0.5-1.2l-1.7-1.5c-0.3-0.2-0.6-0.4-1-0.4l-1.1,0
					c0.3-1.3,0.9-2.4,1.4-3.3l0.1-0.2c0.3-0.5,0.3-1.1,0-1.6c-0.3-0.5-0.8-0.8-1.4-0.7c-0.4,0-1.7-0.5-2.3-1.3
					c-0.4-0.5-0.7-1.3-0.7-2.4c0-0.7-0.5-1.2-1.1-1.4c-0.6-0.2-1.3,0-1.7,0.5c-0.5,0.6-2.1,1.6-3.1,1.6c-1.8,0-3.6-0.7-4.6-1.9
					c-0.3-0.3-0.7-0.5-1.1-0.5s-0.9,0.2-1.1,0.5c-1,1.1-2.8,1.8-4.6,1.8c-1,0-2.6-1-3.1-1.7c-0.4-0.5-1.1-0.8-1.7-0.6
					c-0.6,0.2-1.1,0.7-1.1,1.4c-0.1,1-0.3,1.8-0.8,2.3c-0.7,0.8-2,1.3-2.4,1.3c-0.6,0-1.1,0.2-1.4,0.7c-0.3,0.5-0.3,1.1-0.1,1.6
					l0.1,0.2c0.5,0.9,1.1,2,1.3,3.3l-0.8,0c-0.4,0-0.7,0.1-1,0.4l-1.9,1.6c-0.4,0.3-0.6,0.7-0.6,1.2l-0.1,5.5c0,0.5,0.2,0.9,0.5,1.2
					l2,1.7c0.1,0.1,0.3,0.2,0.4,0.2c0.5,3.1,2.2,5.6,5.2,7.2c2.4,1.4,5.2,1.9,7.1,2.4c0.8,0.2,1.5,0.3,2,0.5c0.1,0,0.3,0.2,0.4,0.3
					c0.3,0.4,0.7,0.6,1.2,0.6l0,0c0.5,0,0.9-0.2,1.2-0.6c0.1-0.1,0.3-0.2,0.4-0.3c0.5-0.1,1.2-0.3,2-0.4c2-0.4,4.7-0.9,7.2-2.2
					c2.9-1.6,4.7-3.9,5.3-7l1.8,0c0.9,0,1.6-0.7,1.6-1.5l0-2C460.4,305.7,460,305.1,459.4,304.9z"/>
				<g>
					<g>
						<g>
							<g>
								<g>
									<g>
										<path id="SVGID_00000152967607851902967410000012005988825395690908_" class="st55" d="M428.5,294.2c1-0.4,2-1,2.7-1.9
											c0.4-0.5,0.7-1,0.9-1.6c1.1,0.7,2.4,1.2,3.5,1.2c2.1,0,4.2-0.6,5.8-1.8c1.5,1.2,3.6,1.9,5.7,1.9c1.1,0,2.4-0.5,3.5-1.1
											c0.2,0.6,0.5,1.2,0.9,1.6c0.7,0.9,1.7,1.6,2.7,2c-0.6,1.1-1.1,2.5-1.2,4.2l1.3,0c0.2-2.2,1.2-3.9,1.9-5.1c0,0,0,0-0.1,0
											c-0.8,0-2.6-0.7-3.5-1.9c-0.6-0.8-1-1.8-1-3.2c-0.8,1-2.8,2.3-4.4,2.2c-2.1,0-4.3-0.8-5.7-2.4c-1.4,1.5-3.7,2.3-5.8,2.3
											c-1.6,0-3.6-1.3-4.3-2.3c-0.1,1.4-0.5,2.5-1.1,3.2c-1,1.2-2.8,1.9-3.6,1.8c0,0,0,0-0.1,0c0.7,1.2,1.6,2.9,1.8,5.1l1.3,0
											C429.5,296.8,429,295.4,428.5,294.2z"/>
									</g>
								</g>
							</g>
						</g>
						<g>
							<g>
								<g>
									<g>
										<path id="SVGID_00000080167701970833894260000011914545518538120836_" class="st55" d="M450.6,314.4
											c-2.1,1.1-4.5,1.6-6.4,1.9c-0.9,0.2-1.7,0.3-2.3,0.5c-0.3,0.1-0.5,0.2-0.8,0.3c-0.2-0.1-0.5-0.3-0.7-0.4
											c-0.6-0.2-1.4-0.4-2.3-0.6c-1.9-0.4-4.3-0.9-6.3-2c-2.2-1.3-3.5-3-3.8-5.4l-1.3,0c0.4,3.3,2.2,5.3,4.5,6.6
											c3.2,1.8,7.1,2.1,8.8,2.7c0.6,0.2,1.1,0.7,1.1,0.8c0.1-0.1,0.6-0.6,1.2-0.8c1.8-0.6,5.6-0.8,8.9-2.5
											c2.3-1.2,4.1-3.2,4.6-6.5l-1.3,0C454.1,311.5,452.8,313.2,450.6,314.4z"/>
									</g>
								</g>
							</g>
						</g>
					</g>
				</g>
			</g>
		</g>
		<g>
			<g>
				<g>
					<g>
						<path class="st55" d="M428.8,302.3l-0.2-0.9l-1.8,0l-0.4,0.3l0,3.9l0.4,0.3l1.4,0l0.4-0.3l0-1.2l-1.2,0l0-1.5l3.7,0l-0.1,5.2
							l-1.9,0l-0.2-0.7l-0.8,0.7l-2.3,0l-2-1.7l0.1-5.5l1.9-1.6l3.7,0l1.7,1.5l0,1.7L428.8,302.3z"/>
					</g>
				</g>
				<g>
					<g>
						<path class="st55" d="M438,302.4l-0.2-0.9l-2.1,0l0,1.4l2.1,0l0,1.5l-2.1,0l0,1.5l2.1,0l0.3-0.9l1.8,0l0,3.1l-7.7-0.1l0-1.9
							l0.9-0.2l0-4.5l-0.9-0.3l0-1.9l7.6,0.1l0,3.1L438,302.4z"/>
					</g>
				</g>
				<g>
					<g>
						<path class="st55" d="M449.7,306.4l0,1.9l-4.4,0l0-1.9l0.7-0.2l-0.2-0.8l-1.9,0l-0.2,0.8l0.6,0.3l0,1.9l-3.7,0l0-1.9l1-0.2
							l1.3-4.5l-0.8-0.3l0-1.9l5,0.1l1.6,6.7L449.7,306.4z M444.3,303.8l1.1,0l-0.5-2L444.3,303.8z"/>
					</g>
				</g>
				<g>
					<g>
						<path class="st55" d="M450.5,308.3l0-1.9l0.9-0.2l0-4.5l-0.9-0.3l0-1.9l6.4,0.1l1.7,1.5l0,2.6l-1.2,1l0.9,1.5l0.7,0.1l0,2
							l-2.4,0l-1.9-3.5l-0.6,0l0,1.3l0.9,0.3l0,1.9L450.5,308.3z M454,303.1l1.8,0l0.3-0.3l0-0.9l-0.3-0.3l-1.8,0L454,303.1z"/>
					</g>
				</g>
			</g>
			<g>
				<g>
					<g>
						<path class="st55" d="M432.1,297.5c-0.2,0-0.3,0-0.4,0s-0.2-0.1-0.3-0.1s-0.1-0.2-0.1-0.3c0-0.1,0-0.3,0-0.4l0-1
							c0-0.2,0-0.3,0-0.4c0-0.1,0.1-0.2,0.1-0.3c0.1-0.1,0.2-0.1,0.3-0.1c0.1,0,0.2,0,0.4,0l1.6,0c0.1,0,0.2,0,0.3,0
							c0.1,0,0.1,0.1,0.2,0.1c0.1,0,0.1,0.1,0.1,0.1c0,0,0.1,0.1,0.1,0.1l-0.4,0.4c0-0.1-0.1-0.1-0.1-0.1c-0.1,0-0.1-0.1-0.2-0.1
							l-1.5,0c-0.1,0-0.2,0-0.3,0.1s-0.1,0.1-0.1,0.3l0,1c0,0.1,0,0.1,0,0.2c0,0,0,0.1,0,0.1c0,0,0.1,0.1,0.1,0.1c0,0,0.1,0,0.2,0
							l1.5,0c0.1,0,0.2,0,0.2-0.1c0.1,0,0.1-0.1,0.1-0.1l0.3,0.4c0,0,0,0.1-0.1,0.1c0,0-0.1,0.1-0.1,0.1c-0.1,0-0.1,0.1-0.2,0.1
							s-0.2,0-0.3,0L432.1,297.5z"/>
					</g>
				</g>
				<g>
					<g>
						<path class="st55" d="M435.6,297.6c-0.2,0-0.3,0-0.4-0.1c-0.1,0-0.2-0.1-0.3-0.2s-0.1-0.2-0.1-0.3c0-0.1,0-0.2,0-0.4l0-1.9
							l0.5,0l0,1.9c0,0.1,0,0.2,0.1,0.3c0,0.1,0.1,0.1,0.2,0.1l1.4,0c0.1,0,0.2,0,0.2-0.1s0.1-0.1,0.1-0.3l0-1.9l0.5,0l0,1.9
							c0,0.2,0,0.3,0,0.4s-0.1,0.2-0.1,0.3c-0.1,0.1-0.2,0.1-0.3,0.2s-0.2,0-0.4,0L435.6,297.6z"/>
					</g>
				</g>
				<g>
					<g>
						<path class="st55" d="M441.1,296.8c0,0.1,0,0.3-0.1,0.4c0,0.1-0.1,0.2-0.2,0.2c-0.1,0.1-0.2,0.1-0.3,0.1c-0.1,0-0.3,0-0.4,0
							l-2,0c0-0.1,0-0.2,0-0.3c0-0.1,0-0.2,0-0.3l1.9,0c0.1,0,0.1,0,0.2,0s0.1,0,0.1,0c0,0,0-0.1,0.1-0.1s0-0.1,0-0.1
							c0-0.1,0-0.2-0.1-0.2c-0.1,0-0.1-0.1-0.3-0.1l-1.1,0c-0.2,0-0.3,0-0.4,0s-0.2-0.1-0.3-0.1c-0.1-0.1-0.1-0.1-0.1-0.2
							s0-0.2,0-0.3l0-0.1c0-0.1,0-0.3,0-0.4c0-0.1,0.1-0.2,0.2-0.2s0.2-0.1,0.3-0.1c0.1,0,0.3,0,0.4,0l1.9,0c0,0.1,0,0.2,0,0.3
							c0,0.1,0,0.2,0,0.3l-1.9,0c-0.1,0-0.2,0-0.3,0.1c0,0-0.1,0.1-0.1,0.2c0,0.1,0,0.2,0.1,0.2c0,0,0.1,0.1,0.3,0.1l1.1,0
							c0.2,0,0.3,0,0.4,0c0.1,0,0.2,0.1,0.3,0.1c0.1,0.1,0.1,0.1,0.2,0.2S441.1,296.6,441.1,296.8L441.1,296.8z"/>
					</g>
				</g>
				<g>
					<g>
						<path class="st55" d="M442.4,297.6l0-2.2l-1,0l0-0.5l2.6,0l0,0.5l-1,0l0,2.2L442.4,297.6z"/>
					</g>
				</g>
				<g>
					<g>
						<path class="st55" d="M445.1,297.7c-0.2,0-0.3,0-0.4,0c-0.1,0-0.2-0.1-0.3-0.2c-0.1-0.1-0.1-0.2-0.1-0.3c0-0.1,0-0.3,0-0.4
							l0-1c0-0.2,0-0.3,0-0.4s0.1-0.2,0.1-0.3c0.1-0.1,0.2-0.1,0.3-0.1c0.1,0,0.3,0,0.4,0l1.5,0c0.2,0,0.3,0,0.4,0
							c0.1,0,0.2,0.1,0.3,0.2c0.1,0.1,0.1,0.2,0.1,0.3c0,0.1,0,0.3,0,0.4l0,1c0,0.2,0,0.3,0,0.4s-0.1,0.2-0.1,0.3s-0.2,0.1-0.3,0.1
							c-0.1,0-0.2,0-0.4,0L445.1,297.7z M446.9,295.8c0-0.1,0-0.2-0.1-0.3c0,0-0.1-0.1-0.3-0.1l-1.5,0c-0.1,0-0.2,0-0.3,0.1
							c0,0-0.1,0.1-0.1,0.3l0,1c0,0.1,0,0.1,0,0.2c0,0,0,0.1,0.1,0.1s0.1,0,0.1,0.1c0,0,0.1,0,0.2,0l1.5,0c0.1,0,0.2,0,0.3-0.1
							c0,0,0.1-0.1,0.1-0.3L446.9,295.8z"/>
					</g>
				</g>
				<g>
					<g>
						<path class="st55" d="M450.7,297.7l0-1.8l-0.9,1.8l-0.5,0l-0.9-1.8l0,1.8l-0.5,0l0-2.8l0.6,0l1,2.2l1.1-2.2l0.6,0l0,2.8
							L450.7,297.7z"/>
					</g>
				</g>
			</g>
			<g>
				<g>
					<g>
						<path class="st55" d="M432,312.3l0-0.7l-0.3,0.7l-0.2,0l-0.3-0.7l0,0.7l-0.2,0l0-1l0.2,0l0.4,0.8l0.4-0.8l0.2,0l0,1L432,312.3
							z"/>
					</g>
				</g>
				<g>
					<g>
						<path class="st55" d="M433.4,312.3l-0.1-0.2l-0.6,0l-0.1,0.2l-0.2,0l0.6-1l0.2,0l0.5,1L433.4,312.3z M433,311.5l-0.2,0.4
							l0.5,0L433,311.5z"/>
					</g>
				</g>
				<g>
					<g>
						<path class="st55" d="M433.7,312.3l0-1l0.9,0c0.1,0,0.1,0,0.2,0c0,0,0.1,0,0.1,0.1s0,0.1,0.1,0.1s0,0.1,0,0.2l0,0.4
							c0,0.1,0,0.1,0,0.2s0,0.1-0.1,0.1c0,0-0.1,0-0.1,0.1c0,0-0.1,0-0.2,0L433.7,312.3z M434.7,311.6c0-0.1,0-0.1,0-0.1s0,0-0.1,0
							l-0.7,0l0,0.6l0.7,0c0,0,0.1,0,0.1,0s0-0.1,0-0.1L434.7,311.6z"/>
					</g>
				</g>
				<g>
					<g>
						<path class="st55" d="M435.1,312.3l0-1l1,0l0,0.2l-0.8,0l0,0.2l0.8,0l0,0.2l-0.8,0l0,0.2l0.8,0l0,0.2L435.1,312.3z"/>
					</g>
				</g>
				<g>
					<g>
						<path class="st55" d="M436.9,311.9l0,0.4l-0.2,0l0-1l1,0l0,0.2l-0.8,0l0,0.2l0.7,0l0,0.2L436.9,311.9z"/>
					</g>
				</g>
				<g>
					<g>
						<path class="st55" d="M438.1,312.3c-0.1,0-0.1,0-0.2,0c0,0-0.1,0-0.1-0.1s0-0.1-0.1-0.1s0-0.1,0-0.2l0-0.4c0-0.1,0-0.1,0-0.2
							c0,0,0-0.1,0.1-0.1c0,0,0.1,0,0.1-0.1c0,0,0.1,0,0.2,0l0.5,0c0.1,0,0.1,0,0.2,0c0,0,0.1,0,0.1,0.1s0,0.1,0.1,0.1
							c0,0,0,0.1,0,0.2l0,0.4c0,0.1,0,0.1,0,0.2s0,0.1-0.1,0.1c0,0-0.1,0-0.1,0.1c0,0-0.1,0-0.2,0L438.1,312.3z M438.8,311.7
							c0-0.1,0-0.1,0-0.1s0,0-0.1,0l-0.5,0c0,0-0.1,0-0.1,0c0,0,0,0.1,0,0.1l0,0.4c0,0,0,0,0,0.1s0,0,0,0c0,0,0,0,0,0s0,0,0.1,0
							l0.5,0c0,0,0.1,0,0.1,0s0-0.1,0-0.1L438.8,311.7z"/>
					</g>
				</g>
				<g>
					<g>
						<path class="st55" d="M440,312.4l-0.4-0.3l-0.3,0l0,0.3l-0.2,0l0-1l0.8,0c0.1,0,0.1,0,0.1,0c0,0,0.1,0,0.1,0.1s0,0.1,0,0.1
							s0,0.1,0,0.1l0,0.1c0,0.1,0,0.1,0,0.2c0,0,0,0.1-0.1,0.1c0,0-0.1,0-0.1,0s-0.1,0-0.2,0l0.4,0.3L440,312.4z M440.1,311.7
							c0,0,0-0.1,0-0.1s0,0-0.1,0l-0.6,0l0,0.3l0.6,0c0,0,0.1,0,0.1,0S440.1,311.8,440.1,311.7L440.1,311.7z"/>
					</g>
				</g>
				<g>
					<g>
						<path class="st55" d="M441.8,312.4l0-0.1C441.8,312.3,441.8,312.3,441.8,312.4C441.8,312.3,441.8,312.3,441.8,312.4
							c-0.1,0-0.1,0-0.1,0c0,0,0,0-0.1,0l-0.4,0c-0.1,0-0.1,0-0.2,0c0,0-0.1,0-0.1-0.1s0-0.1,0-0.1c0,0,0-0.1,0-0.2l0-0.4
							c0-0.1,0-0.1,0-0.2c0,0,0-0.1,0.1-0.1s0.1,0,0.1-0.1s0.1,0,0.2,0l0.5,0c0,0,0.1,0,0.1,0c0,0,0.1,0,0.1,0c0,0,0,0,0,0
							c0,0,0,0,0,0l-0.1,0.1c0,0,0,0,0-0.1s0,0-0.1,0l-0.5,0c0,0-0.1,0-0.1,0s0,0.1,0,0.1l0,0.3c0,0,0,0.1,0,0.1s0,0,0,0
							c0,0,0,0,0,0c0,0,0,0,0.1,0l0.5,0c0.1,0,0.1,0,0.1,0c0,0,0,0,0-0.1l0-0.1l-0.4,0l0-0.2l0.6,0l0,0.6L441.8,312.4z"/>
					</g>
				</g>
				<g>
					<g>
						<path class="st55" d="M443.1,312.4l-0.4-0.3l-0.3,0l0,0.3l-0.2,0l0-1l0.8,0c0.1,0,0.1,0,0.1,0c0,0,0.1,0,0.1,0.1s0,0.1,0,0.1
							s0,0.1,0,0.1l0,0.1c0,0.1,0,0.1,0,0.2c0,0,0,0.1-0.1,0.1c0,0-0.1,0-0.1,0s-0.1,0-0.2,0l0.4,0.3L443.1,312.4z M443.1,311.7
							c0,0,0-0.1,0-0.1s0,0-0.1,0l-0.6,0l0,0.3l0.6,0c0,0,0.1,0,0.1,0S443.1,311.8,443.1,311.7L443.1,311.7z"/>
					</g>
				</g>
				<g>
					<g>
						<path class="st55" d="M443.5,312.4l0-1l1,0l0,0.2l-0.8,0l0,0.2l0.8,0l0,0.2l-0.8,0l0,0.2l0.8,0l0,0.2L443.5,312.4z"/>
					</g>
				</g>
				<g>
					<g>
						<path class="st55" d="M445.6,312.4l-0.1-0.2l-0.6,0l-0.1,0.2l-0.2,0l0.6-1l0.2,0l0.5,1L445.6,312.4z M445.2,311.6L445,312
							l0.5,0L445.2,311.6z"/>
					</g>
				</g>
				<g>
					<g>
						<path class="st55" d="M446.1,312.4l0-0.8l-0.4,0l0-0.2l0.9,0l0,0.2l-0.4,0l0,0.8L446.1,312.4z"/>
					</g>
				</g>
				<g>
					<g>
						<path class="st55" d="M447.7,312.5l-0.7-0.8l0,0.8l-0.2,0l0-1l0.2,0l0.7,0.7l0-0.7l0.2,0l0,1L447.7,312.5z"/>
					</g>
				</g>
				<g>
					<g>
						<path class="st55" d="M448.1,312.5l0-1l1,0l0,0.2l-0.8,0l0,0.2l0.8,0l0,0.2l-0.8,0l0,0.2l0.8,0l0,0.2L448.1,312.5z"/>
					</g>
				</g>
				<g>
					<g>
						<path class="st55" d="M450.3,312.2c0,0.1,0,0.1,0,0.1c0,0,0,0.1-0.1,0.1c0,0-0.1,0-0.1,0c0,0-0.1,0-0.2,0l-0.7,0
							c0,0,0-0.1,0-0.1c0,0,0-0.1,0-0.1l0.7,0c0,0,0,0,0.1,0c0,0,0,0,0,0s0,0,0,0c0,0,0,0,0-0.1c0,0,0-0.1,0-0.1c0,0-0.1,0-0.1,0
							l-0.4,0c-0.1,0-0.1,0-0.2,0c0,0-0.1,0-0.1-0.1s0-0.1-0.1-0.1c0,0,0-0.1,0-0.1v0c0-0.1,0-0.1,0-0.1c0,0,0-0.1,0.1-0.1
							c0,0,0.1,0,0.1,0c0,0,0.1,0,0.2,0l0.7,0c0,0,0,0.1,0,0.1s0,0.1,0,0.1l-0.7,0c0,0-0.1,0-0.1,0c0,0,0,0,0,0.1s0,0.1,0,0.1
							c0,0,0.1,0,0.1,0l0.4,0c0.1,0,0.1,0,0.2,0s0.1,0,0.1,0c0,0,0,0,0.1,0.1C450.3,312.1,450.3,312.1,450.3,312.2L450.3,312.2z"/>
					</g>
				</g>
				<g>
					<g>
						<path class="st55" d="M451.5,312.2c0,0.1,0,0.1,0,0.1c0,0,0,0.1-0.1,0.1c0,0-0.1,0-0.1,0s-0.1,0-0.2,0l-0.7,0c0,0,0-0.1,0-0.1
							c0,0,0-0.1,0-0.1l0.7,0c0,0,0,0,0.1,0c0,0,0,0,0,0s0,0,0,0c0,0,0,0,0-0.1c0,0,0-0.1,0-0.1c0,0-0.1,0-0.1,0l-0.4,0
							c-0.1,0-0.1,0-0.2,0c0,0-0.1,0-0.1-0.1s0-0.1-0.1-0.1c0,0,0-0.1,0-0.1v0c0-0.1,0-0.1,0-0.1c0,0,0-0.1,0.1-0.1c0,0,0.1,0,0.1,0
							c0,0,0.1,0,0.2,0l0.7,0c0,0,0,0.1,0,0.1s0,0.1,0,0.1l-0.7,0c0,0-0.1,0-0.1,0c0,0,0,0,0,0.1s0,0.1,0,0.1c0,0,0.1,0,0.1,0l0.4,0
							c0.1,0,0.1,0,0.2,0s0.1,0,0.1,0c0,0,0,0,0.1,0.1C451.5,312.1,451.5,312.1,451.5,312.2L451.5,312.2z"/>
					</g>
				</g>
			</g>
			<g>
				<g>
					<rect x="437.8" y="309.7" class="st55" width="6.9" height="0.5"/>
				</g>
			</g>
		</g>
	</g>
</g>
<g id="number">
	<g>
		<defs>
			<path id="SVGID_00000007397835440583719270000004891169023332964001_" d="M292,275.9l-25.9,188.7h0L118.8,671.9
				c0,0-25.5-3.6-40.2-8.2c-14.7-4.6-35-26.7-35-26.7L244,233.7c0.2-0.4,0.4-0.7,0.6-1.1c0.2,2.8,1.7,13.6,12.3,24.9
				C264.7,265.9,274.4,272.2,292,275.9L292,275.9z"/>
		</defs>
		<clipPath id="SVGID_00000002353666550062328880000010595752061285307040_">
			<use xlink:href="#SVGID_00000007397835440583719270000004891169023332964001_"  style="overflow:visible;"/>
		</clipPath>
	</g>
</g>
</svg>
