<?xml version="1.0" encoding="utf-8"?>
<!-- Generator: Adobe Illustrator 28.0.0, SVG Export Plug-In . SVG Version: 6.00 Build 0)  -->
<svg version="1.1" id="Layer_1" xmlns="http://www.w3.org/2000/svg" xmlns:xlink="http://www.w3.org/1999/xlink" x="0px" y="0px" width="700" height="700"                                                                                           
         viewBox="0 0 700 700" style="enable-background:new 0 0 700 700;" xml:space="preserve">
<style type="text/css">
	.st0{clip-path:url(#SVGID_00000131358605793991827960000011045072948915771051_);}
	.st1{fill:#211318;}
	.st2{fill:#30E2E2;stroke:#000000;stroke-width:1.05;stroke-miterlimit:10;}
	.st3{fill:#167C8C;}
	.st4{clip-path:url(#SVGID_00000064343784075336005180000001223791682087764907_);}
	.st5{fill:#E1D5B6;}
	.st6{fill:#25181C;}
	.st7{fill:#51DE48;}
	.st8{clip-path:url(#SVGID_00000018932243450290109520000002596732496407941762_);}
	.st9{fill:none;stroke:#51DE48;stroke-width:12;stroke-miterlimit:10;}
	.st10{fill:none;stroke:#25181C;stroke-width:6;stroke-miterlimit:10;}
	.st11{fill:none;stroke:#E1D5B6;stroke-width:2;stroke-miterlimit:10;}
	.st12{opacity:0.25;}
	.st13{fill:#403C3D;}
	.st14{clip-path:url(#SVGID_00000159429212763855018620000002771537464649661348_);}
	.st15{fill:#000001;}
	.st16{clip-path:url(#SVGID_00000075153050063336293140000018418321958780512156_);}
	.st17{fill:none;stroke:#161616;stroke-width:1.052;stroke-miterlimit:10;}
	.st18{fill:none;stroke:#000000;stroke-width:1.05;stroke-miterlimit:10;}
	.st19{clip-path:url(#SVGID_00000107561532926782584470000009832057427491490468_);}
	.st20{clip-path:url(#SVGID_00000145027536039094333070000010872041775140886171_);}
	.st21{fill:#51DE48;stroke:#000000;stroke-width:1.075;stroke-miterlimit:10;}
	.st22{fill:#167C8C;stroke:#000000;stroke-width:1.075;stroke-miterlimit:10;}
	.st23{clip-path:url(#SVGID_00000127028177917271588420000013404804226494137488_);}
	.st24{clip-path:url(#SVGID_00000126291219320576457340000002931049859922390673_);}
	.st25{clip-path:url(#SVGID_00000160889355850478184580000001361456193983154592_);}
	.st26{opacity:0.25;fill:#403C3D;enable-background:new    ;}
	.st27{clip-path:url(#SVGID_00000057846341960367950480000008704607370614422435_);}
	.st28{fill:none;stroke:#403C3D;stroke-width:1.05;stroke-miterlimit:10;}
	.st29{fill:none;stroke:#403C3D;stroke-width:1.095;stroke-miterlimit:10;}
	.st30{fill:none;stroke:#403C3D;stroke-width:1.089;stroke-miterlimit:10;}
	.st31{clip-path:url(#SVGID_00000155844239125903811150000014005801100473866677_);}
	.st32{clip-path:url(#SVGID_00000121256040838755275700000014951902046341733548_);}
	.st33{fill:none;stroke:#403C3D;stroke-width:1.048;stroke-miterlimit:10;}
	.st34{fill:none;stroke:#403C3D;stroke-width:0.525;stroke-miterlimit:10;}
	.st35{fill:none;stroke:#403C3D;stroke-width:0.525;stroke-miterlimit:10;stroke-dasharray:0,0,2.123,2.123;}
	.st36{fill:none;stroke:#403C3D;stroke-width:0.525;stroke-miterlimit:10;stroke-dasharray:0,2.1;}
	.st37{fill:none;stroke:#231F20;stroke-width:1.05;stroke-miterlimit:10;}
	.st38{fill:none;}
	.st39{opacity:0.5;fill:#403C3D;enable-background:new    ;}
	.st40{clip-path:url(#SVGID_00000182528333689633016910000015155502575842682296_);}
	.st41{clip-path:url(#SVGID_00000166653627365877097920000016846350574292383159_);}
	.st42{clip-path:url(#SVGID_00000162311889116149012150000008648409100938980508_);}
	.st43{fill:#474747;stroke:#403C3D;stroke-width:1.063;stroke-miterlimit:10;}
	.st44{fill:#515151;}
	.st45{fill:none;stroke:#403C3D;stroke-width:1.05;stroke-miterlimit:10;stroke-dasharray:0,2.314;}
	.st46{fill:#474747;stroke:#403C3D;stroke-width:0.942;stroke-miterlimit:10;}
	.st47{clip-path:url(#SVGID_00000168077209933893081710000014796267906702941571_);}
	.st48{opacity:0.7;}
	.st49{fill:none;stroke:#403C3D;stroke-width:1.05;stroke-miterlimit:10;stroke-dasharray:0,2.285;}
	.st50{clip-path:url(#SVGID_00000027583187554459713280000002519832535962498226_);}
	.st51{fill:none;stroke:#000000;stroke-width:1.048;stroke-miterlimit:10;}
	.st52{clip-path:url(#SVGID_00000010269339987131586060000003460705637321099150_);}
	.st53{clip-path:url(#SVGID_00000176756835086150817010000001638957179069036416_);}
	.st54{clip-path:url(#SVGID_00000037667599632823949990000001987501642126034071_);}
	.st55{clip-path:url(#SVGID_00000049193507223742115370000018429042410997462916_);}
	.st56{fill:#8E23CC;}
	.st57{fill:#A5A8A8;}
	.st58{fill:#808080;}
</style>
<g>
	<defs>
		<path id="SVGID_1_" d="M332.4,890c0,0-12.8,36-7.8,60.2l-1.2,5.4l-7.3,38.7c0,0-18.1,158-12.7,299.3c0,0,116.4,53.9,166.1-10.4
			v-40.6c0,0,40.6,20.1,89.8,12.3c0,0,37.4-5.5,42.4-15.1c0,0,5-98.5,5-122.2s-7.3-105.4-12.8-120.4s-7.3-25.5-7.3-28.3
			s4.1-6.8,3.2-15.1s-1.4-26.5-4.1-36c0,0-22.3,22.3-24.2,18.7s-5-2.7-5-2.7l-45.2,10.9c0,0-1.4,3.2-1.6,3.6s-10.5,0.2-10.5,0.2
			s-73.4,0.7-78.4-5.5s-8.7-14.6-15.5-17.8c-6.8-3.2-50.4-14.8-60-21.4S336.8,898.2,332.4,890L332.4,890z"/>
	</defs>
	<clipPath id="SVGID_00000000918594186280580470000001854648414878725535_">
		<use xlink:href="#SVGID_1_"  style="overflow:visible;"/>
	</clipPath>
	<g style="clip-path:url(#SVGID_00000000918594186280580470000001854648414878725535_);">
		<rect x="297.2" y="815.9" class="st1" width="370.5" height="528.2"/>
		<path class="st1" d="M324.7,937.3c0,0,4.6,9.1,19.6,14.1c15.1,5,43.8,16.9,100.8,21.4l45.2,1.8l1.8,12.2l-49.7-1.8
			c-57-4.6-85.7-16.4-100.8-21.4c-15.1-5-19.6-14.1-19.6-14.1"/>
	</g>
</g>
<g>
	<path class="st2" d="M490.7,186.5c0.1,0,0.1,0,0.1-0.1C490.8,186.5,490.8,186.5,490.7,186.5z"/>
	<path class="st2" d="M476.8,191.6c7.4-2.2,12.3-4.3,13.9-5.1C489.1,187.3,484.2,189.5,476.8,191.6z"/>
	<path class="st3" d="M833.8,624.9L636.1,234.4c-2-3.9-5.2-6.9-9.2-8.6L595.1,212c0,0-57.9-21.4-68.2-20.4l0,0l-24.5-3.5l0,0.2
		c-0.5-0.7-1-1.4-1.6-2h-9.4c0,0,0,0,0,0c0,0,0-0.1,0-0.1s-0.1,0.1-0.4,0.2c0,0-0.1,0-0.1,0.1c0,0,0,0,0,0
		c-1.6,0.8-6.5,2.9-13.9,5.1c0,0,0,0,0,0c-9,2.6-21.7,5.3-36.7,5.3s-27.2-2.6-35.8-5.3c0,0,0,0,0,0c-6.5-2-10.9-4-12.6-4.9
		c-0.6-0.3-0.9-0.5-0.9-0.5s0,0,0,0h-9.3c-0.6,0.6-1.1,1.3-1.6,2.1l0-0.3l-24.5,3.5l0,0l-102.8,35c-3.5,1.2-6.4,3.7-8,7L45,636.8
		c0,0,20.3,22.2,34.9,26.7c14.6,4.6,40,8.2,40,8.2l146.7-207.3l-14.4,279.1h1c0,0,113.2,17.8,142.6,20.5c29.4,2.7,80.7,2.1,97.8,0
		C510.9,762,633,743.6,633,743.6h-1c0,0-14.4-270.9-14.4-277.6s148.8,210.9,148.8,210.9l0,0c0,0,26-2.7,40.6-7.2
		s32.6-31.8,32.6-31.8L833.8,624.9L833.8,624.9z"/>
	<g>
		<defs>
			<path id="SVGID_00000024701594435526396300000012865001122501652910_" d="M833.8,624.9L636.1,234.4c-2-3.9-5.2-6.9-9.2-8.6
				L595.1,212c0,0-57.9-21.4-68.2-20.4l0,0l-24.5-3.5l0,0.2c-0.5-0.7-1-1.4-1.6-2h-9.4c0,0,0,0,0,0c0,0,0-0.1,0-0.1
				s-0.1,0.1-0.4,0.2c0,0-0.1,0-0.1,0.1c0,0,0,0,0,0c-1.6,0.8-6.5,2.9-13.9,5.1c0,0,0,0,0,0c-9,2.6-21.7,5.3-36.7,5.3
				s-27.2-2.6-35.8-5.3c0,0,0,0,0,0c-6.5-2-10.9-4-12.6-4.9c-0.6-0.3-0.9-0.5-0.9-0.5s0,0,0,0h-9.3c-0.6,0.6-1.1,1.3-1.6,2.1l0-0.3
				l-24.5,3.5l0,0l-102.8,35c-3.5,1.2-6.4,3.7-8,7L45,636.8c0,0,20.3,22.2,34.9,26.7c14.6,4.6,40,8.2,40,8.2l146.7-207.3
				l-14.4,279.1h1c0,0,113.2,17.8,142.6,20.5c29.4,2.7,80.7,2.1,97.8,0C510.9,762,633,743.6,633,743.6h-1c0,0-14.4-270.9-14.4-277.6
				s148.8,210.9,148.8,210.9l0,0c0,0,26-2.7,40.6-7.2s32.6-31.8,32.6-31.8L833.8,624.9L833.8,624.9z"/>
		</defs>
		<clipPath id="SVGID_00000120552892197290244090000009695071694931637398_">
			<use xlink:href="#SVGID_00000024701594435526396300000012865001122501652910_"  style="overflow:visible;"/>
		</clipPath>
		<g style="clip-path:url(#SVGID_00000120552892197290244090000009695071694931637398_);">
			<rect y="118.4" class="st3" width="845.3" height="664.6"/>
			<g>
				<polygon class="st5" points="220.9,769.6 220.9,657.2 318.3,557.9 382.3,557.9 426.9,621.9 506.5,683.1 577.1,676.8 
					645.5,633.2 658.2,628.9 658.2,769.6 				"/>
				<path class="st6" d="M666,632.4c-4.2-4.2-10.8-6.2-17.4-5.4c-20.8,2.6-36.4,14-47.7,22.3c-13.7,10.1-24.6,16.4-39.5,19
					c-17.1,3-35.5,2.1-54.5,1c-7.4-0.5-12.9-3.1-21.3-8.1c-7-4.2-13.9-9.1-20.6-14.6c-11.7-9.7-22-21.2-31.4-35.3
					c-9.9-14.7-20.3-28.7-38.7-37.8c-16.6-8.2-37.9-12-58.5-10.3c-22.5,1.9-41.6,9.9-53.8,22.5c-6.9,7.2-11.6,15-16.2,22.5
					c-4.3,7.1-8.4,13.8-14,19.6c-11.4,11.8-26.7,21.4-44.4,27.9c-5.8,2.1-9.6,6.2-10.2,11.1c-0.6,5.1,2.5,10.5,8,13.6
					c5.5,3.1,12.4,3.7,18.5,1.4c17.8-6.5,34.2-15.9,47.5-27.3c14.2-12.1,23.1-25.9,31-39c3.6-5.9,7.3-11.6,12.6-15.5
					c4.2-3.1,10.5-5.4,19-6.9c14.2-2.5,29.2-0.7,40.9,5c11.7,5.6,18.5,15.8,25.8,26.6c1.1,1.6,2.1,3.2,3.2,4.7
					c9.8,14.3,21.9,27.3,36,38.7c6.9,5.6,14.6,11,23.1,16.1c7.8,4.8,17.6,10.7,29.7,12.9c9.1,1.6,18.3,1.8,27.2,2
					c1.5,0,2.9,0.1,4.4,0.1c3.6,0.1,7,0.1,10.3,0.1c7.4,0,13.9-0.3,19.9-0.8c23.8-2.1,44-9,61.7-21.3c2.8-1.9,5.5-3.9,8.1-5.8
					c10-7.4,19.4-14.4,31.1-15.8c6.2-0.8,11.3-3.9,13.4-8.4C671.5,642.4,670.3,636.7,666,632.4L666,632.4z"/>
				<path class="st7" d="M666,608.6c-4.2-4.2-10.8-6.2-17.4-5.4c-20.8,2.6-36.4,14-47.7,22.3c-13.7,10.1-24.6,16.4-39.5,19
					c-17.1,3-35.5,2.1-54.5,1c-7.4-0.5-12.9-3.1-21.3-8.1c-7-4.2-13.9-9.1-20.6-14.6c-11.7-9.7-22-21.2-31.4-35.3
					c-9.9-14.7-20.3-28.7-38.7-37.8c-16.6-8.2-37.9-12-58.5-10.3c-22.5,1.9-41.6,9.9-53.8,22.5c-6.9,7.2-11.6,15-16.2,22.5
					c-4.3,7.1-8.4,13.8-14,19.6c-11.4,11.8-26.7,21.4-44.4,27.9c-5.8,2.1-9.6,6.2-10.2,11.1c-0.6,5.1,2.5,10.5,8,13.6
					c5.5,3.1,12.4,3.7,18.5,1.4c17.8-6.5,34.2-15.9,47.5-27.3c14.2-12.1,23.1-25.9,31-39c3.6-5.9,7.3-11.6,12.6-15.5
					c4.2-3.1,10.5-5.4,19-6.9c14.2-2.5,29.2-0.7,40.9,5c11.7,5.6,18.5,15.8,25.8,26.6c1.1,1.6,2.1,3.2,3.2,4.7
					c9.8,14.3,21.9,27.3,36,38.7c6.9,5.6,14.6,11,23.1,16.1c7.8,4.8,17.6,10.7,29.7,12.9c9.1,1.6,18.3,1.8,27.2,2
					c1.5,0,2.9,0.1,4.4,0.1c3.6,0.1,7,0.1,10.3,0.1c7.4,0,13.9-0.3,19.9-0.8c23.8-2.1,44-9,61.7-21.3c2.8-1.9,5.5-3.9,8.1-5.8
					c10-7.4,19.4-14.4,31.1-15.8c6.2-0.8,11.3-3.9,13.4-8.4C671.5,618.5,670.3,612.9,666,608.6L666,608.6z"/>
			</g>
			<g>
				<defs>
					<path id="SVGID_00000048484161177198371840000003043596774421224122_" d="M476.8,191.4c7.4-2.2,12.3-4.3,13.9-5.1l0,0
						c0.1,0,0.1-0.1,0.1-0.1c0.3-0.1,0.4-0.2,0.4-0.2s0,0,0,0.1c0,0,0,0,0,0h9.4c0.6,0.6,1.1,1.3,1.6,2l0-0.2l24.5,3.5
						c10.3-1,68.2,20.4,68.2,20.4l31.8,13.8c3.3,1.4,6,3.7,8,6.6c-0.2,2.8-1.7,13.6-12.2,25c-6.2,6.7-13.7,12.1-25.5,15.9
						c-11.5,3.7-27.2,5.8-49.8,6H332.9c-17-0.2-30.1-1.4-40.4-3.6c-17.6-3.7-27.3-10-35-18.3c-10.5-11.4-12-22.1-12.2-24.9
						c1.7-2.7,4.3-4.8,7.4-5.8l102.8-35l24.5-3.5l0,0.3c0.5-0.8,1-1.5,1.6-2.1h9.3l0,0c0,0,0.3,0.2,0.9,0.5
						c1.8,0.9,6.1,2.9,12.6,4.9h0c8.5,2.6,20.8,5.2,35.8,5.2S467.8,194,476.8,191.4L476.8,191.4L476.8,191.4z"/>
				</defs>
				<clipPath id="SVGID_00000083066189265036918310000005030382332862231204_">
					<use xlink:href="#SVGID_00000048484161177198371840000003043596774421224122_"  style="overflow:visible;"/>
				</clipPath>
				<g style="clip-path:url(#SVGID_00000083066189265036918310000005030382332862231204_);">
					<g>
						<path class="st9" d="M244.7,225.6c0,0,0,12.4,12.3,25.6c12.3,13.2,29.5,21.4,75.4,21.9h39.9h135.4h39
							c45.9-0.5,63.1-8.7,75.4-21.9c12.3-13.2,12.3-25.6,12.3-25.6"/>
						<path class="st10" d="M244.7,225.6c0,0,0,12.4,12.3,25.6c12.3,13.2,29.5,21.4,75.4,21.9h39.9h135.4h39
							c45.9-0.5,63.1-8.7,75.4-21.9c12.3-13.2,12.3-25.6,12.3-25.6"/>
						<path class="st11" d="M244.7,225.6c0,0,0,12.4,12.3,25.6c12.3,13.2,29.5,21.4,75.4,21.9h39.9h135.4h39
							c45.9-0.5,63.1-8.7,75.4-21.9c12.3-13.2,12.3-25.6,12.3-25.6"/>
					</g>
				</g>
			</g>
		</g>
		<g style="clip-path:url(#SVGID_00000120552892197290244090000009695071694931637398_);">
			<g class="st12">
				<path class="st13" d="M231.7,260.6L77.8,664l-35.6-23.7C42.2,640.3,194.1,272.9,231.7,260.6L231.7,260.6z"/>
				<path class="st13" d="M648.3,260.6l165.4,425.4l35.6-23.7C849.4,662.2,686,272.9,648.3,260.6L648.3,260.6z"/>
				<path class="st13" d="M293.8,273.2L293.8,273.2c-36.3,157,16.2,324.1-20.2,481.2c-22.4-2.5-44.9-5.1-67.3-7.6
					C265.1,592.3,235,427.7,293.8,273.2L293.8,273.2z"/>
				<path class="st13" d="M594,272.2L594,272.2c35.9,157.1-17,324.1,18.9,481.2c22.4-2.5,44.9-4.9,67.3-7.4
					C621.9,591.3,652.4,426.8,594,272.2L594,272.2z"/>
			</g>
		</g>
	</g>
</g>
<g>
	<defs>
		<path id="SVGID_00000175287442131439370460000000228648993800225209_" d="M292.7,275.4l-25.9,188.7h0L119.5,671.4
			c0,0-25.5-3.6-40.2-8.2c-14.7-4.6-35-26.7-35-26.7l200.4-403.3c0.2-0.4,0.4-0.7,0.6-1.1c0.2,2.8,1.7,13.6,12.3,24.9
			C265.4,265.4,275.1,271.7,292.7,275.4L292.7,275.4z"/>
	</defs>
	<clipPath id="SVGID_00000023961158420734023530000017437066200856568494_">
		<use xlink:href="#SVGID_00000175287442131439370460000000228648993800225209_"  style="overflow:visible;"/>
	</clipPath>
	<g style="clip-path:url(#SVGID_00000023961158420734023530000017437066200856568494_);">
		<polygon class="st15" points="128.2,700 -20,631.2 -15.1,620.9 133,689.6 		"/>
		
			<rect x="63.7" y="562.1" transform="matrix(0.4222 -0.9065 0.9065 0.4222 -562.2566 443.0331)" class="st5" width="5.5" height="200.9"/>
		<g>
			<polygon class="st5" points="-103.1,559.1 -47,461.7 87,424.3 142.4,456.2 149.1,534 187.5,626.7 251.9,656.5 332.9,652.9 
				346,655.5 275.8,777.4 			"/>
			<path class="st6" d="M351.1,662.5c-1.6-5.8-6.2-10.8-12.4-13.4c-19.3-8.1-38.5-6-52.5-4.5c-16.9,1.9-29.5,1.9-43.7-3.3
				c-16.3-5.9-31.9-15.9-47.7-26.4c-6.1-4.1-9.7-9.2-14.4-17.7c-4-7.2-7.5-14.9-10.5-22.9c-5.3-14.2-8.5-29.3-9.6-46.3
				c-1.2-17.7-3.3-35-14.6-52.1c-10.2-15.4-26.9-29.3-45.6-38.1c-20.4-9.6-41-12.2-57.9-7.3c-9.5,2.8-17.6,7.2-25.3,11.4
				c-7.3,4-14.2,7.8-21.9,10c-15.7,4.6-33.8,5.2-52.4,2c-6.1-1.1-11.4,0.6-14.3,4.5c-3.1,4.1-3,10.3,0.2,15.8
				c3.2,5.4,8.9,9.4,15.3,10.5c18.7,3.3,37.6,3.3,54.8,0c18.3-3.5,32.9-10.9,46.3-18.3c6.1-3.3,12.1-6.4,18.7-7.1
				c5.2-0.6,11.7,0.6,19.9,3.5c13.6,5,25.6,14,32.9,24.8c7.3,10.7,8.2,23,9.1,35.9c0.1,1.9,0.3,3.8,0.4,5.7
				c1.4,17.3,5.4,34.6,11.9,51.5c3.2,8.3,7.2,16.8,11.9,25.5c4.4,8.1,9.9,18.1,19.3,26c7.1,6,15,10.7,22.5,15.3
				c1.3,0.8,2.5,1.5,3.8,2.3c3.1,1.9,6,3.6,8.8,5.3c6.4,3.7,12.1,6.7,17.7,9.3c21.7,10.1,42.6,14.1,64.1,12.4c3.3-0.3,6.7-0.7,9.9-1
				c12.4-1.4,24-2.8,34.9,1.8c5.8,2.4,11.7,2.2,15.9-0.6C350.9,673.8,352.7,668.3,351.1,662.5L351.1,662.5z"/>
			<path class="st7" d="M362.9,641.8c-1.6-5.8-6.2-10.8-12.4-13.4c-19.3-8.1-38.5-6-52.5-4.5c-16.9,1.9-29.5,1.9-43.7-3.3
				c-16.3-5.9-31.9-15.9-47.7-26.4c-6.1-4.1-9.7-9.2-14.4-17.7c-4-7.2-7.5-14.9-10.5-22.9c-5.3-14.2-8.5-29.3-9.6-46.3
				c-1.2-17.7-3.3-35-14.6-52.1c-10.2-15.4-26.9-29.3-45.6-38.1c-20.4-9.6-41-12.2-57.9-7.3c-9.5,2.8-17.6,7.2-25.3,11.4
				c-7.3,4-14.2,7.8-21.9,10c-15.7,4.6-33.8,5.2-52.4,2c-6.1-1.1-11.4,0.6-14.3,4.5c-3.1,4.1-3,10.3,0.2,15.8
				c3.2,5.4,8.9,9.4,15.3,10.5c18.7,3.3,37.6,3.3,54.8,0c18.3-3.5,32.9-10.9,46.3-18.3c6.1-3.3,12.1-6.4,18.7-7.1
				c5.2-0.6,11.7,0.6,19.9,3.5c13.6,5,25.6,14,32.9,24.8c7.3,10.7,8.2,23,9.1,35.9c0.1,1.9,0.3,3.8,0.4,5.7
				c1.4,17.3,5.4,34.6,11.9,51.5c3.2,8.3,7.2,16.8,11.9,25.5c4.4,8.1,9.9,18.1,19.3,26c7.1,6,15,10.7,22.5,15.3
				c1.3,0.8,2.5,1.5,3.8,2.3c3.1,1.9,6,3.6,8.8,5.3c6.4,3.7,12.1,6.7,17.7,9.3c21.7,10.1,42.6,14.1,64.1,12.4c3.3-0.3,6.7-0.7,9.9-1
				c12.4-1.4,24-2.8,34.9,1.8c5.8,2.4,11.7,2.2,15.9-0.6C362.8,653.2,364.5,647.7,362.9,641.8L362.9,641.8z"/>
		</g>
	</g>
</g>
<g>
	<defs>
		<path id="SVGID_00000143588024105041107850000002219381932251408015_" d="M833.8,625l5.8,13c0,0-18.1,27.2-32.7,31.8
			c-7.3,2.3-17.4,4.1-25.7,5.3s-14.8,1.9-14.8,1.9S624.3,469.2,617.9,466l-20.8-192.6c11.8-3.8,19.3-9.2,25.5-15.9
			c10.6-11.4,12.1-22.2,12.3-25c0.4,0.6,0.8,1.3,1.2,2L833.8,625L833.8,625z"/>
	</defs>
	<clipPath id="SVGID_00000170281086869828804730000009508813879860765861_">
		<use xlink:href="#SVGID_00000143588024105041107850000002219381932251408015_"  style="overflow:visible;"/>
	</clipPath>
	<g style="clip-path:url(#SVGID_00000170281086869828804730000009508813879860765861_);">
		
			<rect x="714.2" y="676.3" transform="matrix(0.9065 -0.4222 0.4222 0.9065 -213.5569 399.6753)" class="st15" width="162.8" height="11.4"/>
		<line class="st17" x1="864.8" y1="644" x2="754.8" y2="696.4"/>
		<g>
			<polygon class="st5" points="989.9,567.5 933.8,470 799.8,432.7 744.4,464.6 737.7,542.3 699.3,635.1 634.9,664.9 553.8,661.2 
				540.8,663.9 611,785.8 			"/>
			<path class="st6" d="M535.7,670.8c1.6-5.8,6.2-10.8,12.4-13.4c19.3-8.1,38.5-6,52.5-4.5c16.9,1.9,29.5,1.9,43.7-3.3
				c16.3-5.9,31.9-15.9,47.7-26.4c6.1-4.1,9.7-9.2,14.4-17.7c4-7.2,7.5-14.9,10.5-22.9c5.3-14.2,8.5-29.3,9.6-46.3
				c1.2-17.7,3.3-35,14.6-52.1c10.2-15.4,26.9-29.3,45.6-38.1c20.4-9.6,41-12.2,57.9-7.3c9.5,2.8,17.6,7.2,25.3,11.4
				c7.3,4,14.2,7.8,21.9,10c15.7,4.6,33.8,5.2,52.4,2c6.1-1.1,11.4,0.6,14.3,4.5c3.1,4.1,3,10.3-0.2,15.8
				c-3.2,5.4-8.9,9.4-15.3,10.5c-18.7,3.3-37.6,3.3-54.8,0c-18.3-3.5-32.9-10.9-46.3-18.3c-6.1-3.3-12.1-6.4-18.7-7.1
				c-5.2-0.6-11.7,0.6-19.9,3.5c-13.6,5-25.6,14-32.9,24.8c-7.3,10.7-8.2,23-9.1,35.9c-0.1,1.9-0.3,3.8-0.4,5.7
				c-1.4,17.3-5.4,34.6-11.9,51.5c-3.2,8.3-7.2,16.8-11.9,25.5c-4.4,8.1-9.9,18.1-19.3,26c-7.1,6-15,10.7-22.5,15.3
				c-1.3,0.8-2.5,1.5-3.8,2.3c-3.1,1.9-6,3.6-8.8,5.3c-6.4,3.7-12.1,6.7-17.7,9.3c-21.7,10.1-42.6,14.1-64.1,12.4
				c-3.3-0.3-6.7-0.7-9.9-1c-12.4-1.4-24-2.8-34.9,1.8c-5.8,2.4-11.7,2.2-15.9-0.6C535.9,682.2,534.1,676.7,535.7,670.8L535.7,670.8
				z"/>
			<path class="st7" d="M523.8,650.2c1.6-5.8,6.2-10.8,12.4-13.4c19.3-8.1,38.5-6,52.5-4.5c16.9,1.9,29.5,1.9,43.7-3.3
				c16.3-5.9,31.9-15.9,47.7-26.4c6.1-4.1,9.7-9.2,14.4-17.7c4-7.2,7.5-14.9,10.5-22.9c5.3-14.2,8.5-29.3,9.6-46.3
				c1.2-17.7,3.3-35,14.6-52.1c10.2-15.4,26.9-29.3,45.6-38.1c20.4-9.6,41-12.2,57.9-7.3c9.5,2.8,17.6,7.2,25.3,11.4
				c7.3,4,14.2,7.8,21.9,10c15.7,4.6,33.8,5.2,52.4,2c6.1-1.1,11.4,0.6,14.3,4.5c3.1,4.1,3,10.3-0.2,15.8
				c-3.2,5.4-8.9,9.4-15.3,10.5c-18.7,3.3-37.6,3.3-54.8,0c-18.3-3.5-32.9-10.9-46.3-18.3c-6.1-3.3-12.1-6.4-18.7-7.1
				c-5.2-0.6-11.7,0.6-19.9,3.5c-13.6,5-25.6,14-32.9,24.8c-7.3,10.7-8.2,23-9.1,35.9c-0.1,1.9-0.3,3.8-0.4,5.7
				c-1.4,17.3-5.4,34.6-11.9,51.5c-3.2,8.3-7.2,16.8-11.9,25.5c-4.4,8.1-9.9,18.1-19.3,26c-7.1,6-15,10.7-22.5,15.3
				c-1.3,0.8-2.5,1.5-3.8,2.3c-3.1,1.9-6,3.6-8.8,5.3c-6.4,3.7-12.1,6.7-17.7,9.3c-21.7,10.1-42.6,14.1-64.1,12.4
				c-3.3-0.3-6.7-0.7-9.9-1c-12.4-1.4-24-2.8-34.9,1.8c-5.8,2.4-11.7,2.2-15.9-0.6C524,661.6,522.2,656,523.8,650.2L523.8,650.2z"/>
		</g>
	</g>
</g>
<path class="st3" d="M499.9,206.4c0.5,3,0.7,6.5,0.7,10.4c0,22.1-9,47.4-39,64l-0.2-0.5h-40.2l-0.1,0.1
	c-29.6-16.6-38.4-41.7-38.4-63.7c0-3.7,0.2-7,0.7-10c2.9,1.5,22.5,10.6,57.6,10.6C476.6,217.4,497.6,207.5,499.9,206.4L499.9,206.4z
	"/>
<g>
	<g>
		<path class="st3" d="M527.5,191.8c0,0,5.9,19.6-0.4,46.7l-24.3,8.6c3.6-8.7,6-19.1,6-31.3c0,0,0.3-18.2-5.8-27.3l0-0.2
			L527.5,191.8L527.5,191.8z"/>
		<path class="st7" d="M503,188.5c6.1,9.1,5.8,27.3,5.8,27.3c0,12.2-2.4,22.5-6,31.3c-10.7,25.8-32.6,37.5-38,40l-3.1-6.7
			c30-16.5,39-41.9,39-64c0-3.9-0.3-7.3-0.7-10.4c-0.7-4.9-1.9-8.8-3.2-11.8v0c-0.5-1.4-1.2-2.6-1.9-3.7c-0.1-0.2-0.2-0.3-0.3-0.5
			c-0.1-0.2-0.2-0.4-0.4-0.6c-0.3-0.5-0.7-1-1-1.4c-0.1-0.1-0.2-0.2-0.2-0.3c-0.6-0.7-1-1.2-1.1-1.4l0,0c0,0,0,0,0,0l0,0h9.4
			C502,187.1,502.5,187.8,503,188.5L503,188.5z"/>
		<path class="st3" d="M476.9,313.7l0.3-0.1l0.1-0.1L465,287.3l-0.1-0.2c5.4-2.6,27.3-14.3,38-40l24.3-8.6
			c-2.9,12.4-8.4,26.5-18.2,40.9c-7.7,11.4-18.1,23-32,34.4L476.9,313.7L476.9,313.7z"/>
		<polygon class="st3" points="461.8,280.5 464.9,287.1 465,287.3 476.9,313.7 441.1,332.3 404.9,313.7 417.9,286.8 421.2,280.2 
			421.3,280 461.5,280 		"/>
		<path class="st3" d="M381.9,249.8c10.6,22.9,29.9,33.9,36.1,37l-13.4,26.8l0.4,0.2l-0.1,0.1c-13.9-11.4-24.2-23-31.8-34.4
			c-9.1-13.7-14.3-26.9-17.1-38.9L381.9,249.8L381.9,249.8z"/>
		<path class="st7" d="M493.3,188.2c0.3,0.4,0.6,0.9,1,1.4c0.1,0.2,0.2,0.4,0.4,0.6c0.1,0.1,0.2,0.3,0.3,0.5c0.6,1,1.2,2.3,1.9,3.7
			v0c0,0-20.2,11.1-55.7,11.1c-35.2,0-53.9-10.4-54.6-10.8c2.1-5.1,4.4-7.6,5-8.1c0,0,0,0,0,0c0.1,0,0.1,0.1,0.3,0.1
			c0.6,0.3,2.1,1.1,4.3,2c0.2,0.1,0.4,0.2,0.7,0.3c0.2,0.1,0.4,0.1,0.5,0.2c0.4,0.1,0.7,0.3,1.1,0.5c0,0,0.1,0,0.1,0
			c0.6,0.2,1.1,0.4,1.8,0.7c0.4,0.1,0.8,0.3,1.2,0.4c0.7,0.3,1.4,0.5,2.2,0.7c0.9,0.3,1.9,0.6,2.9,0.9c0.4,0.1,0.9,0.3,1.3,0.4
			c0.4,0.1,0.8,0.2,1.2,0.3c0.5,0.1,1,0.3,1.6,0.4c1,0.3,2.1,0.5,3.2,0.8c0.6,0.1,1.2,0.3,1.9,0.4c0.4,0.1,0.8,0.2,1.2,0.2
			c1,0.2,2.1,0.4,3.1,0.6c0.8,0.1,1.6,0.3,2.5,0.4c0.8,0.1,1.6,0.2,2.3,0.3c0.8,0.1,1.5,0.2,2.3,0.3c0,0,0.1,0,0.1,0
			c1.6,0.2,3.3,0.3,5,0.4c0.9,0.1,1.8,0.1,2.7,0.1c0.9,0,1.8,0.1,2.7,0.1h0c0.9,0,1.8,0,2.8,0s1.9,0,2.8,0h0c0.9,0,1.8-0.1,2.7-0.1
			c0.9,0,1.8-0.1,2.7-0.1c1.7-0.1,3.4-0.3,5.1-0.4c0,0,0.1,0,0.1,0c0.8-0.1,1.6-0.2,2.4-0.3c2.1-0.3,4.1-0.6,6.1-0.9
			c0.6-0.1,1.3-0.2,1.9-0.3c2-0.4,3.9-0.8,5.7-1.2c0.6-0.1,1.2-0.3,1.8-0.4c0.4-0.1,0.8-0.2,1.2-0.3c0.6-0.1,1.1-0.3,1.7-0.4
			c0.1,0,0.1,0,0.2-0.1c0.6-0.2,1.2-0.3,1.8-0.5c4.9-1.4,8.8-2.8,11.4-3.9c0.2-0.1,0.5-0.2,0.7-0.3c0.2-0.1,0.4-0.1,0.5-0.2
			c0.7-0.3,1.2-0.5,1.6-0.7c0.1-0.1,0.2-0.1,0.3-0.2c0,0,0,0,0,0c0,0,0.1,0,0.1,0c0.2-0.1,0.3-0.2,0.4-0.2c0,0,0,0,0.1,0l0,0
			c0,0,0,0,0,0c0,0,0,0,0,0c0,0,0,0.1,0.1,0.2c0.2,0.2,0.6,0.6,1.1,1.2C493.2,188,493.2,188.1,493.3,188.2L493.3,188.2z"/>
		<path class="st3" d="M386.5,194.7c0.7,0.4,19.4,10.8,54.6,10.8c35.5,0,55.7-11.1,55.7-11.1c1.3,2.9,2.5,6.8,3.2,11.8
			c-2.3,1.1-23.4,11-58.9,11c-35.1,0-54.8-9.2-57.6-10.6C384.1,201.6,385.3,197.7,386.5,194.7z"/>
		<path class="st7" d="M381.9,249.8c-4.3-9.3-7.2-20.5-7.2-34c0,0-0.3-18.1,5.8-27.3c0.5-0.8,1-1.5,1.6-2.1h9.3
			c-0.3,0.3-2.9,3.1-5,8.2c0,0,0,0,0,0c-1.2,3-2.4,6.9-3.1,11.8c-0.4,2.9-0.7,6.2-0.7,10c0,21.9,8.9,47.1,38.4,63.7l-3.3,6.6
			C411.7,283.7,392.5,272.7,381.9,249.8L381.9,249.8z"/>
		<path class="st3" d="M381.9,249.8l-26-9.2c-6.7-28.2,0.1-48.8,0.1-48.8l24.5-3.5l0,0.3c-6.1,9.2-5.8,27.3-5.8,27.3
			C374.7,229.3,377.6,240.5,381.9,249.8L381.9,249.8z"/>
	</g>
	<g>
		<path class="st18" d="M503,188.5l0-0.2l24.5,3.5c0,0,5.9,19.6-0.4,46.7c-2.9,12.4-8.4,26.5-18.2,40.9c-7.7,11.4-18.1,23-32,34.4
			l-0.1-0.1l0.3-0.1l0.1-0.1L465,287.3"/>
		<path class="st18" d="M496.8,194.4c-0.5-1.4-1.2-2.6-1.9-3.7"/>
		<path class="st18" d="M461.8,280.5c30-16.5,39-41.9,39-64c0-3.9-0.3-7.3-0.7-10.4"/>
		<path class="st18" d="M493.1,187.9c-0.6-0.7-1-1.2-1.1-1.4l0,0c0,0,0,0,0,0l0,0h9.4c0.6,0.6,1.1,1.3,1.6,2
			c6.1,9.1,5.8,27.3,5.8,27.3c0,12.2-2.4,22.5-6,31.3c-10.7,25.8-32.6,37.5-38,40"/>
		<polyline class="st18" points="421.2,280.2 421.3,280 461.5,280 461.8,280.5 464.9,287.1 465,287.3 476.9,313.7 441.1,332.3 
			404.9,313.7 417.9,286.8 		"/>
		<path class="st18" d="M496.8,194.4c1.3,2.9,2.5,6.8,3.2,11.8c-2.3,1.1-23.4,11-58.9,11c-35.1,0-54.8-9.2-57.6-10.6"/>
		<path class="st18" d="M417.9,286.8l-13.4,26.8l0.4,0.2l-0.1,0.1c-13.9-11.4-24.2-23-31.8-34.4c-9.1-13.7-14.3-26.9-17.1-38.9
			c-6.7-28.2,0.1-48.8,0.1-48.8l24.5-3.5l0,0.3"/>
		<path class="st18" d="M386.5,194.7c2.1-5.1,4.4-7.6,5-8.1c0,0,0,0,0,0c0.1,0,0.1,0.1,0.3,0.1c0.6,0.3,2.1,1.1,4.3,2
			c0.2,0.1,0.4,0.2,0.7,0.3c0.2,0.1,0.4,0.1,0.5,0.2c0.4,0.1,0.7,0.3,1.1,0.5c0,0,0.1,0,0.1,0c0.6,0.2,1.1,0.4,1.8,0.7
			c0.4,0.1,0.8,0.3,1.2,0.4c0.7,0.3,1.4,0.5,2.2,0.7c0.9,0.3,1.9,0.6,2.9,0.9c0.4,0.1,0.9,0.3,1.3,0.4c0.4,0.1,0.8,0.2,1.2,0.3
			c0.5,0.1,1,0.3,1.6,0.4c1,0.3,2.1,0.5,3.2,0.8c0.6,0.1,1.2,0.3,1.9,0.4c0.4,0.1,0.8,0.2,1.2,0.2c1,0.2,2.1,0.4,3.1,0.6
			c0.8,0.1,1.6,0.3,2.5,0.4c0.8,0.1,1.6,0.2,2.3,0.3c0.8,0.1,1.5,0.2,2.3,0.3c0,0,0.1,0,0.1,0c1.6,0.2,3.3,0.3,5,0.4
			c0.9,0.1,1.8,0.1,2.7,0.1c0.9,0,1.8,0.1,2.7,0.1h0c0.9,0,1.8,0,2.8,0s1.9,0,2.8,0h0c0.9,0,1.8-0.1,2.7-0.1c0.9,0,1.8-0.1,2.7-0.1
			c1.7-0.1,3.4-0.3,5.1-0.4c0,0,0.1,0,0.1,0c0.8-0.1,1.6-0.2,2.4-0.3c2.1-0.3,4.1-0.6,6.1-0.9c0.6-0.1,1.3-0.2,1.9-0.3
			c2-0.4,3.9-0.8,5.7-1.2c0.6-0.1,1.2-0.3,1.8-0.4c0.4-0.1,0.8-0.2,1.2-0.3c0.6-0.1,1.1-0.3,1.7-0.4c0.1,0,0.1,0,0.2-0.1
			c0.6-0.2,1.2-0.3,1.8-0.5c4.9-1.4,8.8-2.8,11.4-3.9c0.2-0.1,0.5-0.2,0.7-0.3c0.2-0.1,0.4-0.1,0.5-0.2c0.7-0.3,1.2-0.5,1.6-0.7
			c0.1-0.1,0.2-0.1,0.3-0.2c0,0,0,0,0,0c0,0,0.1,0,0.1,0c0.2-0.1,0.3-0.2,0.4-0.2c0,0,0,0,0.1,0l0,0c0,0,0,0,0,0c0,0,0,0,0,0
			c0,0,0,0.1,0.1,0.2c0.2,0.2,0.6,0.6,1.1,1.2c0.1,0.1,0.2,0.2,0.2,0.3c0.3,0.4,0.6,0.9,1,1.4c0.1,0.2,0.2,0.4,0.4,0.6
			c0.1,0.1,0.2,0.3,0.3,0.5c0.6,1,1.2,2.3,1.9,3.7v0c0,0-20.2,11.1-55.7,11.1C405.9,205.5,387.2,195.1,386.5,194.7L386.5,194.7z"/>
		<path class="st18" d="M383.5,206.6c-0.4,2.9-0.7,6.2-0.7,10c0,21.9,8.9,47.1,38.4,63.7l-3.3,6.6c-6.2-3.1-25.5-14.1-36.1-37
			c-4.3-9.3-7.2-20.5-7.2-34c0,0-0.3-18.1,5.8-27.3c0.5-0.8,1-1.5,1.6-2.1h9.3c-0.3,0.3-2.9,3.1-5,8.2c0,0,0,0,0,0
			C385.3,197.7,384.1,201.6,383.5,206.6L383.5,206.6z"/>
		<polyline class="st18" points="355.9,240.6 381.9,249.8 381.9,249.8 		"/>
		<polyline class="st18" points="527.7,238.3 527.1,238.5 502.9,247.1 502.9,247.9 		"/>
	</g>
</g>
<g>
	<path class="st2" d="M1106.4,186.5c0.1,0,0.1,0,0.1-0.1C1106.5,186.5,1106.5,186.5,1106.4,186.5z"/>
	<path class="st2" d="M1092.5,191.6c7.4-2.2,12.3-4.3,13.9-5.1C1104.8,187.3,1099.9,189.5,1092.5,191.6z"/>
	<path class="st3" d="M1449.5,624.9l-197.8-390.5c-2-3.9-5.2-6.9-9.2-8.6l-31.8-13.8c0,0-57.9-21.4-68.2-20.4l0,0l-24.5-3.5l0,0.2
		c-0.5-0.7-1-1.4-1.6-2h-9.4c0,0,0,0,0,0c0,0,0-0.1,0-0.1s-0.1,0.1-0.4,0.2c0,0-0.1,0-0.1,0.1c0,0,0,0,0,0
		c-1.6,0.8-6.5,2.9-13.9,5.1c0,0,0,0,0,0c-9,2.6-21.7,5.3-36.7,5.3s-27.2-2.6-35.8-5.3c0,0,0,0,0,0c-6.5-2-10.9-4-12.6-4.9
		c-0.6-0.3-0.9-0.5-0.9-0.5s0,0,0,0h-9.3c-0.6,0.6-1.1,1.3-1.6,2.1l0-0.3l-24.5,3.5l0,0l-102.8,35c-3.5,1.2-6.4,3.7-8,7L660.7,636.8
		c0,0,20.3,22.2,34.9,26.7c14.6,4.6,40,8.2,40,8.2l146.7-207.3L868,743.6h1c0,0,113.2,17.8,142.6,20.5c29.4,2.7,80.7,2.1,97.8,0
		c17.1-2.1,139.2-20.5,139.2-20.5h-1c0,0-14.4-270.9-14.4-277.6s148.8,210.9,148.8,210.9l0,0c0,0,26-2.7,40.6-7.2
		s32.6-31.8,32.6-31.8L1449.5,624.9L1449.5,624.9z"/>
	<g>
		<defs>
			<path id="SVGID_00000124862169719864847840000013836942568569529768_" d="M1449.5,624.9l-197.8-390.5c-2-3.9-5.2-6.9-9.2-8.6
				l-31.8-13.8c0,0-57.9-21.4-68.2-20.4l0,0l-24.5-3.5l0,0.2c-0.5-0.7-1-1.4-1.6-2h-9.4c0,0,0,0,0,0c0,0,0-0.1,0-0.1
				s-0.1,0.1-0.4,0.2c0,0-0.1,0-0.1,0.1c0,0,0,0,0,0c-1.6,0.8-6.5,2.9-13.9,5.1c0,0,0,0,0,0c-9,2.6-21.7,5.3-36.7,5.3
				s-27.2-2.6-35.8-5.3c0,0,0,0,0,0c-6.5-2-10.9-4-12.6-4.9c-0.6-0.3-0.9-0.5-0.9-0.5s0,0,0,0h-9.3c-0.6,0.6-1.1,1.3-1.6,2.1l0-0.3
				l-24.5,3.5l0,0l-102.8,35c-3.5,1.2-6.4,3.7-8,7L660.7,636.8c0,0,20.3,22.2,34.9,26.7c14.6,4.6,40,8.2,40,8.2l146.7-207.3
				L868,743.6h1c0,0,113.2,17.8,142.6,20.5c29.4,2.7,80.7,2.1,97.8,0c17.1-2.1,139.2-20.5,139.2-20.5h-1c0,0-14.4-270.9-14.4-277.6
				s148.8,210.9,148.8,210.9l0,0c0,0,26-2.7,40.6-7.2s32.6-31.8,32.6-31.8L1449.5,624.9L1449.5,624.9z"/>
		</defs>
		<clipPath id="SVGID_00000096056722599789688960000007624001005359239308_">
			<use xlink:href="#SVGID_00000124862169719864847840000013836942568569529768_"  style="overflow:visible;"/>
		</clipPath>
		<g style="clip-path:url(#SVGID_00000096056722599789688960000007624001005359239308_);">
			<rect x="615.7" y="118.4" class="st3" width="845.3" height="664.6"/>
			<g>
				<polygon class="st5" points="1262.9,769.6 1262.9,657.2 1165.5,557.9 1101.6,557.9 1056.9,621.9 977.4,683.1 906.7,676.8 
					838.3,633.2 825.6,628.9 825.6,769.6 				"/>
				<path class="st6" d="M817.8,632.4c4.2-4.2,10.8-6.2,17.4-5.4c20.8,2.6,36.4,14,47.7,22.3c13.7,10.1,24.6,16.4,39.5,19
					c17.1,3,35.5,2.1,54.5,1c7.4-0.5,12.9-3.1,21.3-8.1c7-4.2,13.9-9.1,20.6-14.6c11.7-9.7,22-21.2,31.4-35.3
					c9.9-14.7,20.3-28.7,38.7-37.8c16.6-8.2,37.9-12,58.5-10.3c22.5,1.9,41.6,9.9,53.8,22.5c6.9,7.2,11.6,15,16.2,22.5
					c4.3,7.1,8.4,13.8,14,19.6c11.4,11.8,26.7,21.4,44.4,27.9c5.8,2.1,9.6,6.2,10.2,11.1c0.6,5.1-2.5,10.5-8,13.6
					c-5.5,3.1-12.4,3.7-18.5,1.4c-17.8-6.5-34.2-15.9-47.5-27.3c-14.2-12.1-23.1-25.9-31-39c-3.6-5.9-7.3-11.6-12.6-15.5
					c-4.2-3.1-10.5-5.4-19-6.9c-14.2-2.5-29.2-0.7-40.9,5c-11.7,5.6-18.5,15.8-25.8,26.6c-1.1,1.6-2.1,3.2-3.2,4.7
					c-9.8,14.3-21.9,27.3-36,38.7c-6.9,5.6-14.6,11-23.1,16.1c-7.8,4.8-17.6,10.7-29.7,12.9c-9.1,1.6-18.3,1.8-27.2,2
					c-1.5,0-2.9,0.1-4.4,0.1c-3.6,0.1-7,0.1-10.3,0.1c-7.4,0-13.9-0.3-19.9-0.8c-23.8-2.1-44-9-61.7-21.3c-2.8-1.9-5.5-3.9-8.1-5.8
					c-10-7.4-19.4-14.4-31.1-15.8c-6.2-0.8-11.3-3.9-13.4-8.4C812.3,642.4,813.5,636.7,817.8,632.4L817.8,632.4z"/>
				<path class="st7" d="M817.8,608.6c4.2-4.2,10.8-6.2,17.4-5.4c20.8,2.6,36.4,14,47.7,22.3c13.7,10.1,24.6,16.4,39.5,19
					c17.1,3,35.5,2.1,54.5,1c7.4-0.5,12.9-3.1,21.3-8.1c7-4.2,13.9-9.1,20.6-14.6c11.7-9.7,22-21.2,31.4-35.3
					c9.9-14.7,20.3-28.7,38.7-37.8c16.6-8.2,37.9-12,58.5-10.3c22.5,1.9,41.6,9.9,53.8,22.5c6.9,7.2,11.6,15,16.2,22.5
					c4.3,7.1,8.4,13.8,14,19.6c11.4,11.8,26.7,21.4,44.4,27.9c5.8,2.1,9.6,6.2,10.2,11.1c0.6,5.1-2.5,10.5-8,13.6
					c-5.5,3.1-12.4,3.7-18.5,1.4c-17.8-6.5-34.2-15.9-47.5-27.3c-14.2-12.1-23.1-25.9-31-39c-3.6-5.9-7.3-11.6-12.6-15.5
					c-4.2-3.1-10.5-5.4-19-6.9c-14.2-2.5-29.2-0.7-40.9,5c-11.7,5.6-18.5,15.8-25.8,26.6c-1.1,1.6-2.1,3.2-3.2,4.7
					c-9.8,14.3-21.9,27.3-36,38.7c-6.9,5.6-14.6,11-23.1,16.1c-7.8,4.8-17.6,10.7-29.7,12.9c-9.1,1.6-18.3,1.8-27.2,2
					c-1.5,0-2.9,0.1-4.4,0.1c-3.6,0.1-7,0.1-10.3,0.1c-7.4,0-13.9-0.3-19.9-0.8c-23.8-2.1-44-9-61.7-21.3c-2.8-1.9-5.5-3.9-8.1-5.8
					c-10-7.4-19.4-14.4-31.1-15.8c-6.2-0.8-11.3-3.9-13.4-8.4C812.3,618.5,813.5,612.9,817.8,608.6L817.8,608.6z"/>
			</g>
			<g>
				<defs>
					<path id="SVGID_00000137811277527693658160000005301273921952030398_" d="M1092.5,191.4c7.4-2.2,12.3-4.3,13.9-5.1l0,0
						c0.1,0,0.1-0.1,0.2-0.1c0.3-0.1,0.4-0.2,0.4-0.2s0,0,0.1,0.1c0,0,0,0,0,0h9.4c0.6,0.6,1.1,1.3,1.6,2l0-0.2l24.5,3.5
						c10.3-1,68.2,20.4,68.2,20.4l31.8,13.8c3.3,1.4,6,3.7,8,6.6c-0.2,2.8-1.7,13.6-12.2,25c-6.2,6.7-13.7,12.1-25.5,15.9
						c-11.5,3.7-27.2,5.8-49.8,6H948.6c-17-0.2-30.1-1.4-40.4-3.6c-17.6-3.7-27.3-10-35-18.3c-10.5-11.4-12-22.1-12.2-24.9
						c1.7-2.7,4.3-4.8,7.4-5.8l102.8-35l24.5-3.5l0,0.3c0.5-0.8,1-1.5,1.6-2.1h9.3l0,0c0,0,0.3,0.2,0.9,0.5
						c1.8,0.9,6.1,2.9,12.6,4.9h0c8.5,2.6,20.8,5.2,35.8,5.2S1083.5,194,1092.5,191.4L1092.5,191.4L1092.5,191.4z"/>
				</defs>
				<clipPath id="SVGID_00000137125932090402316950000008519133255852717721_">
					<use xlink:href="#SVGID_00000137811277527693658160000005301273921952030398_"  style="overflow:visible;"/>
				</clipPath>
				<g style="clip-path:url(#SVGID_00000137125932090402316950000008519133255852717721_);">
					<g>
						<path class="st9" d="M860.4,225.6c0,0,0,12.4,12.3,25.6c12.3,13.2,29.5,21.4,75.4,21.9H988h135.4h39
							c45.9-0.5,63.1-8.7,75.4-21.9c12.3-13.2,12.3-25.6,12.3-25.6"/>
						<path class="st10" d="M860.4,225.6c0,0,0,12.4,12.3,25.6c12.3,13.2,29.5,21.4,75.4,21.9H988h135.4h39
							c45.9-0.5,63.1-8.7,75.4-21.9c12.3-13.2,12.3-25.6,12.3-25.6"/>
						<path class="st11" d="M860.4,225.6c0,0,0,12.4,12.3,25.6c12.3,13.2,29.5,21.4,75.4,21.9H988h135.4h39
							c45.9-0.5,63.1-8.7,75.4-21.9c12.3-13.2,12.3-25.6,12.3-25.6"/>
					</g>
				</g>
			</g>
		</g>
	</g>
</g>
<g>
	<path class="st21" d="M1108.7,192.7c-11.8,5.2-29.4,10.9-51,11.2v0c-0.1,0-0.3,0-0.4,0c-0.1,0-0.2,0-0.4,0v0
		c-17.1-0.2-31.8-3.8-43-7.9c-3.5-1.3-6.7-2.6-9.5-3.9c-2.3-1.1-4.6-2.4-6.7-3.6c-0.7-0.4-1.4-0.8-2.1-1.2l8.6-1.2
		c2,0,4.8,0,8.3,0.1c0.3,0,0.7,0,1,0c0.3,0,0.5,0,0.8,0c10.8,4.2,26.1,8.6,43,8.7c0.1,0,0.3,0,0.4,0c0.1,0,0.3,0,0.4,0
		c16.4-0.1,31.3-4.3,42.1-8.3c7.9,0,15,0,20.7-0.1C1118.2,188,1114.1,190.3,1108.7,192.7L1108.7,192.7z"/>
	<path class="st22" d="M1014,195.9c11.2,4.1,25.9,7.8,43,7.9v0c0.1,0,0.2,0,0.4,0c0.1,0,0.3,0,0.4,0v0c21.6-0.2,39.2-5.9,51-11.2
		c5.4-2.4,9.5-4.7,12.2-6.3c5.4-0.1,9.5-0.2,11.7-0.3c3.8,0.5,10.2,2.2,17.7,4.5c-5.1,7.4-27.6,33.8-92.4,33.8c-0.4,0-0.9,0-1.3,0
		c-0.4,0-0.9,0-1.3,0c-60.8,0-84.4-21.3-91.3-30.3l2.3-0.8l28.9-6.1c0.6,0.4,1.3,0.7,2,1.1c2,1.1,4.4,2.3,7.1,3.6
		c3.3,1.7,6.6,3.1,9,3.8C1013.5,195.8,1013.7,195.9,1014,195.9L1014,195.9z"/>
</g>
<g>
	<defs>
		<path id="SVGID_00000007429794002288556870000000982097814483990964_" d="M908.4,275.4l-25.9,188.7h0L735.2,671.4
			c0,0-25.5-3.6-40.2-8.2c-14.7-4.6-35-26.7-35-26.7l200.4-403.3c0.2-0.4,0.4-0.7,0.6-1.1c0.2,2.8,1.7,13.6,12.3,24.9
			C881.1,265.4,890.8,271.7,908.4,275.4L908.4,275.4z"/>
	</defs>
	<clipPath id="SVGID_00000179603774623174080610000001685413039566054836_">
		<use xlink:href="#SVGID_00000007429794002288556870000000982097814483990964_"  style="overflow:visible;"/>
	</clipPath>
	<g style="clip-path:url(#SVGID_00000179603774623174080610000001685413039566054836_);">
		<polygon class="st15" points="743.9,700 595.7,631.2 600.6,620.9 748.7,689.6 		"/>
		
			<rect x="679.4" y="562.1" transform="matrix(0.4222 -0.9065 0.9065 0.4222 -206.509 1001.1676)" class="st5" width="5.5" height="200.9"/>
		<g>
			<polygon class="st5" points="922,722.1 945,612.1 870,494.9 807.4,481.8 750.6,535.4 660.2,579 592.3,558.3 534.3,501.6 
				522.8,494.9 494,632.6 			"/>
			<path class="st6" d="M514.4,496.7c5-3.3,11.8-3.9,18.2-1.7c19.9,6.8,32.7,21.1,42.1,31.6c11.4,12.7,20.7,21.1,34.7,26.7
				c16.1,6.4,34.3,9.4,53.2,12.1c7.3,1.1,13.3-0.4,22.5-3.6c7.7-2.7,15.5-6.1,23.1-10.1c13.4-7.1,25.8-16.2,38-28.1
				c12.7-12.4,25.7-23.9,45.6-29.1c17.9-4.7,39.5-3.9,59.4,1.9c21.7,6.4,38.7,18.2,48,33.1c5.3,8.4,8.3,17.1,11.3,25.4
				c2.8,7.8,5.4,15.2,9.7,22c8.7,13.9,21.8,26.5,37.7,36.4c5.2,3.2,8.1,8.1,7.7,12.9c-0.4,5.1-4.6,9.7-10.6,11.7
				c-6,1.9-12.9,1-18.4-2.4c-16.1-10-30.3-22.6-40.9-36.5c-11.4-14.8-17.3-30.1-22.3-44.5c-2.3-6.5-4.7-12.8-9.2-17.8
				c-3.5-3.9-9.1-7.4-17.2-10.6c-13.4-5.3-28.4-6.6-41.1-3.5c-12.6,3.1-21.4,11.7-30.7,20.7c-1.4,1.3-2.7,2.7-4.1,4
				c-12.6,12-27.1,22.2-43.1,30.5c-7.9,4-16.6,7.8-25.9,11.1c-8.6,3.1-19.4,6.9-31.7,6.5c-9.3-0.3-18.3-2-27-3.6
				c-1.5-0.3-2.9-0.5-4.3-0.8c-3.6-0.6-6.9-1.3-10.1-2c-7.2-1.5-13.5-3.1-19.3-4.8c-22.9-6.9-41.2-17.9-56-33.5
				c-2.3-2.4-4.5-4.9-6.7-7.4c-8.3-9.3-16.1-18.1-27.2-21.9c-6-2-10.2-6.2-11.4-11C506.9,505.3,509.3,500,514.4,496.7L514.4,496.7z"
				/>
			<path class="st7" d="M519.2,473.4c5-3.3,11.8-3.9,18.2-1.7c19.9,6.8,32.7,21.1,42.1,31.6c11.4,12.7,20.7,21.1,34.7,26.7
				c16.1,6.4,34.3,9.4,53.2,12.1c7.3,1.1,13.3-0.4,22.5-3.6c7.7-2.7,15.5-6.1,23.1-10.1c13.4-7.1,25.8-16.2,38-28.1
				c12.7-12.4,25.7-23.9,45.6-29.1c17.9-4.7,39.5-3.9,59.4,1.9c21.7,6.4,38.7,18.2,48,33.1c5.3,8.4,8.3,17.1,11.3,25.4
				c2.8,7.8,5.4,15.2,9.7,22c8.7,13.9,21.8,26.5,37.7,36.4c5.2,3.2,8.1,8.1,7.7,12.9c-0.4,5.1-4.6,9.7-10.6,11.7
				c-6,1.9-12.9,1-18.4-2.4c-16.1-10-30.3-22.6-40.9-36.5c-11.4-14.8-17.3-30.1-22.3-44.5c-2.3-6.5-4.7-12.8-9.2-17.8
				c-3.5-3.9-9.1-7.4-17.2-10.6c-13.4-5.3-28.4-6.6-41.1-3.5c-12.6,3.1-21.4,11.7-30.7,20.7c-1.4,1.3-2.7,2.7-4.1,4
				c-12.6,12-27.1,22.2-43.1,30.5c-7.9,4-16.6,7.8-25.9,11.1c-8.6,3.1-19.4,6.9-31.7,6.5c-9.3-0.3-18.3-2-27-3.6
				c-1.5-0.3-2.9-0.5-4.3-0.8c-3.6-0.6-6.9-1.3-10.1-2c-7.2-1.5-13.5-3.1-19.3-4.8c-22.9-6.9-41.2-17.9-56-33.5
				c-2.3-2.4-4.5-4.9-6.7-7.4c-8.3-9.3-16.1-18.1-27.2-21.9c-6-2-10.2-6.2-11.4-11C511.8,482,514.2,476.7,519.2,473.4L519.2,473.4z"
				/>
		</g>
	</g>
</g>
<g>
	<defs>
		<path id="SVGID_00000133492195210214493470000006317050462429131448_" d="M1449.5,625l5.8,13c0,0-18.1,27.2-32.7,31.8
			c-7.3,2.3-17.4,4.1-25.7,5.3s-14.8,1.9-14.8,1.9S1240,469.2,1233.6,466l-20.8-192.6c11.8-3.8,19.3-9.2,25.5-15.9
			c10.6-11.4,12.1-22.2,12.3-25c0.4,0.6,0.8,1.3,1.2,2L1449.5,625L1449.5,625z"/>
	</defs>
	<clipPath id="SVGID_00000095327050418135108220000013145774572636971452_">
		<use xlink:href="#SVGID_00000133492195210214493470000006317050462429131448_"  style="overflow:visible;"/>
	</clipPath>
	<g style="clip-path:url(#SVGID_00000095327050418135108220000013145774572636971452_);">
		
			<rect x="1329.9" y="676.3" transform="matrix(0.9065 -0.4222 0.4222 0.9065 -155.9887 659.6292)" class="st15" width="162.8" height="11.4"/>
		<line class="st17" x1="1480.5" y1="644" x2="1370.5" y2="696.4"/>
		<g>
			<polygon class="st5" points="1267.2,787.8 1205.1,694 1231.5,557.5 1284.9,522.2 1357.4,550.9 1457.5,558 1512.9,513.7 
				1545.9,439.6 1554.1,429.1 1631.8,546.4 			"/>
			<path class="st6" d="M1562.6,427.7c-5.9-1.2-12.4,0.7-17.5,5.1c-15.9,13.7-22.6,31.7-27.5,44.9c-5.9,16-11.5,27.2-22.4,37.6
				c-12.6,11.9-28.4,21.4-44.9,30.9c-6.4,3.7-12.5,4.6-22.3,5c-8.2,0.3-16.7,0.1-25.2-0.8c-15.1-1.6-30-5.5-45.7-12.1
				c-16.4-6.8-32.8-12.7-53.1-10.2c-18.3,2.3-38.2,10.9-54.5,23.8c-17.8,14-29.3,31.2-32.4,48.5c-1.8,9.8-1.4,18.9-1.1,27.8
				c0.3,8.3,0.6,16.2-0.8,24.1c-3,16.1-10.4,32.6-21.6,47.7c-3.7,4.9-4.5,10.5-2.4,14.8c2.3,4.6,7.9,7.3,14.2,6.9
				c6.3-0.4,12.3-3.8,16.2-9c11.3-15.2,19.8-32.2,24.5-49c5.1-17.9,4.9-34.3,4.3-49.6c-0.3-6.9-0.3-13.6,2-19.9
				c1.8-5,5.8-10.3,12-16.2c10.5-9.9,23.9-16.6,36.9-18.4c12.9-1.8,24.2,3,36.2,7.9c1.8,0.7,3.5,1.5,5.3,2.2
				c16.1,6.5,33.4,10.7,51.3,12.4c8.8,0.8,18.3,1.1,28.1,0.7c9.2-0.3,20.6-0.8,31.9-5.7c8.5-3.7,16.3-8.6,23.8-13.3
				c1.2-0.8,2.5-1.6,3.7-2.3c3.1-1.9,6-3.8,8.7-5.6c6.2-4.1,11.4-7.9,16.2-11.7c18.7-14.9,31.7-31.8,39.7-51.8
				c1.2-3.1,2.4-6.3,3.5-9.3c4.3-11.7,8.3-22.7,17.2-30.4c4.8-4.1,7.2-9.5,6.6-14.5C1572.7,432.9,1568.5,428.9,1562.6,427.7
				L1562.6,427.7z"/>
			<path class="st7" d="M1549.5,407.8c-5.9-1.2-12.4,0.7-17.5,5.1c-15.9,13.7-22.6,31.7-27.5,44.9c-5.9,16-11.5,27.2-22.4,37.6
				c-12.6,11.9-28.4,21.4-44.9,30.9c-6.4,3.7-12.5,4.6-22.3,5c-8.2,0.3-16.7,0.1-25.2-0.8c-15.1-1.6-30-5.5-45.7-12.1
				c-16.4-6.8-32.8-12.7-53.1-10.2c-18.3,2.3-38.2,10.9-54.5,23.8c-17.8,14-29.3,31.2-32.4,48.5c-1.8,9.8-1.4,18.9-1.1,27.8
				c0.3,8.3,0.6,16.2-0.8,24.1c-3,16.1-10.4,32.6-21.6,47.7c-3.7,4.9-4.5,10.5-2.4,14.8c2.3,4.6,7.9,7.3,14.2,6.9
				c6.3-0.4,12.3-3.8,16.2-9c11.3-15.2,19.8-32.2,24.5-49c5.1-17.9,4.9-34.3,4.3-49.6c-0.3-6.9-0.3-13.6,2-19.9
				c1.8-5,5.8-10.3,12-16.2c10.5-9.9,23.9-16.6,36.9-18.4c12.9-1.8,24.2,3,36.2,7.9c1.8,0.7,3.5,1.5,5.3,2.2
				c16.1,6.5,33.4,10.7,51.3,12.4c8.8,0.8,18.3,1.1,28.1,0.7c9.2-0.3,20.6-0.8,31.9-5.7c8.5-3.7,16.3-8.6,23.8-13.3
				c1.2-0.8,2.5-1.6,3.7-2.3c3.1-1.9,6-3.8,8.7-5.6c6.2-4.1,11.4-7.9,16.2-11.7c18.7-14.9,31.7-31.8,39.7-51.8
				c1.2-3.1,2.4-6.3,3.5-9.3c4.3-11.7,8.3-22.7,17.2-30.4c4.8-4.1,7.2-9.5,6.6-14.5C1559.5,413.1,1555.4,409,1549.5,407.8
				L1549.5,407.8z"/>
		</g>
	</g>
</g>
<path class="st13" d="M956.1,836.8h16.8c6.6,0,12,5.4,12,12v53.6c0,6.6-5.4,12-12,12h-16.8c-6.6,0-12-5.4-12-12v-53.6
	C944.1,842.2,949.5,836.8,956.1,836.8z"/>
<g>
	<defs>
		<path id="SVGID_00000085972058998590403540000015645059848022858942_" d="M1032,970.9c0.4-28.8,0.5-60.5,0.1-95.3H894.8
			c0,0-0.5,40,0.9,96.1c0.3,14,0.8,29.1,1.4,44.8c2.4,62.9,7.1,136,16.5,194.8l7.3,18.8c-0.2,0-0.2,0.1-0.2,0.1h0.3l3.6,9.4
			c0,0,40.6-12.8,79.8,0l3.2-9.4l7.8-23c0,0,11.7-55.5,15.8-190.5c0.4-14.1,0.8-29,1-44.8c0.1,0,0.3,0,0.4-0.1L1032,970.9
			L1032,970.9z"/>
	</defs>
	<clipPath id="SVGID_00000137852839298429972910000009743322725924582809_">
		<use xlink:href="#SVGID_00000085972058998590403540000015645059848022858942_"  style="overflow:visible;"/>
	</clipPath>
	<g style="clip-path:url(#SVGID_00000137852839298429972910000009743322725924582809_);">
		<path class="st26" d="M939.9,860.9c0,0-40.1,242.3-1.6,402.1l-37.4-8.3l-6.2-404.4L939.9,860.9L939.9,860.9z"/>
		<path class="st3" d="M880.7,846.5h180.2c6.6,0,12,5.4,12,12v448.1c0,6.6-5.4,12-12,12H880.7c-6.6,0-12-5.4-12-12V858.5
			C868.7,851.9,874.1,846.5,880.7,846.5z"/>
		<g>
			<polygon class="st5" points="1192.3,1240.8 1192.3,1128.4 1094.9,1029.1 1031,1029.1 986.3,1093.1 906.8,1154.3 836.1,1148 
				767.7,1104.4 755.1,1100.1 755.1,1240.8 			"/>
			<path class="st6" d="M747.2,1103.6c4.2-4.2,10.8-6.2,17.4-5.4c20.8,2.6,36.4,14,47.7,22.3c13.7,10.1,24.6,16.4,39.5,19
				c17.1,3,35.5,2.1,54.5,1c7.4-0.5,12.9-3.1,21.3-8.1c7-4.2,13.9-9.1,20.6-14.6c11.7-9.7,22-21.2,31.4-35.3
				c9.9-14.7,20.3-28.7,38.7-37.8c16.6-8.2,37.9-12,58.5-10.3c22.5,1.9,41.6,9.9,53.8,22.5c6.9,7.2,11.6,15,16.2,22.5
				c4.3,7.1,8.4,13.8,14,19.6c11.4,11.8,26.7,21.4,44.4,27.9c5.8,2.1,9.6,6.2,10.2,11.1c0.6,5.1-2.5,10.5-8,13.6
				c-5.5,3.1-12.4,3.7-18.5,1.4c-17.8-6.5-34.2-15.9-47.5-27.3c-14.2-12.1-23.1-25.9-31-39c-3.6-5.9-7.3-11.6-12.6-15.5
				c-4.2-3.1-10.5-5.4-19-6.9c-14.2-2.5-29.2-0.7-40.9,5c-11.7,5.6-18.5,15.8-25.8,26.6c-1.1,1.6-2.1,3.2-3.2,4.7
				c-9.8,14.3-21.9,27.3-36,38.7c-6.9,5.6-14.6,11-23.1,16.1c-7.8,4.8-17.6,10.7-29.7,12.9c-9.1,1.6-18.3,1.8-27.2,2
				c-1.5,0-2.9,0.1-4.4,0.1c-3.6,0.1-7,0.1-10.3,0.1c-7.4,0-13.9-0.3-19.9-0.8c-23.8-2.1-44-9-61.7-21.3c-2.8-1.9-5.5-3.9-8.1-5.8
				c-10-7.4-19.4-14.4-31.1-15.8c-6.2-0.8-11.3-3.9-13.4-8.4C741.7,1113.6,742.9,1107.9,747.2,1103.6L747.2,1103.6z"/>
			<path class="st7" d="M747.2,1079.8c4.2-4.2,10.8-6.2,17.4-5.4c20.8,2.6,36.4,14,47.7,22.3c13.7,10.1,24.6,16.4,39.5,19
				c17.1,3,35.5,2.1,54.5,1c7.4-0.5,12.9-3.1,21.3-8.1c7-4.2,13.9-9.1,20.6-14.6c11.7-9.7,22-21.2,31.4-35.3
				c9.9-14.7,20.3-28.7,38.7-37.8c16.6-8.2,37.9-12,58.5-10.3c22.5,1.9,41.6,9.9,53.8,22.5c6.9,7.2,11.6,15,16.2,22.5
				c4.3,7.1,8.4,13.8,14,19.6c11.4,11.8,26.7,21.4,44.4,27.9c5.8,2.1,9.6,6.2,10.2,11.1c0.6,5.1-2.5,10.5-8,13.6
				c-5.5,3.1-12.4,3.7-18.5,1.4c-17.8-6.5-34.2-15.9-47.5-27.3c-14.2-12.1-23.1-25.9-31-39c-3.6-5.9-7.3-11.6-12.6-15.5
				c-4.2-3.1-10.5-5.4-19-6.9c-14.2-2.5-29.2-0.7-40.9,5c-11.7,5.6-18.5,15.8-25.8,26.6c-1.1,1.6-2.1,3.2-3.2,4.7
				c-9.8,14.3-21.9,27.3-36,38.7c-6.9,5.6-14.6,11-23.1,16.1c-7.8,4.8-17.6,10.7-29.7,12.9c-9.1,1.6-18.3,1.8-27.2,2
				c-1.5,0-2.9,0.1-4.4,0.1c-3.6,0.1-7,0.1-10.3,0.1c-7.4,0-13.9-0.3-19.9-0.8c-23.8-2.1-44-9-61.7-21.3c-2.8-1.9-5.5-3.9-8.1-5.8
				c-10-7.4-19.4-14.4-31.1-15.8c-6.2-0.8-11.3-3.9-13.4-8.4C741.7,1089.7,742.9,1084.1,747.2,1079.8L747.2,1079.8z"/>
		</g>
	</g>
</g>
<path class="st13" d="M1141.4,836.8h16.8c6.6,0,12,5.4,12,12v53.6c0,6.6-5.4,12-12,12h-16.8c-6.6,0-12-5.4-12-12v-53.6
	C1129.4,842.2,1134.8,836.8,1141.4,836.8z"/>
<g>
	<defs>
		<path id="SVGID_00000085228811992947078340000010796527062907475632_" d="M1217.3,970.9c0.4-28.8,0.5-60.5,0.1-95.3h-137.3
			c0,0-0.5,40,0.9,96.1c0.3,14,0.8,29.1,1.4,44.8c2.4,62.9,7.1,136,16.5,194.8l7.3,18.8c-0.2,0-0.2,0.1-0.2,0.1h0.3l3.6,9.4
			c0,0,40.6-12.8,79.8,0l3.2-9.4l7.8-23c0,0,11.7-55.5,15.8-190.5c0.4-14.1,0.8-29,1-44.8c0.1,0,0.3,0,0.4-0.1L1217.3,970.9
			L1217.3,970.9z"/>
	</defs>
	<clipPath id="SVGID_00000116946911036567092840000007164399502685699488_">
		<use xlink:href="#SVGID_00000085228811992947078340000010796527062907475632_"  style="overflow:visible;"/>
	</clipPath>
	<g style="clip-path:url(#SVGID_00000116946911036567092840000007164399502685699488_);">
		<path class="st26" d="M1125.2,860.9c0,0-40.1,242.3-1.6,402.1l-37.4-8.3l-6.2-404.4L1125.2,860.9L1125.2,860.9z"/>
		<path class="st3" d="M1066,846.5h180.2c6.6,0,12,5.4,12,12v448.1c0,6.6-5.4,12-12,12H1066c-6.6,0-12-5.4-12-12V858.5
			C1054,851.9,1059.4,846.5,1066,846.5z"/>
		<g>
			<polygon class="st5" points="1377.7,1240.8 1377.7,1128.4 1280.2,1029.1 1216.3,1029.1 1171.7,1093.1 1092.1,1154.3 1021.4,1148 
				953,1104.4 940.4,1100.1 940.4,1240.8 			"/>
			<path class="st6" d="M932.5,1103.6c4.2-4.2,10.8-6.2,17.4-5.4c20.8,2.6,36.4,14,47.7,22.3c13.7,10.1,24.6,16.4,39.5,19
				c17.1,3,35.5,2.1,54.5,1c7.4-0.5,12.9-3.1,21.3-8.1c7-4.2,13.9-9.1,20.6-14.6c11.7-9.7,22-21.2,31.4-35.3
				c9.9-14.7,20.3-28.7,38.7-37.8c16.6-8.2,37.9-12,58.5-10.3c22.5,1.9,41.6,9.9,53.8,22.5c6.9,7.2,11.6,15,16.2,22.5
				c4.3,7.1,8.4,13.8,14,19.6c11.4,11.8,26.7,21.4,44.4,27.9c5.8,2.1,9.6,6.2,10.2,11.1c0.6,5.1-2.5,10.5-8,13.6
				c-5.5,3.1-12.4,3.7-18.5,1.4c-17.8-6.5-34.2-15.9-47.5-27.3c-14.2-12.1-23.1-25.9-31-39c-3.6-5.9-7.3-11.6-12.6-15.5
				c-4.2-3.1-10.5-5.4-19-6.9c-14.2-2.5-29.2-0.7-40.9,5c-11.7,5.6-18.5,15.8-25.8,26.6c-1.1,1.6-2.1,3.2-3.2,4.7
				c-9.8,14.3-21.9,27.3-36,38.7c-6.9,5.6-14.6,11-23.1,16.1c-7.8,4.8-17.6,10.7-29.7,12.9c-9.1,1.6-18.3,1.8-27.2,2
				c-1.5,0-2.9,0.1-4.4,0.1c-3.6,0.1-7,0.1-10.3,0.1c-7.4,0-13.9-0.3-19.9-0.8c-23.8-2.1-44-9-61.7-21.3c-2.8-1.9-5.5-3.9-8.1-5.8
				c-10-7.4-19.4-14.4-31.1-15.8c-6.2-0.8-11.3-3.9-13.4-8.4C927,1113.6,928.2,1107.9,932.5,1103.6L932.5,1103.6z"/>
			<path class="st7" d="M932.5,1079.8c4.2-4.2,10.8-6.2,17.4-5.4c20.8,2.6,36.4,14,47.7,22.3c13.7,10.1,24.6,16.4,39.5,19
				c17.1,3,35.5,2.1,54.5,1c7.4-0.5,12.9-3.1,21.3-8.1c7-4.2,13.9-9.1,20.6-14.6c11.7-9.7,22-21.2,31.4-35.3
				c9.9-14.7,20.3-28.7,38.7-37.8c16.6-8.2,37.9-12,58.5-10.3c22.5,1.9,41.6,9.9,53.8,22.5c6.9,7.2,11.6,15,16.2,22.5
				c4.3,7.1,8.4,13.8,14,19.6c11.4,11.8,26.7,21.4,44.4,27.9c5.8,2.1,9.6,6.2,10.2,11.1c0.6,5.1-2.5,10.5-8,13.6
				c-5.5,3.1-12.4,3.7-18.5,1.4c-17.8-6.5-34.2-15.9-47.5-27.3c-14.2-12.1-23.1-25.9-31-39c-3.6-5.9-7.3-11.6-12.6-15.5
				c-4.2-3.1-10.5-5.4-19-6.9c-14.2-2.5-29.2-0.7-40.9,5c-11.7,5.6-18.5,15.8-25.8,26.6c-1.1,1.6-2.1,3.2-3.2,4.7
				c-9.8,14.3-21.9,27.3-36,38.7c-6.9,5.6-14.6,11-23.1,16.1c-7.8,4.8-17.6,10.7-29.7,12.9c-9.1,1.6-18.3,1.8-27.2,2
				c-1.5,0-2.9,0.1-4.4,0.1c-3.6,0.1-7,0.1-10.3,0.1c-7.4,0-13.9-0.3-19.9-0.8c-23.8-2.1-44-9-61.7-21.3c-2.8-1.9-5.5-3.9-8.1-5.8
				c-10-7.4-19.4-14.4-31.1-15.8c-6.2-0.8-11.3-3.9-13.4-8.4C927,1089.7,928.2,1084.1,932.5,1079.8L932.5,1079.8z"/>
		</g>
	</g>
</g>
<g>
	<g>
		<g>
			<g>
				<g>
					<path class="st28" d="M1032.1,875.6H894.8c0,0-2.3,203.9,18.7,335.7l10.9,28.3c0,0,40.6-12.8,79.8,0l10.9-32.4
						C1015.2,1207.2,1034.9,1114.1,1032.1,875.6L1032.1,875.6z"/>
					<path class="st29" d="M924.5,1239.5l-3.4-9.5c0,0,43.7-12.6,86.4,0.1l-3.2,9.4"/>
					<g>
						<rect x="948.4" y="889.3" class="st28" width="32.2" height="48.6"/>
						<line class="st28" x1="948.4" y1="937.8" x2="980.6" y2="889.3"/>
						<line class="st28" x1="948.4" y1="889.3" x2="980.6" y2="937.8"/>
					</g>
					<path class="st28" d="M939.9,875.6c0,0,3.4,64-1.7,73.5c-5.1,9.6-13.8,27.4-42.5,22.6"/>
					<path class="st28" d="M988.2,875.6c0,0-3.4,64,1.7,73.5c5.1,9.6,13.8,27.4,42.5,22.6"/>
					<path class="st28" d="M897.1,1016.5c0,0,27.8,1.7,46.6-8.5s46.9,0,46.9,0s11.2,10.8,40.5,8.7"/>
					<line class="st29" x1="1007.5" y1="1230.2" x2="1004.3" y2="1239.5"/>
					<line class="st29" x1="924.5" y1="1239.5" x2="921.1" y2="1230"/>
					<g>
						<g>
							<line class="st30" x1="928.5" y1="1238" x2="925.1" y2="1228.6"/>
							<line class="st30" x1="929.3" y1="1227.8" x2="932.3" y2="1237.2"/>
							<line class="st30" x1="933.6" y1="1227.3" x2="936.2" y2="1236.7"/>
							<line class="st30" x1="937.9" y1="1226.8" x2="940.1" y2="1236.2"/>
							<line class="st30" x1="942.2" y1="1226.3" x2="944" y2="1235.7"/>
							<line class="st30" x1="946.4" y1="1225.9" x2="948" y2="1235.2"/>
							<line class="st30" x1="950.7" y1="1225.4" x2="951.9" y2="1234.7"/>
							<line class="st30" x1="955" y1="1224.9" x2="955.8" y2="1234.2"/>
							<line class="st30" x1="959.3" y1="1224.4" x2="959.7" y2="1233.7"/>
							<line class="st30" x1="963.6" y1="1224.5" x2="963.6" y2="1233.9"/>
						</g>
						<g>
							<line class="st30" x1="1002" y1="1238.8" x2="1005.4" y2="1229.4"/>
							<line class="st30" x1="1001.6" y1="1228.3" x2="998.5" y2="1237.7"/>
							<line class="st30" x1="997.4" y1="1227.3" x2="994.8" y2="1236.7"/>
							<line class="st30" x1="993.2" y1="1226.8" x2="990.9" y2="1236.2"/>
							<line class="st30" x1="988.9" y1="1226.3" x2="987" y2="1235.7"/>
							<line class="st30" x1="984.6" y1="1225.8" x2="983.1" y2="1235.2"/>
							<line class="st30" x1="980.3" y1="1225.3" x2="979.2" y2="1234.7"/>
							<line class="st30" x1="976" y1="1224.8" x2="975.3" y2="1234.2"/>
							<line class="st30" x1="971.7" y1="1224.3" x2="971.4" y2="1233.7"/>
							<line class="st30" x1="967.5" y1="1224.5" x2="967.5" y2="1233.8"/>
						</g>
					</g>
				</g>
				<g>
					<defs>
						<path id="SVGID_00000059996943538116304910000017612693941249799570_" d="M1032,970.9c0.4-28.8,0.5-60.5,0.1-95.3H894.8
							c0,0-0.5,40,0.9,96.1c0.3,14,0.8,29.1,1.4,44.8c2.4,62.9,7.1,136,16.5,194.8l7.3,18.8c-0.2,0-0.2,0.1-0.2,0.1h0.3l3.6,9.4
							c0,0,40.6-12.8,79.8,0l3.2-9.4l7.8-23c0,0,11.7-55.5,15.8-190.5c0.4-14.1,0.8-29,1-44.8c0.1,0,0.3,0,0.4-0.1L1032,970.9
							L1032,970.9z"/>
					</defs>
					<clipPath id="SVGID_00000041993226448934139240000017092827365151542946_">
						<use xlink:href="#SVGID_00000059996943538116304910000017612693941249799570_"  style="overflow:visible;"/>
					</clipPath>
					<g style="clip-path:url(#SVGID_00000041993226448934139240000017092827365151542946_);">
						<path class="st26" d="M939.9,860.9c0,0-40.1,242.3-1.6,402.1l-37.4-8.3l-6.2-404.4L939.9,860.9L939.9,860.9z"/>
						<path class="st26" d="M987.2,866.1c0,0,40.1,242.3,1.6,402.1l37.4-8.3l6.2-404.4L987.2,866.1L987.2,866.1z"/>
					</g>
				</g>
				<path class="st13" d="M944.1,875.6v-26.8c0-6.6,5.4-12,12-12h16.8c6.6,0,12,5.4,12,12v26.8"/>
			</g>
			<g>
				<g>
					<path class="st28" d="M1218.8,875.6h-137.3c0,0-2.3,203.9,18.7,335.7l10.9,28.3c0,0,40.6-12.8,79.8,0l10.9-32.4
						C1202,1207.2,1221.6,1114.1,1218.8,875.6L1218.8,875.6z"/>
					<path class="st29" d="M1111.2,1239.5l-3.4-9.5c0,0,43.7-12.6,86.4,0.1l-3.2,9.4"/>
					<g>
						<rect x="1135.2" y="889.3" class="st28" width="32.2" height="48.6"/>
						<line class="st28" x1="1135.2" y1="937.8" x2="1167.3" y2="889.3"/>
						<line class="st28" x1="1135.2" y1="889.3" x2="1167.3" y2="937.8"/>
					</g>
					<path class="st28" d="M1126.6,875.6c0,0,3.4,64-1.7,73.5s-13.8,27.4-42.5,22.6"/>
					<path class="st28" d="M1174.9,875.6c0,0-3.4,64,1.7,73.5s13.8,27.4,42.5,22.6"/>
					<path class="st28" d="M1083.8,1016.5c0,0,27.8,1.7,46.6-8.5s46.9,0,46.9,0s11.2,10.8,40.5,8.7"/>
					<line class="st29" x1="1194.2" y1="1230.2" x2="1191" y2="1239.5"/>
					<line class="st29" x1="1111.2" y1="1239.5" x2="1107.8" y2="1230"/>
					<g>
						<g>
							<line class="st30" x1="1115.3" y1="1238" x2="1111.9" y2="1228.6"/>
							<line class="st30" x1="1116" y1="1227.8" x2="1119.1" y2="1237.2"/>
							<line class="st30" x1="1120.3" y1="1227.3" x2="1123" y2="1236.7"/>
							<line class="st30" x1="1124.6" y1="1226.8" x2="1126.9" y2="1236.2"/>
							<line class="st30" x1="1128.9" y1="1226.3" x2="1130.8" y2="1235.7"/>
							<line class="st30" x1="1133.2" y1="1225.9" x2="1134.7" y2="1235.2"/>
							<line class="st30" x1="1137.4" y1="1225.4" x2="1138.6" y2="1234.7"/>
							<line class="st30" x1="1141.7" y1="1224.9" x2="1142.5" y2="1234.2"/>
							<line class="st30" x1="1146" y1="1224.4" x2="1146.4" y2="1233.7"/>
							<line class="st30" x1="1150.3" y1="1224.5" x2="1150.3" y2="1233.9"/>
						</g>
						<g>
							<line class="st30" x1="1188.7" y1="1238.8" x2="1192.1" y2="1229.4"/>
							<line class="st30" x1="1188.3" y1="1228.3" x2="1185.3" y2="1237.7"/>
							<line class="st30" x1="1184.2" y1="1227.3" x2="1181.5" y2="1236.7"/>
							<line class="st30" x1="1179.9" y1="1226.8" x2="1177.6" y2="1236.2"/>
							<line class="st30" x1="1175.6" y1="1226.3" x2="1173.7" y2="1235.7"/>
							<line class="st30" x1="1171.3" y1="1225.8" x2="1169.8" y2="1235.2"/>
							<line class="st30" x1="1167" y1="1225.3" x2="1165.9" y2="1234.7"/>
							<line class="st30" x1="1162.7" y1="1224.8" x2="1162" y2="1234.2"/>
							<line class="st30" x1="1158.5" y1="1224.3" x2="1158.1" y2="1233.7"/>
							<line class="st30" x1="1154.2" y1="1224.5" x2="1154.2" y2="1233.8"/>
						</g>
					</g>
				</g>
				<g>
					<defs>
						<path id="SVGID_00000111174609881376560800000017721383968324769697_" d="M1218.7,970.9c0.4-28.8,0.5-60.5,0.1-95.3h-137.3
							c0,0-0.5,40,0.9,96.1c0.3,14,0.8,29.1,1.4,44.8c2.4,62.9,7.1,136,16.5,194.8l7.3,18.8c-0.2,0-0.2,0.1-0.2,0.1h0.3l3.6,9.4
							c0,0,40.6-12.8,79.8,0l3.2-9.4l7.8-23c0,0,11.7-55.5,15.8-190.5c0.4-14.1,0.8-29,1-44.8c0.1,0,0.3,0,0.4-0.1L1218.7,970.9
							L1218.7,970.9z"/>
					</defs>
					<clipPath id="SVGID_00000040553385205119115980000009994488635735366327_">
						<use xlink:href="#SVGID_00000111174609881376560800000017721383968324769697_"  style="overflow:visible;"/>
					</clipPath>
					<g style="clip-path:url(#SVGID_00000040553385205119115980000009994488635735366327_);">
						<path class="st26" d="M1126.6,860.9c0,0-40.1,242.3-1.6,402.1l-37.4-8.3l-6.2-404.4L1126.6,860.9L1126.6,860.9z"/>
						<path class="st26" d="M1174,866.1c0,0,40.1,242.3,1.6,402.1l37.4-8.3l6.2-404.4L1174,866.1L1174,866.1z"/>
					</g>
				</g>
				<path class="st13" d="M1130.8,875.6v-26.8c0-6.6,5.4-12,12-12h16.8c6.6,0,12,5.4,12,12v26.8"/>
			</g>
		</g>
		<g>
			<path class="st33" d="M860.6,231.7c0,0,0,12.4,12.3,25.6c12.3,13.2,29.5,21.4,75.4,21.9h214.4c45.9-0.5,63.1-8.7,75.4-21.9
				c12.3-13.2,12.3-25.6,12.3-25.6"/>
			<g>
				<g>
					<path class="st34" d="M666.5,626.9c0.3,0,0.7,0.1,1,0.1"/>
					<path class="st35" d="M669.7,627.3c29.2,3.4,53.9,15.6,71.6,31.7"/>
					<path class="st34" d="M742.1,659.7c0.3,0.2,0.5,0.5,0.8,0.7"/>
				</g>
				<path class="st34" d="M668.1,621.8c32.1,3.4,58.9,17,77.4,35"/>
				<g>
					<path class="st34" d="M1451,632.7c-0.3,0-0.7,0.1-1,0.1"/>
					<path class="st35" d="M1447.8,633c-29.2,3.4-53.9,15.6-71.6,31.7"/>
					<path class="st34" d="M1375.4,665.5c-0.3,0.2-0.5,0.5-0.8,0.7"/>
				</g>
				<path class="st34" d="M1449.4,627.5c-32.1,3.4-58.9,17-77.4,35"/>
				<path class="st36" d="M868.7,726.1c0,0,113.2,17.8,142.6,20.5c29.4,2.7,80.7,2.1,97.8,0c17.1-2.1,136.8-20.2,136.8-20.2"/>
				<path class="st34" d="M868.7,714.9c0,0,113.2,17.8,142.6,20.5c29.4,2.7,80.7,2.1,97.8,0c17.1-2.1,136.4-20.1,136.4-20.1"/>
			</g>
			<line class="st37" x1="881.9" y1="464.4" x2="907.7" y2="275.7"/>
			<line class="st37" x1="1233.5" y1="469.5" x2="1212.3" y2="273.2"/>
			<line class="st28" x1="660.4" y1="636.8" x2="735.3" y2="671.7"/>
			<g>
				<path class="st18" d="M1005.2,188.4L1005.2,188.4l3.2,0C1006.3,188.4,1005.2,188.4,1005.2,188.4z"/>
				<path class="st18" d="M1455,637.9l-5.8-13l-197.8-390.5c-2-3.9-5.2-6.9-9.2-8.6l-31.8-13.8c0,0-65.7-24.6-75.9-23.6
					c-3.1,0.3-16.5,0.4-33.5,0.5c-10.8,3.9-25.7,7.9-42.1,8c-16.9-0.1-32.2-4.3-43-8.3c-4.8,0-8.6-0.1-10.9-0.1l-37.8,5.1L868,226.6
					c-3.5,1.2-6.4,3.7-8,7L660.4,636.8c0,0,20.3,22.2,34.9,26.7c14.6,4.6,40,8.2,40,8.2L882,464.4l-14.4,279.1h1
					c0,0,113.2,17.8,142.6,20.5c29.4,2.7,80.7,2.1,97.8,0c17.1-2.1,139.2-20.5,139.2-20.5h-1c0,0-14.4-270.9-14.4-277.6
					s148.8,210.9,148.8,210.9l0,0c0,0,26-2.7,40.6-7.2C1436.9,665.1,1455,637.9,1455,637.9L1455,637.9L1455,637.9z"/>
				<path class="st38" d="M1005.1,188.5c2.3,0,6,0.1,10.8,0.1c10.8,4,26.2,8.2,43,8.3c16.4-0.1,31.3-4.1,42.1-8
					c17,0,30.3-0.1,33.5-0.5c10.3-1,75.9,23.6,75.9,23.6l31.8,13.8c3.3,1.4,6,3.7,8,6.6c-0.2,2.7-1.7,13.6-12.3,25
					c-12.3,13.2-29.5,21.4-75.4,21.9H948.2c-45.9-0.5-63.1-8.7-75.4-21.9c-10.5-11.4-12-22.1-12.3-24.9c1.7-2.8,4.3-4.8,7.4-5.8
					l99.2-33.1L1005.1,188.5L1005.1,188.5L1005.1,188.5z"/>
			</g>
			<path class="st39" d="M659.7,636.7c0,0,20.3,22.2,34.9,26.7c14.6,4.6,40,8.2,40,8.2"/>
			<path class="st39" d="M1454.3,637.7c0,0-18.1,27.2-32.6,31.8s-40.6,7.2-40.6,7.2"/>
			<g>
				<defs>
					<path id="SVGID_00000047021666208127388730000010258140978419717257_" d="M1449.5,625l5.8,13c0,0-18.1,27.2-32.7,31.8
						c-7.3,2.3-17.4,4.1-25.7,5.3s-14.8,1.9-14.8,1.9S1240,469.2,1233.6,466l-20.8-192.6c11.8-3.8,19.3-9.2,25.5-15.9
						c10.6-11.4,12.1-22.2,12.3-25c0.4,0.6,0.8,1.3,1.2,2L1449.5,625L1449.5,625z"/>
				</defs>
				<clipPath id="SVGID_00000137848171329107412130000000253255400869790097_">
					<use xlink:href="#SVGID_00000047021666208127388730000010258140978419717257_"  style="overflow:visible;"/>
				</clipPath>
				<g style="clip-path:url(#SVGID_00000137848171329107412130000000253255400869790097_);">
					
						<rect x="1329.9" y="676.3" transform="matrix(0.9065 -0.4222 0.4222 0.9065 -155.9887 659.6292)" class="st15" width="162.8" height="11.4"/>
					<line class="st17" x1="1480.5" y1="644" x2="1370.5" y2="696.4"/>
				</g>
			</g>
			<g>
				<defs>
					<path id="SVGID_00000029005471663677749230000007904884923854881937_" d="M1449.9,624.9l-197.8-390.5c-2-3.9-5.2-6.9-9.2-8.6
						l-31.8-13.8c0,0-57.9-21.4-68.2-20.4l0,0l-24.5-3.5l0,0.2c-0.5-0.7-1-1.4-1.6-2h-9.4c0,0,0,0,0,0c0,0,0-0.1,0-0.1
						s-0.1,0.1-0.4,0.2c0,0-0.1,0-0.1,0.1c0,0,0,0,0,0c-1.6,0.8-6.5,2.9-13.9,5.1c0,0,0,0,0,0c-9,2.6-21.7,5.3-36.7,5.3
						s-27.2-2.6-35.8-5.3c0,0,0,0,0,0c-6.5-2-10.9-4-12.6-4.9c-0.6-0.3-0.9-0.5-0.9-0.5s0,0,0,0h-9.3c-0.6,0.6-1.1,1.3-1.6,2.1
						l0-0.3l-24.5,3.5l0,0l-102.8,35c-3.5,1.2-6.4,3.7-8,7L661.1,636.8c0,0,20.3,22.2,34.9,26.7c14.6,4.6,40,8.2,40,8.2l146.7-207.3
						l-14.4,279.1h1c0,0,113.2,17.8,142.6,20.5c29.4,2.7,80.7,2.1,97.8,0c17.1-2.1,139.2-20.5,139.2-20.5h-1
						c0,0-14.4-270.9-14.4-277.6s148.8,210.9,148.8,210.9l0,0c0,0,26-2.7,40.6-7.2s32.6-31.8,32.6-31.8L1449.9,624.9L1449.9,624.9z"
						/>
				</defs>
				<clipPath id="SVGID_00000147936271369039214540000002394496787356001186_">
					<use xlink:href="#SVGID_00000029005471663677749230000007904884923854881937_"  style="overflow:visible;"/>
				</clipPath>
				<g style="clip-path:url(#SVGID_00000147936271369039214540000002394496787356001186_);">
					<g class="st12">
						<path class="st13" d="M847.7,260.6L693.8,664l-35.6-23.7C658.2,640.3,810.1,272.9,847.7,260.6L847.7,260.6z"/>
						<path class="st13" d="M1264.3,260.6l165.4,425.4l35.6-23.7C1465.4,662.2,1302,272.9,1264.3,260.6L1264.3,260.6z"/>
						<path class="st13" d="M909.8,273.2L909.8,273.2c-36.3,157,16.2,324.1-20.2,481.2c-22.4-2.5-44.9-5.1-67.3-7.6
							C881.1,592.3,851,427.7,909.8,273.2L909.8,273.2z"/>
						<path class="st13" d="M1210,272.2L1210,272.2c35.9,157.1-17,324.1,18.9,481.2c22.4-2.5,44.9-4.9,67.3-7.4
							C1237.9,591.3,1268.4,426.8,1210,272.2L1210,272.2z"/>
					</g>
				</g>
			</g>
		</g>
		<g>
			<g>
				<defs>
					<path id="SVGID_00000084528505122848464870000005352788169691128476_" d="M246.5,779v576.6h426.3V779H246.5z M602,1239.8
						c-5,9.6-42.4,15.1-42.4,15.1c-49.3,7.8-89.9-12.3-89.9-12.3v40.6c-49.7,64.3-166.1,10.4-166.1,10.4
						c-5.5-141.3,12.7-299.3,12.7-299.3l7.3-38.7l1.2-5.4c-5-24.2,7.8-60.2,7.8-60.2c4.3,8.2,3.6,7.3,13.2,13.9
						c9.6,6.6,53.1,18.2,60,21.4c6.8,3.2,10.5,11.6,15.5,17.8c5,6.2,78.4,5.5,78.4,5.5s10.3,0.2,10.5-0.2c0.2-0.5,1.6-3.6,1.6-3.6
						l45.2-10.9c0,0,3.2-0.9,5,2.7c1.8,3.6,24.2-18.7,24.2-18.7c2.7,9.6,3.2,27.8,4.1,36c0.9,8.2-3.2,12.3-3.2,15.1
						s1.8,13.2,7.3,28.3s12.8,96.7,12.8,120.4S602,1239.8,602,1239.8L602,1239.8z"/>
				</defs>
				<clipPath id="SVGID_00000041995212472262374420000010714072295571906213_">
					<use xlink:href="#SVGID_00000084528505122848464870000005352788169691128476_"  style="overflow:visible;"/>
				</clipPath>
				<g style="clip-path:url(#SVGID_00000041995212472262374420000010714072295571906213_);">
					<path class="st43" d="M333.9,843.5c0,0,18.7-2.7,22,0c0,0,0-17.8,2.3-24.6s11.2-16.4,25.3-17.8s38.3-0.5,42.1,2.3
						c3.7,2.7,15,22.8,15,31.9l36.9-5.9c0,0,39.1-2.7,51.8-2.7s36.6,3.6,39.4,6.8s3.3-3.2,7.5,18.2c4.2,21.4,11.3,66.3,9.8,72.1
						c-1.5,5.8,0,33.1-31.8,34.8C522.4,960.3,319.2,911.5,333.9,843.5L333.9,843.5z"/>
					<path class="st44" d="M479.7,916.1c0,0,8.6,15.8,15.1,21.3s13,7.9,14,4.5s5.8-4.5,5.8-4.5s44.8-10.2,48.6-10.6
						s5.8-13.5,3.8-15.3c-2.1-1.8-10.6-17.2-37.6-13.1S481.4,905.7,479.7,916.1L479.7,916.1z"/>
					<path class="st43" d="M496.7,954.6c0,0-37.4-64.6-71.5-77.8s-63.1-14.6-73-18.7c-9.8-4.1-16.4,0-17.3-7.3l-0.9-7.3h-3.3
						c0,0-1.1,10.6,0,20.1c0.3,2.7,3.2,4.4,3.2,4.4s-1.9,22.6-1.2,28c0.7,5.7,44.3,51.5,44.3,51.5l79.1,31.9L496.7,954.6
						L496.7,954.6z"/>
					<path class="st44" d="M415.1,803.8c0,0-35.4-6.8-43.8,5.5c-8.4,12.3-11.6,21.5-6.3,34.2c5.3,12.7,12.6,17.8,17.5,17.8
						s39.3,0.3,43.5-5.1s6.7-8.2,4.6-21.2C428.4,822,429.1,812.1,415.1,803.8L415.1,803.8z"/>
					<path class="st44" d="M576.2,855.5c0,0-6.1,37.6-10.3,38.3s-51.1,0.3-69.2-8.6c-18.1-8.9-25.8-18.8-31.5-23.9
						c-5.6-5.1-9.8-7.5-7-14.4c2.8-6.8,9.8-15.9,42.8-15.3S577,823,576.2,855.5L576.2,855.5z"/>
					<path class="st45" d="M425.6,806.9c0,0,13.7,31.8,13,48.6s-1.4,22.4,3.9,24s36.1,7.3,40,16.4"/>
					<path class="st45" d="M442.4,858.2c0,0,32.9-12.3,62.7-10.9c29.9,1.4,53.8,5.1,58.9,8.9c5,3.8,14.6,8.9,14.6,8.9"/>
					<path class="st45" d="M558.5,909.8c-29.3-16.7-73.7,6.3-73.7,6.3"/>
					<path class="st44" d="M337,858.7c0,0,78.8,15,92,25.6s46.5,46.8,50.7,53.3c4.2,6.5,5.7,11.6-11.5,8.6
						c-11.6-2-25.3-3.5-33.1-4.3c-3.9-0.4-7.5-2.3-10-5.3c-2.1-2.5-4.8-5.8-7.9-9.5c-6.8-8.1-4.7-4.7-19.8-9.1s-42.7-9.4-52.6-19.2
						C334.9,888.8,335.3,863.5,337,858.7L337,858.7z"/>
					<path class="st46" d="M576.2,851.7c0,0-2.9,41.6-10.7,49.8c-7.8,8.2-17.8,41.6-0.6,34.9"/>
				</g>
			</g>
			<g>
				<defs>
					<path id="SVGID_00000134966260359724647150000012853160142764656797_" d="M332.4,890c0,0-12.8,36-7.8,60.2l-1.2,5.4l-7.3,38.7
						c0,0-18.1,158-12.7,299.3c0,0,116.4,53.9,166.1-10.4v-40.6c0,0,40.6,20.1,89.8,12.3c0,0,37.4-5.5,42.4-15.1c0,0,5-98.5,5-122.2
						s-7.3-105.4-12.8-120.4c-5.5-15.1-7.3-25.5-7.3-28.3s4.1-6.8,3.2-15.1s-1.4-26.5-4.1-36c0,0-22.3,22.3-24.2,18.7s-5-2.7-5-2.7
						l-45.2,10.9c0,0-1.4,3.2-1.6,3.6s-10.5,0.2-10.5,0.2s-73.4,0.7-78.4-5.5c-5-6.2-8.7-14.6-15.5-17.8c-6.8-3.2-50.4-14.8-60-21.4
						S336.8,898.2,332.4,890L332.4,890z"/>
				</defs>
				<clipPath id="SVGID_00000145737036243902411930000007833962345959545222_">
					<use xlink:href="#SVGID_00000134966260359724647150000012853160142764656797_"  style="overflow:visible;"/>
				</clipPath>
				<g style="clip-path:url(#SVGID_00000145737036243902411930000007833962345959545222_);">
					<g class="st48">
						<path class="st28" d="M332.4,890c0,0-12.8,36-7.8,60.2l-1.2,5.4l-7.3,38.7c0,0-18.1,158-12.7,299.3c0,0,116.4,53.9,166.1-10.4
							v-40.6c0,0,40.6,20.1,89.8,12.3c0,0,37.4-5.5,42.4-15.1c0,0,5-98.5,5-122.2s-7.3-105.4-12.8-120.4
							c-5.5-15.1-7.3-25.5-7.3-28.3s4.1-6.8,3.2-15.1s-1.4-26.5-4.1-36c0,0-22.3,22.3-24.2,18.7s-5-2.7-5-2.7l-45.2,10.9
							c0,0-1.4,3.2-1.6,3.6s-10.5,0.2-10.5,0.2s-73.4,0.7-78.4-5.5c-5-6.2-8.7-14.6-15.5-17.8c-6.8-3.2-50.4-14.8-60-21.4
							S336.8,898.2,332.4,890L332.4,890z"/>
						<path class="st26" d="M498,1108.4l-43.2,63.9l4.9,134.1l47.4-42.4v-117.2l31.5-29.2l11.9-58.8c0,0-25.1,54.3-28.7,54.7
							C518,1113.9,512.1,1116.6,498,1108.4L498,1108.4z"/>
						<path class="st26" d="M324.7,950.2c0,0,4.6,9.1,19.6,14.1c15.1,5,43.8,16.9,100.8,21.4l45.2,1.8l1.8,12.2l-49.7-1.8
							c-57-4.6-85.7-16.4-100.8-21.4c-15.1-5-19.6-14.1-19.6-14.1"/>
						<path class="st49" d="M490.2,1120c0,0-25.5-60.3-26.4-70.8S451,991.7,451,991.7s-93.5-6.8-122.7-29.2l-4.8-7"/>
						<path class="st49" d="M328.8,902.2c0,0,33.8,19.3,56.6,23.8s21,13.2,25.1,17.8s7.8,7.8,29.2,9.6s47.4,4.1,47.4,4.1"/>
						<polyline class="st49" points="520.3,1033.2 516.2,950.2 553.2,941.5 						"/>
						<path class="st49" d="M560,941.5c0,0,20.4-4.1,23.7-11.7"/>
						<path class="st49" d="M303.3,1286.8c0,0,30,15.7,77.9,19.6c0,0,43.3,0,57-5.5c13.7-5.5,25.5-16,27.8-18.2"/>
						<polyline class="st49" points="502.6,1138.3 497.1,1158.6 497.1,1251.8 						"/>
						<path class="st49" d="M497.1,1243.4c0,0,45.2,5.9,62,4.1c16.9-1.8,40.5-12.6,43.3-15.4"/>
						<polyline class="st49" points="586.5,989.4 567.3,1065.1 479.3,1156.3 						"/>
						<g>
							<polyline class="st28" points="490.2,950.2 490.2,987.6 496.8,1036.2 502.6,1069.1 498,1108.4 467.4,1185 467.4,1303.2 
															"/>
							<polyline class="st28" points="454.8,986.1 468.1,1044.5 479.7,1084.1 492.1,1114.9 							"/>
							<path class="st28" d="M556.8,933.7l5,41.2l-7.2,52.7l-4.2,31c0,0-7.9,6.6-47.8,10.4"/>
							<polyline class="st28" points="496.8,1036.2 516.2,1036.2 554.7,1027.7 							"/>
							<polyline class="st28" points="585.1,975 563.9,1061.9 482.6,1148.2 							"/>
						</g>
						<path class="st49" d="M501.9,1065.3c0,0,28.4,0.5,48.5-10.9"/>
						<path class="st26" d="M586,917.8c0,0-0.5,17.8,0,30.1c0.5,12.3,2.5,14.7-4.8,19.1s-19.3,8-19.3,8l-1.7,12.4
							c0,0,16.9-5.9,20.7-8c3.7-2.1,7-3.8,6.6-6c-0.3-2.2,2.7-15.2,2.8-16.2S586,917.8,586,917.8L586,917.8z"/>
						<path class="st26" d="M557.2,936.9c0,0-43.9,9.7-43.9,11.4s3,87.9,3,87.9h-3l-3.2-87.9l1.6-3.6l45.2-10.9L557.2,936.9
							L557.2,936.9z"/>
					</g>
				</g>
			</g>
		</g>
		<g>
			<g>
				<defs>
					<path id="SVGID_00000167357819324378825510000011963823598762654646_" d="M13.5,154.6v722.6h867.9V154.6H13.5z M841,639.4
						c-3.8,5.5-19.6,27.5-33,31.7c-6.1,1.9-14.9,3.7-26,5.4c-7.9,1.2-14.2,1.8-14.9,1.9l-0.9,0.1l-0.5-0.7
						c-56.7-82.9-142.9-207.3-148-210.5l-0.7-0.4l-21-194.7l1.2-0.4c10.3-3.3,18-8.1,24.9-15.5c10.1-11,11.6-21.2,11.9-24.1l0.3-4.3
						l2.4,3.6c0.5,0.7,0.9,1.4,1.3,2.2l197.8,390.5l6.8,15.1H841L841,639.4z"/>
				</defs>
				<clipPath id="SVGID_00000069373270653168384660000015200573490904505229_">
					<use xlink:href="#SVGID_00000167357819324378825510000011963823598762654646_"  style="overflow:visible;"/>
				</clipPath>
				<g style="clip-path:url(#SVGID_00000069373270653168384660000015200573490904505229_);">
					<g>
						<path class="st51" d="M508.2,279.3h1.6h37.5c45.9-0.5,63.1-8.7,75.4-21.9c12.3-13.2,12.3-25.6,12.3-25.6"/>
						<path class="st51" d="M245.2,231.7c0,0,0,12.4,12.3,25.6c12.3,13.2,29.5,21.4,75.4,21.9h39.9"/>
						<g>
							<g>
								<path class="st34" d="M51.2,626.9c0.3,0,0.7,0.1,1,0.1"/>
								<path class="st35" d="M54.3,627.3c29.2,3.4,53.9,15.6,71.6,31.7"/>
								<path class="st34" d="M126.7,659.7c0.3,0.2,0.5,0.5,0.8,0.7"/>
							</g>
							<path class="st34" d="M52.8,621.8c32.1,3.4,58.9,17,77.4,35"/>
							<g>
								<path class="st34" d="M835.6,632.7c-0.3,0-0.7,0.1-1,0.1"/>
								<path class="st35" d="M832.5,633c-29.2,3.4-53.9,15.6-71.6,31.7"/>
								<path class="st34" d="M760,665.5c-0.3,0.2-0.5,0.5-0.8,0.7"/>
							</g>
							<path class="st34" d="M834,627.5c-32.1,3.4-58.9,17-77.4,35"/>
							<line class="st36" x1="252.5" y1="733.1" x2="632.2" y2="733.1"/>
							<line class="st34" x1="252.5" y1="724.7" x2="632.2" y2="724.7"/>
						</g>
						<line class="st37" x1="266.7" y1="464.4" x2="292.5" y2="275.7"/>
						<line class="st37" x1="618.3" y1="469.5" x2="597.1" y2="273.2"/>
						<line class="st18" x1="45" y1="636.8" x2="119.9" y2="671.7"/>
						<line class="st28" x1="766.4" y1="676.9" x2="839.6" y2="637.9"/>
						<g>
							<path class="st18" d="M490.7,186.5c0.1,0,0.1,0,0.1-0.1C490.8,186.5,490.8,186.5,490.7,186.5z"/>
							<path class="st18" d="M476.8,191.6c7.4-2.2,12.3-4.3,13.9-5.1C489.1,187.3,484.2,189.5,476.8,191.6z"/>
							<path class="st18" d="M833.8,624.9L636.1,234.4c-2-3.9-5.2-6.9-9.2-8.6L595.1,212c0,0-57.9-21.4-68.2-20.4l0,0l-24.5-3.5
								l0,0.2c-0.5-0.7-1-1.4-1.6-2h-9.4c0,0,0,0,0,0c0,0,0-0.1,0-0.1s-0.1,0.1-0.4,0.2c0,0-0.1,0-0.1,0.1c0,0,0,0,0,0
								c-1.6,0.8-6.5,2.9-13.9,5.1c0,0,0,0,0,0c-9,2.6-21.7,5.3-36.7,5.3s-27.2-2.6-35.8-5.3c0,0,0,0,0,0c-6.5-2-10.9-4-12.6-4.9
								c-0.6-0.3-0.9-0.5-0.9-0.5s0,0,0,0h-9.3c-0.6,0.6-1.1,1.3-1.6,2.1l0-0.3l-24.5,3.5l0,0l-102.8,35c-3.5,1.2-6.4,3.7-8,7
								L45,636.8c0,0,20.3,22.2,34.9,26.7c14.6,4.6,40,8.2,40,8.2l146.7-207.3l-14.4,279.1h1c0,0,113.2,17.8,142.6,20.5
								c29.4,2.7,80.7,2.1,97.8,0C510.9,762,633,743.6,633,743.6h-1c0,0-14.4-270.9-14.4-277.6s148.8,210.9,148.8,210.9l0,0
								c0,0,26-2.7,40.6-7.2s32.6-31.8,32.6-31.8L833.8,624.9L833.8,624.9z"/>
						</g>
						<path class="st39" d="M252.6,743.4c0,0,113.2,17.8,142.6,20.5c29.4,2.7,80.7,2.1,97.8,0c17.1-2.1,139.2-20.5,139.2-20.5"/>
						<path class="st39" d="M44.3,636.7c0,0,20.3,22.2,34.9,26.7c14.6,4.6,40,8.2,40,8.2"/>
						<path class="st39" d="M838.9,637.7c0,0-18.1,27.2-32.6,31.8c-14.6,4.6-40.6,7.2-40.6,7.2"/>
						<g>
							<defs>
								<path id="SVGID_00000086661839288901438280000008231519732932522431_" d="M833.8,624.9L636.1,234.4c-2-3.9-5.2-6.9-9.2-8.6
									L595.1,212c0,0-57.9-21.4-68.2-20.4l0,0l-24.5-3.5l0,0.2c-0.5-0.7-1-1.4-1.6-2h-9.4c0,0,0,0,0,0c0,0,0-0.1,0-0.1
									s-0.1,0.1-0.4,0.2c0,0-0.1,0-0.1,0.1c0,0,0,0,0,0c-1.6,0.8-6.5,2.9-13.9,5.1c0,0,0,0,0,0c-9,2.6-21.7,5.3-36.7,5.3
									s-27.2-2.6-35.8-5.3c0,0,0,0,0,0c-6.5-2-10.9-4-12.6-4.9c-0.6-0.3-0.9-0.5-0.9-0.5s0,0,0,0h-9.3c-0.6,0.6-1.1,1.3-1.6,2.1
									l0-0.3l-24.5,3.5l0,0l-102.8,35c-3.5,1.2-6.4,3.7-8,7L45,636.8c0,0,20.3,22.2,34.9,26.7c14.6,4.6,40,8.2,40,8.2l146.7-207.3
									l-14.4,279.1h1c0,0,113.2,17.8,142.6,20.5c29.4,2.7,80.7,2.1,97.8,0C510.9,762,633,743.6,633,743.6h-1
									c0,0-14.4-270.9-14.4-277.6s148.8,210.9,148.8,210.9l0,0c0,0,26-2.7,40.6-7.2s32.6-31.8,32.6-31.8L833.8,624.9L833.8,624.9z
									"/>
							</defs>
							<clipPath id="SVGID_00000167391586621215797770000000106458966195672254_">
								<use xlink:href="#SVGID_00000086661839288901438280000008231519732932522431_"  style="overflow:visible;"/>
							</clipPath>
							<g style="clip-path:url(#SVGID_00000167391586621215797770000000106458966195672254_);">
								<g>
									<path class="st38" d="M231.6,260.6L77.7,664l-35.6-23.7C42.1,640.3,194,272.9,231.6,260.6z"/>
									<path class="st38" d="M648.3,260.6L810,676.9l40.1-17.2C850.1,659.7,685.9,272.9,648.3,260.6L648.3,260.6z"/>
									<path class="st38" d="M293.7,273.2L293.7,273.2c-36.3,157,16.2,324.1-20.2,481.2c-22.4-2.5-44.9-5.1-67.3-7.6
										C265,592.3,234.9,427.7,293.7,273.2L293.7,273.2z"/>
									<path class="st38" d="M595.4,273.2L595.4,273.2c36.3,157-16.2,324.1,20.2,481.2c22.4-2.5,44.9-5.1,67.3-7.6
										C624.1,592.3,654.1,427.7,595.4,273.2L595.4,273.2z"/>
								</g>
							</g>
						</g>
					</g>
				</g>
			</g>
			<g>
				<g>
					<defs>
						<path id="SVGID_00000059992451191109564620000012514174931289581976_" d="M806.2,570.4l-57.4,80.7
							c10.5,15.4,17.2,25.1,17.2,25.1s6.5-0.7,14.8-1.9c8.3-1.2,18.4-3,25.7-5.3c14.6-4.6,32.6-31.8,32.7-31.8l-5.8-13L806.2,570.4
							L806.2,570.4z"/>
					</defs>
					<clipPath id="SVGID_00000174559673785218797610000018261868197350065320_">
						<use xlink:href="#SVGID_00000059992451191109564620000012514174931289581976_"  style="overflow:visible;"/>
					</clipPath>
					<g style="clip-path:url(#SVGID_00000174559673785218797610000018261868197350065320_);">
						<path class="st51" d="M507.9,278.6h1.6h37.5c45.9-0.5,63.1-8.7,75.4-21.9c12.3-13.2,12.3-25.6,12.3-25.6"/>
						<path class="st51" d="M244.8,231c0,0,0,12.4,12.3,25.6c12.3,13.2,29.5,21.4,75.4,21.9h39.9"/>
						<g>
							<g>
								<path class="st34" d="M50.8,626.2c0.3,0,0.7,0.1,1,0.1"/>
								<path class="st35" d="M54,626.6c29.2,3.4,53.9,15.6,71.6,31.7"/>
								<path class="st34" d="M126.4,659c0.3,0.2,0.5,0.5,0.8,0.7"/>
							</g>
							<path class="st34" d="M52.4,621.1c32.1,3.4,58.9,17,77.4,35"/>
							<g>
								<path class="st34" d="M835.3,632c-0.3,0-0.7,0.1-1,0.1"/>
								<path class="st35" d="M832.1,632.3c-29.2,3.4-53.9,15.6-71.6,31.7"/>
								<path class="st34" d="M759.7,664.8c-0.3,0.2-0.5,0.5-0.8,0.7"/>
							</g>
							<path class="st34" d="M833.6,626.8c-32.1,3.4-58.9,17-77.4,35"/>
							<line class="st36" x1="252.1" y1="732.4" x2="631.8" y2="732.4"/>
							<line class="st34" x1="252.1" y1="724" x2="631.8" y2="724"/>
						</g>
						<line class="st37" x1="266.3" y1="463.7" x2="292.1" y2="275"/>
						<line class="st37" x1="617.9" y1="468.8" x2="596.7" y2="272.5"/>
						<line class="st18" x1="44.7" y1="636.1" x2="119.6" y2="671"/>
						<line class="st28" x1="766.1" y1="676.2" x2="839.3" y2="637.2"/>
						<g>
							<path class="st18" d="M490.4,185.8c0.1,0,0.1,0,0.1-0.1C490.5,185.8,490.4,185.8,490.4,185.8z"/>
							<path class="st18" d="M476.5,190.9c7.4-2.2,12.3-4.3,13.9-5.1C488.7,186.6,483.9,188.8,476.5,190.9z"/>
							<path class="st18" d="M833.5,624.2L635.7,233.7c-2-3.9-5.2-6.9-9.2-8.6l-31.8-13.8c0,0-57.9-21.4-68.2-20.4l0,0l-24.5-3.5
								l0,0.2c-0.5-0.7-1-1.4-1.6-2H491c0,0,0,0,0,0c0,0,0-0.1,0-0.1s-0.1,0.1-0.4,0.2c0,0-0.1,0-0.1,0.1c0,0,0,0,0,0
								c-1.6,0.8-6.5,2.9-13.9,5.1c0,0,0,0,0,0c-9,2.6-21.7,5.3-36.7,5.3s-27.2-2.6-35.8-5.3c0,0,0,0,0,0c-6.5-2-10.9-4-12.6-4.9
								c-0.6-0.3-0.9-0.5-0.9-0.5s0,0,0,0h-9.3c-0.6,0.6-1.1,1.3-1.6,2.1l0-0.3l-24.5,3.5l0,0l-102.8,35c-3.5,1.2-6.4,3.7-8,7
								L44.7,636.1c0,0,20.3,22.2,34.9,26.7c14.6,4.6,40,8.2,40,8.2l146.7-207.3l-14.4,279.1h1c0,0,113.2,17.8,142.6,20.5
								c29.4,2.7,80.7,2.1,97.8,0c17.1-2.1,139.2-20.5,139.2-20.5h-1c0,0-14.4-270.9-14.4-277.6s148.8,210.9,148.8,210.9l0,0
								c0,0,26-2.7,40.6-7.2s32.6-31.8,32.6-31.8L833.5,624.2L833.5,624.2z"/>
						</g>
						<path class="st39" d="M252.3,742.7c0,0,113.2,17.8,142.6,20.5c29.4,2.7,80.7,2.1,97.8,0c17.1-2.1,139.2-20.5,139.2-20.5"/>
						<path class="st39" d="M44,636c0,0,20.3,22.2,34.9,26.7c14.6,4.6,40,8.2,40,8.2"/>
						<path class="st39" d="M838.6,637c0,0-18.1,27.2-32.6,31.8c-14.6,4.6-40.6,7.2-40.6,7.2"/>
						<g>
							<defs>
								<path id="SVGID_00000034775960156490587830000005347973321219969666_" d="M833.5,624.2L635.7,233.7c-2-3.9-5.2-6.9-9.2-8.6
									l-31.8-13.8c0,0-57.9-21.4-68.2-20.4l0,0l-24.5-3.5l0,0.2c-0.5-0.7-1-1.4-1.6-2H491c0,0,0,0,0,0c0,0,0-0.1,0-0.1
									s-0.1,0.1-0.4,0.2c0,0-0.1,0-0.1,0.1c0,0,0,0,0,0c-1.6,0.8-6.5,2.9-13.9,5.1c0,0,0,0,0,0c-9,2.6-21.7,5.3-36.7,5.3
									s-27.2-2.6-35.8-5.3c0,0,0,0,0,0c-6.5-2-10.9-4-12.6-4.9c-0.6-0.3-0.9-0.5-0.9-0.5s0,0,0,0h-9.3c-0.6,0.6-1.1,1.3-1.6,2.1
									l0-0.3l-24.5,3.5l0,0l-102.8,35c-3.5,1.2-6.4,3.7-8,7L44.7,636.1c0,0,20.3,22.2,34.9,26.7c14.6,4.6,40,8.2,40,8.2
									l146.7-207.3l-14.4,279.1h1c0,0,113.2,17.8,142.6,20.5c29.4,2.7,80.7,2.1,97.8,0c17.1-2.1,139.2-20.5,139.2-20.5h-1
									c0,0-14.4-270.9-14.4-277.6s148.8,210.9,148.8,210.9l0,0c0,0,26-2.7,40.6-7.2s32.6-31.8,32.6-31.8L833.5,624.2L833.5,624.2z
									"/>
							</defs>
							<clipPath id="SVGID_00000005950244569551717020000000666201535159920032_">
								<use xlink:href="#SVGID_00000034775960156490587830000005347973321219969666_"  style="overflow:visible;"/>
							</clipPath>
							<g style="clip-path:url(#SVGID_00000005950244569551717020000000666201535159920032_);">
								<g class="st12">
									<path class="st13" d="M231.3,259.9L77.4,663.3l-35.6-23.7C41.8,639.6,193.7,272.2,231.3,259.9z"/>
									<path class="st13" d="M647.9,259.9l161.7,416.4l40.1-17.2C849.7,659,685.6,272.2,647.9,259.9L647.9,259.9z"/>
									<path class="st13" d="M293.4,272.5L293.4,272.5c-36.3,157,16.2,324.1-20.2,481.2c-22.4-2.5-44.9-5.1-67.3-7.6
										C264.7,591.6,234.6,427,293.4,272.5L293.4,272.5z"/>
									<path class="st13" d="M595,272.5L595,272.5c36.3,157-16.2,324.1,20.2,481.2c22.4-2.5,44.9-5.1,67.3-7.6
										C623.7,591.6,653.8,427,595,272.5L595,272.5z"/>
								</g>
							</g>
						</g>
					</g>
				</g>
				<g>
					<defs>
						<path id="SVGID_00000026859563634028800800000015582177576831560589_" d="M748.6,456.8l-113-223c-0.3-0.7-0.7-1.4-1.2-2
							c-0.2,2.7-1.7,13.6-12.3,25c-6.2,6.7-13.7,12.1-25.5,15.9l20.8,192.6c3.2,1.6,39.3,52.8,75.1,104.4L748.6,456.8L748.6,456.8z"
							/>
					</defs>
					<clipPath id="SVGID_00000051370477146008199140000003194374734951535268_">
						<use xlink:href="#SVGID_00000026859563634028800800000015582177576831560589_"  style="overflow:visible;"/>
					</clipPath>
					<g style="clip-path:url(#SVGID_00000051370477146008199140000003194374734951535268_);">
						<path class="st51" d="M507.9,278.6h1.6h37.5c45.9-0.5,63.1-8.7,75.4-21.9c12.3-13.2,12.3-25.6,12.3-25.6"/>
						<path class="st51" d="M244.8,231c0,0,0,12.4,12.3,25.6c12.3,13.2,29.5,21.4,75.4,21.9h39.9"/>
						<g>
							<g>
								<path class="st34" d="M50.8,626.2c0.3,0,0.7,0.1,1,0.1"/>
								<path class="st35" d="M54,626.6c29.2,3.4,53.9,15.6,71.6,31.7"/>
								<path class="st34" d="M126.4,659c0.3,0.2,0.5,0.5,0.8,0.7"/>
							</g>
							<path class="st34" d="M52.4,621.1c32.1,3.4,58.9,17,77.4,35"/>
							<g>
								<path class="st34" d="M835.3,632c-0.3,0-0.7,0.1-1,0.1"/>
								<path class="st35" d="M832.1,632.3c-29.2,3.4-53.9,15.6-71.6,31.7"/>
								<path class="st34" d="M759.7,664.8c-0.3,0.2-0.5,0.5-0.8,0.7"/>
							</g>
							<path class="st34" d="M833.6,626.8c-32.1,3.4-58.9,17-77.4,35"/>
							<line class="st36" x1="252.1" y1="732.4" x2="631.8" y2="732.4"/>
							<line class="st34" x1="252.1" y1="724" x2="631.8" y2="724"/>
						</g>
						<line class="st37" x1="266.3" y1="463.7" x2="292.1" y2="275"/>
						<line class="st37" x1="617.9" y1="468.8" x2="596.7" y2="272.5"/>
						<line class="st18" x1="44.7" y1="636.1" x2="119.6" y2="671"/>
						<line class="st28" x1="766.1" y1="676.2" x2="839.3" y2="637.2"/>
						<g>
							<path class="st18" d="M490.4,185.8c0.1,0,0.1,0,0.1-0.1C490.5,185.8,490.4,185.8,490.4,185.8z"/>
							<path class="st18" d="M476.5,190.9c7.4-2.2,12.3-4.3,13.9-5.1C488.7,186.6,483.9,188.8,476.5,190.9z"/>
							<path class="st18" d="M833.5,624.2L635.7,233.7c-2-3.9-5.2-6.9-9.2-8.6l-31.8-13.8c0,0-57.9-21.4-68.2-20.4l0,0l-24.5-3.5
								l0,0.2c-0.5-0.7-1-1.4-1.6-2H491c0,0,0,0,0,0c0,0,0-0.1,0-0.1s-0.1,0.1-0.4,0.2c0,0-0.1,0-0.1,0.1c0,0,0,0,0,0
								c-1.6,0.8-6.5,2.9-13.9,5.1c0,0,0,0,0,0c-9,2.6-21.7,5.3-36.7,5.3s-27.2-2.6-35.8-5.3c0,0,0,0,0,0c-6.5-2-10.9-4-12.6-4.9
								c-0.6-0.3-0.9-0.5-0.9-0.5s0,0,0,0h-9.3c-0.6,0.6-1.1,1.3-1.6,2.1l0-0.3l-24.5,3.5l0,0l-102.8,35c-3.5,1.2-6.4,3.7-8,7
								L44.7,636.1c0,0,20.3,22.2,34.9,26.7c14.6,4.6,40,8.2,40,8.2l146.7-207.3l-14.4,279.1h1c0,0,113.2,17.8,142.6,20.5
								c29.4,2.7,80.7,2.1,97.8,0c17.1-2.1,139.2-20.5,139.2-20.5h-1c0,0-14.4-270.9-14.4-277.6s148.8,210.9,148.8,210.9l0,0
								c0,0,26-2.7,40.6-7.2s32.6-31.8,32.6-31.8L833.5,624.2L833.5,624.2z"/>
						</g>
						<path class="st39" d="M252.3,742.7c0,0,113.2,17.8,142.6,20.5c29.4,2.7,80.7,2.1,97.8,0c17.1-2.1,139.2-20.5,139.2-20.5"/>
						<path class="st39" d="M44,636c0,0,20.3,22.2,34.9,26.7c14.6,4.6,40,8.2,40,8.2"/>
						<path class="st39" d="M838.6,637c0,0-18.1,27.2-32.6,31.8c-14.6,4.6-40.6,7.2-40.6,7.2"/>
						<path class="st56" d="M806.2,570.4l-57.4,80.7c10.5,15.4,17.2,25.1,17.2,25.1s6.5-0.7,14.8-1.9c8.3-1.2,18.4-3,25.7-5.3
							c14.6-4.6,32.6-31.8,32.7-31.8l-5.8-13L806.2,570.4L806.2,570.4z"/>
					</g>
				</g>
			</g>
		</g>
	</g>
	<path class="st57" d="M499.9,206.4c0.5,3,0.7,6.5,0.7,10.4c0,22.1-9,47.4-39,64l-0.2-0.5h-40.2l-0.1,0.1
		c-29.6-16.6-38.4-41.7-38.4-63.7c0-3.7,0.2-7,0.7-10c2.9,1.5,22.5,10.6,57.6,10.6C476.6,217.4,497.6,207.5,499.9,206.4L499.9,206.4
		z"/>
	<g>
		<g>
			<g>
				<path d="M459.4,304.9l0.1-0.1c0.3-0.3,0.5-0.7,0.5-1.2l0-2.6c0-0.5-0.2-0.9-0.5-1.2l-1.7-1.5c-0.3-0.2-0.6-0.4-1-0.4l-1.1,0
					c0.3-1.3,0.9-2.4,1.4-3.3l0.1-0.2c0.3-0.5,0.3-1.1,0-1.6c-0.3-0.5-0.8-0.8-1.4-0.7c-0.4,0-1.7-0.5-2.3-1.3
					c-0.4-0.5-0.7-1.3-0.7-2.4c0-0.7-0.5-1.2-1.1-1.4c-0.6-0.2-1.3,0-1.7,0.5c-0.5,0.6-2.1,1.6-3.1,1.6c-1.8,0-3.6-0.7-4.6-1.9
					c-0.3-0.3-0.7-0.5-1.1-0.5s-0.9,0.2-1.1,0.5c-1,1.1-2.8,1.8-4.6,1.8c-1,0-2.6-1-3.1-1.7c-0.4-0.5-1.1-0.8-1.7-0.6
					c-0.6,0.2-1.1,0.7-1.1,1.4c-0.1,1-0.3,1.8-0.8,2.3c-0.7,0.8-2,1.3-2.4,1.3c-0.6,0-1.1,0.2-1.4,0.7c-0.3,0.5-0.3,1.1-0.1,1.6
					l0.1,0.2c0.5,0.9,1.1,2,1.3,3.3l-0.8,0c-0.4,0-0.7,0.1-1,0.4l-1.9,1.6c-0.4,0.3-0.6,0.7-0.6,1.2l-0.1,5.5c0,0.5,0.2,0.9,0.5,1.2
					l2,1.7c0.1,0.1,0.3,0.2,0.4,0.2c0.5,3.1,2.2,5.6,5.2,7.2c2.4,1.4,5.2,1.9,7.1,2.4c0.8,0.2,1.5,0.3,2,0.5c0.1,0,0.3,0.2,0.4,0.3
					c0.3,0.4,0.7,0.6,1.2,0.6l0,0c0.5,0,0.9-0.2,1.2-0.6c0.1-0.1,0.3-0.2,0.4-0.3c0.5-0.1,1.2-0.3,2-0.4c2-0.4,4.7-0.9,7.2-2.2
					c2.9-1.6,4.7-3.9,5.3-7l1.8,0c0.9,0,1.6-0.7,1.6-1.5l0-2C460.4,305.7,460,305.1,459.4,304.9z"/>
				<g>
					<g>
						<g>
							<g>
								<g>
									<g>
										<path id="SVGID_00000152967607851902967410000012005988825395690908_" class="st58" d="M428.5,294.2c1-0.4,2-1,2.7-1.9
											c0.4-0.5,0.7-1,0.9-1.6c1.1,0.7,2.4,1.2,3.5,1.2c2.1,0,4.2-0.6,5.8-1.8c1.5,1.2,3.6,1.9,5.7,1.9c1.1,0,2.4-0.5,3.5-1.1
											c0.2,0.6,0.5,1.2,0.9,1.6c0.7,0.9,1.7,1.6,2.7,2c-0.6,1.1-1.1,2.5-1.2,4.2l1.3,0c0.2-2.2,1.2-3.9,1.9-5.1c0,0,0,0-0.1,0
											c-0.8,0-2.6-0.7-3.5-1.9c-0.6-0.8-1-1.8-1-3.2c-0.8,1-2.8,2.3-4.4,2.2c-2.1,0-4.3-0.8-5.7-2.4c-1.4,1.5-3.7,2.3-5.8,2.3
											c-1.6,0-3.6-1.3-4.3-2.3c-0.1,1.4-0.5,2.5-1.1,3.2c-1,1.2-2.8,1.9-3.6,1.8c0,0,0,0-0.1,0c0.7,1.2,1.6,2.9,1.8,5.1l1.3,0
											C429.5,296.8,429,295.4,428.5,294.2z"/>
									</g>
								</g>
							</g>
						</g>
						<g>
							<g>
								<g>
									<g>
										<path id="SVGID_00000080167701970833894260000011914545518538120836_" class="st58" d="M450.6,314.4
											c-2.1,1.1-4.5,1.6-6.4,1.9c-0.9,0.2-1.7,0.3-2.3,0.5c-0.3,0.1-0.5,0.2-0.8,0.3c-0.2-0.1-0.5-0.3-0.7-0.4
											c-0.6-0.2-1.4-0.4-2.3-0.6c-1.9-0.4-4.3-0.9-6.3-2c-2.2-1.3-3.5-3-3.8-5.4l-1.3,0c0.4,3.3,2.2,5.3,4.5,6.6
											c3.2,1.8,7.1,2.1,8.8,2.7c0.6,0.2,1.1,0.7,1.1,0.8c0.1-0.1,0.6-0.6,1.2-0.8c1.8-0.6,5.6-0.8,8.9-2.5
											c2.3-1.2,4.1-3.2,4.6-6.5l-1.3,0C454.1,311.5,452.8,313.2,450.6,314.4z"/>
									</g>
								</g>
							</g>
						</g>
					</g>
				</g>
			</g>
		</g>
		<g>
			<g>
				<g>
					<g>
						<path class="st58" d="M428.8,302.3l-0.2-0.9l-1.8,0l-0.4,0.3l0,3.9l0.4,0.3l1.4,0l0.4-0.3l0-1.2l-1.2,0l0-1.5l3.7,0l-0.1,5.2
							l-1.9,0l-0.2-0.7l-0.8,0.7l-2.3,0l-2-1.7l0.1-5.5l1.9-1.6l3.7,0l1.7,1.5l0,1.7L428.8,302.3z"/>
					</g>
				</g>
				<g>
					<g>
						<path class="st58" d="M438,302.4l-0.2-0.9l-2.1,0l0,1.4l2.1,0l0,1.5l-2.1,0l0,1.5l2.1,0l0.3-0.9l1.8,0l0,3.1l-7.7-0.1l0-1.9
							l0.9-0.2l0-4.5l-0.9-0.3l0-1.9l7.6,0.1l0,3.1L438,302.4z"/>
					</g>
				</g>
				<g>
					<g>
						<path class="st58" d="M449.7,306.4l0,1.9l-4.4,0l0-1.9l0.7-0.2l-0.2-0.8l-1.9,0l-0.2,0.8l0.6,0.3l0,1.9l-3.7,0l0-1.9l1-0.2
							l1.3-4.5l-0.8-0.3l0-1.9l5,0.1l1.6,6.7L449.7,306.4z M444.3,303.8l1.1,0l-0.5-2L444.3,303.8z"/>
					</g>
				</g>
				<g>
					<g>
						<path class="st58" d="M450.5,308.3l0-1.9l0.9-0.2l0-4.5l-0.9-0.3l0-1.9l6.4,0.1l1.7,1.5l0,2.6l-1.2,1l0.9,1.5l0.7,0.1l0,2
							l-2.4,0l-1.9-3.5l-0.6,0l0,1.3l0.9,0.3l0,1.9L450.5,308.3z M454,303.1l1.8,0l0.3-0.3l0-0.9l-0.3-0.3l-1.8,0L454,303.1z"/>
					</g>
				</g>
			</g>
			<g>
				<g>
					<g>
						<path class="st58" d="M432.1,297.5c-0.2,0-0.3,0-0.4,0s-0.2-0.1-0.3-0.1s-0.1-0.2-0.1-0.3c0-0.1,0-0.3,0-0.4l0-1
							c0-0.2,0-0.3,0-0.4c0-0.1,0.1-0.2,0.1-0.3c0.1-0.1,0.2-0.1,0.3-0.1c0.1,0,0.2,0,0.4,0l1.6,0c0.1,0,0.2,0,0.3,0
							c0.1,0,0.1,0.1,0.2,0.1c0.1,0,0.1,0.1,0.1,0.1c0,0,0.1,0.1,0.1,0.1l-0.4,0.4c0-0.1-0.1-0.1-0.1-0.1c-0.1,0-0.1-0.1-0.2-0.1
							l-1.5,0c-0.1,0-0.2,0-0.3,0.1s-0.1,0.1-0.1,0.3l0,1c0,0.1,0,0.1,0,0.2c0,0,0,0.1,0,0.1c0,0,0.1,0.1,0.1,0.1c0,0,0.1,0,0.2,0
							l1.5,0c0.1,0,0.2,0,0.2-0.1c0.1,0,0.1-0.1,0.1-0.1l0.3,0.4c0,0,0,0.1-0.1,0.1c0,0-0.1,0.1-0.1,0.1c-0.1,0-0.1,0.1-0.2,0.1
							s-0.2,0-0.3,0L432.1,297.5z"/>
					</g>
				</g>
				<g>
					<g>
						<path class="st58" d="M435.6,297.6c-0.2,0-0.3,0-0.4-0.1c-0.1,0-0.2-0.1-0.3-0.2s-0.1-0.2-0.1-0.3c0-0.1,0-0.2,0-0.4l0-1.9
							l0.5,0l0,1.9c0,0.1,0,0.2,0.1,0.3c0,0.1,0.1,0.1,0.2,0.1l1.4,0c0.1,0,0.2,0,0.2-0.1s0.1-0.1,0.1-0.3l0-1.9l0.5,0l0,1.9
							c0,0.2,0,0.3,0,0.4s-0.1,0.2-0.1,0.3c-0.1,0.1-0.2,0.1-0.3,0.2s-0.2,0-0.4,0L435.6,297.6z"/>
					</g>
				</g>
				<g>
					<g>
						<path class="st58" d="M441.1,296.8c0,0.1,0,0.3-0.1,0.4c0,0.1-0.1,0.2-0.2,0.2c-0.1,0.1-0.2,0.1-0.3,0.1c-0.1,0-0.3,0-0.4,0
							l-2,0c0-0.1,0-0.2,0-0.3c0-0.1,0-0.2,0-0.3l1.9,0c0.1,0,0.1,0,0.2,0s0.1,0,0.1,0c0,0,0-0.1,0.1-0.1s0-0.1,0-0.1
							c0-0.1,0-0.2-0.1-0.2c-0.1,0-0.1-0.1-0.3-0.1l-1.1,0c-0.2,0-0.3,0-0.4,0s-0.2-0.1-0.3-0.1c-0.1-0.1-0.1-0.1-0.1-0.2
							s0-0.2,0-0.3l0-0.1c0-0.1,0-0.3,0-0.4c0-0.1,0.1-0.2,0.2-0.2s0.2-0.1,0.3-0.1c0.1,0,0.3,0,0.4,0l1.9,0c0,0.1,0,0.2,0,0.3
							c0,0.1,0,0.2,0,0.3l-1.9,0c-0.1,0-0.2,0-0.3,0.1c0,0-0.1,0.1-0.1,0.2c0,0.1,0,0.2,0.1,0.2c0,0,0.1,0.1,0.3,0.1l1.1,0
							c0.2,0,0.3,0,0.4,0c0.1,0,0.2,0.1,0.3,0.1c0.1,0.1,0.1,0.1,0.2,0.2S441.1,296.6,441.1,296.8L441.1,296.8z"/>
					</g>
				</g>
				<g>
					<g>
						<path class="st58" d="M442.4,297.6l0-2.2l-1,0l0-0.5l2.6,0l0,0.5l-1,0l0,2.2L442.4,297.6z"/>
					</g>
				</g>
				<g>
					<g>
						<path class="st58" d="M445.1,297.7c-0.2,0-0.3,0-0.4,0c-0.1,0-0.2-0.1-0.3-0.2c-0.1-0.1-0.1-0.2-0.1-0.3c0-0.1,0-0.3,0-0.4
							l0-1c0-0.2,0-0.3,0-0.4s0.1-0.2,0.1-0.3c0.1-0.1,0.2-0.1,0.3-0.1c0.1,0,0.3,0,0.4,0l1.5,0c0.2,0,0.3,0,0.4,0
							c0.1,0,0.2,0.1,0.3,0.2c0.1,0.1,0.1,0.2,0.1,0.3c0,0.1,0,0.3,0,0.4l0,1c0,0.2,0,0.3,0,0.4s-0.1,0.2-0.1,0.3s-0.2,0.1-0.3,0.1
							c-0.1,0-0.2,0-0.4,0L445.1,297.7z M446.9,295.8c0-0.1,0-0.2-0.1-0.3c0,0-0.1-0.1-0.3-0.1l-1.5,0c-0.1,0-0.2,0-0.3,0.1
							c0,0-0.1,0.1-0.1,0.3l0,1c0,0.1,0,0.1,0,0.2c0,0,0,0.1,0.1,0.1s0.1,0,0.1,0.1c0,0,0.1,0,0.2,0l1.5,0c0.1,0,0.2,0,0.3-0.1
							c0,0,0.1-0.1,0.1-0.3L446.9,295.8z"/>
					</g>
				</g>
				<g>
					<g>
						<path class="st58" d="M450.7,297.7l0-1.8l-0.9,1.8l-0.5,0l-0.9-1.8l0,1.8l-0.5,0l0-2.8l0.6,0l1,2.2l1.1-2.2l0.6,0l0,2.8
							L450.7,297.7z"/>
					</g>
				</g>
			</g>
			<g>
				<g>
					<g>
						<path class="st58" d="M432,312.3l0-0.7l-0.3,0.7l-0.2,0l-0.3-0.7l0,0.7l-0.2,0l0-1l0.2,0l0.4,0.8l0.4-0.8l0.2,0l0,1L432,312.3
							z"/>
					</g>
				</g>
				<g>
					<g>
						<path class="st58" d="M433.4,312.3l-0.1-0.2l-0.6,0l-0.1,0.2l-0.2,0l0.6-1l0.2,0l0.5,1L433.4,312.3z M433,311.5l-0.2,0.4
							l0.5,0L433,311.5z"/>
					</g>
				</g>
				<g>
					<g>
						<path class="st58" d="M433.7,312.3l0-1l0.9,0c0.1,0,0.1,0,0.2,0c0,0,0.1,0,0.1,0.1s0,0.1,0.1,0.1s0,0.1,0,0.2l0,0.4
							c0,0.1,0,0.1,0,0.2s0,0.1-0.1,0.1c0,0-0.1,0-0.1,0.1c0,0-0.1,0-0.2,0L433.7,312.3z M434.7,311.6c0-0.1,0-0.1,0-0.1s0,0-0.1,0
							l-0.7,0l0,0.6l0.7,0c0,0,0.1,0,0.1,0s0-0.1,0-0.1L434.7,311.6z"/>
					</g>
				</g>
				<g>
					<g>
						<path class="st58" d="M435.1,312.3l0-1l1,0l0,0.2l-0.8,0l0,0.2l0.8,0l0,0.2l-0.8,0l0,0.2l0.8,0l0,0.2L435.1,312.3z"/>
					</g>
				</g>
				<g>
					<g>
						<path class="st58" d="M436.9,311.9l0,0.4l-0.2,0l0-1l1,0l0,0.2l-0.8,0l0,0.2l0.7,0l0,0.2L436.9,311.9z"/>
					</g>
				</g>
				<g>
					<g>
						<path class="st58" d="M438.1,312.3c-0.1,0-0.1,0-0.2,0c0,0-0.1,0-0.1-0.1s0-0.1-0.1-0.1s0-0.1,0-0.2l0-0.4c0-0.1,0-0.1,0-0.2
							c0,0,0-0.1,0.1-0.1c0,0,0.1,0,0.1-0.1c0,0,0.1,0,0.2,0l0.5,0c0.1,0,0.1,0,0.2,0c0,0,0.1,0,0.1,0.1s0,0.1,0.1,0.1
							c0,0,0,0.1,0,0.2l0,0.4c0,0.1,0,0.1,0,0.2s0,0.1-0.1,0.1c0,0-0.1,0-0.1,0.1c0,0-0.1,0-0.2,0L438.1,312.3z M438.8,311.7
							c0-0.1,0-0.1,0-0.1s0,0-0.1,0l-0.5,0c0,0-0.1,0-0.1,0c0,0,0,0.1,0,0.1l0,0.4c0,0,0,0,0,0.1s0,0,0,0c0,0,0,0,0,0s0,0,0.1,0
							l0.5,0c0,0,0.1,0,0.1,0s0-0.1,0-0.1L438.8,311.7z"/>
					</g>
				</g>
				<g>
					<g>
						<path class="st58" d="M440,312.4l-0.4-0.3l-0.3,0l0,0.3l-0.2,0l0-1l0.8,0c0.1,0,0.1,0,0.1,0c0,0,0.1,0,0.1,0.1s0,0.1,0,0.1
							s0,0.1,0,0.1l0,0.1c0,0.1,0,0.1,0,0.2c0,0,0,0.1-0.1,0.1c0,0-0.1,0-0.1,0s-0.1,0-0.2,0l0.4,0.3L440,312.4z M440.1,311.7
							c0,0,0-0.1,0-0.1s0,0-0.1,0l-0.6,0l0,0.3l0.6,0c0,0,0.1,0,0.1,0S440.1,311.8,440.1,311.7L440.1,311.7z"/>
					</g>
				</g>
				<g>
					<g>
						<path class="st58" d="M441.8,312.4l0-0.1C441.8,312.3,441.8,312.3,441.8,312.4C441.8,312.3,441.8,312.3,441.8,312.4
							c-0.1,0-0.1,0-0.1,0c0,0,0,0-0.1,0l-0.4,0c-0.1,0-0.1,0-0.2,0c0,0-0.1,0-0.1-0.1s0-0.1,0-0.1c0,0,0-0.1,0-0.2l0-0.4
							c0-0.1,0-0.1,0-0.2c0,0,0-0.1,0.1-0.1s0.1,0,0.1-0.1s0.1,0,0.2,0l0.5,0c0,0,0.1,0,0.1,0c0,0,0.1,0,0.1,0c0,0,0,0,0,0
							c0,0,0,0,0,0l-0.1,0.1c0,0,0,0,0-0.1s0,0-0.1,0l-0.5,0c0,0-0.1,0-0.1,0s0,0.1,0,0.1l0,0.3c0,0,0,0.1,0,0.1s0,0,0,0
							c0,0,0,0,0,0c0,0,0,0,0.1,0l0.5,0c0.1,0,0.1,0,0.1,0c0,0,0,0,0-0.1l0-0.1l-0.4,0l0-0.2l0.6,0l0,0.6L441.8,312.4z"/>
					</g>
				</g>
				<g>
					<g>
						<path class="st58" d="M443.1,312.4l-0.4-0.3l-0.3,0l0,0.3l-0.2,0l0-1l0.8,0c0.1,0,0.1,0,0.1,0c0,0,0.1,0,0.1,0.1s0,0.1,0,0.1
							s0,0.1,0,0.1l0,0.1c0,0.1,0,0.1,0,0.2c0,0,0,0.1-0.1,0.1c0,0-0.1,0-0.1,0s-0.1,0-0.2,0l0.4,0.3L443.1,312.4z M443.1,311.7
							c0,0,0-0.1,0-0.1s0,0-0.1,0l-0.6,0l0,0.3l0.6,0c0,0,0.1,0,0.1,0S443.1,311.8,443.1,311.7L443.1,311.7z"/>
					</g>
				</g>
				<g>
					<g>
						<path class="st58" d="M443.5,312.4l0-1l1,0l0,0.2l-0.8,0l0,0.2l0.8,0l0,0.2l-0.8,0l0,0.2l0.8,0l0,0.2L443.5,312.4z"/>
					</g>
				</g>
				<g>
					<g>
						<path class="st58" d="M445.6,312.4l-0.1-0.2l-0.6,0l-0.1,0.2l-0.2,0l0.6-1l0.2,0l0.5,1L445.6,312.4z M445.2,311.6L445,312
							l0.5,0L445.2,311.6z"/>
					</g>
				</g>
				<g>
					<g>
						<path class="st58" d="M446.1,312.4l0-0.8l-0.4,0l0-0.2l0.9,0l0,0.2l-0.4,0l0,0.8L446.1,312.4z"/>
					</g>
				</g>
				<g>
					<g>
						<path class="st58" d="M447.7,312.5l-0.7-0.8l0,0.8l-0.2,0l0-1l0.2,0l0.7,0.7l0-0.7l0.2,0l0,1L447.7,312.5z"/>
					</g>
				</g>
				<g>
					<g>
						<path class="st58" d="M448.1,312.5l0-1l1,0l0,0.2l-0.8,0l0,0.2l0.8,0l0,0.2l-0.8,0l0,0.2l0.8,0l0,0.2L448.1,312.5z"/>
					</g>
				</g>
				<g>
					<g>
						<path class="st58" d="M450.3,312.2c0,0.1,0,0.1,0,0.1c0,0,0,0.1-0.1,0.1c0,0-0.1,0-0.1,0c0,0-0.1,0-0.2,0l-0.7,0
							c0,0,0-0.1,0-0.1c0,0,0-0.1,0-0.1l0.7,0c0,0,0,0,0.1,0c0,0,0,0,0,0s0,0,0,0c0,0,0,0,0-0.1c0,0,0-0.1,0-0.1c0,0-0.1,0-0.1,0
							l-0.4,0c-0.1,0-0.1,0-0.2,0c0,0-0.1,0-0.1-0.1s0-0.1-0.1-0.1c0,0,0-0.1,0-0.1v0c0-0.1,0-0.1,0-0.1c0,0,0-0.1,0.1-0.1
							c0,0,0.1,0,0.1,0c0,0,0.1,0,0.2,0l0.7,0c0,0,0,0.1,0,0.1s0,0.1,0,0.1l-0.7,0c0,0-0.1,0-0.1,0c0,0,0,0,0,0.1s0,0.1,0,0.1
							c0,0,0.1,0,0.1,0l0.4,0c0.1,0,0.1,0,0.2,0s0.1,0,0.1,0c0,0,0,0,0.1,0.1C450.3,312.1,450.3,312.1,450.3,312.2L450.3,312.2z"/>
					</g>
				</g>
				<g>
					<g>
						<path class="st58" d="M451.5,312.2c0,0.1,0,0.1,0,0.1c0,0,0,0.1-0.1,0.1c0,0-0.1,0-0.1,0s-0.1,0-0.2,0l-0.7,0c0,0,0-0.1,0-0.1
							c0,0,0-0.1,0-0.1l0.7,0c0,0,0,0,0.1,0c0,0,0,0,0,0s0,0,0,0c0,0,0,0,0-0.1c0,0,0-0.1,0-0.1c0,0-0.1,0-0.1,0l-0.4,0
							c-0.1,0-0.1,0-0.2,0c0,0-0.1,0-0.1-0.1s0-0.1-0.1-0.1c0,0,0-0.1,0-0.1v0c0-0.1,0-0.1,0-0.1c0,0,0-0.1,0.1-0.1c0,0,0.1,0,0.1,0
							c0,0,0.1,0,0.2,0l0.7,0c0,0,0,0.1,0,0.1s0,0.1,0,0.1l-0.7,0c0,0-0.1,0-0.1,0c0,0,0,0,0,0.1s0,0.1,0,0.1c0,0,0.1,0,0.1,0l0.4,0
							c0.1,0,0.1,0,0.2,0s0.1,0,0.1,0c0,0,0,0,0.1,0.1C451.5,312.1,451.5,312.1,451.5,312.2L451.5,312.2z"/>
					</g>
				</g>
			</g>
			<g>
				<g>
					<rect x="437.8" y="309.7" class="st58" width="6.9" height="0.5"/>
				</g>
			</g>
		</g>
	</g>
</g>
</svg>
