<?xml version="1.0" encoding="utf-8"?>
<!-- Generator: Adobe Illustrator 28.0.0, SVG Export Plug-In . SVG Version: 6.00 Build 0)  -->
<svg version="1.1" id="Layer_1" xmlns="http://www.w3.org/2000/svg" xmlns:xlink="http://www.w3.org/1999/xlink" x="0px" y="0px" width="700" height="700"                                                                                           
         viewBox="0 0 700 700" style="enable-background:new 0 0 700 700;" xml:space="preserve">
<style type="text/css">
	.st0{clip-path:url(#SVGID_00000117635395470433128590000001215881704930298259_);}
	.st1{fill:#211318;}
	.st2{fill:#167C8C;}
	.st3{fill:#E1D5B6;}
	.st4{fill:#30E2E2;stroke:#000000;stroke-width:1.05;stroke-miterlimit:10;}
	.st5{clip-path:url(#SVGID_00000039844627423357872730000005344688282640351159_);}
	.st6{fill:#25181C;}
	.st7{clip-path:url(#SVGID_00000065045449361965737900000010949551956064026252_);}
	.st8{fill:none;stroke:#000000;stroke-width:1.05;stroke-miterlimit:10;}
	.st9{clip-path:url(#SVGID_00000165925408680941172360000001697587351538265512_);}
	.st10{clip-path:url(#SVGID_00000016775952922402522370000009555259153354953090_);}
	.st11{fill:#25181C;stroke:#000000;stroke-width:1.075;stroke-miterlimit:10;}
	.st12{fill:#403C3D;}
	.st13{clip-path:url(#SVGID_00000003790885756189666300000001671317857845784765_);}
	.st14{opacity:0.25;fill:#403C3D;enable-background:new    ;}
	.st15{clip-path:url(#SVGID_00000005970115886377324380000013840593403683034799_);}
	.st16{fill:none;stroke:#403C3D;stroke-width:1.05;stroke-miterlimit:10;}
	.st17{fill:none;stroke:#403C3D;stroke-width:1.095;stroke-miterlimit:10;}
	.st18{fill:none;stroke:#403C3D;stroke-width:1.089;stroke-miterlimit:10;}
	.st19{clip-path:url(#SVGID_00000098918827194812945190000008144938875781370269_);}
	.st20{clip-path:url(#SVGID_00000090290219835455275110000001381338488750893191_);}
	.st21{fill:none;stroke:#403C3D;stroke-width:1.048;stroke-miterlimit:10;}
	.st22{fill:none;stroke:#403C3D;stroke-width:0.525;stroke-miterlimit:10;}
	.st23{fill:none;stroke:#403C3D;stroke-width:0.525;stroke-miterlimit:10;stroke-dasharray:0,0,2.123,2.123;}
	.st24{fill:none;stroke:#403C3D;stroke-width:0.525;stroke-miterlimit:10;stroke-dasharray:0,2.1;}
	.st25{fill:none;stroke:#231F20;stroke-width:1.05;stroke-miterlimit:10;}
	.st26{fill:none;}
	.st27{opacity:0.5;fill:#403C3D;enable-background:new    ;}
	.st28{clip-path:url(#SVGID_00000002365875238200470940000011418498401884552352_);}
	.st29{fill:#000001;}
	.st30{fill:none;stroke:#161616;stroke-width:1.052;stroke-miterlimit:10;}
	.st31{clip-path:url(#SVGID_00000063606223200925547820000014939914887925221030_);}
	.st32{opacity:0.25;}
	.st33{clip-path:url(#SVGID_00000124868671173837569750000012806970349251373985_);}
	.st34{fill:#474747;stroke:#403C3D;stroke-width:1.063;stroke-miterlimit:10;}
	.st35{fill:#515151;}
	.st36{fill:none;stroke:#403C3D;stroke-width:1.05;stroke-miterlimit:10;stroke-dasharray:0,2.314;}
	.st37{fill:#474747;stroke:#403C3D;stroke-width:0.942;stroke-miterlimit:10;}
	.st38{clip-path:url(#SVGID_00000011020992248123372340000012936407240365287589_);}
	.st39{opacity:0.7;}
	.st40{fill:none;stroke:#403C3D;stroke-width:1.05;stroke-miterlimit:10;stroke-dasharray:0,2.285;}
	.st41{clip-path:url(#SVGID_00000056419763367248396280000003842540477500879526_);}
	.st42{fill:none;stroke:#000000;stroke-width:1.048;stroke-miterlimit:10;}
	.st43{clip-path:url(#SVGID_00000040549793187160337890000011904915749702999743_);}
	.st44{clip-path:url(#SVGID_00000020382505519477672880000008759020386426117563_);}
	.st45{clip-path:url(#SVGID_00000007388491930592464780000003128588920195256734_);}
	.st46{clip-path:url(#SVGID_00000155840696994786069020000014668066029952072583_);}
	.st47{clip-path:url(#SVGID_00000047059332951821485720000016327931691674317697_);}
	.st48{fill:#8E23CC;}
	.st49{fill:#A5A8A8;}
	.st50{fill:#808080;}
</style>
<g>
	<g>
		<defs>
			<path id="SVGID_1_" d="M332.4,890c0,0-12.8,36-7.8,60.2l-1.2,5.4l-7.3,38.7c0,0-18.1,158-12.7,299.3c0,0,116.4,53.9,166.1-10.4
				v-40.6c0,0,40.6,20.1,89.8,12.3c0,0,37.4-5.5,42.4-15.1c0,0,5-98.5,5-122.2s-7.3-105.4-12.8-120.4c-5.5-15.1-7.3-25.5-7.3-28.3
				s4.1-6.8,3.2-15.1s-1.4-26.5-4.1-36c0,0-22.3,22.3-24.2,18.7s-5-2.7-5-2.7l-45.2,10.9c0,0-1.4,3.2-1.6,3.6s-10.5,0.2-10.5,0.2
				s-73.4,0.7-78.4-5.5s-8.7-14.6-15.5-17.8s-50.4-14.8-60-21.4S336.8,898.2,332.4,890L332.4,890z"/>
		</defs>
		<clipPath id="SVGID_00000058573766195828747510000016527688507737227435_">
			<use xlink:href="#SVGID_1_"  style="overflow:visible;"/>
		</clipPath>
		<g style="clip-path:url(#SVGID_00000058573766195828747510000016527688507737227435_);">
			<rect x="297.2" y="815.9" class="st1" width="370.5" height="528.2"/>
			<path class="st2" d="M332.1,1337.9c-3.4,0.2-6.9,0.3-10.3,0.5c-6.1-124.9,3.3-249.5,28.5-372.1c3.4,0.7,6.9,2.8,10.2,3.5
				C335.6,1091.5,326.1,1213.9,332.1,1337.9L332.1,1337.9z"/>
			<path class="st2" d="M368.1,1337.9c-3.4,0.2-6.9,0.3-10.3,0.5c-6.1-124.9,3.3-249.5,28.5-372.1c3.4,0.7,6.9,2.8,10.2,3.5
				C371.6,1091.5,362.1,1213.9,368.1,1337.9L368.1,1337.9z"/>
			<path class="st3" d="M358.6,1339.9c-3.4,0.2-24.3-0.3-27.7-0.2c-6.1-124.9,3.3-247.5,28.4-370c3.4,0.7,23.4,4.2,26.7,4.8
				C361.1,1096.3,352.5,1215.8,358.6,1339.9z"/>
			<path class="st1" d="M324.7,937.3c0,0,4.6,9.1,19.6,14.1c15.1,5,43.8,16.9,100.8,21.4l45.2,1.8l1.8,12.2l-49.7-1.8
				c-57-4.6-85.7-16.4-100.8-21.4c-15.1-5-19.6-14.1-19.6-14.1"/>
		</g>
	</g>
</g>
<g>
	<path class="st2" d="M833.8,624.9L636.1,234.4c-2-3.9-5.2-6.9-9.2-8.6L595.1,212c0,0-57.9-21.4-68.2-20.4l0,0l-24.5-3.5v0.2
		c-0.5-0.7-1-1.4-1.6-2h-9.4l0,0v-0.1c0,0-0.1,0.1-0.4,0.2c0,0-0.1,0-0.1,0.1l0,0c-1.6,0.8-6.5,2.9-13.9,5.1l0,0
		c-9,2.6-21.7,5.3-36.7,5.3s-27.2-2.6-35.8-5.3l0,0c-6.5-2-10.9-4-12.6-4.9c-0.6-0.3-0.9-0.5-0.9-0.5l0,0h-9.3
		c-0.6,0.6-1.1,1.3-1.6,2.1V188l-24.5,3.5l0,0l-102.8,35c-3.5,1.2-6.4,3.7-8,7L45,636.8c0,0,20.3,22.2,34.9,26.7
		c14.6,4.6,40,8.2,40,8.2l146.7-207.3l-14.4,279.1h1c0,0,113.2,17.8,142.6,20.5s80.7,2.1,97.8,0c17.3-2,139.4-20.4,139.4-20.4h-1
		c0,0-14.4-270.9-14.4-277.6s148.8,210.9,148.8,210.9l0,0c0,0,26-2.7,40.6-7.2s32.6-31.8,32.6-31.8L833.8,624.9L833.8,624.9z"/>
	<path class="st4" d="M490.7,186.5c0.1,0,0.1,0,0.1-0.1C490.8,186.5,490.8,186.5,490.7,186.5z"/>
	<path class="st4" d="M476.8,191.6c7.4-2.2,12.3-4.3,13.9-5.1C489.1,187.3,484.2,189.5,476.8,191.6z"/>
	<g>
		<g>
			<defs>
				<path id="SVGID_00000151521168393744075670000004491045861863376783_" d="M833.8,624.9L636.1,234.4c-2-3.9-5.2-6.9-9.2-8.6
					L595.1,212c0,0-57.9-21.4-68.2-20.4l0,0l-24.5-3.5v0.2c-0.5-0.7-1-1.4-1.6-2h-9.4l0,0v-0.1c0,0-0.1,0.1-0.4,0.2
					c0,0-0.1,0-0.1,0.1l0,0c-1.6,0.8-6.5,2.9-13.9,5.1l0,0c-9,2.6-21.7,5.3-36.7,5.3s-27.2-2.6-35.8-5.3l0,0c-6.5-2-10.9-4-12.6-4.9
					c-0.6-0.3-0.9-0.5-0.9-0.5l0,0h-9.3c-0.6,0.6-1.1,1.3-1.6,2.1V188l-24.5,3.5l0,0l-102.8,35c-3.5,1.2-6.4,3.7-8,7L45,636.8
					c0,0,20.3,22.2,34.9,26.7c14.6,4.6,40,8.2,40,8.2l146.7-207.3l-14.4,279.1h1c0,0,113.2,17.8,142.6,20.5s80.7,2.1,97.8,0
					c17.3-2,139.4-20.4,139.4-20.4h-1c0,0-14.4-270.9-14.4-277.6s148.8,210.9,148.8,210.9l0,0c0,0,26-2.7,40.6-7.2
					s32.6-31.8,32.6-31.8L833.8,624.9L833.8,624.9z"/>
			</defs>
			<clipPath id="SVGID_00000078726087216919052470000014408687853419224755_">
				<use xlink:href="#SVGID_00000151521168393744075670000004491045861863376783_"  style="overflow:visible;"/>
			</clipPath>
			<g style="clip-path:url(#SVGID_00000078726087216919052470000014408687853419224755_);">
				<rect x="218.7" y="673.3" class="st3" width="478.9" height="26.4"/>
				<rect x="218.7" y="641" class="st6" width="478.9" height="26.4"/>
				<rect x="218.7" y="608.7" class="st3" width="478.9" height="26.4"/>
				
					<rect x="154.7" y="432.3" transform="matrix(0.552 -0.8339 0.8339 0.552 -341.8528 364.1192)" class="st3" width="26.4" height="135.7"/>
				
					<rect x="172.6" y="405.4" transform="matrix(0.552 -0.8339 0.8339 0.552 -311.3365 366.9689)" class="st6" width="26.4" height="135.7"/>
				
					<rect x="-38.6" y="363.3" transform="matrix(0.552 -0.8339 0.8339 0.552 -458.3092 262.0242)" class="st6" width="106.6" height="388.4"/>
				
					<rect x="190.4" y="378.4" transform="matrix(0.552 -0.8339 0.8339 0.552 -280.9041 369.7168)" class="st3" width="26.4" height="135.7"/>
				
					<rect x="649.1" y="493.7" transform="matrix(0.8339 -0.552 0.552 0.8339 -160.6755 479.9756)" class="st3" width="135.7" height="26.4"/>
				
					<rect x="631.3" y="466.8" transform="matrix(0.8339 -0.552 0.552 0.8339 -148.8095 465.65)" class="st6" width="135.7" height="26.4"/>
				
					<rect x="667" y="513.7" transform="matrix(0.8339 -0.552 0.552 0.8339 -169.0638 572.297)" class="st6" width="398.2" height="106.6"/>
				
					<rect x="613.4" y="439.8" transform="matrix(0.8339 -0.552 0.552 0.8339 -136.8623 451.3164)" class="st3" width="135.7" height="26.4"/>
			</g>
		</g>
	</g>
</g>
<g>
	<g>
		<defs>
			<path id="SVGID_00000138554807003652865460000017703112795865147323_" d="M476.8,191.9c7.4-2.2,12.3-4.3,13.9-5.1l0,0
				c0.1,0,0.1-0.1,0.1-0.1c0.3-0.1,0.4-0.2,0.4-0.2s0,0,0,0.1l0,0h9.4c0.6,0.6,1.1,1.3,1.6,2v-0.2l24.5,3.5
				c10.3-1,68.2,20.4,68.2,20.4l31.8,13.8c3.3,1.4,6,3.7,8,6.6c-0.2,2.8-1.7,13.6-12.2,25c-6.2,6.7-13.7,12.1-25.5,15.9
				c-11.5,3.7-27.2,5.8-49.8,6H332.9c-17-0.2-30.1-1.4-40.4-3.6c-17.6-3.7-27.3-10-35-18.3c-10.5-11.4-12-22.1-12.2-24.9
				c1.7-2.7,4.3-4.8,7.4-5.8l102.8-35l24.5-3.5v0.3c0.5-0.8,1-1.5,1.6-2.1h9.3l0,0c0,0,0.3,0.2,0.9,0.5c1.8,0.9,6.1,2.9,12.6,4.9
				l0,0c8.5,2.6,20.8,5.2,35.8,5.2S467.8,194.5,476.8,191.9L476.8,191.9L476.8,191.9z"/>
		</defs>
		<clipPath id="SVGID_00000019655664728129626160000013954037379642372535_">
			<use xlink:href="#SVGID_00000138554807003652865460000017703112795865147323_"  style="overflow:visible;"/>
		</clipPath>
		<g style="clip-path:url(#SVGID_00000019655664728129626160000013954037379642372535_);">
			<path class="st3" d="M476.8,191.9c7.4-2.2,12.3-4.3,13.9-5.1l0,0c0.1,0,0.1-0.1,0.1-0.1c0.3-0.1,0.4-0.2,0.4-0.2s0,0,0,0.1l0,0
				h9.4c0.6,0.6,1.1,1.3,1.6,2v-0.2l24.5,3.5c10.3-1,68.2,20.4,68.2,20.4l31.8,13.8c3.3,1.4,6,3.7,8,6.6c-0.2,2.8-1.7,13.6-12.2,25
				c-6.2,6.7-13.7,12.1-25.5,15.9c-11.5,3.7-27.2,5.8-49.8,6H332.9c-17-0.2-30.1-1.4-40.4-3.6c-17.6-3.7-27.3-10-35-18.3
				c-10.5-11.4-12-22.1-12.2-24.9c1.7-2.7,4.3-4.8,7.4-5.8l102.8-35l24.5-3.5v0.3c0.5-0.8,1-1.5,1.6-2.1h9.3l0,0
				c0,0,0.3,0.2,0.9,0.5c1.8,0.9,6.1,2.9,12.6,4.9l0,0c8.5,2.6,20.8,5.2,35.8,5.2S467.8,194.5,476.8,191.9L476.8,191.9L476.8,191.9z
				"/>
			<rect x="252.8" y="264" class="st6" width="375.3" height="36.2"/>
		</g>
	</g>
</g>
<path class="st3" d="M499.9,206.4c0.5,3,0.7,6.5,0.7,10.4c0,22.1-9,47.4-39,64l-0.2-0.5h-40.2l-0.1,0.1
	c-29.6-16.6-38.4-41.7-38.4-63.7c0-3.7,0.2-7,0.7-10c2.9,1.5,22.5,10.6,57.6,10.6C476.6,217.4,497.6,207.5,499.9,206.4L499.9,206.4z
	"/>
<g>
	<g>
		<path class="st6" d="M527.5,191.8c0,0,5.9,19.6-0.4,46.7l-24.3,8.6c3.6-8.7,6-19.1,6-31.3c0,0,0.3-18.2-5.8-27.3v-0.2L527.5,191.8
			L527.5,191.8z"/>
		<path class="st6" d="M503,188.5c6.1,9.1,5.8,27.3,5.8,27.3c0,12.2-2.4,22.5-6,31.3c-10.7,25.8-32.6,37.5-38,40l-3.1-6.7
			c30-16.5,39-41.9,39-64c0-3.9-0.3-7.3-0.7-10.4c-0.7-4.9-1.9-8.8-3.2-11.8l0,0c-0.5-1.4-1.2-2.6-1.9-3.7c-0.1-0.2-0.2-0.3-0.3-0.5
			c-0.1-0.2-0.2-0.4-0.4-0.6c-0.3-0.5-0.7-1-1-1.4c-0.1-0.1-0.2-0.2-0.2-0.3c-0.6-0.7-1-1.2-1.1-1.4l0,0l0,0l0,0h9.4
			C502,187.1,502.5,187.8,503,188.5L503,188.5z"/>
		<path class="st6" d="M476.9,313.7l0.3-0.1l0.1-0.1L465,287.3l-0.1-0.2c5.4-2.6,27.3-14.3,38-40l24.3-8.6
			c-2.9,12.4-8.4,26.5-18.2,40.9c-7.7,11.4-18.1,23-32,34.4L476.9,313.7L476.9,313.7z"/>
		<polygon class="st6" points="461.8,280.5 464.9,287.1 465,287.3 476.9,313.7 441.1,332.3 404.9,313.7 417.9,286.8 421.2,280.2 
			421.3,280 461.5,280 		"/>
		<path class="st6" d="M381.9,249.8c10.6,22.9,29.9,33.9,36.1,37l-13.4,26.8l0.4,0.2l-0.1,0.1c-13.9-11.4-24.2-23-31.8-34.4
			c-9.1-13.7-14.3-26.9-17.1-38.9L381.9,249.8L381.9,249.8z"/>
		<path class="st6" d="M493.3,188.2c0.3,0.4,0.6,0.9,1,1.4c0.1,0.2,0.2,0.4,0.4,0.6c0.1,0.1,0.2,0.3,0.3,0.5c0.6,1,1.2,2.3,1.9,3.7
			l0,0c0,0-20.2,11.1-55.7,11.1c-35.2,0-53.9-10.4-54.6-10.8c2.1-5.1,4.4-7.6,5-8.1l0,0c0.1,0,0.1,0.1,0.3,0.1
			c0.6,0.3,2.1,1.1,4.3,2c0.2,0.1,0.4,0.2,0.7,0.3c0.2,0.1,0.4,0.1,0.5,0.2c0.4,0.1,0.7,0.3,1.1,0.5h0.1c0.6,0.2,1.1,0.4,1.8,0.7
			c0.4,0.1,0.8,0.3,1.2,0.4c0.7,0.3,1.4,0.5,2.2,0.7c0.9,0.3,1.9,0.6,2.9,0.9c0.4,0.1,0.9,0.3,1.3,0.4c0.4,0.1,0.8,0.2,1.2,0.3
			c0.5,0.1,1,0.3,1.6,0.4c1,0.3,2.1,0.5,3.2,0.8c0.6,0.1,1.2,0.3,1.9,0.4c0.4,0.1,0.8,0.2,1.2,0.2c1,0.2,2.1,0.4,3.1,0.6
			c0.8,0.1,1.6,0.3,2.5,0.4c0.8,0.1,1.6,0.2,2.3,0.3c0.8,0.1,1.5,0.2,2.3,0.3h0.1c1.6,0.2,3.3,0.3,5,0.4c0.9,0.1,1.8,0.1,2.7,0.1
			c0.9,0,1.8,0.1,2.7,0.1l0,0c0.9,0,1.8,0,2.8,0s1.9,0,2.8,0l0,0c0.9,0,1.8-0.1,2.7-0.1c0.9,0,1.8-0.1,2.7-0.1
			c1.7-0.1,3.4-0.3,5.1-0.4h0.1c0.8-0.1,1.6-0.2,2.4-0.3c2.1-0.3,4.1-0.6,6.1-0.9c0.6-0.1,1.3-0.2,1.9-0.3c2-0.4,3.9-0.8,5.7-1.2
			c0.6-0.1,1.2-0.3,1.8-0.4c0.4-0.1,0.8-0.2,1.2-0.3c0.6-0.1,1.1-0.3,1.7-0.4c0.1,0,0.1,0,0.2-0.1c0.6-0.2,1.2-0.3,1.8-0.5
			c4.9-1.4,8.8-2.8,11.4-3.9c0.2-0.1,0.5-0.2,0.7-0.3s0.4-0.1,0.5-0.2c0.7-0.3,1.2-0.5,1.6-0.7c0.1-0.1,0.2-0.1,0.3-0.2l0,0h0.1
			c0.2-0.1,0.3-0.2,0.4-0.2c0,0,0,0,0.1,0l0,0l0,0l0,0c0,0,0,0.1,0.1,0.2c0.2,0.2,0.6,0.6,1.1,1.2
			C493.2,188,493.2,188.1,493.3,188.2L493.3,188.2z"/>
		<path class="st6" d="M386.5,194.7c0.7,0.4,19.4,10.8,54.6,10.8c35.5,0,55.7-11.1,55.7-11.1c1.3,2.9,2.5,6.8,3.2,11.8
			c-2.3,1.1-23.4,11-58.9,11c-35.1,0-54.8-9.2-57.6-10.6C384.1,201.6,385.3,197.7,386.5,194.7z"/>
		<path class="st6" d="M381.9,249.8c-4.3-9.3-7.2-20.5-7.2-34c0,0-0.3-18.1,5.8-27.3c0.5-0.8,1-1.5,1.6-2.1h9.3
			c-0.3,0.3-2.9,3.1-5,8.2l0,0c-1.2,3-2.4,6.9-3.1,11.8c-0.4,2.9-0.7,6.2-0.7,10c0,21.9,8.9,47.1,38.4,63.7l-3.3,6.6
			C411.7,283.7,392.5,272.7,381.9,249.8L381.9,249.8z"/>
		<path class="st6" d="M381.9,249.8l-26-9.2c-6.7-28.2,0.1-48.8,0.1-48.8l24.5-3.5v0.3c-6.1,9.2-5.8,27.3-5.8,27.3
			C374.7,229.3,377.6,240.5,381.9,249.8L381.9,249.8z"/>
	</g>
	<g>
		<path class="st8" d="M503,188.5v-0.2l24.5,3.5c0,0,5.9,19.6-0.4,46.7c-2.9,12.4-8.4,26.5-18.2,40.9c-7.7,11.4-18.1,23-32,34.4
			l-0.1-0.1l0.3-0.1l0.1-0.1L465,287.3"/>
		<path class="st8" d="M496.8,194.4c-0.5-1.4-1.2-2.6-1.9-3.7"/>
		<path class="st8" d="M461.8,280.5c30-16.5,39-41.9,39-64c0-3.9-0.3-7.3-0.7-10.4"/>
		<path class="st8" d="M493.1,187.9c-0.6-0.7-1-1.2-1.1-1.4l0,0l0,0l0,0h9.4c0.6,0.6,1.1,1.3,1.6,2c6.1,9.1,5.8,27.3,5.8,27.3
			c0,12.2-2.4,22.5-6,31.3c-10.7,25.8-32.6,37.5-38,40"/>
		<polyline class="st8" points="421.2,280.2 421.3,280 461.5,280 461.8,280.5 464.9,287.1 465,287.3 476.9,313.7 441.1,332.3 
			404.9,313.7 417.9,286.8 		"/>
		<path class="st8" d="M496.8,194.4c1.3,2.9,2.5,6.8,3.2,11.8c-2.3,1.1-23.4,11-58.9,11c-35.1,0-54.8-9.2-57.6-10.6"/>
		<path class="st8" d="M417.9,286.8l-13.4,26.8l0.4,0.2l-0.1,0.1c-13.9-11.4-24.2-23-31.8-34.4c-9.1-13.7-14.3-26.9-17.1-38.9
			c-6.7-28.2,0.1-48.8,0.1-48.8l24.5-3.5v0.3"/>
		<path class="st8" d="M386.5,194.7c2.1-5.1,4.4-7.6,5-8.1l0,0c0.1,0,0.1,0.1,0.3,0.1c0.6,0.3,2.1,1.1,4.3,2
			c0.2,0.1,0.4,0.2,0.7,0.3c0.2,0.1,0.4,0.1,0.5,0.2c0.4,0.1,0.7,0.3,1.1,0.5h0.1c0.6,0.2,1.1,0.4,1.8,0.7c0.4,0.1,0.8,0.3,1.2,0.4
			c0.7,0.3,1.4,0.5,2.2,0.7c0.9,0.3,1.9,0.6,2.9,0.9c0.4,0.1,0.9,0.3,1.3,0.4c0.4,0.1,0.8,0.2,1.2,0.3c0.5,0.1,1,0.3,1.6,0.4
			c1,0.3,2.1,0.5,3.2,0.8c0.6,0.1,1.2,0.3,1.9,0.4c0.4,0.1,0.8,0.2,1.2,0.2c1,0.2,2.1,0.4,3.1,0.6c0.8,0.1,1.6,0.3,2.5,0.4
			c0.8,0.1,1.6,0.2,2.3,0.3c0.8,0.1,1.5,0.2,2.3,0.3h0.1c1.6,0.2,3.3,0.3,5,0.4c0.9,0.1,1.8,0.1,2.7,0.1c0.9,0,1.8,0.1,2.7,0.1l0,0
			c0.9,0,1.8,0,2.8,0s1.9,0,2.8,0l0,0c0.9,0,1.8-0.1,2.7-0.1c0.9,0,1.8-0.1,2.7-0.1c1.7-0.1,3.4-0.3,5.1-0.4h0.1
			c0.8-0.1,1.6-0.2,2.4-0.3c2.1-0.3,4.1-0.6,6.1-0.9c0.6-0.1,1.3-0.2,1.9-0.3c2-0.4,3.9-0.8,5.7-1.2c0.6-0.1,1.2-0.3,1.8-0.4
			c0.4-0.1,0.8-0.2,1.2-0.3c0.6-0.1,1.1-0.3,1.7-0.4c0.1,0,0.1,0,0.2-0.1c0.6-0.2,1.2-0.3,1.8-0.5c4.9-1.4,8.8-2.8,11.4-3.9
			c0.2-0.1,0.5-0.2,0.7-0.3s0.4-0.1,0.5-0.2c0.7-0.3,1.2-0.5,1.6-0.7c0.1-0.1,0.2-0.1,0.3-0.2l0,0h0.1c0.2-0.1,0.3-0.2,0.4-0.2
			c0,0,0,0,0.1,0l0,0l0,0l0,0c0,0,0,0.1,0.1,0.2c0.2,0.2,0.6,0.6,1.1,1.2c0.1,0.1,0.2,0.2,0.2,0.3c0.3,0.4,0.6,0.9,1,1.4
			c0.1,0.2,0.2,0.4,0.4,0.6c0.1,0.1,0.2,0.3,0.3,0.5c0.6,1,1.2,2.3,1.9,3.7l0,0c0,0-20.2,11.1-55.7,11.1
			C405.9,205.5,387.2,195.1,386.5,194.7L386.5,194.7z"/>
		<path class="st8" d="M383.5,206.6c-0.4,2.9-0.7,6.2-0.7,10c0,21.9,8.9,47.1,38.4,63.7l-3.3,6.6c-6.2-3.1-25.5-14.1-36.1-37
			c-4.3-9.3-7.2-20.5-7.2-34c0,0-0.3-18.1,5.8-27.3c0.5-0.8,1-1.5,1.6-2.1h9.3c-0.3,0.3-2.9,3.1-5,8.2l0,0
			C385.3,197.7,384.1,201.6,383.5,206.6L383.5,206.6z"/>
		<polyline class="st8" points="355.9,240.6 381.9,249.8 381.9,249.8 		"/>
		<polyline class="st8" points="527.7,238.3 527.1,238.5 502.9,247.1 502.9,247.9 		"/>
	</g>
</g>
<g>
	<path class="st2" d="M1448.8,624.9L1251,234.4c-2-3.9-5.2-6.9-9.2-8.6L1210,212c0,0-57.9-21.4-68.2-20.4l0,0l-24.5-3.5v0.2
		c-0.5-0.7-1-1.4-1.6-2h-9.4l0,0v-0.1c0,0-0.1,0.1-0.4,0.2c0,0-0.1,0-0.1,0.1l0,0c-1.6,0.8-6.5,2.9-13.9,5.1l0,0
		c-9,2.6-21.7,5.3-36.7,5.3s-27.2-2.6-35.8-5.3l0,0c-6.5-2-10.9-4-12.6-4.9c-0.6-0.3-0.9-0.5-0.9-0.5l0,0h-9.3
		c-0.6,0.6-1.1,1.3-1.6,2.1V188l-24.5,3.5l0,0l-102.8,35c-3.5,1.2-6.4,3.7-8,7L660,636.8c0,0,20.3,22.2,34.9,26.7
		c14.6,4.6,40,8.2,40,8.2l146.7-207.3l-14.4,279.1h1c0,0,113.2,17.8,142.6,20.5s80.7,2.1,97.8,0c17.1-2.1,139.2-20.5,139.2-20.5h-1
		c0,0-14.4-270.9-14.4-277.6s148.8,210.9,148.8,210.9l0,0c0,0,26-2.7,40.6-7.2s32.6-31.8,32.6-31.8L1448.8,624.9L1448.8,624.9z"/>
	<path class="st4" d="M1105.7,186.5c0.1,0,0.1,0,0.1-0.1C1105.8,186.5,1105.8,186.5,1105.7,186.5z"/>
	<path class="st4" d="M1091.9,191.6c7.4-2.2,12.3-4.3,13.9-5.1C1104.1,187.3,1099.2,189.5,1091.9,191.6z"/>
	<g>
		<g>
			<defs>
				<path id="SVGID_00000129895915733493623240000005140228231599294900_" d="M1448.8,624.9L1251,234.4c-2-3.9-5.2-6.9-9.2-8.6
					L1210,212c0,0-57.9-21.4-68.2-20.4l0,0l-24.5-3.5v0.2c-0.5-0.7-1-1.4-1.6-2h-9.4l0,0v-0.1c0,0-0.1,0.1-0.4,0.2
					c0,0-0.1,0-0.1,0.1l0,0c-1.6,0.8-6.5,2.9-13.9,5.1l0,0c-9,2.6-21.7,5.3-36.7,5.3s-27.2-2.6-35.8-5.3l0,0c-6.5-2-10.9-4-12.6-4.9
					c-0.6-0.3-0.9-0.5-0.9-0.5l0,0h-9.3c-0.6,0.6-1.1,1.3-1.6,2.1V188l-24.5,3.5l0,0l-102.8,35c-3.5,1.2-6.4,3.7-8,7L660,636.8
					c0,0,20.3,22.2,34.9,26.7c14.6,4.6,40,8.2,40,8.2l146.7-207.3l-14.4,279.1h1c0,0,113.2,17.8,142.6,20.5s80.7,2.1,97.8,0
					c17.1-2.1,139.2-20.5,139.2-20.5h-1c0,0-14.4-270.9-14.4-277.6s148.8,210.9,148.8,210.9l0,0c0,0,26-2.7,40.6-7.2
					s32.6-31.8,32.6-31.8L1448.8,624.9L1448.8,624.9z"/>
			</defs>
			<clipPath id="SVGID_00000138551069437034267890000011035630345037229461_">
				<use xlink:href="#SVGID_00000129895915733493623240000005140228231599294900_"  style="overflow:visible;"/>
			</clipPath>
			<g style="clip-path:url(#SVGID_00000138551069437034267890000011035630345037229461_);">
				<rect x="833.8" y="673.3" class="st3" width="478.9" height="26.4"/>
				<rect x="833.8" y="641" class="st6" width="478.9" height="26.4"/>
				<rect x="833.8" y="608.7" class="st3" width="478.9" height="26.4"/>
				
					<rect x="769.8" y="432.2" transform="matrix(0.552 -0.8339 0.8339 0.552 -66.2068 876.9738)" class="st3" width="26.4" height="135.7"/>
				
					<rect x="787.7" y="405.4" transform="matrix(0.552 -0.8339 0.8339 0.552 -35.7833 879.815)" class="st6" width="26.4" height="135.7"/>
				
					<rect x="570.6" y="366.4" transform="matrix(0.552 -0.8339 0.8339 0.552 -182.151 768.3024)" class="st6" width="106.6" height="374.5"/>
				
					<rect x="805.4" y="378.4" transform="matrix(0.552 -0.8339 0.8339 0.552 -5.3516 882.5632)" class="st3" width="26.4" height="135.7"/>
				
					<rect x="1264.2" y="493.7" transform="matrix(0.8339 -0.552 0.552 0.8339 -58.4947 819.4581)" class="st3" width="135.7" height="26.4"/>
				
					<rect x="1246.4" y="466.8" transform="matrix(0.8339 -0.552 0.552 0.8339 -46.5842 805.1691)" class="st6" width="135.7" height="26.4"/>
				
					<rect x="1282" y="513.6" transform="matrix(0.8339 -0.552 0.552 0.8339 -66.8465 911.735)" class="st6" width="398.2" height="106.6"/>
				
					<rect x="1228.5" y="439.8" transform="matrix(0.8339 -0.552 0.552 0.8339 -34.6813 790.7985)" class="st3" width="135.7" height="26.4"/>
			</g>
		</g>
	</g>
</g>
<g>
	<g>
		<defs>
			<path id="SVGID_00000029028739657586000470000001656526202971788704_" d="M1092.2,191.4c7.4-2.2,12.3-4.3,13.9-5.1l0,0
				c0.1,0,0.1-0.1,0.2-0.1c0.3-0.1,0.4-0.2,0.4-0.2s0,0,0.1,0.1l0,0h9.4c0.6,0.6,1.1,1.3,1.6,2v-0.2l24.5,3.5
				c10.3-1,68.2,20.4,68.2,20.4l31.8,13.8c3.3,1.4,6,3.7,8,6.6c-0.2,2.8-1.7,13.6-12.2,25c-6.2,6.7-13.7,12.1-25.5,15.9
				c-11.5,3.7-27.2,5.8-49.8,6H948.2c-17-0.2-30.1-1.4-40.4-3.6c-17.6-3.7-27.3-10-35-18.3c-10.5-11.4-12-22.1-12.2-24.9
				c1.7-2.7,4.3-4.8,7.4-5.8l102.8-35l24.5-3.5v0.3c0.5-0.8,1-1.5,1.6-2.1h9.3l0,0c0,0,0.3,0.2,0.9,0.5c1.8,0.9,6.1,2.9,12.6,4.9
				l0,0c8.5,2.6,20.8,5.2,35.8,5.2S1083.2,194,1092.2,191.4L1092.2,191.4L1092.2,191.4z"/>
		</defs>
		<clipPath id="SVGID_00000028310335567164096610000002566334498787710871_">
			<use xlink:href="#SVGID_00000029028739657586000470000001656526202971788704_"  style="overflow:visible;"/>
		</clipPath>
		<g style="clip-path:url(#SVGID_00000028310335567164096610000002566334498787710871_);">
			<path class="st3" d="M1092.2,191.4c7.4-2.2,12.3-4.3,13.9-5.1l0,0c0.1,0,0.1-0.1,0.2-0.1c0.3-0.1,0.4-0.2,0.4-0.2s0,0,0.1,0.1
				l0,0h9.4c0.6,0.6,1.1,1.3,1.6,2v-0.2l24.5,3.5c10.3-1,68.2,20.4,68.2,20.4l31.8,13.8c3.3,1.4,6,3.7,8,6.6
				c-0.2,2.8-1.7,13.6-12.2,25c-6.2,6.7-13.7,12.1-25.5,15.9c-11.5,3.7-27.2,5.8-49.8,6H948.2c-17-0.2-30.1-1.4-40.4-3.6
				c-17.6-3.7-27.3-10-35-18.3c-10.5-11.4-12-22.1-12.2-24.9c1.7-2.7,4.3-4.8,7.4-5.8l102.8-35l24.5-3.5v0.3c0.5-0.8,1-1.5,1.6-2.1
				h9.3l0,0c0,0,0.3,0.2,0.9,0.5c1.8,0.9,6.1,2.9,12.6,4.9l0,0c8.5,2.6,20.8,5.2,35.8,5.2S1083.2,194,1092.2,191.4L1092.2,191.4
				L1092.2,191.4z"/>
			<rect x="868.1" y="263.5" class="st6" width="375.3" height="36.2"/>
		</g>
	</g>
</g>
<g>
	<path class="st11" d="M1108.7,192.7c-11.8,5.2-29.4,10.9-51,11.2l0,0c-0.1,0-0.3,0-0.4,0s-0.2,0-0.4,0l0,0
		c-17.1-0.2-31.8-3.8-43-7.9c-3.5-1.3-6.7-2.6-9.5-3.9c-2.3-1.1-4.6-2.4-6.7-3.6c-0.7-0.4-1.4-0.8-2.1-1.2l8.6-1.2
		c2,0,4.8,0,8.3,0.1c0.3,0,0.7,0,1,0s0.5,0,0.8,0c10.8,4.2,26.1,8.6,43,8.7c0.1,0,0.3,0,0.4,0s0.3,0,0.4,0
		c16.4-0.1,31.3-4.3,42.1-8.3c7.9,0,15,0,20.7-0.1C1118.2,188,1114.1,190.3,1108.7,192.7L1108.7,192.7z"/>
	<path class="st11" d="M1014,195.9c11.2,4.1,25.9,7.8,43,7.9l0,0c0.1,0,0.2,0,0.4,0c0.1,0,0.3,0,0.4,0l0,0
		c21.6-0.2,39.2-5.9,51-11.2c5.4-2.4,9.5-4.7,12.2-6.3c5.4-0.1,9.5-0.2,11.7-0.3c3.8,0.5,10.2,2.2,17.7,4.5
		c-5.1,7.4-27.6,33.8-92.4,33.8c-0.4,0-0.9,0-1.3,0s-0.9,0-1.3,0c-60.8,0-84.4-21.3-91.3-30.3l2.3-0.8l28.9-6.1
		c0.6,0.4,1.3,0.7,2,1.1c2,1.1,4.4,2.3,7.1,3.6c3.3,1.7,6.6,3.1,9,3.8C1013.5,195.8,1013.7,195.9,1014,195.9L1014,195.9z"/>
</g>
<path class="st12" d="M956.1,836.8h16.8c6.6,0,12,5.4,12,12v53.6c0,6.6-5.4,12-12,12h-16.8c-6.6,0-12-5.4-12-12v-53.6
	C944.1,842.2,949.5,836.8,956.1,836.8z"/>
<g>
	<g>
		<defs>
			<path id="SVGID_00000067925253171868757770000015974859218975305123_" d="M1032,970.9c0.4-28.8,0.5-60.5,0.1-95.3H894.8
				c0,0-0.5,40,0.9,96.1c0.3,14,0.8,29.1,1.4,44.8c2.4,62.9,7.1,136,16.5,194.8l7.3,18.8c-0.2,0-0.2,0.1-0.2,0.1h0.3l3.6,9.4
				c0,0,40.6-12.8,79.8,0l3.2-9.4l7.8-23c0,0,11.7-55.5,15.8-190.5c0.4-14.1,0.8-29,1-44.8c0.1,0,0.3,0,0.4-0.1L1032,970.9
				L1032,970.9z"/>
		</defs>
		<clipPath id="SVGID_00000160911767954470255170000001928174219557929626_">
			<use xlink:href="#SVGID_00000067925253171868757770000015974859218975305123_"  style="overflow:visible;"/>
		</clipPath>
		<g style="clip-path:url(#SVGID_00000160911767954470255170000001928174219557929626_);">
			<path class="st14" d="M939.9,860.9c0,0-40.1,242.3-1.6,402.1l-37.4-8.3l-6.2-404.4L939.9,860.9L939.9,860.9z"/>
			<path class="st2" d="M880.7,846.5h180.2c6.6,0,12,5.4,12,12v448.1c0,6.6-5.4,12-12,12H880.7c-6.6,0-12-5.4-12-12V858.5
				C868.7,851.9,874.1,846.5,880.7,846.5z"/>
			<rect x="678.9" y="1112.9" class="st3" width="478.9" height="26.4"/>
			<rect x="678.9" y="1080.6" class="st6" width="478.9" height="26.4"/>
			<rect x="678.9" y="1048.3" class="st3" width="478.9" height="26.4"/>
		</g>
	</g>
</g>
<path class="st12" d="M1142.4,836.8h16.8c6.6,0,12,5.4,12,12v53.6c0,6.6-5.4,12-12,12h-16.8c-6.6,0-12-5.4-12-12v-53.6
	C1130.4,842.2,1135.7,836.8,1142.4,836.8z"/>
<g>
	<g>
		<defs>
			<path id="SVGID_00000104699418717149824430000005098486373109121673_" d="M1218.3,970.9c0.4-28.8,0.5-60.5,0.1-95.3h-137.3
				c0,0-0.5,40,0.9,96.1c0.3,14,0.8,29.1,1.4,44.8c2.4,62.9,7.1,136,16.5,194.8l7.3,18.8c-0.2,0-0.2,0.1-0.2,0.1h0.3l3.6,9.4
				c0,0,40.6-12.8,79.8,0l3.2-9.4l7.8-23c0,0,11.7-55.5,15.8-190.5c0.4-14.1,0.8-29,1-44.8c0.1,0,0.3,0,0.4-0.1L1218.3,970.9
				L1218.3,970.9z"/>
		</defs>
		<clipPath id="SVGID_00000022550736815320910890000011735194327840236168_">
			<use xlink:href="#SVGID_00000104699418717149824430000005098486373109121673_"  style="overflow:visible;"/>
		</clipPath>
		<g style="clip-path:url(#SVGID_00000022550736815320910890000011735194327840236168_);">
			<path class="st14" d="M1126.2,860.9c0,0-40.1,242.3-1.6,402.1l-37.4-8.3l-6.2-404.4L1126.2,860.9L1126.2,860.9z"/>
			<path class="st2" d="M1067,846.5h180.2c6.6,0,12,5.4,12,12v448.1c0,6.6-5.4,12-12,12H1067c-6.6,0-12-5.4-12-12V858.5
				C1055,851.9,1060.3,846.5,1067,846.5z"/>
			<rect x="865.2" y="1112.9" class="st3" width="478.9" height="26.4"/>
			<rect x="865.2" y="1080.6" class="st6" width="478.9" height="26.4"/>
			<rect x="865.2" y="1048.3" class="st3" width="478.9" height="26.4"/>
		</g>
	</g>
</g>
<g>
	<g>
		<g>
			<g>
				<path class="st16" d="M1032.1,875.6H894.8c0,0-2.3,203.9,18.7,335.7l10.9,28.3c0,0,40.6-12.8,79.8,0l10.9-32.4
					C1015.2,1207.2,1034.9,1114.1,1032.1,875.6L1032.1,875.6z"/>
				<path class="st17" d="M924.5,1239.5l-3.4-9.5c0,0,43.7-12.6,86.4,0.1l-3.2,9.4"/>
				<g>
					<rect x="948.4" y="889.3" class="st16" width="32.2" height="48.6"/>
					<line class="st16" x1="948.4" y1="937.8" x2="980.6" y2="889.3"/>
					<line class="st16" x1="948.4" y1="889.3" x2="980.6" y2="937.8"/>
				</g>
				<path class="st16" d="M939.9,875.6c0,0,3.4,64-1.7,73.5c-5.1,9.6-13.8,27.4-42.5,22.6"/>
				<path class="st16" d="M988.2,875.6c0,0-3.4,64,1.7,73.5c5.1,9.6,13.8,27.4,42.5,22.6"/>
				<path class="st16" d="M897.1,1016.5c0,0,27.8,1.7,46.6-8.5s46.9,0,46.9,0s11.2,10.8,40.5,8.7"/>
				<line class="st17" x1="1007.5" y1="1230.2" x2="1004.3" y2="1239.5"/>
				<line class="st17" x1="924.5" y1="1239.5" x2="921.1" y2="1230"/>
				<g>
					<g>
						<line class="st18" x1="928.5" y1="1238" x2="925.1" y2="1228.6"/>
						<line class="st18" x1="929.3" y1="1227.8" x2="932.3" y2="1237.2"/>
						<line class="st18" x1="933.6" y1="1227.3" x2="936.2" y2="1236.7"/>
						<line class="st18" x1="937.9" y1="1226.8" x2="940.1" y2="1236.2"/>
						<line class="st18" x1="942.2" y1="1226.3" x2="944" y2="1235.7"/>
						<line class="st18" x1="946.4" y1="1225.9" x2="948" y2="1235.2"/>
						<line class="st18" x1="950.7" y1="1225.4" x2="951.9" y2="1234.7"/>
						<line class="st18" x1="955" y1="1224.9" x2="955.8" y2="1234.2"/>
						<line class="st18" x1="959.3" y1="1224.4" x2="959.7" y2="1233.7"/>
						<line class="st18" x1="963.6" y1="1224.5" x2="963.6" y2="1233.9"/>
					</g>
					<g>
						<line class="st18" x1="1002" y1="1238.8" x2="1005.4" y2="1229.4"/>
						<line class="st18" x1="1001.6" y1="1228.3" x2="998.5" y2="1237.7"/>
						<line class="st18" x1="997.4" y1="1227.3" x2="994.8" y2="1236.7"/>
						<line class="st18" x1="993.2" y1="1226.8" x2="990.9" y2="1236.2"/>
						<line class="st18" x1="988.9" y1="1226.3" x2="987" y2="1235.7"/>
						<line class="st18" x1="984.6" y1="1225.8" x2="983.1" y2="1235.2"/>
						<line class="st18" x1="980.3" y1="1225.3" x2="979.2" y2="1234.7"/>
						<line class="st18" x1="976" y1="1224.8" x2="975.3" y2="1234.2"/>
						<line class="st18" x1="971.7" y1="1224.3" x2="971.4" y2="1233.7"/>
						<line class="st18" x1="967.5" y1="1224.5" x2="967.5" y2="1233.8"/>
					</g>
				</g>
			</g>
			<g>
				<g>
					<defs>
						<path id="SVGID_00000079463143423935775560000000854190335169382816_" d="M1032,970.9c0.4-28.8,0.5-60.5,0.1-95.3H894.8
							c0,0-0.5,40,0.9,96.1c0.3,14,0.8,29.1,1.4,44.8c2.4,62.9,7.1,136,16.5,194.8l7.3,18.8c-0.2,0-0.2,0.1-0.2,0.1h0.3l3.6,9.4
							c0,0,40.6-12.8,79.8,0l3.2-9.4l7.8-23c0,0,11.7-55.5,15.8-190.5c0.4-14.1,0.8-29,1-44.8c0.1,0,0.3,0,0.4-0.1L1032,970.9
							L1032,970.9z"/>
					</defs>
					<clipPath id="SVGID_00000118381076445436357620000011546777829769171378_">
						<use xlink:href="#SVGID_00000079463143423935775560000000854190335169382816_"  style="overflow:visible;"/>
					</clipPath>
					<g style="clip-path:url(#SVGID_00000118381076445436357620000011546777829769171378_);">
						<path class="st14" d="M939.9,860.9c0,0-40.1,242.3-1.6,402.1l-37.4-8.3l-6.2-404.4L939.9,860.9L939.9,860.9z"/>
						<path class="st14" d="M987.2,866.1c0,0,40.1,242.3,1.6,402.1l37.4-8.3l6.2-404.4L987.2,866.1L987.2,866.1z"/>
					</g>
				</g>
			</g>
			<path class="st12" d="M944.1,875.6v-26.8c0-6.6,5.4-12,12-12h16.8c6.6,0,12,5.4,12,12v26.8"/>
		</g>
		<g>
			<g>
				<path class="st16" d="M1218.8,875.6h-137.3c0,0-2.3,203.9,18.7,335.7l10.9,28.3c0,0,40.6-12.8,79.8,0l10.9-32.4
					C1202,1207.2,1221.6,1114.1,1218.8,875.6L1218.8,875.6z"/>
				<path class="st17" d="M1111.2,1239.5l-3.4-9.5c0,0,43.7-12.6,86.4,0.1l-3.2,9.4"/>
				<g>
					<rect x="1135.2" y="889.3" class="st16" width="32.2" height="48.6"/>
					<line class="st16" x1="1135.2" y1="937.8" x2="1167.3" y2="889.3"/>
					<line class="st16" x1="1135.2" y1="889.3" x2="1167.3" y2="937.8"/>
				</g>
				<path class="st16" d="M1126.6,875.6c0,0,3.4,64-1.7,73.5s-13.8,27.4-42.5,22.6"/>
				<path class="st16" d="M1174.9,875.6c0,0-3.4,64,1.7,73.5s13.8,27.4,42.5,22.6"/>
				<path class="st16" d="M1083.8,1016.5c0,0,27.8,1.7,46.6-8.5s46.9,0,46.9,0s11.2,10.8,40.5,8.7"/>
				<line class="st17" x1="1194.2" y1="1230.2" x2="1191" y2="1239.5"/>
				<line class="st17" x1="1111.2" y1="1239.5" x2="1107.8" y2="1230"/>
				<g>
					<g>
						<line class="st18" x1="1115.3" y1="1238" x2="1111.9" y2="1228.6"/>
						<line class="st18" x1="1116" y1="1227.8" x2="1119.1" y2="1237.2"/>
						<line class="st18" x1="1120.3" y1="1227.3" x2="1123" y2="1236.7"/>
						<line class="st18" x1="1124.6" y1="1226.8" x2="1126.9" y2="1236.2"/>
						<line class="st18" x1="1128.9" y1="1226.3" x2="1130.8" y2="1235.7"/>
						<line class="st18" x1="1133.2" y1="1225.9" x2="1134.7" y2="1235.2"/>
						<line class="st18" x1="1137.4" y1="1225.4" x2="1138.6" y2="1234.7"/>
						<line class="st18" x1="1141.7" y1="1224.9" x2="1142.5" y2="1234.2"/>
						<line class="st18" x1="1146" y1="1224.4" x2="1146.4" y2="1233.7"/>
						<line class="st18" x1="1150.3" y1="1224.5" x2="1150.3" y2="1233.9"/>
					</g>
					<g>
						<line class="st18" x1="1188.7" y1="1238.8" x2="1192.1" y2="1229.4"/>
						<line class="st18" x1="1188.3" y1="1228.3" x2="1185.3" y2="1237.7"/>
						<line class="st18" x1="1184.2" y1="1227.3" x2="1181.5" y2="1236.7"/>
						<line class="st18" x1="1179.9" y1="1226.8" x2="1177.6" y2="1236.2"/>
						<line class="st18" x1="1175.6" y1="1226.3" x2="1173.7" y2="1235.7"/>
						<line class="st18" x1="1171.3" y1="1225.8" x2="1169.8" y2="1235.2"/>
						<line class="st18" x1="1167" y1="1225.3" x2="1165.9" y2="1234.7"/>
						<line class="st18" x1="1162.7" y1="1224.8" x2="1162" y2="1234.2"/>
						<line class="st18" x1="1158.5" y1="1224.3" x2="1158.1" y2="1233.7"/>
						<line class="st18" x1="1154.2" y1="1224.5" x2="1154.2" y2="1233.8"/>
					</g>
				</g>
			</g>
			<g>
				<g>
					<defs>
						<path id="SVGID_00000040558710090321828470000004466464806763443382_" d="M1218.7,970.9c0.4-28.8,0.5-60.5,0.1-95.3h-137.3
							c0,0-0.5,40,0.9,96.1c0.3,14,0.8,29.1,1.4,44.8c2.4,62.9,7.1,136,16.5,194.8l7.3,18.8c-0.2,0-0.2,0.1-0.2,0.1h0.3l3.6,9.4
							c0,0,40.6-12.8,79.8,0l3.2-9.4l7.8-23c0,0,11.7-55.5,15.8-190.5c0.4-14.1,0.8-29,1-44.8c0.1,0,0.3,0,0.4-0.1L1218.7,970.9
							L1218.7,970.9z"/>
					</defs>
					<clipPath id="SVGID_00000059997975129804968340000011102358650096282246_">
						<use xlink:href="#SVGID_00000040558710090321828470000004466464806763443382_"  style="overflow:visible;"/>
					</clipPath>
					<g style="clip-path:url(#SVGID_00000059997975129804968340000011102358650096282246_);">
						<path class="st14" d="M1126.6,860.9c0,0-40.1,242.3-1.6,402.1l-37.4-8.3l-6.2-404.4L1126.6,860.9L1126.6,860.9z"/>
						<path class="st14" d="M1174,866.1c0,0,40.1,242.3,1.6,402.1l37.4-8.3l6.2-404.4L1174,866.1L1174,866.1z"/>
					</g>
				</g>
			</g>
			<path class="st12" d="M1130.8,875.6v-26.8c0-6.6,5.4-12,12-12h16.8c6.6,0,12,5.4,12,12v26.8"/>
		</g>
	</g>
	<g>
		<path class="st21" d="M860.6,231.7c0,0,0,12.4,12.3,25.6c12.3,13.2,29.5,21.4,75.4,21.9h214.4c45.9-0.5,63.1-8.7,75.4-21.9
			c12.3-13.2,12.3-25.6,12.3-25.6"/>
		<g>
			<g>
				<path class="st22" d="M666.5,626.9c0.3,0,0.7,0.1,1,0.1"/>
				<path class="st23" d="M669.7,627.3c29.2,3.4,53.9,15.6,71.6,31.7"/>
				<path class="st22" d="M742.1,659.7c0.3,0.2,0.5,0.5,0.8,0.7"/>
			</g>
			<path class="st22" d="M668.1,621.8c32.1,3.4,58.9,17,77.4,35"/>
			<g>
				<path class="st22" d="M1451,632.7c-0.3,0-0.7,0.1-1,0.1"/>
				<path class="st23" d="M1447.8,633c-29.2,3.4-53.9,15.6-71.6,31.7"/>
				<path class="st22" d="M1375.4,665.5c-0.3,0.2-0.5,0.5-0.8,0.7"/>
			</g>
			<path class="st22" d="M1449.4,627.5c-32.1,3.4-58.9,17-77.4,35"/>
			<path class="st24" d="M868.7,726.1c0,0,113.2,17.8,142.6,20.5s80.7,2.1,97.8,0c17.1-2.1,136.8-20.2,136.8-20.2"/>
			<path class="st22" d="M868.7,714.9c0,0,113.2,17.8,142.6,20.5s80.7,2.1,97.8,0c17.1-2.1,136.4-20.1,136.4-20.1"/>
		</g>
		<line class="st25" x1="881.9" y1="464.4" x2="907.7" y2="275.7"/>
		<line class="st25" x1="1233.5" y1="469.5" x2="1212.3" y2="273.2"/>
		<line class="st16" x1="660.4" y1="636.8" x2="735.3" y2="671.7"/>
		<g>
			<path class="st8" d="M1005.2,188.4L1005.2,188.4h3.2C1006.3,188.4,1005.2,188.4,1005.2,188.4z"/>
			<path class="st8" d="M1455,637.9l-5.8-13l-197.8-390.5c-2-3.9-5.2-6.9-9.2-8.6l-31.8-13.8c0,0-65.7-24.6-75.9-23.6
				c-3.1,0.3-16.5,0.4-33.5,0.5c-10.8,3.9-25.7,7.9-42.1,8c-16.9-0.1-32.2-4.3-43-8.3c-4.8,0-8.6-0.1-10.9-0.1l-37.8,5.1l-99.2,33
				c-3.5,1.2-6.4,3.7-8,7L660.4,636.8c0,0,20.3,22.2,34.9,26.7c14.6,4.6,40,8.2,40,8.2L882,464.4l-14.4,279.1h1
				c0,0,113.2,17.8,142.6,20.5c29.4,2.7,80.7,2.1,97.8,0c17.1-2.1,139.2-20.5,139.2-20.5h-1c0,0-14.4-270.9-14.4-277.6
				s148.8,210.9,148.8,210.9l0,0c0,0,26-2.7,40.6-7.2C1436.9,665.1,1455,637.9,1455,637.9L1455,637.9L1455,637.9z"/>
			<path class="st26" d="M1005.1,188.5c2.3,0,6,0.1,10.8,0.1c10.8,4,26.2,8.2,43,8.3c16.4-0.1,31.3-4.1,42.1-8
				c17,0,30.3-0.1,33.5-0.5c10.3-1,75.9,23.6,75.9,23.6l31.8,13.8c3.3,1.4,6,3.7,8,6.6c-0.2,2.7-1.7,13.6-12.3,25
				c-12.3,13.2-29.5,21.4-75.4,21.9H948.2c-45.9-0.5-63.1-8.7-75.4-21.9c-10.5-11.4-12-22.1-12.3-24.9c1.7-2.8,4.3-4.8,7.4-5.8
				l99.2-33.1L1005.1,188.5L1005.1,188.5L1005.1,188.5z"/>
		</g>
		<path class="st27" d="M659.7,636.7c0,0,20.3,22.2,34.9,26.7c14.6,4.6,40,8.2,40,8.2"/>
		<path class="st27" d="M1454.3,637.7c0,0-18.1,27.2-32.6,31.8s-40.6,7.2-40.6,7.2"/>
		<g>
			<g>
				<defs>
					<path id="SVGID_00000172410268725603284810000000232842677506200747_" d="M1449.5,625l5.8,13c0,0-18.1,27.2-32.7,31.8
						c-7.3,2.3-17.4,4.1-25.7,5.3s-14.8,1.9-14.8,1.9S1240,469.2,1233.6,466l-20.8-192.6c11.8-3.8,19.3-9.2,25.5-15.9
						c10.6-11.4,12.1-22.2,12.3-25c0.4,0.6,0.8,1.3,1.2,2L1449.5,625L1449.5,625z"/>
				</defs>
				<clipPath id="SVGID_00000090254224604833099300000010902029425696976547_">
					<use xlink:href="#SVGID_00000172410268725603284810000000232842677506200747_"  style="overflow:visible;"/>
				</clipPath>
				<g style="clip-path:url(#SVGID_00000090254224604833099300000010902029425696976547_);">
					
						<rect x="1329.9" y="676.3" transform="matrix(0.9065 -0.4222 0.4222 0.9065 -155.9929 659.6168)" class="st29" width="162.8" height="11.4"/>
					<line class="st30" x1="1480.5" y1="644" x2="1370.5" y2="696.4"/>
				</g>
			</g>
		</g>
		<g>
			<g>
				<defs>
					<path id="SVGID_00000010292490802347851620000003143356485253514119_" d="M1449.9,624.9l-197.8-390.5c-2-3.9-5.2-6.9-9.2-8.6
						l-31.8-13.8c0,0-57.9-21.4-68.2-20.4l0,0l-24.5-3.5v0.2c-0.5-0.7-1-1.4-1.6-2h-9.4l0,0v-0.1c0,0-0.1,0.1-0.4,0.2
						c0,0-0.1,0-0.1,0.1l0,0c-1.6,0.8-6.5,2.9-13.9,5.1l0,0c-9,2.6-21.7,5.3-36.7,5.3s-27.2-2.6-35.8-5.3l0,0
						c-6.5-2-10.9-4-12.6-4.9c-0.6-0.3-0.9-0.5-0.9-0.5l0,0h-9.3c-0.6,0.6-1.1,1.3-1.6,2.1V188l-24.5,3.5l0,0l-102.8,35
						c-3.5,1.2-6.4,3.7-8,7L661.1,636.8c0,0,20.3,22.2,34.9,26.7c14.6,4.6,40,8.2,40,8.2l146.7-207.3l-14.4,279.1h1
						c0,0,113.2,17.8,142.6,20.5s80.7,2.1,97.8,0c17.1-2.1,139.2-20.5,139.2-20.5h-1c0,0-14.4-270.9-14.4-277.6
						s148.8,210.9,148.8,210.9l0,0c0,0,26-2.7,40.6-7.2s32.6-31.8,32.6-31.8L1449.9,624.9L1449.9,624.9z"/>
				</defs>
				<clipPath id="SVGID_00000041275128872125582260000001368204311770323851_">
					<use xlink:href="#SVGID_00000010292490802347851620000003143356485253514119_"  style="overflow:visible;"/>
				</clipPath>
				<g style="clip-path:url(#SVGID_00000041275128872125582260000001368204311770323851_);">
					<g class="st32">
						<path class="st12" d="M847.7,260.6L693.8,664l-35.6-23.7C658.2,640.3,810.1,272.9,847.7,260.6L847.7,260.6z"/>
						<path class="st12" d="M1264.3,260.6L1429.7,686l35.6-23.7C1465.4,662.2,1302,272.9,1264.3,260.6L1264.3,260.6z"/>
						<path class="st12" d="M909.8,273.2L909.8,273.2c-36.3,157,16.2,324.1-20.2,481.2c-22.4-2.5-44.9-5.1-67.3-7.6
							C881.1,592.3,851,427.7,909.8,273.2L909.8,273.2z"/>
						<path class="st12" d="M1210,272.2L1210,272.2c35.9,157.1-17,324.1,18.9,481.2c22.4-2.5,44.9-4.9,67.3-7.4
							C1237.9,591.3,1268.4,426.8,1210,272.2L1210,272.2z"/>
					</g>
				</g>
			</g>
		</g>
	</g>
	<g>
		<g>
			<g>
				<defs>
					<path id="SVGID_00000132054791220311409480000008254353778692570778_" d="M246.5,779v576.6h426.3V779H246.5z M602,1239.8
						c-5,9.6-42.4,15.1-42.4,15.1c-49.3,7.8-89.9-12.3-89.9-12.3v40.6c-49.7,64.3-166.1,10.4-166.1,10.4
						c-5.5-141.3,12.7-299.3,12.7-299.3l7.3-38.7l1.2-5.4c-5-24.2,7.8-60.2,7.8-60.2c4.3,8.2,3.6,7.3,13.2,13.9
						c9.6,6.6,53.1,18.2,60,21.4c6.8,3.2,10.5,11.6,15.5,17.8s78.4,5.5,78.4,5.5s10.3,0.2,10.5-0.2c0.2-0.5,1.6-3.6,1.6-3.6
						l45.2-10.9c0,0,3.2-0.9,5,2.7c1.8,3.6,24.2-18.7,24.2-18.7c2.7,9.6,3.2,27.8,4.1,36c0.9,8.2-3.2,12.3-3.2,15.1
						s1.8,13.2,7.3,28.3s12.8,96.7,12.8,120.4S602,1239.8,602,1239.8L602,1239.8z"/>
				</defs>
				<clipPath id="SVGID_00000022558845417256128340000001411641002206730918_">
					<use xlink:href="#SVGID_00000132054791220311409480000008254353778692570778_"  style="overflow:visible;"/>
				</clipPath>
				<g style="clip-path:url(#SVGID_00000022558845417256128340000001411641002206730918_);">
					<path class="st34" d="M333.9,843.5c0,0,18.7-2.7,22,0c0,0,0-17.8,2.3-24.6s11.2-16.4,25.3-17.8s38.3-0.5,42.1,2.3
						c3.7,2.7,15,22.8,15,31.9l36.9-5.9c0,0,39.1-2.7,51.8-2.7s36.6,3.6,39.4,6.8s3.3-3.2,7.5,18.2s11.3,66.3,9.8,72.1
						s0,33.1-31.8,34.8S319.2,911.5,333.9,843.5L333.9,843.5z"/>
					<path class="st35" d="M479.7,916.1c0,0,8.6,15.8,15.1,21.3s13,7.9,14,4.5s5.8-4.5,5.8-4.5s44.8-10.2,48.6-10.6
						s5.8-13.5,3.8-15.3c-2.1-1.8-10.6-17.2-37.6-13.1S481.4,905.7,479.7,916.1L479.7,916.1z"/>
					<path class="st34" d="M496.7,954.6c0,0-37.4-64.6-71.5-77.8s-63.1-14.6-73-18.7c-9.8-4.1-16.4,0-17.3-7.3l-0.9-7.3h-3.3
						c0,0-1.1,10.6,0,20.1c0.3,2.7,3.2,4.4,3.2,4.4s-1.9,22.6-1.2,28c0.7,5.7,44.3,51.5,44.3,51.5l79.1,31.9L496.7,954.6
						L496.7,954.6z"/>
					<path class="st35" d="M415.1,803.8c0,0-35.4-6.8-43.8,5.5s-11.6,21.5-6.3,34.2c5.3,12.7,12.6,17.8,17.5,17.8s39.3,0.3,43.5-5.1
						s6.7-8.2,4.6-21.2C428.4,822,429.1,812.1,415.1,803.8L415.1,803.8z"/>
					<path class="st35" d="M576.2,855.5c0,0-6.1,37.6-10.3,38.3s-51.1,0.3-69.2-8.6c-18.1-8.9-25.8-18.8-31.5-23.9
						c-5.6-5.1-9.8-7.5-7-14.4c2.8-6.8,9.8-15.9,42.8-15.3S577,823,576.2,855.5L576.2,855.5z"/>
					<path class="st36" d="M425.6,806.9c0,0,13.7,31.8,13,48.6s-1.4,22.4,3.9,24s36.1,7.3,40,16.4"/>
					<path class="st36" d="M442.4,858.2c0,0,32.9-12.3,62.7-10.9c29.9,1.4,53.8,5.1,58.9,8.9c5,3.8,14.6,8.9,14.6,8.9"/>
					<path class="st36" d="M558.5,909.8c-29.3-16.7-73.7,6.3-73.7,6.3"/>
					<path class="st35" d="M337,858.7c0,0,78.8,15,92,25.6s46.5,46.8,50.7,53.3s5.7,11.6-11.5,8.6c-11.6-2-25.3-3.5-33.1-4.3
						c-3.9-0.4-7.5-2.3-10-5.3c-2.1-2.5-4.8-5.8-7.9-9.5c-6.8-8.1-4.7-4.7-19.8-9.1s-42.7-9.4-52.6-19.2
						C334.9,888.8,335.3,863.5,337,858.7L337,858.7z"/>
					<path class="st37" d="M576.2,851.7c0,0-2.9,41.6-10.7,49.8s-17.8,41.6-0.6,34.9"/>
				</g>
			</g>
		</g>
		<g>
			<g>
				<defs>
					<path id="SVGID_00000160891608952853159400000006329973835983926972_" d="M332.4,890c0,0-12.8,36-7.8,60.2l-1.2,5.4l-7.3,38.7
						c0,0-18.1,158-12.7,299.3c0,0,116.4,53.9,166.1-10.4v-40.6c0,0,40.6,20.1,89.8,12.3c0,0,37.4-5.5,42.4-15.1c0,0,5-98.5,5-122.2
						s-7.3-105.4-12.8-120.4c-5.5-15.1-7.3-25.5-7.3-28.3s4.1-6.8,3.2-15.1s-1.4-26.5-4.1-36c0,0-22.3,22.3-24.2,18.7s-5-2.7-5-2.7
						l-45.2,10.9c0,0-1.4,3.2-1.6,3.6s-10.5,0.2-10.5,0.2s-73.4,0.7-78.4-5.5s-8.7-14.6-15.5-17.8s-50.4-14.8-60-21.4
						S336.8,898.2,332.4,890L332.4,890z"/>
				</defs>
				<clipPath id="SVGID_00000132774774853996156540000013028588988023398287_">
					<use xlink:href="#SVGID_00000160891608952853159400000006329973835983926972_"  style="overflow:visible;"/>
				</clipPath>
				<g style="clip-path:url(#SVGID_00000132774774853996156540000013028588988023398287_);">
					<g class="st39">
						<path class="st16" d="M332.4,890c0,0-12.8,36-7.8,60.2l-1.2,5.4l-7.3,38.7c0,0-18.1,158-12.7,299.3c0,0,116.4,53.9,166.1-10.4
							v-40.6c0,0,40.6,20.1,89.8,12.3c0,0,37.4-5.5,42.4-15.1c0,0,5-98.5,5-122.2s-7.3-105.4-12.8-120.4
							c-5.5-15.1-7.3-25.5-7.3-28.3s4.1-6.8,3.2-15.1s-1.4-26.5-4.1-36c0,0-22.3,22.3-24.2,18.7s-5-2.7-5-2.7l-45.2,10.9
							c0,0-1.4,3.2-1.6,3.6s-10.5,0.2-10.5,0.2s-73.4,0.7-78.4-5.5s-8.7-14.6-15.5-17.8s-50.4-14.8-60-21.4S336.8,898.2,332.4,890
							L332.4,890z"/>
						<path class="st14" d="M498,1108.4l-43.2,63.9l4.9,134.1l47.4-42.4v-117.2l31.5-29.2l11.9-58.8c0,0-25.1,54.3-28.7,54.7
							C518,1113.9,512.1,1116.6,498,1108.4L498,1108.4z"/>
						<path class="st14" d="M324.7,950.2c0,0,4.6,9.1,19.6,14.1c15.1,5,43.8,16.9,100.8,21.4l45.2,1.8l1.8,12.2l-49.7-1.8
							c-57-4.6-85.7-16.4-100.8-21.4c-15.1-5-19.6-14.1-19.6-14.1"/>
						<path class="st40" d="M490.2,1120c0,0-25.5-60.3-26.4-70.8S451,991.7,451,991.7s-93.5-6.8-122.7-29.2l-4.8-7"/>
						<path class="st40" d="M328.8,902.2c0,0,33.8,19.3,56.6,23.8s21,13.2,25.1,17.8s7.8,7.8,29.2,9.6s47.4,4.1,47.4,4.1"/>
						<polyline class="st40" points="520.3,1033.2 516.2,950.2 553.2,941.5 						"/>
						<path class="st40" d="M560,941.5c0,0,20.4-4.1,23.7-11.7"/>
						<path class="st40" d="M303.3,1286.8c0,0,30,15.7,77.9,19.6c0,0,43.3,0,57-5.5s25.5-16,27.8-18.2"/>
						<polyline class="st40" points="502.6,1138.3 497.1,1158.6 497.1,1251.8 						"/>
						<path class="st40" d="M497.1,1243.4c0,0,45.2,5.9,62,4.1s40.5-12.6,43.3-15.4"/>
						<polyline class="st40" points="586.5,989.4 567.3,1065.1 479.3,1156.3 						"/>
						<g>
							<polyline class="st16" points="490.2,950.2 490.2,987.6 496.8,1036.2 502.6,1069.1 498,1108.4 467.4,1185 467.4,1303.2 
															"/>
							<polyline class="st16" points="454.8,986.1 468.1,1044.5 479.7,1084.1 492.1,1114.9 							"/>
							<path class="st16" d="M556.8,933.7l5,41.2l-7.2,52.7l-4.2,31c0,0-7.9,6.6-47.8,10.4"/>
							<polyline class="st16" points="496.8,1036.2 516.2,1036.2 554.7,1027.7 							"/>
							<polyline class="st16" points="585.1,975 563.9,1061.9 482.6,1148.2 							"/>
						</g>
						<path class="st40" d="M501.9,1065.3c0,0,28.4,0.5,48.5-10.9"/>
						<path class="st14" d="M586,917.8c0,0-0.5,17.8,0,30.1s2.5,14.7-4.8,19.1s-19.3,8-19.3,8l-1.7,12.4c0,0,16.9-5.9,20.7-8
							c3.7-2.1,7-3.8,6.6-6c-0.3-2.2,2.7-15.2,2.8-16.2S586,917.8,586,917.8L586,917.8z"/>
						<path class="st14" d="M557.2,936.9c0,0-43.9,9.7-43.9,11.4s3,87.9,3,87.9h-3l-3.2-87.9l1.6-3.6l45.2-10.9L557.2,936.9
							L557.2,936.9z"/>
					</g>
				</g>
			</g>
		</g>
	</g>
	<g>
		<g>
			<g>
				<defs>
					<path id="SVGID_00000132085574171339792060000010533669912436605092_" d="M13.5,154.6v722.6h867.9V154.6H13.5z M841,639.4
						c-3.8,5.5-19.6,27.5-33,31.7c-6.1,1.9-14.9,3.7-26,5.4c-7.9,1.2-14.2,1.8-14.9,1.9l-0.9,0.1l-0.5-0.7
						c-56.7-82.9-142.9-207.3-148-210.5l-0.7-0.4l-21-194.7l1.2-0.4c10.3-3.3,18-8.1,24.9-15.5c10.1-11,11.6-21.2,11.9-24.1l0.3-4.3
						l2.4,3.6c0.5,0.7,0.9,1.4,1.3,2.2l197.8,390.5l6.8,15.1L841,639.4L841,639.4z"/>
				</defs>
				<clipPath id="SVGID_00000173871338431780562340000004953260467541624208_">
					<use xlink:href="#SVGID_00000132085574171339792060000010533669912436605092_"  style="overflow:visible;"/>
				</clipPath>
				<g style="clip-path:url(#SVGID_00000173871338431780562340000004953260467541624208_);">
					<g>
						<path class="st42" d="M508.2,279.3h1.6h37.5c45.9-0.5,63.1-8.7,75.4-21.9c12.3-13.2,12.3-25.6,12.3-25.6"/>
						<path class="st42" d="M245.2,231.7c0,0,0,12.4,12.3,25.6c12.3,13.2,29.5,21.4,75.4,21.9h39.9"/>
						<g>
							<g>
								<path class="st22" d="M51.2,626.9c0.3,0,0.7,0.1,1,0.1"/>
								<path class="st23" d="M54.3,627.3c29.2,3.4,53.9,15.6,71.6,31.7"/>
								<path class="st22" d="M126.7,659.7c0.3,0.2,0.5,0.5,0.8,0.7"/>
							</g>
							<path class="st22" d="M52.8,621.8c32.1,3.4,58.9,17,77.4,35"/>
							<g>
								<path class="st22" d="M835.6,632.7c-0.3,0-0.7,0.1-1,0.1"/>
								<path class="st23" d="M832.5,633c-29.2,3.4-53.9,15.6-71.6,31.7"/>
								<path class="st22" d="M760,665.5c-0.3,0.2-0.5,0.5-0.8,0.7"/>
							</g>
							<path class="st22" d="M834,627.5c-32.1,3.4-58.9,17-77.4,35"/>
							<line class="st24" x1="252.5" y1="733.1" x2="632.2" y2="733.1"/>
							<line class="st22" x1="252.5" y1="724.7" x2="632.2" y2="724.7"/>
						</g>
						<line class="st25" x1="266.7" y1="464.4" x2="292.5" y2="275.7"/>
						<line class="st25" x1="618.3" y1="469.5" x2="597.1" y2="273.2"/>
						<line class="st8" x1="45" y1="636.8" x2="119.9" y2="671.7"/>
						<line class="st16" x1="766.4" y1="676.9" x2="839.6" y2="637.9"/>
						<g>
							<path class="st8" d="M490.7,186.5c0.1,0,0.1,0,0.1-0.1C490.8,186.5,490.8,186.5,490.7,186.5z"/>
							<path class="st8" d="M476.8,191.6c7.4-2.2,12.3-4.3,13.9-5.1C489.1,187.3,484.2,189.5,476.8,191.6z"/>
							<path class="st8" d="M833.8,624.9L636.1,234.4c-2-3.9-5.2-6.9-9.2-8.6L595.1,212c0,0-57.9-21.4-68.2-20.4l0,0l-24.5-3.5v0.2
								c-0.5-0.7-1-1.4-1.6-2h-9.4l0,0v-0.1c0,0-0.1,0.1-0.4,0.2c0,0-0.1,0-0.1,0.1l0,0c-1.6,0.8-6.5,2.9-13.9,5.1l0,0
								c-9,2.6-21.7,5.3-36.7,5.3s-27.2-2.6-35.8-5.3l0,0c-6.5-2-10.9-4-12.6-4.9c-0.6-0.3-0.9-0.5-0.9-0.5l0,0h-9.3
								c-0.6,0.6-1.1,1.3-1.6,2.1V188l-24.5,3.5l0,0l-102.8,35c-3.5,1.2-6.4,3.7-8,7L45,636.8c0,0,20.3,22.2,34.9,26.7
								c14.6,4.6,40,8.2,40,8.2l146.7-207.3l-14.4,279.1h1c0,0,113.2,17.8,142.6,20.5s80.7,2.1,97.8,0c17.3-2,139.4-20.4,139.4-20.4
								h-1c0,0-14.4-270.9-14.4-277.6s148.8,210.9,148.8,210.9l0,0c0,0,26-2.7,40.6-7.2s32.6-31.8,32.6-31.8L833.8,624.9
								L833.8,624.9z"/>
						</g>
						<path class="st27" d="M252.6,743.4c0,0,113.2,17.8,142.6,20.5c29.4,2.7,80.7,2.1,97.8,0c17.1-2.1,139.2-20.5,139.2-20.5"/>
						<path class="st27" d="M44.3,636.7c0,0,20.3,22.2,34.9,26.7c14.6,4.6,40,8.2,40,8.2"/>
						<path class="st27" d="M838.9,637.7c0,0-18.1,27.2-32.6,31.8c-14.6,4.6-40.6,7.2-40.6,7.2"/>
						<g>
							<g>
								<defs>
									<path id="SVGID_00000178894275093531173130000009811058678421250979_" d="M833.8,624.9L636.1,234.4c-2-3.9-5.2-6.9-9.2-8.6
										L595.1,212c0,0-57.9-21.4-68.2-20.4l0,0l-24.5-3.5v0.2c-0.5-0.7-1-1.4-1.6-2h-9.4l0,0v-0.1c0,0-0.1,0.1-0.4,0.2
										c0,0-0.1,0-0.1,0.1l0,0c-1.6,0.8-6.5,2.9-13.9,5.1l0,0c-9,2.6-21.7,5.3-36.7,5.3s-27.2-2.6-35.8-5.3l0,0
										c-6.5-2-10.9-4-12.6-4.9c-0.6-0.3-0.9-0.5-0.9-0.5l0,0h-9.3c-0.6,0.6-1.1,1.3-1.6,2.1V188l-24.5,3.5l0,0l-102.8,35
										c-3.5,1.2-6.4,3.7-8,7L45,636.8c0,0,20.3,22.2,34.9,26.7c14.6,4.6,40,8.2,40,8.2l146.7-207.3l-14.4,279.1h1
										c0,0,113.2,17.8,142.6,20.5s80.7,2.1,97.8,0c17.3-2,139.4-20.4,139.4-20.4h-1c0,0-14.4-270.9-14.4-277.6
										s148.8,210.9,148.8,210.9l0,0c0,0,26-2.7,40.6-7.2s32.6-31.8,32.6-31.8L833.8,624.9L833.8,624.9z"/>
								</defs>
								<clipPath id="SVGID_00000155143829171035757140000010416500293024357770_">
									<use xlink:href="#SVGID_00000178894275093531173130000009811058678421250979_"  style="overflow:visible;"/>
								</clipPath>
								<g style="clip-path:url(#SVGID_00000155143829171035757140000010416500293024357770_);">
									<g>
										<path class="st26" d="M231.6,260.6L77.7,664l-35.6-23.7C42.1,640.3,194,272.9,231.6,260.6z"/>
										<path class="st26" d="M648.3,260.6L810,676.9l40.1-17.2C850.1,659.7,685.9,272.9,648.3,260.6L648.3,260.6z"/>
										<path class="st26" d="M293.7,273.2L293.7,273.2c-36.3,157,16.2,324.1-20.2,481.2c-22.4-2.5-44.9-5.1-67.3-7.6
											C265,592.3,234.9,427.7,293.7,273.2L293.7,273.2z"/>
										<path class="st26" d="M595.4,273.2L595.4,273.2c36.3,157-16.2,324.1,20.2,481.2c22.4-2.5,44.9-5.1,67.3-7.6
											C624.1,592.3,654.1,427.7,595.4,273.2L595.4,273.2z"/>
									</g>
								</g>
							</g>
						</g>
					</g>
				</g>
			</g>
		</g>
		<g>
			<g>
				<g>
					<defs>
						<path id="SVGID_00000002360872536148830010000010297841738924653750_" d="M806.2,570.4l-57.4,80.7
							c10.5,15.4,17.2,25.1,17.2,25.1s6.5-0.7,14.8-1.9s18.4-3,25.7-5.3c14.6-4.6,32.6-31.8,32.7-31.8l-5.8-13L806.2,570.4
							L806.2,570.4z"/>
					</defs>
					<clipPath id="SVGID_00000093140293825361511420000015517464911021365165_">
						<use xlink:href="#SVGID_00000002360872536148830010000010297841738924653750_"  style="overflow:visible;"/>
					</clipPath>
					<g style="clip-path:url(#SVGID_00000093140293825361511420000015517464911021365165_);">
						<path class="st42" d="M507.9,278.6h1.6H547c45.9-0.5,63.1-8.7,75.4-21.9c12.3-13.2,12.3-25.6,12.3-25.6"/>
						<path class="st42" d="M244.8,231c0,0,0,12.4,12.3,25.6c12.3,13.2,29.5,21.4,75.4,21.9h39.9"/>
						<g>
							<g>
								<path class="st22" d="M50.8,626.2c0.3,0,0.7,0.1,1,0.1"/>
								<path class="st23" d="M54,626.6c29.2,3.4,53.9,15.6,71.6,31.7"/>
								<path class="st22" d="M126.4,659c0.3,0.2,0.5,0.5,0.8,0.7"/>
							</g>
							<path class="st22" d="M52.4,621.1c32.1,3.4,58.9,17,77.4,35"/>
							<g>
								<path class="st22" d="M835.3,632c-0.3,0-0.7,0.1-1,0.1"/>
								<path class="st23" d="M832.1,632.3c-29.2,3.4-53.9,15.6-71.6,31.7"/>
								<path class="st22" d="M759.7,664.8c-0.3,0.2-0.5,0.5-0.8,0.7"/>
							</g>
							<path class="st22" d="M833.6,626.8c-32.1,3.4-58.9,17-77.4,35"/>
							<line class="st24" x1="252.1" y1="732.4" x2="631.8" y2="732.4"/>
							<line class="st22" x1="252.1" y1="724" x2="631.8" y2="724"/>
						</g>
						<line class="st25" x1="266.3" y1="463.7" x2="292.1" y2="275"/>
						<line class="st25" x1="617.9" y1="468.8" x2="596.7" y2="272.5"/>
						<line class="st8" x1="44.7" y1="636.1" x2="119.6" y2="671"/>
						<line class="st16" x1="766.1" y1="676.2" x2="839.3" y2="637.2"/>
						<g>
							<path class="st8" d="M490.4,185.8c0.1,0,0.1,0,0.1-0.1C490.5,185.8,490.4,185.8,490.4,185.8z"/>
							<path class="st8" d="M476.5,190.9c7.4-2.2,12.3-4.3,13.9-5.1C488.7,186.6,483.9,188.8,476.5,190.9z"/>
							<path class="st8" d="M833.5,624.2L635.7,233.7c-2-3.9-5.2-6.9-9.2-8.6l-31.8-13.8c0,0-57.9-21.4-68.2-20.4l0,0l-24.5-3.5v0.2
								c-0.5-0.7-1-1.4-1.6-2H491l0,0v-0.1c0,0-0.1,0.1-0.4,0.2c0,0-0.1,0-0.1,0.1l0,0c-1.6,0.8-6.5,2.9-13.9,5.1l0,0
								c-9,2.6-21.7,5.3-36.7,5.3s-27.2-2.6-35.8-5.3l0,0c-6.5-2-10.9-4-12.6-4.9c-0.6-0.3-0.9-0.5-0.9-0.5l0,0h-9.3
								c-0.6,0.6-1.1,1.3-1.6,2.1v-0.3l-24.5,3.5l0,0l-102.8,35c-3.5,1.2-6.4,3.7-8,7L44.7,636.1c0,0,20.3,22.2,34.9,26.7
								c14.6,4.6,40,8.2,40,8.2l146.7-207.3l-14.4,279.1h1c0,0,113.2,17.8,142.6,20.5c29.4,2.7,80.7,2.1,97.8,0
								c17.1-2.1,139.2-20.5,139.2-20.5h-1c0,0-14.4-270.9-14.4-277.6s148.8,210.9,148.8,210.9l0,0c0,0,26-2.7,40.6-7.2
								s32.6-31.8,32.6-31.8L833.5,624.2L833.5,624.2z"/>
						</g>
						<path class="st27" d="M252.3,742.7c0,0,113.2,17.8,142.6,20.5c29.4,2.7,80.7,2.1,97.8,0c17.1-2.1,139.2-20.5,139.2-20.5"/>
						<path class="st27" d="M44,636c0,0,20.3,22.2,34.9,26.7c14.6,4.6,40,8.2,40,8.2"/>
						<path class="st27" d="M838.6,637c0,0-18.1,27.2-32.6,31.8c-14.6,4.6-40.6,7.2-40.6,7.2"/>
						<g>
							<g>
								<defs>
									<path id="SVGID_00000104700836105967349380000002000592537275710856_" d="M833.5,624.2L635.7,233.7c-2-3.9-5.2-6.9-9.2-8.6
										l-31.8-13.8c0,0-57.9-21.4-68.2-20.4l0,0l-24.5-3.5v0.2c-0.5-0.7-1-1.4-1.6-2H491l0,0v-0.1c0,0-0.1,0.1-0.4,0.2
										c0,0-0.1,0-0.1,0.1l0,0c-1.6,0.8-6.5,2.9-13.9,5.1l0,0c-9,2.6-21.7,5.3-36.7,5.3s-27.2-2.6-35.8-5.3l0,0
										c-6.5-2-10.9-4-12.6-4.9c-0.6-0.3-0.9-0.5-0.9-0.5l0,0h-9.3c-0.6,0.6-1.1,1.3-1.6,2.1v-0.3l-24.5,3.5l0,0l-102.8,35
										c-3.5,1.2-6.4,3.7-8,7L44.7,636.1c0,0,20.3,22.2,34.9,26.7c14.6,4.6,40,8.2,40,8.2l146.7-207.3l-14.4,279.1h1
										c0,0,113.2,17.8,142.6,20.5c29.4,2.7,80.7,2.1,97.8,0c17.1-2.1,139.2-20.5,139.2-20.5h-1c0,0-14.4-270.9-14.4-277.6
										s148.8,210.9,148.8,210.9l0,0c0,0,26-2.7,40.6-7.2s32.6-31.8,32.6-31.8L833.5,624.2L833.5,624.2z"/>
								</defs>
								<clipPath id="SVGID_00000027566602275530994300000014018360591476044474_">
									<use xlink:href="#SVGID_00000104700836105967349380000002000592537275710856_"  style="overflow:visible;"/>
								</clipPath>
								<g style="clip-path:url(#SVGID_00000027566602275530994300000014018360591476044474_);">
									<g class="st32">
										<path class="st12" d="M231.3,259.9L77.4,663.3l-35.6-23.7C41.8,639.6,193.7,272.2,231.3,259.9z"/>
										<path class="st12" d="M647.9,259.9l161.7,416.4l40.1-17.2C849.7,659,685.6,272.2,647.9,259.9L647.9,259.9z"/>
										<path class="st12" d="M293.4,272.5L293.4,272.5c-36.3,157,16.2,324.1-20.2,481.2c-22.4-2.5-44.9-5.1-67.3-7.6
											C264.7,591.6,234.6,427,293.4,272.5L293.4,272.5z"/>
										<path class="st12" d="M595,272.5L595,272.5c36.3,157-16.2,324.1,20.2,481.2c22.4-2.5,44.9-5.1,67.3-7.6
											C623.7,591.6,653.8,427,595,272.5L595,272.5z"/>
									</g>
								</g>
							</g>
						</g>
					</g>
				</g>
			</g>
			<g>
				<g>
					<defs>
						<path id="SVGID_00000008111505117219071610000005729216476337233807_" d="M748.6,456.8l-113-223c-0.3-0.7-0.7-1.4-1.2-2
							c-0.2,2.7-1.7,13.6-12.3,25c-6.2,6.7-13.7,12.1-25.5,15.9l20.8,192.6c3.2,1.6,39.3,52.8,75.1,104.4L748.6,456.8L748.6,456.8z"
							/>
					</defs>
					<clipPath id="SVGID_00000012462263089810553990000001546845198948303011_">
						<use xlink:href="#SVGID_00000008111505117219071610000005729216476337233807_"  style="overflow:visible;"/>
					</clipPath>
					<g style="clip-path:url(#SVGID_00000012462263089810553990000001546845198948303011_);">
						<path class="st42" d="M507.9,278.6h1.6H547c45.9-0.5,63.1-8.7,75.4-21.9c12.3-13.2,12.3-25.6,12.3-25.6"/>
						<path class="st42" d="M244.8,231c0,0,0,12.4,12.3,25.6c12.3,13.2,29.5,21.4,75.4,21.9h39.9"/>
						<g>
							<g>
								<path class="st22" d="M50.8,626.2c0.3,0,0.7,0.1,1,0.1"/>
								<path class="st23" d="M54,626.6c29.2,3.4,53.9,15.6,71.6,31.7"/>
								<path class="st22" d="M126.4,659c0.3,0.2,0.5,0.5,0.8,0.7"/>
							</g>
							<path class="st22" d="M52.4,621.1c32.1,3.4,58.9,17,77.4,35"/>
							<g>
								<path class="st22" d="M835.3,632c-0.3,0-0.7,0.1-1,0.1"/>
								<path class="st23" d="M832.1,632.3c-29.2,3.4-53.9,15.6-71.6,31.7"/>
								<path class="st22" d="M759.7,664.8c-0.3,0.2-0.5,0.5-0.8,0.7"/>
							</g>
							<path class="st22" d="M833.6,626.8c-32.1,3.4-58.9,17-77.4,35"/>
							<line class="st24" x1="252.1" y1="732.4" x2="631.8" y2="732.4"/>
							<line class="st22" x1="252.1" y1="724" x2="631.8" y2="724"/>
						</g>
						<line class="st25" x1="266.3" y1="463.7" x2="292.1" y2="275"/>
						<line class="st25" x1="617.9" y1="468.8" x2="596.7" y2="272.5"/>
						<line class="st8" x1="44.7" y1="636.1" x2="119.6" y2="671"/>
						<line class="st16" x1="766.1" y1="676.2" x2="839.3" y2="637.2"/>
						<g>
							<path class="st8" d="M490.4,185.8c0.1,0,0.1,0,0.1-0.1C490.5,185.8,490.4,185.8,490.4,185.8z"/>
							<path class="st8" d="M476.5,190.9c7.4-2.2,12.3-4.3,13.9-5.1C488.7,186.6,483.9,188.8,476.5,190.9z"/>
							<path class="st8" d="M833.5,624.2L635.7,233.7c-2-3.9-5.2-6.9-9.2-8.6l-31.8-13.8c0,0-57.9-21.4-68.2-20.4l0,0l-24.5-3.5v0.2
								c-0.5-0.7-1-1.4-1.6-2H491l0,0v-0.1c0,0-0.1,0.1-0.4,0.2c0,0-0.1,0-0.1,0.1l0,0c-1.6,0.8-6.5,2.9-13.9,5.1l0,0
								c-9,2.6-21.7,5.3-36.7,5.3s-27.2-2.6-35.8-5.3l0,0c-6.5-2-10.9-4-12.6-4.9c-0.6-0.3-0.9-0.5-0.9-0.5l0,0h-9.3
								c-0.6,0.6-1.1,1.3-1.6,2.1v-0.3l-24.5,3.5l0,0l-102.8,35c-3.5,1.2-6.4,3.7-8,7L44.7,636.1c0,0,20.3,22.2,34.9,26.7
								c14.6,4.6,40,8.2,40,8.2l146.7-207.3l-14.4,279.1h1c0,0,113.2,17.8,142.6,20.5c29.4,2.7,80.7,2.1,97.8,0
								c17.1-2.1,139.2-20.5,139.2-20.5h-1c0,0-14.4-270.9-14.4-277.6s148.8,210.9,148.8,210.9l0,0c0,0,26-2.7,40.6-7.2
								s32.6-31.8,32.6-31.8L833.5,624.2L833.5,624.2z"/>
						</g>
						<path class="st27" d="M252.3,742.7c0,0,113.2,17.8,142.6,20.5c29.4,2.7,80.7,2.1,97.8,0c17.1-2.1,139.2-20.5,139.2-20.5"/>
						<path class="st27" d="M44,636c0,0,20.3,22.2,34.9,26.7c14.6,4.6,40,8.2,40,8.2"/>
						<path class="st27" d="M838.6,637c0,0-18.1,27.2-32.6,31.8c-14.6,4.6-40.6,7.2-40.6,7.2"/>
						<g>
							<g>
								<defs>
									<path id="SVGID_00000093154449923580813250000013986573011811366042_" d="M833.5,624.2L635.7,233.7c-2-3.9-5.2-6.9-9.2-8.6
										l-31.8-13.8c0,0-57.9-21.4-68.2-20.4l0,0l-24.5-3.5v0.2c-0.5-0.7-1-1.4-1.6-2H491l0,0v-0.1c0,0-0.1,0.1-0.4,0.2
										c0,0-0.1,0-0.1,0.1l0,0c-1.6,0.8-6.5,2.9-13.9,5.1l0,0c-9,2.6-21.7,5.3-36.7,5.3s-27.2-2.6-35.8-5.3l0,0
										c-6.5-2-10.9-4-12.6-4.9c-0.6-0.3-0.9-0.5-0.9-0.5l0,0h-9.3c-0.6,0.6-1.1,1.3-1.6,2.1v-0.3l-24.5,3.5l0,0l-102.8,35
										c-3.5,1.2-6.4,3.7-8,7L44.7,636.1c0,0,20.3,22.2,34.9,26.7c14.6,4.6,40,8.2,40,8.2l146.7-207.3l-14.4,279.1h1
										c0,0,113.2,17.8,142.6,20.5c29.4,2.7,80.7,2.1,97.8,0c17.1-2.1,139.2-20.5,139.2-20.5h-1c0,0-14.4-270.9-14.4-277.6
										s148.8,210.9,148.8,210.9l0,0c0,0,26-2.7,40.6-7.2s32.6-31.8,32.6-31.8L833.5,624.2L833.5,624.2z"/>
								</defs>
								<clipPath id="SVGID_00000140003743955108865020000003887071226380407705_">
									<use xlink:href="#SVGID_00000093154449923580813250000013986573011811366042_"  style="overflow:visible;"/>
								</clipPath>
								<g style="clip-path:url(#SVGID_00000140003743955108865020000003887071226380407705_);">
									<g class="st32">
										<path class="st12" d="M231.3,259.9L77.4,663.3l-35.6-23.7C41.8,639.6,193.7,272.2,231.3,259.9z"/>
										<path class="st12" d="M647.9,259.9l161.7,416.4l40.1-17.2C849.7,659,685.6,272.2,647.9,259.9L647.9,259.9z"/>
										<path class="st12" d="M293.4,272.5L293.4,272.5c-36.3,157,16.2,324.1-20.2,481.2c-22.4-2.5-44.9-5.1-67.3-7.6
											C264.7,591.6,234.6,427,293.4,272.5L293.4,272.5z"/>
										<path class="st12" d="M595,272.5L595,272.5c36.3,157-16.2,324.1,20.2,481.2c22.4-2.5,44.9-5.1,67.3-7.6
											C623.7,591.6,653.8,427,595,272.5L595,272.5z"/>
									</g>
								</g>
							</g>
						</g>
						<path class="st48" d="M806.2,570.4l-57.4,80.7c10.5,15.4,17.2,25.1,17.2,25.1s6.5-0.7,14.8-1.9s18.4-3,25.7-5.3
							c14.6-4.6,32.6-31.8,32.7-31.8l-5.8-13L806.2,570.4L806.2,570.4z"/>
					</g>
				</g>
			</g>
		</g>
	</g>
</g>
<path class="st49" d="M499.9,206.4c0.5,3,0.7,6.5,0.7,10.4c0,22.1-9,47.4-39,64l-0.2-0.5h-40.2l-0.1,0.1
	c-29.6-16.6-38.4-41.7-38.4-63.7c0-3.7,0.2-7,0.7-10c2.9,1.5,22.5,10.6,57.6,10.6C476.6,217.4,497.6,207.5,499.9,206.4L499.9,206.4z
	"/>
<g>
	<g>
		<g>
			<path d="M459.4,304.9l0.1-0.1c0.3-0.3,0.5-0.7,0.5-1.2l0-2.6c0-0.5-0.2-0.9-0.5-1.2l-1.7-1.5c-0.3-0.2-0.6-0.4-1-0.4l-1.1,0
				c0.3-1.3,0.9-2.4,1.4-3.3l0.1-0.2c0.3-0.5,0.3-1.1,0-1.6c-0.3-0.5-0.8-0.8-1.4-0.7c-0.4,0-1.7-0.5-2.3-1.3
				c-0.4-0.5-0.7-1.3-0.7-2.4c0-0.7-0.5-1.2-1.1-1.4c-0.6-0.2-1.3,0-1.7,0.5c-0.5,0.6-2.1,1.6-3.1,1.6c-1.8,0-3.6-0.7-4.6-1.9
				c-0.3-0.3-0.7-0.5-1.1-0.5s-0.9,0.2-1.1,0.5c-1,1.1-2.8,1.8-4.6,1.8c-1,0-2.6-1-3.1-1.7c-0.4-0.5-1.1-0.8-1.7-0.6
				c-0.6,0.2-1.1,0.7-1.1,1.4c-0.1,1-0.3,1.8-0.8,2.3c-0.7,0.8-2,1.3-2.4,1.3c-0.6,0-1.1,0.2-1.4,0.7c-0.3,0.5-0.3,1.1-0.1,1.6
				l0.1,0.2c0.5,0.9,1.1,2,1.3,3.3l-0.8,0c-0.4,0-0.7,0.1-1,0.4l-1.9,1.6c-0.4,0.3-0.6,0.7-0.6,1.2l-0.1,5.5c0,0.5,0.2,0.9,0.5,1.2
				l2,1.7c0.1,0.1,0.3,0.2,0.4,0.2c0.5,3.1,2.2,5.6,5.2,7.2c2.4,1.4,5.2,1.9,7.1,2.4c0.8,0.2,1.5,0.3,2,0.5c0.1,0,0.3,0.2,0.4,0.3
				c0.3,0.4,0.7,0.6,1.2,0.6l0,0c0.5,0,0.9-0.2,1.2-0.6c0.1-0.1,0.3-0.2,0.4-0.3c0.5-0.1,1.2-0.3,2-0.4c2-0.4,4.7-0.9,7.2-2.2
				c2.9-1.6,4.7-3.9,5.3-7l1.8,0c0.9,0,1.6-0.7,1.6-1.5l0-2C460.4,305.7,460,305.1,459.4,304.9z"/>
			<g>
				<g>
					<g>
						<g>
							<g>
								<g>
									<path id="SVGID_00000152967607851902967410000012005988825395690908_" class="st50" d="M428.5,294.2c1-0.4,2-1,2.7-1.9
										c0.4-0.5,0.7-1,0.9-1.6c1.1,0.7,2.4,1.2,3.5,1.2c2.1,0,4.2-0.6,5.8-1.8c1.5,1.2,3.6,1.9,5.7,1.9c1.1,0,2.4-0.5,3.5-1.1
										c0.2,0.6,0.5,1.2,0.9,1.6c0.7,0.9,1.7,1.6,2.7,2c-0.6,1.1-1.1,2.5-1.2,4.2l1.3,0c0.2-2.2,1.2-3.9,1.9-5.1c0,0,0,0-0.1,0
										c-0.8,0-2.6-0.7-3.5-1.9c-0.6-0.8-1-1.8-1-3.2c-0.8,1-2.8,2.3-4.4,2.2c-2.1,0-4.3-0.8-5.7-2.4c-1.4,1.5-3.7,2.3-5.8,2.3
										c-1.6,0-3.6-1.3-4.3-2.3c-0.1,1.4-0.5,2.5-1.1,3.2c-1,1.2-2.8,1.9-3.6,1.8c0,0,0,0-0.1,0c0.7,1.2,1.6,2.9,1.8,5.1l1.3,0
										C429.5,296.8,429,295.4,428.5,294.2z"/>
								</g>
							</g>
						</g>
					</g>
					<g>
						<g>
							<g>
								<g>
									<path id="SVGID_00000080167701970833894260000011914545518538120836_" class="st50" d="M450.6,314.4
										c-2.1,1.1-4.5,1.6-6.4,1.9c-0.9,0.2-1.7,0.3-2.3,0.5c-0.3,0.1-0.5,0.2-0.8,0.3c-0.2-0.1-0.5-0.3-0.7-0.4
										c-0.6-0.2-1.4-0.4-2.3-0.6c-1.9-0.4-4.3-0.9-6.3-2c-2.2-1.3-3.5-3-3.8-5.4l-1.3,0c0.4,3.3,2.2,5.3,4.5,6.6
										c3.2,1.8,7.1,2.1,8.8,2.7c0.6,0.2,1.1,0.7,1.1,0.8c0.1-0.1,0.6-0.6,1.2-0.8c1.8-0.6,5.6-0.8,8.9-2.5
										c2.3-1.2,4.1-3.2,4.6-6.5l-1.3,0C454.1,311.5,452.8,313.2,450.6,314.4z"/>
								</g>
							</g>
						</g>
					</g>
				</g>
			</g>
		</g>
	</g>
	<g>
		<g>
			<g>
				<g>
					<path class="st50" d="M428.8,302.3l-0.2-0.9l-1.8,0l-0.4,0.3l0,3.9l0.4,0.3l1.4,0l0.4-0.3l0-1.2l-1.2,0l0-1.5l3.7,0l-0.1,5.2
						l-1.9,0l-0.2-0.7l-0.8,0.7l-2.3,0l-2-1.7l0.1-5.5l1.9-1.6l3.7,0l1.7,1.5l0,1.7L428.8,302.3z"/>
				</g>
			</g>
			<g>
				<g>
					<path class="st50" d="M438,302.4l-0.2-0.9l-2.1,0l0,1.4l2.1,0l0,1.5l-2.1,0l0,1.5l2.1,0l0.3-0.9l1.8,0l0,3.1l-7.7-0.1l0-1.9
						l0.9-0.2l0-4.5l-0.9-0.3l0-1.9l7.6,0.1l0,3.1L438,302.4z"/>
				</g>
			</g>
			<g>
				<g>
					<path class="st50" d="M449.7,306.4l0,1.9l-4.4,0l0-1.9l0.7-0.2l-0.2-0.8l-1.9,0l-0.2,0.8l0.6,0.3l0,1.9l-3.7,0l0-1.9l1-0.2
						l1.3-4.5l-0.8-0.3l0-1.9l5,0.1l1.6,6.7L449.7,306.4z M444.3,303.8l1.1,0l-0.5-2L444.3,303.8z"/>
				</g>
			</g>
			<g>
				<g>
					<path class="st50" d="M450.5,308.3l0-1.9l0.9-0.2l0-4.5l-0.9-0.3l0-1.9l6.4,0.1l1.7,1.5l0,2.6l-1.2,1l0.9,1.5l0.7,0.1l0,2
						l-2.4,0l-1.9-3.5l-0.6,0l0,1.3l0.9,0.3l0,1.9L450.5,308.3z M454,303.1l1.8,0l0.3-0.3l0-0.9l-0.3-0.3l-1.8,0L454,303.1z"/>
				</g>
			</g>
		</g>
		<g>
			<g>
				<g>
					<path class="st50" d="M432.1,297.5c-0.2,0-0.3,0-0.4,0s-0.2-0.1-0.3-0.1s-0.1-0.2-0.1-0.3c0-0.1,0-0.3,0-0.4l0-1
						c0-0.2,0-0.3,0-0.4c0-0.1,0.1-0.2,0.1-0.3c0.1-0.1,0.2-0.1,0.3-0.1c0.1,0,0.2,0,0.4,0l1.6,0c0.1,0,0.2,0,0.3,0
						c0.1,0,0.1,0.1,0.2,0.1c0.1,0,0.1,0.1,0.1,0.1c0,0,0.1,0.1,0.1,0.1l-0.4,0.4c0-0.1-0.1-0.1-0.1-0.1c-0.1,0-0.1-0.1-0.2-0.1
						l-1.5,0c-0.1,0-0.2,0-0.3,0.1s-0.1,0.1-0.1,0.3l0,1c0,0.1,0,0.1,0,0.2c0,0,0,0.1,0,0.1c0,0,0.1,0.1,0.1,0.1c0,0,0.1,0,0.2,0
						l1.5,0c0.1,0,0.2,0,0.2-0.1c0.1,0,0.1-0.1,0.1-0.1l0.3,0.4c0,0,0,0.1-0.1,0.1c0,0-0.1,0.1-0.1,0.1c-0.1,0-0.1,0.1-0.2,0.1
						s-0.2,0-0.3,0L432.1,297.5z"/>
				</g>
			</g>
			<g>
				<g>
					<path class="st50" d="M435.6,297.6c-0.2,0-0.3,0-0.4-0.1c-0.1,0-0.2-0.1-0.3-0.2s-0.1-0.2-0.1-0.3c0-0.1,0-0.2,0-0.4l0-1.9
						l0.5,0l0,1.9c0,0.1,0,0.2,0.1,0.3c0,0.1,0.1,0.1,0.2,0.1l1.4,0c0.1,0,0.2,0,0.2-0.1s0.1-0.1,0.1-0.3l0-1.9l0.5,0l0,1.9
						c0,0.2,0,0.3,0,0.4s-0.1,0.2-0.1,0.3c-0.1,0.1-0.2,0.1-0.3,0.2s-0.2,0-0.4,0L435.6,297.6z"/>
				</g>
			</g>
			<g>
				<g>
					<path class="st50" d="M441.1,296.8c0,0.1,0,0.3-0.1,0.4c0,0.1-0.1,0.2-0.2,0.2c-0.1,0.1-0.2,0.1-0.3,0.1c-0.1,0-0.3,0-0.4,0
						l-2,0c0-0.1,0-0.2,0-0.3c0-0.1,0-0.2,0-0.3l1.9,0c0.1,0,0.1,0,0.2,0s0.1,0,0.1,0c0,0,0-0.1,0.1-0.1s0-0.1,0-0.1
						c0-0.1,0-0.2-0.1-0.2c-0.1,0-0.1-0.1-0.3-0.1l-1.1,0c-0.2,0-0.3,0-0.4,0s-0.2-0.1-0.3-0.1c-0.1-0.1-0.1-0.1-0.1-0.2
						s0-0.2,0-0.3l0-0.1c0-0.1,0-0.3,0-0.4c0-0.1,0.1-0.2,0.2-0.2s0.2-0.1,0.3-0.1c0.1,0,0.3,0,0.4,0l1.9,0c0,0.1,0,0.2,0,0.3
						c0,0.1,0,0.2,0,0.3l-1.9,0c-0.1,0-0.2,0-0.3,0.1c0,0-0.1,0.1-0.1,0.2c0,0.1,0,0.2,0.1,0.2c0,0,0.1,0.1,0.3,0.1l1.1,0
						c0.2,0,0.3,0,0.4,0c0.1,0,0.2,0.1,0.3,0.1c0.1,0.1,0.1,0.1,0.2,0.2S441.1,296.6,441.1,296.8L441.1,296.8z"/>
				</g>
			</g>
			<g>
				<g>
					<path class="st50" d="M442.4,297.6l0-2.2l-1,0l0-0.5l2.6,0l0,0.5l-1,0l0,2.2L442.4,297.6z"/>
				</g>
			</g>
			<g>
				<g>
					<path class="st50" d="M445.1,297.7c-0.2,0-0.3,0-0.4,0c-0.1,0-0.2-0.1-0.3-0.2c-0.1-0.1-0.1-0.2-0.1-0.3c0-0.1,0-0.3,0-0.4l0-1
						c0-0.2,0-0.3,0-0.4s0.1-0.2,0.1-0.3c0.1-0.1,0.2-0.1,0.3-0.1c0.1,0,0.3,0,0.4,0l1.5,0c0.2,0,0.3,0,0.4,0c0.1,0,0.2,0.1,0.3,0.2
						c0.1,0.1,0.1,0.2,0.1,0.3c0,0.1,0,0.3,0,0.4l0,1c0,0.2,0,0.3,0,0.4s-0.1,0.2-0.1,0.3s-0.2,0.1-0.3,0.1c-0.1,0-0.2,0-0.4,0
						L445.1,297.7z M446.9,295.8c0-0.1,0-0.2-0.1-0.3c0,0-0.1-0.1-0.3-0.1l-1.5,0c-0.1,0-0.2,0-0.3,0.1c0,0-0.1,0.1-0.1,0.3l0,1
						c0,0.1,0,0.1,0,0.2c0,0,0,0.1,0.1,0.1s0.1,0,0.1,0.1c0,0,0.1,0,0.2,0l1.5,0c0.1,0,0.2,0,0.3-0.1c0,0,0.1-0.1,0.1-0.3
						L446.9,295.8z"/>
				</g>
			</g>
			<g>
				<g>
					<path class="st50" d="M450.7,297.7l0-1.8l-0.9,1.8l-0.5,0l-0.9-1.8l0,1.8l-0.5,0l0-2.8l0.6,0l1,2.2l1.1-2.2l0.6,0l0,2.8
						L450.7,297.7z"/>
				</g>
			</g>
		</g>
		<g>
			<g>
				<g>
					<path class="st50" d="M432,312.3l0-0.7l-0.3,0.7l-0.2,0l-0.3-0.7l0,0.7l-0.2,0l0-1l0.2,0l0.4,0.8l0.4-0.8l0.2,0l0,1L432,312.3z
						"/>
				</g>
			</g>
			<g>
				<g>
					<path class="st50" d="M433.4,312.3l-0.1-0.2l-0.6,0l-0.1,0.2l-0.2,0l0.6-1l0.2,0l0.5,1L433.4,312.3z M433,311.5l-0.2,0.4l0.5,0
						L433,311.5z"/>
				</g>
			</g>
			<g>
				<g>
					<path class="st50" d="M433.7,312.3l0-1l0.9,0c0.1,0,0.1,0,0.2,0c0,0,0.1,0,0.1,0.1s0,0.1,0.1,0.1s0,0.1,0,0.2l0,0.4
						c0,0.1,0,0.1,0,0.2s0,0.1-0.1,0.1c0,0-0.1,0-0.1,0.1c0,0-0.1,0-0.2,0L433.7,312.3z M434.7,311.6c0-0.1,0-0.1,0-0.1s0,0-0.1,0
						l-0.7,0l0,0.6l0.7,0c0,0,0.1,0,0.1,0s0-0.1,0-0.1L434.7,311.6z"/>
				</g>
			</g>
			<g>
				<g>
					<path class="st50" d="M435.1,312.3l0-1l1,0l0,0.2l-0.8,0l0,0.2l0.8,0l0,0.2l-0.8,0l0,0.2l0.8,0l0,0.2L435.1,312.3z"/>
				</g>
			</g>
			<g>
				<g>
					<path class="st50" d="M436.9,311.9l0,0.4l-0.2,0l0-1l1,0l0,0.2l-0.8,0l0,0.2l0.7,0l0,0.2L436.9,311.9z"/>
				</g>
			</g>
			<g>
				<g>
					<path class="st50" d="M438.1,312.3c-0.1,0-0.1,0-0.2,0c0,0-0.1,0-0.1-0.1s0-0.1-0.1-0.1s0-0.1,0-0.2l0-0.4c0-0.1,0-0.1,0-0.2
						c0,0,0-0.1,0.1-0.1c0,0,0.1,0,0.1-0.1c0,0,0.1,0,0.2,0l0.5,0c0.1,0,0.1,0,0.2,0c0,0,0.1,0,0.1,0.1s0,0.1,0.1,0.1
						c0,0,0,0.1,0,0.2l0,0.4c0,0.1,0,0.1,0,0.2s0,0.1-0.1,0.1c0,0-0.1,0-0.1,0.1c0,0-0.1,0-0.2,0L438.1,312.3z M438.8,311.7
						c0-0.1,0-0.1,0-0.1s0,0-0.1,0l-0.5,0c0,0-0.1,0-0.1,0c0,0,0,0.1,0,0.1l0,0.4c0,0,0,0,0,0.1s0,0,0,0c0,0,0,0,0,0s0,0,0.1,0
						l0.5,0c0,0,0.1,0,0.1,0s0-0.1,0-0.1L438.8,311.7z"/>
				</g>
			</g>
			<g>
				<g>
					<path class="st50" d="M440,312.4l-0.4-0.3l-0.3,0l0,0.3l-0.2,0l0-1l0.8,0c0.1,0,0.1,0,0.1,0c0,0,0.1,0,0.1,0.1s0,0.1,0,0.1
						s0,0.1,0,0.1l0,0.1c0,0.1,0,0.1,0,0.2c0,0,0,0.1-0.1,0.1c0,0-0.1,0-0.1,0s-0.1,0-0.2,0l0.4,0.3L440,312.4z M440.1,311.7
						c0,0,0-0.1,0-0.1s0,0-0.1,0l-0.6,0l0,0.3l0.6,0c0,0,0.1,0,0.1,0S440.1,311.8,440.1,311.7L440.1,311.7z"/>
				</g>
			</g>
			<g>
				<g>
					<path class="st50" d="M441.8,312.4l0-0.1C441.8,312.3,441.8,312.3,441.8,312.4C441.8,312.3,441.8,312.3,441.8,312.4
						c-0.1,0-0.1,0-0.1,0c0,0,0,0-0.1,0l-0.4,0c-0.1,0-0.1,0-0.2,0c0,0-0.1,0-0.1-0.1s0-0.1,0-0.1c0,0,0-0.1,0-0.2l0-0.4
						c0-0.1,0-0.1,0-0.2c0,0,0-0.1,0.1-0.1s0.1,0,0.1-0.1s0.1,0,0.2,0l0.5,0c0,0,0.1,0,0.1,0c0,0,0.1,0,0.1,0c0,0,0,0,0,0
						c0,0,0,0,0,0l-0.1,0.1c0,0,0,0,0-0.1s0,0-0.1,0l-0.5,0c0,0-0.1,0-0.1,0s0,0.1,0,0.1l0,0.3c0,0,0,0.1,0,0.1s0,0,0,0c0,0,0,0,0,0
						c0,0,0,0,0.1,0l0.5,0c0.1,0,0.1,0,0.1,0c0,0,0,0,0-0.1l0-0.1l-0.4,0l0-0.2l0.6,0l0,0.6L441.8,312.4z"/>
				</g>
			</g>
			<g>
				<g>
					<path class="st50" d="M443.1,312.4l-0.4-0.3l-0.3,0l0,0.3l-0.2,0l0-1l0.8,0c0.1,0,0.1,0,0.1,0c0,0,0.1,0,0.1,0.1s0,0.1,0,0.1
						s0,0.1,0,0.1l0,0.1c0,0.1,0,0.1,0,0.2c0,0,0,0.1-0.1,0.1c0,0-0.1,0-0.1,0s-0.1,0-0.2,0l0.4,0.3L443.1,312.4z M443.1,311.7
						c0,0,0-0.1,0-0.1s0,0-0.1,0l-0.6,0l0,0.3l0.6,0c0,0,0.1,0,0.1,0S443.1,311.8,443.1,311.7L443.1,311.7z"/>
				</g>
			</g>
			<g>
				<g>
					<path class="st50" d="M443.5,312.4l0-1l1,0l0,0.2l-0.8,0l0,0.2l0.8,0l0,0.2l-0.8,0l0,0.2l0.8,0l0,0.2L443.5,312.4z"/>
				</g>
			</g>
			<g>
				<g>
					<path class="st50" d="M445.6,312.4l-0.1-0.2l-0.6,0l-0.1,0.2l-0.2,0l0.6-1l0.2,0l0.5,1L445.6,312.4z M445.2,311.6L445,312
						l0.5,0L445.2,311.6z"/>
				</g>
			</g>
			<g>
				<g>
					<path class="st50" d="M446.1,312.4l0-0.8l-0.4,0l0-0.2l0.9,0l0,0.2l-0.4,0l0,0.8L446.1,312.4z"/>
				</g>
			</g>
			<g>
				<g>
					<path class="st50" d="M447.7,312.5l-0.7-0.8l0,0.8l-0.2,0l0-1l0.2,0l0.7,0.7l0-0.7l0.2,0l0,1L447.7,312.5z"/>
				</g>
			</g>
			<g>
				<g>
					<path class="st50" d="M448.1,312.5l0-1l1,0l0,0.2l-0.8,0l0,0.2l0.8,0l0,0.2l-0.8,0l0,0.2l0.8,0l0,0.2L448.1,312.5z"/>
				</g>
			</g>
			<g>
				<g>
					<path class="st50" d="M450.3,312.2c0,0.1,0,0.1,0,0.1c0,0,0,0.1-0.1,0.1c0,0-0.1,0-0.1,0c0,0-0.1,0-0.2,0l-0.7,0
						c0,0,0-0.1,0-0.1c0,0,0-0.1,0-0.1l0.7,0c0,0,0,0,0.1,0c0,0,0,0,0,0s0,0,0,0c0,0,0,0,0-0.1c0,0,0-0.1,0-0.1c0,0-0.1,0-0.1,0
						l-0.4,0c-0.1,0-0.1,0-0.2,0c0,0-0.1,0-0.1-0.1s0-0.1-0.1-0.1c0,0,0-0.1,0-0.1v0c0-0.1,0-0.1,0-0.1c0,0,0-0.1,0.1-0.1
						c0,0,0.1,0,0.1,0c0,0,0.1,0,0.2,0l0.7,0c0,0,0,0.1,0,0.1s0,0.1,0,0.1l-0.7,0c0,0-0.1,0-0.1,0c0,0,0,0,0,0.1s0,0.1,0,0.1
						c0,0,0.1,0,0.1,0l0.4,0c0.1,0,0.1,0,0.2,0s0.1,0,0.1,0c0,0,0,0,0.1,0.1C450.3,312.1,450.3,312.1,450.3,312.2L450.3,312.2z"/>
				</g>
			</g>
			<g>
				<g>
					<path class="st50" d="M451.5,312.2c0,0.1,0,0.1,0,0.1c0,0,0,0.1-0.1,0.1c0,0-0.1,0-0.1,0s-0.1,0-0.2,0l-0.7,0c0,0,0-0.1,0-0.1
						c0,0,0-0.1,0-0.1l0.7,0c0,0,0,0,0.1,0c0,0,0,0,0,0s0,0,0,0c0,0,0,0,0-0.1c0,0,0-0.1,0-0.1c0,0-0.1,0-0.1,0l-0.4,0
						c-0.1,0-0.1,0-0.2,0c0,0-0.1,0-0.1-0.1s0-0.1-0.1-0.1c0,0,0-0.1,0-0.1v0c0-0.1,0-0.1,0-0.1c0,0,0-0.1,0.1-0.1c0,0,0.1,0,0.1,0
						c0,0,0.1,0,0.2,0l0.7,0c0,0,0,0.1,0,0.1s0,0.1,0,0.1l-0.7,0c0,0-0.1,0-0.1,0c0,0,0,0,0,0.1s0,0.1,0,0.1c0,0,0.1,0,0.1,0l0.4,0
						c0.1,0,0.1,0,0.2,0s0.1,0,0.1,0c0,0,0,0,0.1,0.1C451.5,312.1,451.5,312.1,451.5,312.2L451.5,312.2z"/>
				</g>
			</g>
		</g>
		<g>
			<g>
				<rect x="437.8" y="309.7" class="st50" width="6.9" height="0.5"/>
			</g>
		</g>
	</g>
</g>
</svg>
