<?xml version="1.0" encoding="utf-8"?>
<!-- Generator: Adobe Illustrator 28.0.0, SVG Export Plug-In . SVG Version: 6.00 Build 0)  -->
<svg version="1.1" id="Layer_1" xmlns="http://www.w3.org/2000/svg" xmlns:xlink="http://www.w3.org/1999/xlink" x="0px" y="0px" width="700" height="700"                                                                                           
         viewBox="0 0 700 700" style="enable-background:new 0 0 700 700;" xml:space="preserve">
<style type="text/css">
	.st0{clip-path:url(#SVGID_00000080890038133534046980000004843929603709143229_);}
	.st1{fill:#211318;}
	.st2{clip-path:url(#SVGID_00000051376487953028881350000001305079563060285365_);}
	.st3{fill:#51DE48;}
	.st4{fill:#E1D5B6;}
	.st5{fill:none;}
	.st6{fill:#30E2E2;stroke:#000000;stroke-width:1.05;stroke-miterlimit:10;}
	.st7{fill:#167C8C;}
	.st8{clip-path:url(#SVGID_00000020371805837857128650000006581227941806499212_);}
	.st9{clip-path:url(#SVGID_00000057842357429775649180000016283595475927905462_);}
	.st10{opacity:0.25;}
	.st11{fill:#403C3D;}
	.st12{fill:#25181C;}
	.st13{fill:none;stroke:#000000;stroke-width:1.05;stroke-miterlimit:10;}
	.st14{clip-path:url(#SVGID_00000104698183313628379990000011045055427737154727_);}
	.st15{fill:#25181C;stroke:#000000;stroke-width:1.075;stroke-miterlimit:10;}
	.st16{fill:#E1D5B6;stroke:#000000;stroke-width:1.075;stroke-miterlimit:10;}
	.st17{clip-path:url(#SVGID_00000127724652355170568730000016473674963703271571_);}
	.st18{opacity:0.25;fill:#403C3D;enable-background:new    ;}
	.st19{clip-path:url(#SVGID_00000003785807132260831900000008546518270766148005_);}
	.st20{fill:none;stroke:#403C3D;stroke-width:1.05;stroke-miterlimit:10;}
	.st21{fill:none;stroke:#403C3D;stroke-width:1.095;stroke-miterlimit:10;}
	.st22{fill:none;stroke:#403C3D;stroke-width:1.089;stroke-miterlimit:10;}
	.st23{clip-path:url(#SVGID_00000148633788684884666400000000832132267797788306_);}
	.st24{clip-path:url(#SVGID_00000032650198073736088780000010464530801632512443_);}
	.st25{fill:none;stroke:#403C3D;stroke-width:1.048;stroke-miterlimit:10;}
	.st26{fill:none;stroke:#403C3D;stroke-width:0.525;stroke-miterlimit:10;}
	.st27{fill:none;stroke:#403C3D;stroke-width:0.525;stroke-miterlimit:10;stroke-dasharray:0,0,2.123,2.123;}
	.st28{fill:none;stroke:#403C3D;stroke-width:0.525;stroke-miterlimit:10;stroke-dasharray:0,2.1;}
	.st29{fill:none;stroke:#231F20;stroke-width:1.05;stroke-miterlimit:10;}
	.st30{opacity:0.5;fill:#403C3D;enable-background:new    ;}
	.st31{clip-path:url(#SVGID_00000166674722452945234920000007564402736510181283_);}
	.st32{fill:#000001;}
	.st33{fill:none;stroke:#161616;stroke-width:1.052;stroke-miterlimit:10;}
	.st34{clip-path:url(#SVGID_00000115515211194294297450000009286120297682420125_);}
	.st35{clip-path:url(#SVGID_00000097481623923519980820000000134070960712240535_);}
	.st36{fill:#474747;stroke:#403C3D;stroke-width:1.063;stroke-miterlimit:10;}
	.st37{fill:#515151;}
	.st38{fill:none;stroke:#403C3D;stroke-width:1.05;stroke-miterlimit:10;stroke-dasharray:0,2.314;}
	.st39{fill:#474747;stroke:#403C3D;stroke-width:0.942;stroke-miterlimit:10;}
	.st40{clip-path:url(#SVGID_00000145738889442364074960000006247100347353779892_);}
	.st41{opacity:0.7;}
	.st42{fill:none;stroke:#403C3D;stroke-width:1.05;stroke-miterlimit:10;stroke-dasharray:0,2.285;}
	.st43{clip-path:url(#SVGID_00000003079723019074191660000002277526510421749943_);}
	.st44{fill:none;stroke:#000000;stroke-width:1.048;stroke-miterlimit:10;}
	.st45{clip-path:url(#SVGID_00000070832529335478921560000012320145532331021494_);}
	.st46{clip-path:url(#SVGID_00000060740262481691489680000001649879506463357872_);}
	.st47{clip-path:url(#SVGID_00000138548433235268692460000009815049879196254394_);}
	.st48{clip-path:url(#SVGID_00000051343050478273609700000018398017483744313472_);}
	.st49{fill:#8E23CC;}
	.st50{fill:#A5A8A8;}
	.st51{fill:#808080;}
</style>
<g>
	<defs>
		<path id="SVGID_1_" d="M332.4,890c0,0-12.8,36-7.8,60.2l-1.2,5.4l-7.3,38.7c0,0-18.1,158-12.7,299.3c0,0,116.4,53.9,166.1-10.4
			v-40.6c0,0,40.6,20.1,89.8,12.3c0,0,37.4-5.5,42.4-15.1c0,0,5-98.5,5-122.2s-7.3-105.4-12.8-120.4s-7.3-25.5-7.3-28.3
			s4.1-6.8,3.2-15.1s-1.4-26.5-4.1-36c0,0-22.3,22.3-24.2,18.7s-5-2.7-5-2.7l-45.2,10.9c0,0-1.4,3.2-1.6,3.6s-10.5,0.2-10.5,0.2
			s-73.4,0.7-78.4-5.5c-5-6.2-8.7-14.6-15.5-17.8c-6.8-3.2-50.4-14.8-60-21.4S336.8,898.2,332.4,890L332.4,890z"/>
	</defs>
	<clipPath id="SVGID_00000111878490061801567970000014689670401920308101_">
		<use xlink:href="#SVGID_1_"  style="overflow:visible;"/>
	</clipPath>
	<g style="clip-path:url(#SVGID_00000111878490061801567970000014689670401920308101_);">
		<rect x="297.2" y="815.9" class="st1" width="370.5" height="528.2"/>
		<path class="st1" d="M324.7,937.3c0,0,4.6,9.1,19.6,14.1c15.1,5,43.8,16.9,100.8,21.4l45.2,1.8l1.8,12.2l-49.7-1.8
			c-57-4.6-85.7-16.4-100.8-21.4c-15.1-5-19.6-14.1-19.6-14.1"/>
		<g>
			<defs>
				<path id="SVGID_00000177443472681743302750000003767139462712346775_" d="M361.2,1316.2c-12.4-0.7-24.8-1.6-37.3-2.6
					c-16-119.2-5-237.4,29.1-346.3c11,5.6,22,11.1,33.1,16.4C354.4,1088.3,344.8,1201.8,361.2,1316.2L361.2,1316.2z"/>
			</defs>
			<clipPath id="SVGID_00000010991642231183054300000008581534835328756919_">
				<use xlink:href="#SVGID_00000177443472681743302750000003767139462712346775_"  style="overflow:visible;"/>
			</clipPath>
			<g style="clip-path:url(#SVGID_00000010991642231183054300000008581534835328756919_);">
				<path class="st3" d="M630,939c0.7-5.4,1.4-10.8,2.2-16.2c-79.9-8.2-161.4-9.4-243.5-3.4c-47.2-82.2-81.1-179.3-94.7-287.1
					c-6.5,5.7-13,11.4-19.4,17.3c16.6,110.8,54.2,210,105.4,293.1c0,0,0,0,0,0c0,0,0,0,0,0C464,934,547.7,932.8,630,939L630,939z"/>
				<path class="st4" d="M620.4,957.6c0.5-5.4,1-10.9,1.6-16.3c-80.2-5.3-161.7-3.4-243.5,5.6c-50.3-80.7-87.7-176.6-105.6-283.8
					c-6.3,5.9-12.6,11.9-18.7,18c20.9,110.2,62.2,208.1,116.4,289.5c0,0,0,0,0,0c0,0,0,0,0,0C454.3,958.7,537.9,954.4,620.4,957.6z"
					/>
				<path class="st3" d="M611.2,977.2c0.2-5.5,0.6-10.9,1-16.4c-80.4-2.2-161.8,2.7-243.2,14.8c-53.3-79-94.4-173.7-116.6-280.2
					c-6.1,6.1-12.1,12.4-18,18.7c25.3,109.3,70.3,205.9,127.6,285.6c0,0,0,0,0,0c0,0,0,0,0,0C445.2,984.5,528.7,977.1,611.2,977.2
					L611.2,977.2z"/>
				<path class="st4" d="M603,996.6c0-5.5,0.2-11,0.4-16.5c-80.4,0.8-161.6,8.6-242.5,23.7c-56.2-77.3-100.9-170.7-127.1-276.3
					c-5.8,6.4-11.6,12.8-17.3,19.4c29.5,108.4,78,203.5,138.3,281.4c0,0,0,0,0,0c0,0,0,0,0,0C437.4,1010.1,520.5,999.6,603,996.6
					L603,996.6z"/>
				<path class="st3" d="M595.3,1017c-0.2-5.5-0.2-11.1-0.2-16.6c-80.3,3.8-161.2,14.7-241.4,32.9c-59.1-75.5-107.3-167.3-137.7-272
					c-5.6,6.6-11.1,13.2-16.5,20c33.7,107.4,85.8,200.8,149,276.8c0,0,0,0,0,0c0,0,0,0,0,0C430.3,1036.7,513,1023.1,595.3,1017
					L595.3,1017z"/>
				<path class="st4" d="M588.6,1037.2c-0.4-5.6-0.7-11.1-0.9-16.7c-80.2,6.8-160.5,20.7-240.1,41.8
					c-61.9-73.7-113.5-163.9-147.8-267.6c-5.3,6.8-10.6,13.7-15.7,20.6c37.7,106.2,93.3,198,159.3,272c0,0,0,0,0,0c0,0,0,0,0,0
					C424.5,1063,506.5,1046.3,588.6,1037.2L588.6,1037.2z"/>
				<path class="st3" d="M582.5,1058.3c-0.6-5.6-1.1-11.2-1.5-16.8c-79.9,9.8-159.6,26.7-238.3,50.8
					c-64.7-71.7-119.6-160.2-158-262.7c-5.1,7-10,14.1-14.9,21.2c41.8,104.9,100.8,194.9,169.6,266.7c0,0,0,0,0,0c0,0,0,0,0,0
					C419.4,1090.3,500.8,1070.6,582.5,1058.3L582.5,1058.3z"/>
				<path class="st4" d="M577.3,1079.2c-0.8-5.6-1.5-11.2-2.1-16.8c-79.4,12.7-158.5,32.6-236.2,59.6
					c-67.4-69.6-125.6-156.5-167.7-257.7c-4.8,7.2-9.5,14.4-14.1,21.8c45.7,103.5,108,191.6,179.5,261.3c0,0,0,0,0,0c0,0,0,0,0,0
					C415.6,1117.3,496.2,1094.5,577.3,1079.2L577.3,1079.2z"/>
				<path class="st3" d="M572.8,1101c-1-5.6-1.9-11.2-2.8-16.8c-78.9,15.7-157.2,38.6-233.8,68.6c-70-67.5-131.5-152.5-177.5-252.2
					c-4.5,7.4-8.9,14.8-13.3,22.4c49.7,102,115.3,188.1,189.4,255.5c0,0,0,0,0,0c0,0,0,0,0,0C412.7,1145.2,492.3,1119.3,572.8,1101
					L572.8,1101z"/>
				<path class="st4" d="M569.3,1122.5c-1.2-5.6-2.3-11.2-3.4-16.8c-78.3,18.7-155.6,44.4-231,77.2
					c-72.6-65.3-137.1-148.4-186.8-246.6c-4.2,7.5-8.4,15.2-12.4,22.9c53.5,100.4,122.2,184.4,198.9,249.6c0,0,0,0,0,0c0,0,0,0,0,0
					C410.9,1172.6,489.5,1143.8,569.3,1122.5L569.3,1122.5z"/>
				<path class="st3" d="M566.4,1144.8c-1.4-5.6-2.8-11.2-4-16.8c-77.5,21.6-153.8,50.4-227.8,86c-75.1-63-142.8-144-196.2-240.6
					c-3.9,7.7-7.8,15.5-11.5,23.4c57.3,98.7,129.2,180.5,208.5,243.2c0,0,0,0,0,0c0,0,0,0,0,0
					C410.1,1200.9,487.5,1169.1,566.4,1144.8L566.4,1144.8z"/>
				<path class="st4" d="M564.5,1166.8c-1.6-5.6-3.2-11.1-4.7-16.8c-76.6,24.5-151.7,56.1-224.4,94.5
					c-77.5-60.7-148.2-139.5-205.2-234.5c-3.6,7.9-7.2,15.8-10.6,23.9c60.9,96.8,135.9,176.4,217.6,236.7c0,0,0,0,0,0c0,0,0,0,0,0
					C410.5,1228.7,486.6,1194,564.5,1166.8L564.5,1166.8z"/>
				<path class="st3" d="M563.5,1189.6c-1.9-5.5-3.6-11.1-5.3-16.7c-75.6,27.4-149.4,61.8-220.5,103.1
					c-79.9-58.2-153.6-134.8-214.2-227.9c-3.3,8-6.6,16.1-9.7,24.3c64.6,94.9,142.6,172.1,226.7,229.7c0,0,0,0,0,0c0,0,0,0,0,0
					C412,1257.4,486.7,1219.8,563.5,1189.6z"/>
				<path class="st4" d="M563.3,1211.9c-2.1-5.5-4.1-11-6-16.6c-74.5,30.2-146.9,67.4-216.4,111.3
					c-82.2-55.8-158.7-130.1-222.8-221.2c-3,8.2-6,16.4-8.8,24.7c68.1,92.8,149,167.6,235.4,222.7c0,0,0,0,0,0c0,0,0,0,0,0
					C414.5,1285.4,487.7,1245,563.3,1211.9L563.3,1211.9z"/>
				<path class="st3" d="M564.1,1235c-2.3-5.5-4.5-11-6.7-16.5c-73.2,33.1-144.2,73-211.8,119.6c-84.4-53.2-163.9-125.1-231.4-214.2
					c-2.7,8.3-5.3,16.7-7.8,25.1c71.7,90.6,155.5,162.9,244.1,215.2c0,0,0,0,0,0c0,0,0,0,0,0C418.3,1314.2,489.9,1271,564.1,1235
					L564.1,1235z"/>
				<path class="st4" d="M565.7,1257.7c-2.5-5.4-5-10.9-7.3-16.4c-71.9,35.8-141.2,78.4-206.9,127.6c-86.6-50.6-168.7-120-239.6-207
					c-2.4,8.4-4.7,16.9-6.9,25.5c75.1,88.4,161.7,158,252.4,207.7c0,0,0,0,0,0c0,0,0,0,0,0C423.1,1342.4,493,1296.5,565.7,1257.7
					L565.7,1257.7z"/>
				<path class="st3" d="M568.3,1281.1c-2.7-5.4-5.4-10.8-8-16.3c-70.4,38.6-138,83.9-201.6,135.6
					c-88.7-47.8-173.6-114.7-247.8-199.4c-2.1,8.6-4,17.2-5.9,25.8c78.5,86,167.8,152.9,260.8,199.7c0,0,0,0,0,0c0,0,0,0,0,0
					C429.3,1371.2,497.2,1322.6,568.3,1281.1L568.3,1281.1z"/>
				<path class="st4" d="M571.8,1303.9c-3-5.3-5.8-10.7-8.7-16.1C494.3,1329,428.6,1376.9,367,1431
					c-90.8-45.1-178.2-109.3-255.7-191.7c-1.7,8.7-3.4,17.4-4.9,26.1c81.7,83.6,173.7,147.7,268.7,191.6c0,0,0,0,0,0c0,0,0,0,0,0
					C436.5,1399.3,502.4,1348.2,571.8,1303.9z"/>
				<path class="st3" d="M576.4,1327.4c-3.2-5.3-6.3-10.6-9.3-15.9c-67.1,43.9-130.8,94.3-190.1,150.9
					c-92.8-42.2-182.9-103.7-263.5-183.7c-1.4,8.8-2.7,17.6-3.9,26.4c85,81,179.7,142.2,276.6,183.1c0,0,0,0,0,0c0,0,0,0,0,0
					C445.1,1428.1,508.8,1374.3,576.4,1327.4L576.4,1327.4z"/>
				<path class="st4" d="M581.8,1350.2c-3.4-5.2-6.8-10.4-10-15.7c-65.3,46.4-127,99.3-183.9,158.2
					c-94.6-39.4-187.2-98.1-270.9-175.5c-1.1,8.8-2,17.7-2.8,26.7c88.1,78.3,185.3,136.7,284.1,174.6c0,0,0,0,0,0c0,0,0,0,0,0
					C454.6,1456,516.2,1399.8,581.8,1350.2L581.8,1350.2z"/>
				<line class="st5" x1="387.4" y1="977.2" x2="353" y2="967.4"/>
			</g>
		</g>
		<polyline class="st3" points="353,967.5 387.2,977.1 386.1,983.9 		"/>
	</g>
</g>
<g>
	<path class="st6" d="M490.7,186.5c0.1,0,0.1,0,0.1-0.1C490.8,186.5,490.8,186.5,490.7,186.5z"/>
	<path class="st6" d="M476.8,191.6c7.4-2.2,12.3-4.3,13.9-5.1C489.1,187.3,484.2,189.5,476.8,191.6z"/>
	<path class="st7" d="M833.8,624.9L636.1,234.4c-2-3.9-5.2-6.9-9.2-8.6L595.1,212c0,0-57.9-21.4-68.2-20.4l0,0l-24.5-3.5l0,0.2
		c-0.5-0.7-1-1.4-1.6-2h-9.4c0,0,0,0,0,0c0,0,0-0.1,0-0.1s-0.1,0.1-0.4,0.2c0,0-0.1,0-0.1,0.1c0,0,0,0,0,0
		c-1.6,0.8-6.5,2.9-13.9,5.1c0,0,0,0,0,0c-9,2.6-21.7,5.3-36.7,5.3s-27.2-2.6-35.8-5.3c0,0,0,0,0,0c-6.5-2-10.9-4-12.6-4.9
		c-0.6-0.3-0.9-0.5-0.9-0.5s0,0,0,0h-9.3c-0.6,0.6-1.1,1.3-1.6,2.1l0-0.3l-24.5,3.5l0,0l-102.8,35c-3.5,1.2-6.4,3.7-8,7L45,636.8
		c0,0,20.3,22.2,34.9,26.7c14.6,4.6,40,8.2,40,8.2l146.7-207.3l-14.4,279.1h1c0,0,113.2,17.8,142.6,20.5c29.4,2.7,80.7,2.1,97.8,0
		C510.9,762,633,743.6,633,743.6h-1c0,0-14.4-270.9-14.4-277.6s148.8,210.9,148.8,210.9l0,0c0,0,26-2.7,40.6-7.2
		s32.6-31.8,32.6-31.8L833.8,624.9L833.8,624.9z"/>
	<g>
		<defs>
			<path id="SVGID_00000179645207776024580940000007921964247796462484_" d="M833.8,624.9L636.1,234.4c-2-3.9-5.2-6.9-9.2-8.6
				L595.1,212c0,0-57.9-21.4-68.2-20.4l0,0l-24.5-3.5l0,0.2c-0.5-0.7-1-1.4-1.6-2h-9.4c0,0,0,0,0,0c0,0,0-0.1,0-0.1
				s-0.1,0.1-0.4,0.2c0,0-0.1,0-0.1,0.1c0,0,0,0,0,0c-1.6,0.8-6.5,2.9-13.9,5.1c0,0,0,0,0,0c-9,2.6-21.7,5.3-36.7,5.3
				s-27.2-2.6-35.8-5.3c0,0,0,0,0,0c-6.5-2-10.9-4-12.6-4.9c-0.6-0.3-0.9-0.5-0.9-0.5s0,0,0,0h-9.3c-0.6,0.6-1.1,1.3-1.6,2.1l0-0.3
				l-24.5,3.5l0,0l-102.8,35c-3.5,1.2-6.4,3.7-8,7L45,636.8c0,0,20.3,22.2,34.9,26.7c14.6,4.6,40,8.2,40,8.2l146.7-207.3
				l-14.4,279.1h1c0,0,113.2,17.8,142.6,20.5c29.4,2.7,80.7,2.1,97.8,0C510.9,762,633,743.6,633,743.6h-1c0,0-14.4-270.9-14.4-277.6
				s148.8,210.9,148.8,210.9l0,0c0,0,26-2.7,40.6-7.2s32.6-31.8,32.6-31.8L833.8,624.9L833.8,624.9z"/>
		</defs>
		<clipPath id="SVGID_00000146468925282752812490000001289369395471222660_">
			<use xlink:href="#SVGID_00000179645207776024580940000007921964247796462484_"  style="overflow:visible;"/>
		</clipPath>
		<g style="clip-path:url(#SVGID_00000146468925282752812490000001289369395471222660_);">
			<rect x="17.8" y="151.6" class="st7" width="864.1" height="764.5"/>
			<rect y="118.4" class="st5" width="845.3" height="664.6"/>
			
				<rect x="63.2" y="626.4" transform="matrix(0.4665 -0.8845 0.8845 0.4665 -553.5061 417.2061)" class="st4" width="11.9" height="82.1"/>
			<polygon class="st4" points="818.3,464.8 808.5,442 448.2,596.4 87.9,442 78.1,464.8 448.2,623.4 448.2,623.4 448.2,623.4 			"/>
			<polygon class="st3" points="818.3,497.2 808.5,474.3 448.2,628.8 87.9,474.3 78.1,497.2 448.2,655.8 448.2,655.8 448.2,655.8 
							"/>
			<polygon class="st3" points="818.3,528.9 808.5,506.1 448.2,660.5 87.9,506.1 78.1,528.9 448.2,687.5 448.2,687.5 448.2,687.5 
							"/>
			<polygon class="st4" points="810.1,564.6 817.7,561.3 808,538.5 447.6,692.9 87.3,538.5 77.5,561.3 85.1,564.6 77.5,582.3 
				85.1,585.6 77.5,603.4 85.1,606.6 77.5,624.4 85.1,627.7 77.5,645.4 85.1,648.7 77.5,666.5 85.1,669.8 77.5,687.5 447.6,846.2 
				447.6,846.2 447.6,846.2 817.7,687.5 810.1,669.8 817.7,666.5 810.1,648.7 817.7,645.4 810.1,627.7 817.7,624.4 810.1,606.6 
				817.7,603.4 810.1,585.6 817.7,582.3 			"/>
			<rect x="44.3" y="554.1" class="st4" width="74.9" height="183.1"/>
			<rect x="801.5" y="554.1" class="st4" width="74.9" height="183.1"/>
		</g>
	</g>
	<g>
		<defs>
			<path id="SVGID_00000156567271133104809600000006036189988891680672_" d="M832.9,624.9L635.1,234.4c-2-3.9-5.2-6.9-9.2-8.6
				L594.1,212c0,0-57.9-21.4-68.2-20.4l0,0l-24.5-3.5l0,0.2c-0.5-0.7-1-1.4-1.6-2h-9.4c0,0,0,0,0,0c0,0,0-0.1,0-0.1
				s-0.1,0.1-0.4,0.2c0,0-0.1,0-0.1,0.1c0,0,0,0,0,0c-1.6,0.8-6.5,2.9-13.9,5.1c0,0,0,0,0,0c-9,2.6-21.7,5.3-36.7,5.3
				s-27.2-2.6-35.8-5.3c0,0,0,0,0,0c-6.5-2-10.9-4-12.6-4.9c-0.6-0.3-0.9-0.5-0.9-0.5s0,0,0,0h-9.3c-0.6,0.6-1.1,1.3-1.6,2.1l0-0.3
				l-24.5,3.5l0,0l-102.8,35c-3.5,1.2-6.4,3.7-8,7L44.1,636.8c0,0,20.3,22.2,34.9,26.7c14.6,4.6,40,8.2,40,8.2l146.7-207.3
				l-14.4,279.1h1c0,0,113.2,17.8,142.6,20.5c29.4,2.7,80.7,2.1,97.8,0c17.1-2.1,139.2-20.5,139.2-20.5h-1
				c0,0-14.4-270.9-14.4-277.6s148.8,210.9,148.8,210.9l0,0c0,0,26-2.7,40.6-7.2s32.6-31.8,32.6-31.8L832.9,624.9L832.9,624.9z"/>
		</defs>
		<clipPath id="SVGID_00000061440857732591638090000006224850108294004660_">
			<use xlink:href="#SVGID_00000156567271133104809600000006036189988891680672_"  style="overflow:visible;"/>
		</clipPath>
		<g style="clip-path:url(#SVGID_00000061440857732591638090000006224850108294004660_);">
			<g class="st10">
				<path class="st11" d="M230.7,260.6L76.8,664l-35.6-23.7C41.2,640.3,193.1,272.9,230.7,260.6L230.7,260.6z"/>
				<path class="st11" d="M647.3,260.6l165.4,425.4l35.6-23.7C848.4,662.2,685,272.9,647.3,260.6L647.3,260.6z"/>
				<path class="st11" d="M292.8,273.2L292.8,273.2c-36.3,157,16.2,324.1-20.2,481.2c-22.4-2.5-44.9-5.1-67.3-7.6
					C264.1,592.3,234,427.7,292.8,273.2L292.8,273.2z"/>
				<path class="st11" d="M593,272.2L593,272.2c35.9,157.1-17,324.1,18.9,481.2c22.4-2.5,44.9-4.9,67.3-7.4
					C620.9,591.3,651.4,426.8,593,272.2L593,272.2z"/>
			</g>
		</g>
	</g>
</g>
<path class="st7" d="M499.9,206.4c0.5,3,0.7,6.5,0.7,10.4c0,22.1-9,47.4-39,64l-0.2-0.5h-40.2l-0.1,0.1
	c-29.6-16.6-38.4-41.7-38.4-63.7c0-3.7,0.2-7,0.7-10c2.9,1.5,22.5,10.6,57.6,10.6C476.6,217.4,497.6,207.5,499.9,206.4L499.9,206.4z
	"/>
<g>
	<g>
		<path class="st4" d="M527.5,191.8c0,0,5.9,19.6-0.4,46.7l-24.3,8.6c3.6-8.7,6-19.1,6-31.3c0,0,0.3-18.2-5.8-27.3l0-0.2
			L527.5,191.8L527.5,191.8z"/>
		<path class="st12" d="M503,188.5c6.1,9.1,5.8,27.3,5.8,27.3c0,12.2-2.4,22.5-6,31.3c-10.7,25.8-32.6,37.5-38,40l-3.1-6.7
			c30-16.5,39-41.9,39-64c0-3.9-0.3-7.3-0.7-10.4c-0.7-4.9-1.9-8.8-3.2-11.8v0c-0.5-1.4-1.2-2.6-1.9-3.7c-0.1-0.2-0.2-0.3-0.3-0.5
			c-0.1-0.2-0.2-0.4-0.4-0.6c-0.3-0.5-0.7-1-1-1.4c-0.1-0.1-0.2-0.2-0.2-0.3c-0.6-0.7-1-1.2-1.1-1.4l0,0c0,0,0,0,0,0l0,0h9.4
			C502,187.1,502.5,187.8,503,188.5L503,188.5z"/>
		<path class="st7" d="M476.9,313.7l0.3-0.1l0.1-0.1L465,287.3l-0.1-0.2c5.4-2.6,27.3-14.3,38-40l24.3-8.6
			c-2.9,12.4-8.4,26.5-18.2,40.9c-7.7,11.4-18.1,23-32,34.4L476.9,313.7L476.9,313.7z"/>
		<polygon class="st7" points="461.8,280.5 464.9,287.1 465,287.3 476.9,313.7 441.1,332.3 404.9,313.7 417.9,286.8 421.2,280.2 
			421.3,280 461.5,280 		"/>
		<path class="st7" d="M381.9,249.8c10.6,22.9,29.9,33.9,36.1,37l-13.4,26.8l0.4,0.2l-0.1,0.1c-13.9-11.4-24.2-23-31.8-34.4
			c-9.1-13.7-14.3-26.9-17.1-38.9L381.9,249.8L381.9,249.8z"/>
		<path class="st12" d="M493.3,188.2c0.3,0.4,0.6,0.9,1,1.4c0.1,0.2,0.2,0.4,0.4,0.6c0.1,0.1,0.2,0.3,0.3,0.5c0.6,1,1.2,2.3,1.9,3.7
			v0c0,0-20.2,11.1-55.7,11.1c-35.2,0-53.9-10.4-54.6-10.8c2.1-5.1,4.4-7.6,5-8.1c0,0,0,0,0,0c0.1,0,0.1,0.1,0.3,0.1
			c0.6,0.3,2.1,1.1,4.3,2c0.2,0.1,0.4,0.2,0.7,0.3c0.2,0.1,0.4,0.1,0.5,0.2c0.4,0.1,0.7,0.3,1.1,0.5c0,0,0.1,0,0.1,0
			c0.6,0.2,1.1,0.4,1.8,0.7c0.4,0.1,0.8,0.3,1.2,0.4c0.7,0.3,1.4,0.5,2.2,0.7c0.9,0.3,1.9,0.6,2.9,0.9c0.4,0.1,0.9,0.3,1.3,0.4
			c0.4,0.1,0.8,0.2,1.2,0.3c0.5,0.1,1,0.3,1.6,0.4c1,0.3,2.1,0.5,3.2,0.8c0.6,0.1,1.2,0.3,1.9,0.4c0.4,0.1,0.8,0.2,1.2,0.2
			c1,0.2,2.1,0.4,3.1,0.6c0.8,0.1,1.6,0.3,2.5,0.4c0.8,0.1,1.6,0.2,2.3,0.3c0.8,0.1,1.5,0.2,2.3,0.3c0,0,0.1,0,0.1,0
			c1.6,0.2,3.3,0.3,5,0.4c0.9,0.1,1.8,0.1,2.7,0.1c0.9,0,1.8,0.1,2.7,0.1h0c0.9,0,1.8,0,2.8,0s1.9,0,2.8,0h0c0.9,0,1.8-0.1,2.7-0.1
			c0.9,0,1.8-0.1,2.7-0.1c1.7-0.1,3.4-0.3,5.1-0.4c0,0,0.1,0,0.1,0c0.8-0.1,1.6-0.2,2.4-0.3c2.1-0.3,4.1-0.6,6.1-0.9
			c0.6-0.1,1.3-0.2,1.9-0.3c2-0.4,3.9-0.8,5.7-1.2c0.6-0.1,1.2-0.3,1.8-0.4c0.4-0.1,0.8-0.2,1.2-0.3c0.6-0.1,1.1-0.3,1.7-0.4
			c0.1,0,0.1,0,0.2-0.1c0.6-0.2,1.2-0.3,1.8-0.5c4.9-1.4,8.8-2.8,11.4-3.9c0.2-0.1,0.5-0.2,0.7-0.3c0.2-0.1,0.4-0.1,0.5-0.2
			c0.7-0.3,1.2-0.5,1.6-0.7c0.1-0.1,0.2-0.1,0.3-0.2c0,0,0,0,0,0c0,0,0.1,0,0.1,0c0.2-0.1,0.3-0.2,0.4-0.2c0,0,0,0,0.1,0l0,0
			c0,0,0,0,0,0c0,0,0,0,0,0c0,0,0,0.1,0.1,0.2c0.2,0.2,0.6,0.6,1.1,1.2C493.2,188,493.2,188.1,493.3,188.2L493.3,188.2z"/>
		<path class="st4" d="M386.5,194.7c0.7,0.4,19.4,10.8,54.6,10.8c35.5,0,55.7-11.1,55.7-11.1c1.3,2.9,2.5,6.8,3.2,11.8
			c-2.3,1.1-23.4,11-58.9,11c-35.1,0-54.8-9.2-57.6-10.6C384.1,201.6,385.3,197.7,386.5,194.7z"/>
		<path class="st12" d="M381.9,249.8c-4.3-9.3-7.2-20.5-7.2-34c0,0-0.3-18.1,5.8-27.3c0.5-0.8,1-1.5,1.6-2.1h9.3
			c-0.3,0.3-2.9,3.1-5,8.2c0,0,0,0,0,0c-1.2,3-2.4,6.9-3.1,11.8c-0.4,2.9-0.7,6.2-0.7,10c0,21.9,8.9,47.1,38.4,63.7l-3.3,6.6
			C411.7,283.7,392.5,272.7,381.9,249.8L381.9,249.8z"/>
		<path class="st4" d="M381.9,249.8l-26-9.2c-6.7-28.2,0.1-48.8,0.1-48.8l24.5-3.5l0,0.3c-6.1,9.2-5.8,27.3-5.8,27.3
			C374.7,229.3,377.6,240.5,381.9,249.8L381.9,249.8z"/>
	</g>
	<g>
		<path class="st13" d="M503,188.5l0-0.2l24.5,3.5c0,0,5.9,19.6-0.4,46.7c-2.9,12.4-8.4,26.5-18.2,40.9c-7.7,11.4-18.1,23-32,34.4
			l-0.1-0.1l0.3-0.1l0.1-0.1L465,287.3"/>
		<path class="st13" d="M496.8,194.4c-0.5-1.4-1.2-2.6-1.9-3.7"/>
		<path class="st13" d="M461.8,280.5c30-16.5,39-41.9,39-64c0-3.9-0.3-7.3-0.7-10.4"/>
		<path class="st13" d="M493.1,187.9c-0.6-0.7-1-1.2-1.1-1.4l0,0c0,0,0,0,0,0l0,0h9.4c0.6,0.6,1.1,1.3,1.6,2
			c6.1,9.1,5.8,27.3,5.8,27.3c0,12.2-2.4,22.5-6,31.3c-10.7,25.8-32.6,37.5-38,40"/>
		<polyline class="st13" points="421.2,280.2 421.3,280 461.5,280 461.8,280.5 464.9,287.1 465,287.3 476.9,313.7 441.1,332.3 
			404.9,313.7 417.9,286.8 		"/>
		<path class="st13" d="M496.8,194.4c1.3,2.9,2.5,6.8,3.2,11.8c-2.3,1.1-23.4,11-58.9,11c-35.1,0-54.8-9.2-57.6-10.6"/>
		<path class="st13" d="M417.9,286.8l-13.4,26.8l0.4,0.2l-0.1,0.1c-13.9-11.4-24.2-23-31.8-34.4c-9.1-13.7-14.3-26.9-17.1-38.9
			c-6.7-28.2,0.1-48.8,0.1-48.8l24.5-3.5l0,0.3"/>
		<path class="st13" d="M386.5,194.7c2.1-5.1,4.4-7.6,5-8.1c0,0,0,0,0,0c0.1,0,0.1,0.1,0.3,0.1c0.6,0.3,2.1,1.1,4.3,2
			c0.2,0.1,0.4,0.2,0.7,0.3c0.2,0.1,0.4,0.1,0.5,0.2c0.4,0.1,0.7,0.3,1.1,0.5c0,0,0.1,0,0.1,0c0.6,0.2,1.1,0.4,1.8,0.7
			c0.4,0.1,0.8,0.3,1.2,0.4c0.7,0.3,1.4,0.5,2.2,0.7c0.9,0.3,1.9,0.6,2.9,0.9c0.4,0.1,0.9,0.3,1.3,0.4c0.4,0.1,0.8,0.2,1.2,0.3
			c0.5,0.1,1,0.3,1.6,0.4c1,0.3,2.1,0.5,3.2,0.8c0.6,0.1,1.2,0.3,1.9,0.4c0.4,0.1,0.8,0.2,1.2,0.2c1,0.2,2.1,0.4,3.1,0.6
			c0.8,0.1,1.6,0.3,2.5,0.4c0.8,0.1,1.6,0.2,2.3,0.3c0.8,0.1,1.5,0.2,2.3,0.3c0,0,0.1,0,0.1,0c1.6,0.2,3.3,0.3,5,0.4
			c0.9,0.1,1.8,0.1,2.7,0.1c0.9,0,1.8,0.1,2.7,0.1h0c0.9,0,1.8,0,2.8,0s1.9,0,2.8,0h0c0.9,0,1.8-0.1,2.7-0.1c0.9,0,1.8-0.1,2.7-0.1
			c1.7-0.1,3.4-0.3,5.1-0.4c0,0,0.1,0,0.1,0c0.8-0.1,1.6-0.2,2.4-0.3c2.1-0.3,4.1-0.6,6.1-0.9c0.6-0.1,1.3-0.2,1.9-0.3
			c2-0.4,3.9-0.8,5.7-1.2c0.6-0.1,1.2-0.3,1.8-0.4c0.4-0.1,0.8-0.2,1.2-0.3c0.6-0.1,1.1-0.3,1.7-0.4c0.1,0,0.1,0,0.2-0.1
			c0.6-0.2,1.2-0.3,1.8-0.5c4.9-1.4,8.8-2.8,11.4-3.9c0.2-0.1,0.5-0.2,0.7-0.3c0.2-0.1,0.4-0.1,0.5-0.2c0.7-0.3,1.2-0.5,1.6-0.7
			c0.1-0.1,0.2-0.1,0.3-0.2c0,0,0,0,0,0c0,0,0.1,0,0.1,0c0.2-0.1,0.3-0.2,0.4-0.2c0,0,0,0,0.1,0l0,0c0,0,0,0,0,0c0,0,0,0,0,0
			c0,0,0,0.1,0.1,0.2c0.2,0.2,0.6,0.6,1.1,1.2c0.1,0.1,0.2,0.2,0.2,0.3c0.3,0.4,0.6,0.9,1,1.4c0.1,0.2,0.2,0.4,0.4,0.6
			c0.1,0.1,0.2,0.3,0.3,0.5c0.6,1,1.2,2.3,1.9,3.7v0c0,0-20.2,11.1-55.7,11.1C405.9,205.5,387.2,195.1,386.5,194.7L386.5,194.7z"/>
		<path class="st13" d="M383.5,206.6c-0.4,2.9-0.7,6.2-0.7,10c0,21.9,8.9,47.1,38.4,63.7l-3.3,6.6c-6.2-3.1-25.5-14.1-36.1-37
			c-4.3-9.3-7.2-20.5-7.2-34c0,0-0.3-18.1,5.8-27.3c0.5-0.8,1-1.5,1.6-2.1h9.3c-0.3,0.3-2.9,3.1-5,8.2c0,0,0,0,0,0
			C385.3,197.7,384.1,201.6,383.5,206.6L383.5,206.6z"/>
		<polyline class="st13" points="355.9,240.6 381.9,249.8 381.9,249.8 		"/>
		<polyline class="st13" points="527.7,238.3 527.1,238.5 502.9,247.1 502.9,247.9 		"/>
	</g>
</g>
<g>
	<path class="st6" d="M1106.7,186.5c0.1,0,0.1,0,0.1-0.1C1106.8,186.5,1106.8,186.5,1106.7,186.5z"/>
	<path class="st6" d="M1092.8,191.6c7.4-2.2,12.3-4.3,13.9-5.1C1105.1,187.3,1100.2,189.5,1092.8,191.6z"/>
	<path class="st7" d="M1449.8,624.9L1252,234.4c-2-3.9-5.2-6.9-9.2-8.6L1211,212c0,0-57.9-21.4-68.2-20.4l0,0l-24.5-3.5l0,0.2
		c-0.5-0.7-1-1.4-1.6-2h-9.4c0,0,0,0,0,0c0,0,0-0.1,0-0.1s-0.1,0.1-0.4,0.2c0,0-0.1,0-0.1,0.1c0,0,0,0,0,0
		c-1.6,0.8-6.5,2.9-13.9,5.1c0,0,0,0,0,0c-9,2.6-21.7,5.3-36.7,5.3s-27.2-2.6-35.8-5.3c0,0,0,0,0,0c-6.5-2-10.9-4-12.6-4.9
		c-0.6-0.3-0.9-0.5-0.9-0.5s0,0,0,0h-9.3c-0.6,0.6-1.1,1.3-1.6,2.1l0-0.3l-24.5,3.5l0,0l-102.8,35c-3.5,1.2-6.4,3.7-8,7L661,636.8
		c0,0,20.3,22.2,34.9,26.7c14.6,4.6,40,8.2,40,8.2l146.7-207.3l-14.4,279.1h1c0,0,113.2,17.8,142.6,20.5c29.4,2.7,80.7,2.1,97.8,0
		c17.1-2.1,139.2-20.5,139.2-20.5h-1c0,0-14.4-270.9-14.4-277.6s148.8,210.9,148.8,210.9l0,0c0,0,26-2.7,40.6-7.2
		s32.6-31.8,32.6-31.8L1449.8,624.9L1449.8,624.9z"/>
	<g>
		<defs>
			<path id="SVGID_00000083080782185639787020000003650147159838133681_" d="M1449.8,624.9L1252,234.4c-2-3.9-5.2-6.9-9.2-8.6
				L1211,212c0,0-57.9-21.4-68.2-20.4l0,0l-24.5-3.5l0,0.2c-0.5-0.7-1-1.4-1.6-2h-9.4c0,0,0,0,0,0c0,0,0-0.1,0-0.1s-0.1,0.1-0.4,0.2
				c0,0-0.1,0-0.1,0.1c0,0,0,0,0,0c-1.6,0.8-6.5,2.9-13.9,5.1c0,0,0,0,0,0c-9,2.6-21.7,5.3-36.7,5.3s-27.2-2.6-35.8-5.3c0,0,0,0,0,0
				c-6.5-2-10.9-4-12.6-4.9c-0.6-0.3-0.9-0.5-0.9-0.5s0,0,0,0h-9.3c-0.6,0.6-1.1,1.3-1.6,2.1l0-0.3l-24.5,3.5l0,0l-102.8,35
				c-3.5,1.2-6.4,3.7-8,7L661,636.8c0,0,20.3,22.2,34.9,26.7c14.6,4.6,40,8.2,40,8.2l146.7-207.3l-14.4,279.1h1
				c0,0,113.2,17.8,142.6,20.5c29.4,2.7,80.7,2.1,97.8,0c17.1-2.1,139.2-20.5,139.2-20.5h-1c0,0-14.4-270.9-14.4-277.6
				s148.8,210.9,148.8,210.9l0,0c0,0,26-2.7,40.6-7.2s32.6-31.8,32.6-31.8L1449.8,624.9L1449.8,624.9z"/>
		</defs>
		<clipPath id="SVGID_00000028325288468741153360000009384791625970347956_">
			<use xlink:href="#SVGID_00000083080782185639787020000003650147159838133681_"  style="overflow:visible;"/>
		</clipPath>
		<g style="clip-path:url(#SVGID_00000028325288468741153360000009384791625970347956_);">
			<rect x="633.8" y="151.6" class="st7" width="864.1" height="764.5"/>
			<rect x="616" y="118.4" class="st5" width="845.3" height="664.6"/>
			
				<rect x="679.1" y="626.4" transform="matrix(0.4665 -0.8845 0.8845 0.4665 -224.8896 962.0439)" class="st4" width="11.9" height="82.1"/>
			<polygon class="st4" points="1434.3,464.8 1424.5,442 1064.2,596.4 703.8,442 694,464.8 1064.2,623.4 1064.2,623.4 1064.2,623.4 
							"/>
			<polygon class="st3" points="1434.3,497.2 1424.5,474.3 1064.2,628.8 703.8,474.3 694,497.2 1064.2,655.8 1064.2,655.8 
				1064.2,655.8 			"/>
			<polygon class="st3" points="1434.3,528.9 1424.5,506.1 1064.2,660.5 703.8,506.1 694,528.9 1064.2,687.5 1064.2,687.5 
				1064.2,687.5 			"/>
			<polygon class="st4" points="1426.1,564.6 1433.7,561.3 1423.9,538.5 1063.6,692.9 703.3,538.5 693.5,561.3 701.1,564.6 
				693.5,582.3 701.1,585.6 693.5,603.4 701.1,606.6 693.5,624.4 701.1,627.7 693.5,645.4 701.1,648.7 693.5,666.5 701.1,669.8 
				693.5,687.5 1063.6,846.2 1063.6,846.2 1063.6,846.2 1433.7,687.5 1426.1,669.8 1433.7,666.5 1426.1,648.7 1433.7,645.4 
				1426.1,627.7 1433.7,624.4 1426.1,606.6 1433.7,603.4 1426.1,585.6 1433.7,582.3 			"/>
			<rect x="660.3" y="554.1" class="st4" width="74.9" height="183.1"/>
			<rect x="1417.5" y="554.1" class="st4" width="74.9" height="183.1"/>
		</g>
	</g>
</g>
<g>
	<path class="st15" d="M1108.7,192.7c-11.8,5.2-29.4,10.9-51,11.2v0c-0.1,0-0.3,0-0.4,0c-0.1,0-0.2,0-0.4,0v0
		c-17.1-0.2-31.8-3.8-43-7.9c-3.5-1.3-6.7-2.6-9.5-3.9c-2.3-1.1-4.6-2.4-6.7-3.6c-0.7-0.4-1.4-0.8-2.1-1.2l8.6-1.2
		c2,0,4.8,0,8.3,0.1c0.3,0,0.7,0,1,0c0.3,0,0.5,0,0.8,0c10.8,4.2,26.1,8.6,43,8.7c0.1,0,0.3,0,0.4,0c0.1,0,0.3,0,0.4,0
		c16.4-0.1,31.3-4.3,42.1-8.3c7.9,0,15,0,20.7-0.1C1118.2,188,1114.1,190.3,1108.7,192.7L1108.7,192.7z"/>
	<path class="st16" d="M1014,195.9c11.2,4.1,25.9,7.8,43,7.9v0c0.1,0,0.2,0,0.4,0c0.1,0,0.3,0,0.4,0v0c21.6-0.2,39.2-5.9,51-11.2
		c5.4-2.4,9.5-4.7,12.2-6.3c5.4-0.1,9.5-0.2,11.7-0.3c3.8,0.5,10.2,2.2,17.7,4.5c-5.1,7.4-27.6,33.8-92.4,33.8c-0.4,0-0.9,0-1.3,0
		c-0.4,0-0.9,0-1.3,0c-60.8,0-84.4-21.3-91.3-30.3l2.3-0.8l28.9-6.1c0.6,0.4,1.3,0.7,2,1.1c2,1.1,4.4,2.3,7.1,3.6
		c3.3,1.7,6.6,3.1,9,3.8C1013.5,195.8,1013.7,195.9,1014,195.9L1014,195.9z"/>
</g>
<path class="st11" d="M956.1,836.8h16.8c6.6,0,12,5.4,12,12v53.6c0,6.6-5.4,12-12,12h-16.8c-6.6,0-12-5.4-12-12v-53.6
	C944.1,842.2,949.5,836.8,956.1,836.8z"/>
<g>
	<defs>
		<path id="SVGID_00000059272742428293087700000000084034198455519911_" d="M1032,970.9c0.4-28.8,0.5-60.5,0.1-95.3H894.8
			c0,0-0.5,40,0.9,96.1c0.3,14,0.8,29.1,1.4,44.8c2.4,62.9,7.1,136,16.5,194.8l7.3,18.8c-0.2,0-0.2,0.1-0.2,0.1h0.3l3.6,9.4
			c0,0,40.6-12.8,79.8,0l3.2-9.4l7.8-23c0,0,11.7-55.5,15.8-190.5c0.4-14.1,0.8-29,1-44.8c0.1,0,0.3,0,0.4-0.1L1032,970.9
			L1032,970.9z"/>
	</defs>
	<clipPath id="SVGID_00000117669356754091694250000016559674275806278804_">
		<use xlink:href="#SVGID_00000059272742428293087700000000084034198455519911_"  style="overflow:visible;"/>
	</clipPath>
	<g style="clip-path:url(#SVGID_00000117669356754091694250000016559674275806278804_);">
		<path class="st18" d="M939.9,860.9c0,0-40.1,242.3-1.6,402.1l-37.4-8.3l-6.2-404.4L939.9,860.9L939.9,860.9z"/>
		<path class="st7" d="M880.7,846.5h180.2c6.6,0,12,5.4,12,12v448.1c0,6.6-5.4,12-12,12H880.7c-6.6,0-12-5.4-12-12V858.5
			C868.7,851.9,874.1,846.5,880.7,846.5z"/>
		<g>
			<rect x="876.5" y="1069.9" class="st12" width="190.1" height="35.2"/>
			<rect x="903.4" y="1105.1" class="st3" width="163.2" height="17.6"/>
			<rect x="903.4" y="1129.6" class="st4" width="163.2" height="8.8"/>
			<rect x="868.2" y="871.5" class="st4" width="197.4" height="190.6"/>
		</g>
	</g>
</g>
<path class="st11" d="M1142.8,836.8h16.8c6.6,0,12,5.4,12,12v53.6c0,6.6-5.4,12-12,12h-16.8c-6.6,0-12-5.4-12-12v-53.6
	C1130.8,842.2,1136.2,836.8,1142.8,836.8z"/>
<g>
	<defs>
		<path id="SVGID_00000052104207901313382700000002618949303442055077_" d="M1218.7,970.9c0.4-28.8,0.5-60.5,0.1-95.3h-137.3
			c0,0-0.5,40,0.9,96.1c0.3,14,0.8,29.1,1.4,44.8c2.4,62.9,7.1,136,16.5,194.8l7.3,18.8c-0.2,0-0.2,0.1-0.2,0.1h0.3l3.6,9.4
			c0,0,40.6-12.8,79.8,0l3.2-9.4l7.8-23c0,0,11.7-55.5,15.8-190.5c0.4-14.1,0.8-29,1-44.8c0.1,0,0.3,0,0.4-0.1L1218.7,970.9
			L1218.7,970.9z"/>
	</defs>
	<clipPath id="SVGID_00000049212261557223866410000006291823158308090538_">
		<use xlink:href="#SVGID_00000052104207901313382700000002618949303442055077_"  style="overflow:visible;"/>
	</clipPath>
	<g style="clip-path:url(#SVGID_00000049212261557223866410000006291823158308090538_);">
		<path class="st18" d="M1126.6,860.9c0,0-40.1,242.3-1.6,402.1l-37.4-8.3l-6.2-404.4L1126.6,860.9L1126.6,860.9z"/>
		<path class="st7" d="M1067.4,846.5h180.2c6.6,0,12,5.4,12,12v448.1c0,6.6-5.4,12-12,12h-180.2c-6.6,0-12-5.4-12-12V858.5
			C1055.4,851.9,1060.8,846.5,1067.4,846.5z"/>
		<g>
			<rect x="1063.2" y="1069.9" class="st12" width="190.1" height="35.2"/>
			<rect x="1090.1" y="1105.1" class="st3" width="163.2" height="17.6"/>
			<rect x="1090.1" y="1129.6" class="st4" width="163.2" height="8.8"/>
			<rect x="1054.9" y="871.5" class="st4" width="197.4" height="190.6"/>
		</g>
	</g>
</g>
<g>
	<g>
		<g>
			<g>
				<g>
					<path class="st20" d="M1032.1,875.6H894.8c0,0-2.3,203.9,18.7,335.7l10.9,28.3c0,0,40.6-12.8,79.8,0l10.9-32.4
						C1015.2,1207.2,1034.9,1114.1,1032.1,875.6L1032.1,875.6z"/>
					<path class="st21" d="M924.5,1239.5l-3.4-9.5c0,0,43.7-12.6,86.4,0.1l-3.2,9.4"/>
					<g>
						<rect x="948.4" y="889.3" class="st20" width="32.2" height="48.6"/>
						<line class="st20" x1="948.4" y1="937.8" x2="980.6" y2="889.3"/>
						<line class="st20" x1="948.4" y1="889.3" x2="980.6" y2="937.8"/>
					</g>
					<path class="st20" d="M939.9,875.6c0,0,3.4,64-1.7,73.5c-5.1,9.6-13.8,27.4-42.5,22.6"/>
					<path class="st20" d="M988.2,875.6c0,0-3.4,64,1.7,73.5c5.1,9.6,13.8,27.4,42.5,22.6"/>
					<path class="st20" d="M897.1,1016.5c0,0,27.8,1.7,46.6-8.5s46.9,0,46.9,0s11.2,10.8,40.5,8.7"/>
					<line class="st21" x1="1007.5" y1="1230.2" x2="1004.3" y2="1239.5"/>
					<line class="st21" x1="924.5" y1="1239.5" x2="921.1" y2="1230"/>
					<g>
						<g>
							<line class="st22" x1="928.5" y1="1238" x2="925.1" y2="1228.6"/>
							<line class="st22" x1="929.3" y1="1227.8" x2="932.3" y2="1237.2"/>
							<line class="st22" x1="933.6" y1="1227.3" x2="936.2" y2="1236.7"/>
							<line class="st22" x1="937.9" y1="1226.8" x2="940.1" y2="1236.2"/>
							<line class="st22" x1="942.2" y1="1226.3" x2="944" y2="1235.7"/>
							<line class="st22" x1="946.4" y1="1225.9" x2="948" y2="1235.2"/>
							<line class="st22" x1="950.7" y1="1225.4" x2="951.9" y2="1234.7"/>
							<line class="st22" x1="955" y1="1224.9" x2="955.8" y2="1234.2"/>
							<line class="st22" x1="959.3" y1="1224.4" x2="959.7" y2="1233.7"/>
							<line class="st22" x1="963.6" y1="1224.5" x2="963.6" y2="1233.9"/>
						</g>
						<g>
							<line class="st22" x1="1002" y1="1238.8" x2="1005.4" y2="1229.4"/>
							<line class="st22" x1="1001.6" y1="1228.3" x2="998.5" y2="1237.7"/>
							<line class="st22" x1="997.4" y1="1227.3" x2="994.8" y2="1236.7"/>
							<line class="st22" x1="993.2" y1="1226.8" x2="990.9" y2="1236.2"/>
							<line class="st22" x1="988.9" y1="1226.3" x2="987" y2="1235.7"/>
							<line class="st22" x1="984.6" y1="1225.8" x2="983.1" y2="1235.2"/>
							<line class="st22" x1="980.3" y1="1225.3" x2="979.2" y2="1234.7"/>
							<line class="st22" x1="976" y1="1224.8" x2="975.3" y2="1234.2"/>
							<line class="st22" x1="971.7" y1="1224.3" x2="971.4" y2="1233.7"/>
							<line class="st22" x1="967.5" y1="1224.5" x2="967.5" y2="1233.8"/>
						</g>
					</g>
				</g>
				<g>
					<defs>
						<path id="SVGID_00000044150698517955501640000011983435938380535941_" d="M1032,970.9c0.4-28.8,0.5-60.5,0.1-95.3H894.8
							c0,0-0.5,40,0.9,96.1c0.3,14,0.8,29.1,1.4,44.8c2.4,62.9,7.1,136,16.5,194.8l7.3,18.8c-0.2,0-0.2,0.1-0.2,0.1h0.3l3.6,9.4
							c0,0,40.6-12.8,79.8,0l3.2-9.4l7.8-23c0,0,11.7-55.5,15.8-190.5c0.4-14.1,0.8-29,1-44.8c0.1,0,0.3,0,0.4-0.1L1032,970.9
							L1032,970.9z"/>
					</defs>
					<clipPath id="SVGID_00000054251766872054988450000017848924620245749667_">
						<use xlink:href="#SVGID_00000044150698517955501640000011983435938380535941_"  style="overflow:visible;"/>
					</clipPath>
					<g style="clip-path:url(#SVGID_00000054251766872054988450000017848924620245749667_);">
						<path class="st18" d="M939.9,860.9c0,0-40.1,242.3-1.6,402.1l-37.4-8.3l-6.2-404.4L939.9,860.9L939.9,860.9z"/>
						<path class="st18" d="M987.2,866.1c0,0,40.1,242.3,1.6,402.1l37.4-8.3l6.2-404.4L987.2,866.1L987.2,866.1z"/>
					</g>
				</g>
				<path class="st11" d="M944.1,875.6v-26.8c0-6.6,5.4-12,12-12h16.8c6.6,0,12,5.4,12,12v26.8"/>
			</g>
			<g>
				<g>
					<path class="st20" d="M1218.8,875.6h-137.3c0,0-2.3,203.9,18.7,335.7l10.9,28.3c0,0,40.6-12.8,79.8,0l10.9-32.4
						C1202,1207.2,1221.6,1114.1,1218.8,875.6L1218.8,875.6z"/>
					<path class="st21" d="M1111.2,1239.5l-3.4-9.5c0,0,43.7-12.6,86.4,0.1l-3.2,9.4"/>
					<g>
						<rect x="1135.2" y="889.3" class="st20" width="32.2" height="48.6"/>
						<line class="st20" x1="1135.2" y1="937.8" x2="1167.3" y2="889.3"/>
						<line class="st20" x1="1135.2" y1="889.3" x2="1167.3" y2="937.8"/>
					</g>
					<path class="st20" d="M1126.6,875.6c0,0,3.4,64-1.7,73.5s-13.8,27.4-42.5,22.6"/>
					<path class="st20" d="M1174.9,875.6c0,0-3.4,64,1.7,73.5s13.8,27.4,42.5,22.6"/>
					<path class="st20" d="M1083.8,1016.5c0,0,27.8,1.7,46.6-8.5s46.9,0,46.9,0s11.2,10.8,40.5,8.7"/>
					<line class="st21" x1="1194.2" y1="1230.2" x2="1191" y2="1239.5"/>
					<line class="st21" x1="1111.2" y1="1239.5" x2="1107.8" y2="1230"/>
					<g>
						<g>
							<line class="st22" x1="1115.3" y1="1238" x2="1111.9" y2="1228.6"/>
							<line class="st22" x1="1116" y1="1227.8" x2="1119.1" y2="1237.2"/>
							<line class="st22" x1="1120.3" y1="1227.3" x2="1123" y2="1236.7"/>
							<line class="st22" x1="1124.6" y1="1226.8" x2="1126.9" y2="1236.2"/>
							<line class="st22" x1="1128.9" y1="1226.3" x2="1130.8" y2="1235.7"/>
							<line class="st22" x1="1133.2" y1="1225.9" x2="1134.7" y2="1235.2"/>
							<line class="st22" x1="1137.4" y1="1225.4" x2="1138.6" y2="1234.7"/>
							<line class="st22" x1="1141.7" y1="1224.9" x2="1142.5" y2="1234.2"/>
							<line class="st22" x1="1146" y1="1224.4" x2="1146.4" y2="1233.7"/>
							<line class="st22" x1="1150.3" y1="1224.5" x2="1150.3" y2="1233.9"/>
						</g>
						<g>
							<line class="st22" x1="1188.7" y1="1238.8" x2="1192.1" y2="1229.4"/>
							<line class="st22" x1="1188.3" y1="1228.3" x2="1185.3" y2="1237.7"/>
							<line class="st22" x1="1184.2" y1="1227.3" x2="1181.5" y2="1236.7"/>
							<line class="st22" x1="1179.9" y1="1226.8" x2="1177.6" y2="1236.2"/>
							<line class="st22" x1="1175.6" y1="1226.3" x2="1173.7" y2="1235.7"/>
							<line class="st22" x1="1171.3" y1="1225.8" x2="1169.8" y2="1235.2"/>
							<line class="st22" x1="1167" y1="1225.3" x2="1165.9" y2="1234.7"/>
							<line class="st22" x1="1162.7" y1="1224.8" x2="1162" y2="1234.2"/>
							<line class="st22" x1="1158.5" y1="1224.3" x2="1158.1" y2="1233.7"/>
							<line class="st22" x1="1154.2" y1="1224.5" x2="1154.2" y2="1233.8"/>
						</g>
					</g>
				</g>
				<g>
					<defs>
						<path id="SVGID_00000108269583145429034720000017493473638481278369_" d="M1218.7,970.9c0.4-28.8,0.5-60.5,0.1-95.3h-137.3
							c0,0-0.5,40,0.9,96.1c0.3,14,0.8,29.1,1.4,44.8c2.4,62.9,7.1,136,16.5,194.8l7.3,18.8c-0.2,0-0.2,0.1-0.2,0.1h0.3l3.6,9.4
							c0,0,40.6-12.8,79.8,0l3.2-9.4l7.8-23c0,0,11.7-55.5,15.8-190.5c0.4-14.1,0.8-29,1-44.8c0.1,0,0.3,0,0.4-0.1L1218.7,970.9
							L1218.7,970.9z"/>
					</defs>
					<clipPath id="SVGID_00000151534074393819781580000011085494549593929386_">
						<use xlink:href="#SVGID_00000108269583145429034720000017493473638481278369_"  style="overflow:visible;"/>
					</clipPath>
					<g style="clip-path:url(#SVGID_00000151534074393819781580000011085494549593929386_);">
						<path class="st18" d="M1126.6,860.9c0,0-40.1,242.3-1.6,402.1l-37.4-8.3l-6.2-404.4L1126.6,860.9L1126.6,860.9z"/>
						<path class="st18" d="M1174,866.1c0,0,40.1,242.3,1.6,402.1l37.4-8.3l6.2-404.4L1174,866.1L1174,866.1z"/>
					</g>
				</g>
				<path class="st11" d="M1130.8,875.6v-26.8c0-6.6,5.4-12,12-12h16.8c6.6,0,12,5.4,12,12v26.8"/>
			</g>
		</g>
		<g>
			<path class="st25" d="M860.6,231.7c0,0,0,12.4,12.3,25.6c12.3,13.2,29.5,21.4,75.4,21.9h214.4c45.9-0.5,63.1-8.7,75.4-21.9
				c12.3-13.2,12.3-25.6,12.3-25.6"/>
			<g>
				<g>
					<path class="st26" d="M666.5,626.9c0.3,0,0.7,0.1,1,0.1"/>
					<path class="st27" d="M669.7,627.3c29.2,3.4,53.9,15.6,71.6,31.7"/>
					<path class="st26" d="M742.1,659.7c0.3,0.2,0.5,0.5,0.8,0.7"/>
				</g>
				<path class="st26" d="M668.1,621.8c32.1,3.4,58.9,17,77.4,35"/>
				<g>
					<path class="st26" d="M1451,632.7c-0.3,0-0.7,0.1-1,0.1"/>
					<path class="st27" d="M1447.8,633c-29.2,3.4-53.9,15.6-71.6,31.7"/>
					<path class="st26" d="M1375.4,665.5c-0.3,0.2-0.5,0.5-0.8,0.7"/>
				</g>
				<path class="st26" d="M1449.4,627.5c-32.1,3.4-58.9,17-77.4,35"/>
				<path class="st28" d="M868.7,726.1c0,0,113.2,17.8,142.6,20.5c29.4,2.7,80.7,2.1,97.8,0c17.1-2.1,136.8-20.2,136.8-20.2"/>
				<path class="st26" d="M868.7,714.9c0,0,113.2,17.8,142.6,20.5c29.4,2.7,80.7,2.1,97.8,0c17.1-2.1,136.4-20.1,136.4-20.1"/>
			</g>
			<line class="st29" x1="881.9" y1="464.4" x2="907.7" y2="275.7"/>
			<line class="st29" x1="1233.5" y1="469.5" x2="1212.3" y2="273.2"/>
			<line class="st20" x1="660.4" y1="636.8" x2="735.3" y2="671.7"/>
			<g>
				<path class="st13" d="M1005.2,188.4L1005.2,188.4l3.2,0C1006.3,188.4,1005.2,188.4,1005.2,188.4z"/>
				<path class="st13" d="M1455,637.9l-5.8-13l-197.8-390.5c-2-3.9-5.2-6.9-9.2-8.6l-31.8-13.8c0,0-65.7-24.6-75.9-23.6
					c-3.1,0.3-16.5,0.4-33.5,0.5c-10.8,3.9-25.7,7.9-42.1,8c-16.9-0.1-32.2-4.3-43-8.3c-4.8,0-8.6-0.1-10.9-0.1l-37.8,5.1L868,226.6
					c-3.5,1.2-6.4,3.7-8,7L660.4,636.8c0,0,20.3,22.2,34.9,26.7c14.6,4.6,40,8.2,40,8.2L882,464.4l-14.4,279.1h1
					c0,0,113.2,17.8,142.6,20.5c29.4,2.7,80.7,2.1,97.8,0c17.1-2.1,139.2-20.5,139.2-20.5h-1c0,0-14.4-270.9-14.4-277.6
					s148.8,210.9,148.8,210.9l0,0c0,0,26-2.7,40.6-7.2C1436.9,665.1,1455,637.9,1455,637.9L1455,637.9L1455,637.9z"/>
				<path class="st5" d="M1005.1,188.5c2.3,0,6,0.1,10.8,0.1c10.8,4,26.2,8.2,43,8.3c16.4-0.1,31.3-4.1,42.1-8
					c17,0,30.3-0.1,33.5-0.5c10.3-1,75.9,23.6,75.9,23.6l31.8,13.8c3.3,1.4,6,3.7,8,6.6c-0.2,2.7-1.7,13.6-12.3,25
					c-12.3,13.2-29.5,21.4-75.4,21.9H948.2c-45.9-0.5-63.1-8.7-75.4-21.9c-10.5-11.4-12-22.1-12.3-24.9c1.7-2.8,4.3-4.8,7.4-5.8
					l99.2-33.1L1005.1,188.5L1005.1,188.5L1005.1,188.5z"/>
			</g>
			<path class="st30" d="M659.7,636.7c0,0,20.3,22.2,34.9,26.7c14.6,4.6,40,8.2,40,8.2"/>
			<path class="st30" d="M1454.3,637.7c0,0-18.1,27.2-32.6,31.8s-40.6,7.2-40.6,7.2"/>
			<g>
				<defs>
					<path id="SVGID_00000178169142943561170740000000475240915797393555_" d="M1449.5,625l5.8,13c0,0-18.1,27.2-32.7,31.8
						c-7.3,2.3-17.4,4.1-25.7,5.3s-14.8,1.9-14.8,1.9S1240,469.2,1233.6,466l-20.8-192.6c11.8-3.8,19.3-9.2,25.5-15.9
						c10.6-11.4,12.1-22.2,12.3-25c0.4,0.6,0.8,1.3,1.2,2L1449.5,625L1449.5,625z"/>
				</defs>
				<clipPath id="SVGID_00000050623298578428672710000009037912830070572715_">
					<use xlink:href="#SVGID_00000178169142943561170740000000475240915797393555_"  style="overflow:visible;"/>
				</clipPath>
				<g style="clip-path:url(#SVGID_00000050623298578428672710000009037912830070572715_);">
					
						<rect x="1329.9" y="676.3" transform="matrix(0.9065 -0.4222 0.4222 0.9065 -155.9887 659.6292)" class="st32" width="162.8" height="11.4"/>
					<line class="st33" x1="1480.5" y1="644" x2="1370.5" y2="696.4"/>
				</g>
			</g>
			<g>
				<defs>
					<path id="SVGID_00000054952626172268760030000003236889102048663717_" d="M1449.9,624.9l-197.8-390.5c-2-3.9-5.2-6.9-9.2-8.6
						l-31.8-13.8c0,0-57.9-21.4-68.2-20.4l0,0l-24.5-3.5l0,0.2c-0.5-0.7-1-1.4-1.6-2h-9.4c0,0,0,0,0,0c0,0,0-0.1,0-0.1
						s-0.1,0.1-0.4,0.2c0,0-0.1,0-0.1,0.1c0,0,0,0,0,0c-1.6,0.8-6.5,2.9-13.9,5.1c0,0,0,0,0,0c-9,2.6-21.7,5.3-36.7,5.3
						s-27.2-2.6-35.8-5.3c0,0,0,0,0,0c-6.5-2-10.9-4-12.6-4.9c-0.6-0.3-0.9-0.5-0.9-0.5s0,0,0,0h-9.3c-0.6,0.6-1.1,1.3-1.6,2.1
						l0-0.3l-24.5,3.5l0,0l-102.8,35c-3.5,1.2-6.4,3.7-8,7L661.1,636.8c0,0,20.3,22.2,34.9,26.7c14.6,4.6,40,8.2,40,8.2l146.7-207.3
						l-14.4,279.1h1c0,0,113.2,17.8,142.6,20.5c29.4,2.7,80.7,2.1,97.8,0c17.1-2.1,139.2-20.5,139.2-20.5h-1
						c0,0-14.4-270.9-14.4-277.6s148.8,210.9,148.8,210.9l0,0c0,0,26-2.7,40.6-7.2s32.6-31.8,32.6-31.8L1449.9,624.9L1449.9,624.9z"
						/>
				</defs>
				<clipPath id="SVGID_00000035511489177829033160000010311837049177363886_">
					<use xlink:href="#SVGID_00000054952626172268760030000003236889102048663717_"  style="overflow:visible;"/>
				</clipPath>
				<g style="clip-path:url(#SVGID_00000035511489177829033160000010311837049177363886_);">
					<g class="st10">
						<path class="st11" d="M847.7,260.6L693.8,664l-35.6-23.7C658.2,640.3,810.1,272.9,847.7,260.6L847.7,260.6z"/>
						<path class="st11" d="M1264.3,260.6l165.4,425.4l35.6-23.7C1465.4,662.2,1302,272.9,1264.3,260.6L1264.3,260.6z"/>
						<path class="st11" d="M909.8,273.2L909.8,273.2c-36.3,157,16.2,324.1-20.2,481.2c-22.4-2.5-44.9-5.1-67.3-7.6
							C881.1,592.3,851,427.7,909.8,273.2L909.8,273.2z"/>
						<path class="st11" d="M1210,272.2L1210,272.2c35.9,157.1-17,324.1,18.9,481.2c22.4-2.5,44.9-4.9,67.3-7.4
							C1237.9,591.3,1268.4,426.8,1210,272.2L1210,272.2z"/>
					</g>
				</g>
			</g>
		</g>
		<g>
			<g>
				<defs>
					<path id="SVGID_00000124162431068510019130000013998943098153158314_" d="M246.5,779v576.6h426.3V779H246.5z M602,1239.8
						c-5,9.6-42.4,15.1-42.4,15.1c-49.3,7.8-89.9-12.3-89.9-12.3v40.6c-49.7,64.3-166.1,10.4-166.1,10.4
						c-5.5-141.3,12.7-299.3,12.7-299.3l7.3-38.7l1.2-5.4c-5-24.2,7.8-60.2,7.8-60.2c4.3,8.2,3.6,7.3,13.2,13.9
						c9.6,6.6,53.1,18.2,60,21.4c6.8,3.2,10.5,11.6,15.5,17.8c5,6.2,78.4,5.5,78.4,5.5s10.3,0.2,10.5-0.2c0.2-0.5,1.6-3.6,1.6-3.6
						l45.2-10.9c0,0,3.2-0.9,5,2.7c1.8,3.6,24.2-18.7,24.2-18.7c2.7,9.6,3.2,27.8,4.1,36c0.9,8.2-3.2,12.3-3.2,15.1
						s1.8,13.2,7.3,28.3s12.8,96.7,12.8,120.4S602,1239.8,602,1239.8L602,1239.8z"/>
				</defs>
				<clipPath id="SVGID_00000129921943741333255140000012063763003146115463_">
					<use xlink:href="#SVGID_00000124162431068510019130000013998943098153158314_"  style="overflow:visible;"/>
				</clipPath>
				<g style="clip-path:url(#SVGID_00000129921943741333255140000012063763003146115463_);">
					<path class="st36" d="M333.9,843.5c0,0,18.7-2.7,22,0c0,0,0-17.8,2.3-24.6s11.2-16.4,25.3-17.8s38.3-0.5,42.1,2.3
						c3.7,2.7,15,22.8,15,31.9l36.9-5.9c0,0,39.1-2.7,51.8-2.7s36.6,3.6,39.4,6.8s3.3-3.2,7.5,18.2c4.2,21.4,11.3,66.3,9.8,72.1
						c-1.5,5.8,0,33.1-31.8,34.8C522.4,960.3,319.2,911.5,333.9,843.5L333.9,843.5z"/>
					<path class="st37" d="M479.7,916.1c0,0,8.6,15.8,15.1,21.3s13,7.9,14,4.5s5.8-4.5,5.8-4.5s44.8-10.2,48.6-10.6
						s5.8-13.5,3.8-15.3c-2.1-1.8-10.6-17.2-37.6-13.1S481.4,905.7,479.7,916.1L479.7,916.1z"/>
					<path class="st36" d="M496.7,954.6c0,0-37.4-64.6-71.5-77.8s-63.1-14.6-73-18.7c-9.8-4.1-16.4,0-17.3-7.3l-0.9-7.3h-3.3
						c0,0-1.1,10.6,0,20.1c0.3,2.7,3.2,4.4,3.2,4.4s-1.9,22.6-1.2,28c0.7,5.7,44.3,51.5,44.3,51.5l79.1,31.9L496.7,954.6
						L496.7,954.6z"/>
					<path class="st37" d="M415.1,803.8c0,0-35.4-6.8-43.8,5.5c-8.4,12.3-11.6,21.5-6.3,34.2c5.3,12.7,12.6,17.8,17.5,17.8
						s39.3,0.3,43.5-5.1s6.7-8.2,4.6-21.2C428.4,822,429.1,812.1,415.1,803.8L415.1,803.8z"/>
					<path class="st37" d="M576.2,855.5c0,0-6.1,37.6-10.3,38.3s-51.1,0.3-69.2-8.6c-18.1-8.9-25.8-18.8-31.5-23.9
						c-5.6-5.1-9.8-7.5-7-14.4c2.8-6.8,9.8-15.9,42.8-15.3S577,823,576.2,855.5L576.2,855.5z"/>
					<path class="st38" d="M425.6,806.9c0,0,13.7,31.8,13,48.6s-1.4,22.4,3.9,24s36.1,7.3,40,16.4"/>
					<path class="st38" d="M442.4,858.2c0,0,32.9-12.3,62.7-10.9c29.9,1.4,53.8,5.1,58.9,8.9c5,3.8,14.6,8.9,14.6,8.9"/>
					<path class="st38" d="M558.5,909.8c-29.3-16.7-73.7,6.3-73.7,6.3"/>
					<path class="st37" d="M337,858.7c0,0,78.8,15,92,25.6s46.5,46.8,50.7,53.3c4.2,6.5,5.7,11.6-11.5,8.6
						c-11.6-2-25.3-3.5-33.1-4.3c-3.9-0.4-7.5-2.3-10-5.3c-2.1-2.5-4.8-5.8-7.9-9.5c-6.8-8.1-4.7-4.7-19.8-9.1s-42.7-9.4-52.6-19.2
						C334.9,888.8,335.3,863.5,337,858.7L337,858.7z"/>
					<path class="st39" d="M576.2,851.7c0,0-2.9,41.6-10.7,49.8c-7.8,8.2-17.8,41.6-0.6,34.9"/>
				</g>
			</g>
			<g>
				<defs>
					<path id="SVGID_00000178903489240169840800000004553773538369434529_" d="M332.4,890c0,0-12.8,36-7.8,60.2l-1.2,5.4l-7.3,38.7
						c0,0-18.1,158-12.7,299.3c0,0,116.4,53.9,166.1-10.4v-40.6c0,0,40.6,20.1,89.8,12.3c0,0,37.4-5.5,42.4-15.1c0,0,5-98.5,5-122.2
						s-7.3-105.4-12.8-120.4c-5.5-15.1-7.3-25.5-7.3-28.3s4.1-6.8,3.2-15.1s-1.4-26.5-4.1-36c0,0-22.3,22.3-24.2,18.7s-5-2.7-5-2.7
						l-45.2,10.9c0,0-1.4,3.2-1.6,3.6s-10.5,0.2-10.5,0.2s-73.4,0.7-78.4-5.5c-5-6.2-8.7-14.6-15.5-17.8c-6.8-3.2-50.4-14.8-60-21.4
						S336.8,898.2,332.4,890L332.4,890z"/>
				</defs>
				<clipPath id="SVGID_00000031916655415357539600000001875197285200830891_">
					<use xlink:href="#SVGID_00000178903489240169840800000004553773538369434529_"  style="overflow:visible;"/>
				</clipPath>
				<g style="clip-path:url(#SVGID_00000031916655415357539600000001875197285200830891_);">
					<g class="st41">
						<path class="st20" d="M332.4,890c0,0-12.8,36-7.8,60.2l-1.2,5.4l-7.3,38.7c0,0-18.1,158-12.7,299.3c0,0,116.4,53.9,166.1-10.4
							v-40.6c0,0,40.6,20.1,89.8,12.3c0,0,37.4-5.5,42.4-15.1c0,0,5-98.5,5-122.2s-7.3-105.4-12.8-120.4
							c-5.5-15.1-7.3-25.5-7.3-28.3s4.1-6.8,3.2-15.1s-1.4-26.5-4.1-36c0,0-22.3,22.3-24.2,18.7s-5-2.7-5-2.7l-45.2,10.9
							c0,0-1.4,3.2-1.6,3.6s-10.5,0.2-10.5,0.2s-73.4,0.7-78.4-5.5c-5-6.2-8.7-14.6-15.5-17.8c-6.8-3.2-50.4-14.8-60-21.4
							S336.8,898.2,332.4,890L332.4,890z"/>
						<path class="st18" d="M498,1108.4l-43.2,63.9l4.9,134.1l47.4-42.4v-117.2l31.5-29.2l11.9-58.8c0,0-25.1,54.3-28.7,54.7
							C518,1113.9,512.1,1116.6,498,1108.4L498,1108.4z"/>
						<path class="st18" d="M324.7,950.2c0,0,4.6,9.1,19.6,14.1c15.1,5,43.8,16.9,100.8,21.4l45.2,1.8l1.8,12.2l-49.7-1.8
							c-57-4.6-85.7-16.4-100.8-21.4c-15.1-5-19.6-14.1-19.6-14.1"/>
						<path class="st42" d="M490.2,1120c0,0-25.5-60.3-26.4-70.8S451,991.7,451,991.7s-93.5-6.8-122.7-29.2l-4.8-7"/>
						<path class="st42" d="M328.8,902.2c0,0,33.8,19.3,56.6,23.8s21,13.2,25.1,17.8s7.8,7.8,29.2,9.6s47.4,4.1,47.4,4.1"/>
						<polyline class="st42" points="520.3,1033.2 516.2,950.2 553.2,941.5 						"/>
						<path class="st42" d="M560,941.5c0,0,20.4-4.1,23.7-11.7"/>
						<path class="st42" d="M303.3,1286.8c0,0,30,15.7,77.9,19.6c0,0,43.3,0,57-5.5c13.7-5.5,25.5-16,27.8-18.2"/>
						<polyline class="st42" points="502.6,1138.3 497.1,1158.6 497.1,1251.8 						"/>
						<path class="st42" d="M497.1,1243.4c0,0,45.2,5.9,62,4.1c16.9-1.8,40.5-12.6,43.3-15.4"/>
						<polyline class="st42" points="586.5,989.4 567.3,1065.1 479.3,1156.3 						"/>
						<g>
							<polyline class="st20" points="490.2,950.2 490.2,987.6 496.8,1036.2 502.6,1069.1 498,1108.4 467.4,1185 467.4,1303.2 
															"/>
							<polyline class="st20" points="454.8,986.1 468.1,1044.5 479.7,1084.1 492.1,1114.9 							"/>
							<path class="st20" d="M556.8,933.7l5,41.2l-7.2,52.7l-4.2,31c0,0-7.9,6.6-47.8,10.4"/>
							<polyline class="st20" points="496.8,1036.2 516.2,1036.2 554.7,1027.7 							"/>
							<polyline class="st20" points="585.1,975 563.9,1061.9 482.6,1148.2 							"/>
						</g>
						<path class="st42" d="M501.9,1065.3c0,0,28.4,0.5,48.5-10.9"/>
						<path class="st18" d="M586,917.8c0,0-0.5,17.8,0,30.1c0.5,12.3,2.5,14.7-4.8,19.1s-19.3,8-19.3,8l-1.7,12.4
							c0,0,16.9-5.9,20.7-8c3.7-2.1,7-3.8,6.6-6c-0.3-2.2,2.7-15.2,2.8-16.2S586,917.8,586,917.8L586,917.8z"/>
						<path class="st18" d="M557.2,936.9c0,0-43.9,9.7-43.9,11.4s3,87.9,3,87.9h-3l-3.2-87.9l1.6-3.6l45.2-10.9L557.2,936.9
							L557.2,936.9z"/>
					</g>
				</g>
			</g>
		</g>
		<g>
			<g>
				<defs>
					<path id="SVGID_00000037652363305869791470000006324926698823830668_" d="M13.5,154.6v722.6h867.9V154.6H13.5z M841,639.4
						c-3.8,5.5-19.6,27.5-33,31.7c-6.1,1.9-14.9,3.7-26,5.4c-7.9,1.2-14.2,1.8-14.9,1.9l-0.9,0.1l-0.5-0.7
						c-56.7-82.9-142.9-207.3-148-210.5l-0.7-0.4l-21-194.7l1.2-0.4c10.3-3.3,18-8.1,24.9-15.5c10.1-11,11.6-21.2,11.9-24.1l0.3-4.3
						l2.4,3.6c0.5,0.7,0.9,1.4,1.3,2.2l197.8,390.5l6.8,15.1H841L841,639.4z"/>
				</defs>
				<clipPath id="SVGID_00000055704499673561662740000013704824812740313248_">
					<use xlink:href="#SVGID_00000037652363305869791470000006324926698823830668_"  style="overflow:visible;"/>
				</clipPath>
				<g style="clip-path:url(#SVGID_00000055704499673561662740000013704824812740313248_);">
					<g>
						<path class="st44" d="M508.2,279.3h1.6h37.5c45.9-0.5,63.1-8.7,75.4-21.9c12.3-13.2,12.3-25.6,12.3-25.6"/>
						<path class="st44" d="M245.2,231.7c0,0,0,12.4,12.3,25.6c12.3,13.2,29.5,21.4,75.4,21.9h39.9"/>
						<g>
							<g>
								<path class="st26" d="M51.2,626.9c0.3,0,0.7,0.1,1,0.1"/>
								<path class="st27" d="M54.3,627.3c29.2,3.4,53.9,15.6,71.6,31.7"/>
								<path class="st26" d="M126.7,659.7c0.3,0.2,0.5,0.5,0.8,0.7"/>
							</g>
							<path class="st26" d="M52.8,621.8c32.1,3.4,58.9,17,77.4,35"/>
							<g>
								<path class="st26" d="M835.6,632.7c-0.3,0-0.7,0.1-1,0.1"/>
								<path class="st27" d="M832.5,633c-29.2,3.4-53.9,15.6-71.6,31.7"/>
								<path class="st26" d="M760,665.5c-0.3,0.2-0.5,0.5-0.8,0.7"/>
							</g>
							<path class="st26" d="M834,627.5c-32.1,3.4-58.9,17-77.4,35"/>
							<line class="st28" x1="252.5" y1="733.1" x2="632.2" y2="733.1"/>
							<line class="st26" x1="252.5" y1="724.7" x2="632.2" y2="724.7"/>
						</g>
						<line class="st29" x1="266.7" y1="464.4" x2="292.5" y2="275.7"/>
						<line class="st29" x1="618.3" y1="469.5" x2="597.1" y2="273.2"/>
						<line class="st13" x1="45" y1="636.8" x2="119.9" y2="671.7"/>
						<line class="st20" x1="766.4" y1="676.9" x2="839.6" y2="637.9"/>
						<g>
							<path class="st13" d="M490.7,186.5c0.1,0,0.1,0,0.1-0.1C490.8,186.5,490.8,186.5,490.7,186.5z"/>
							<path class="st13" d="M476.8,191.6c7.4-2.2,12.3-4.3,13.9-5.1C489.1,187.3,484.2,189.5,476.8,191.6z"/>
							<path class="st13" d="M833.8,624.9L636.1,234.4c-2-3.9-5.2-6.9-9.2-8.6L595.1,212c0,0-57.9-21.4-68.2-20.4l0,0l-24.5-3.5
								l0,0.2c-0.5-0.7-1-1.4-1.6-2h-9.4c0,0,0,0,0,0c0,0,0-0.1,0-0.1s-0.1,0.1-0.4,0.2c0,0-0.1,0-0.1,0.1c0,0,0,0,0,0
								c-1.6,0.8-6.5,2.9-13.9,5.1c0,0,0,0,0,0c-9,2.6-21.7,5.3-36.7,5.3s-27.2-2.6-35.8-5.3c0,0,0,0,0,0c-6.5-2-10.9-4-12.6-4.9
								c-0.6-0.3-0.9-0.5-0.9-0.5s0,0,0,0h-9.3c-0.6,0.6-1.1,1.3-1.6,2.1l0-0.3l-24.5,3.5l0,0l-102.8,35c-3.5,1.2-6.4,3.7-8,7
								L45,636.8c0,0,20.3,22.2,34.9,26.7c14.6,4.6,40,8.2,40,8.2l146.7-207.3l-14.4,279.1h1c0,0,113.2,17.8,142.6,20.5
								c29.4,2.7,80.7,2.1,97.8,0C510.9,762,633,743.6,633,743.6h-1c0,0-14.4-270.9-14.4-277.6s148.8,210.9,148.8,210.9l0,0
								c0,0,26-2.7,40.6-7.2s32.6-31.8,32.6-31.8L833.8,624.9L833.8,624.9z"/>
						</g>
						<path class="st30" d="M252.6,743.4c0,0,113.2,17.8,142.6,20.5c29.4,2.7,80.7,2.1,97.8,0c17.1-2.1,139.2-20.5,139.2-20.5"/>
						<path class="st30" d="M44.3,636.7c0,0,20.3,22.2,34.9,26.7c14.6,4.6,40,8.2,40,8.2"/>
						<path class="st30" d="M838.9,637.7c0,0-18.1,27.2-32.6,31.8c-14.6,4.6-40.6,7.2-40.6,7.2"/>
						<g>
							<defs>
								<path id="SVGID_00000078738850659071617880000011655198739647189379_" d="M833.8,624.9L636.1,234.4c-2-3.9-5.2-6.9-9.2-8.6
									L595.1,212c0,0-57.9-21.4-68.2-20.4l0,0l-24.5-3.5l0,0.2c-0.5-0.7-1-1.4-1.6-2h-9.4c0,0,0,0,0,0c0,0,0-0.1,0-0.1
									s-0.1,0.1-0.4,0.2c0,0-0.1,0-0.1,0.1c0,0,0,0,0,0c-1.6,0.8-6.5,2.9-13.9,5.1c0,0,0,0,0,0c-9,2.6-21.7,5.3-36.7,5.3
									s-27.2-2.6-35.8-5.3c0,0,0,0,0,0c-6.5-2-10.9-4-12.6-4.9c-0.6-0.3-0.9-0.5-0.9-0.5s0,0,0,0h-9.3c-0.6,0.6-1.1,1.3-1.6,2.1
									l0-0.3l-24.5,3.5l0,0l-102.8,35c-3.5,1.2-6.4,3.7-8,7L45,636.8c0,0,20.3,22.2,34.9,26.7c14.6,4.6,40,8.2,40,8.2l146.7-207.3
									l-14.4,279.1h1c0,0,113.2,17.8,142.6,20.5c29.4,2.7,80.7,2.1,97.8,0C510.9,762,633,743.6,633,743.6h-1
									c0,0-14.4-270.9-14.4-277.6s148.8,210.9,148.8,210.9l0,0c0,0,26-2.7,40.6-7.2s32.6-31.8,32.6-31.8L833.8,624.9L833.8,624.9z
									"/>
							</defs>
							<clipPath id="SVGID_00000106847994284976292480000004351183631882939300_">
								<use xlink:href="#SVGID_00000078738850659071617880000011655198739647189379_"  style="overflow:visible;"/>
							</clipPath>
							<g style="clip-path:url(#SVGID_00000106847994284976292480000004351183631882939300_);">
								<g>
									<path class="st5" d="M231.6,260.6L77.7,664l-35.6-23.7C42.1,640.3,194,272.9,231.6,260.6z"/>
									<path class="st5" d="M648.3,260.6L810,676.9l40.1-17.2C850.1,659.7,685.9,272.9,648.3,260.6L648.3,260.6z"/>
									<path class="st5" d="M293.7,273.2L293.7,273.2c-36.3,157,16.2,324.1-20.2,481.2c-22.4-2.5-44.9-5.1-67.3-7.6
										C265,592.3,234.9,427.7,293.7,273.2L293.7,273.2z"/>
									<path class="st5" d="M595.4,273.2L595.4,273.2c36.3,157-16.2,324.1,20.2,481.2c22.4-2.5,44.9-5.1,67.3-7.6
										C624.1,592.3,654.1,427.7,595.4,273.2L595.4,273.2z"/>
								</g>
							</g>
						</g>
					</g>
				</g>
			</g>
			<g>
				<g>
					<defs>
						<path id="SVGID_00000036960105782232418010000017304361681261908352_" d="M806.2,570.4l-57.4,80.7
							c10.5,15.4,17.2,25.1,17.2,25.1s6.5-0.7,14.8-1.9c8.3-1.2,18.4-3,25.7-5.3c14.6-4.6,32.6-31.8,32.7-31.8l-5.8-13L806.2,570.4
							L806.2,570.4z"/>
					</defs>
					<clipPath id="SVGID_00000113346565193281723750000014976568651431971753_">
						<use xlink:href="#SVGID_00000036960105782232418010000017304361681261908352_"  style="overflow:visible;"/>
					</clipPath>
					<g style="clip-path:url(#SVGID_00000113346565193281723750000014976568651431971753_);">
						<path class="st44" d="M507.9,278.6h1.6h37.5c45.9-0.5,63.1-8.7,75.4-21.9c12.3-13.2,12.3-25.6,12.3-25.6"/>
						<path class="st44" d="M244.8,231c0,0,0,12.4,12.3,25.6c12.3,13.2,29.5,21.4,75.4,21.9h39.9"/>
						<g>
							<g>
								<path class="st26" d="M50.8,626.2c0.3,0,0.7,0.1,1,0.1"/>
								<path class="st27" d="M54,626.6c29.2,3.4,53.9,15.6,71.6,31.7"/>
								<path class="st26" d="M126.4,659c0.3,0.2,0.5,0.5,0.8,0.7"/>
							</g>
							<path class="st26" d="M52.4,621.1c32.1,3.4,58.9,17,77.4,35"/>
							<g>
								<path class="st26" d="M835.3,632c-0.3,0-0.7,0.1-1,0.1"/>
								<path class="st27" d="M832.1,632.3c-29.2,3.4-53.9,15.6-71.6,31.7"/>
								<path class="st26" d="M759.7,664.8c-0.3,0.2-0.5,0.5-0.8,0.7"/>
							</g>
							<path class="st26" d="M833.6,626.8c-32.1,3.4-58.9,17-77.4,35"/>
							<line class="st28" x1="252.1" y1="732.4" x2="631.8" y2="732.4"/>
							<line class="st26" x1="252.1" y1="724" x2="631.8" y2="724"/>
						</g>
						<line class="st29" x1="266.3" y1="463.7" x2="292.1" y2="275"/>
						<line class="st29" x1="617.9" y1="468.8" x2="596.7" y2="272.5"/>
						<line class="st13" x1="44.7" y1="636.1" x2="119.6" y2="671"/>
						<line class="st20" x1="766.1" y1="676.2" x2="839.3" y2="637.2"/>
						<g>
							<path class="st13" d="M490.4,185.8c0.1,0,0.1,0,0.1-0.1C490.5,185.8,490.4,185.8,490.4,185.8z"/>
							<path class="st13" d="M476.5,190.9c7.4-2.2,12.3-4.3,13.9-5.1C488.7,186.6,483.9,188.8,476.5,190.9z"/>
							<path class="st13" d="M833.5,624.2L635.7,233.7c-2-3.9-5.2-6.9-9.2-8.6l-31.8-13.8c0,0-57.9-21.4-68.2-20.4l0,0l-24.5-3.5
								l0,0.2c-0.5-0.7-1-1.4-1.6-2H491c0,0,0,0,0,0c0,0,0-0.1,0-0.1s-0.1,0.1-0.4,0.2c0,0-0.1,0-0.1,0.1c0,0,0,0,0,0
								c-1.6,0.8-6.5,2.9-13.9,5.1c0,0,0,0,0,0c-9,2.6-21.7,5.3-36.7,5.3s-27.2-2.6-35.8-5.3c0,0,0,0,0,0c-6.5-2-10.9-4-12.6-4.9
								c-0.6-0.3-0.9-0.5-0.9-0.5s0,0,0,0h-9.3c-0.6,0.6-1.1,1.3-1.6,2.1l0-0.3l-24.5,3.5l0,0l-102.8,35c-3.5,1.2-6.4,3.7-8,7
								L44.7,636.1c0,0,20.3,22.2,34.9,26.7c14.6,4.6,40,8.2,40,8.2l146.7-207.3l-14.4,279.1h1c0,0,113.2,17.8,142.6,20.5
								c29.4,2.7,80.7,2.1,97.8,0c17.1-2.1,139.2-20.5,139.2-20.5h-1c0,0-14.4-270.9-14.4-277.6s148.8,210.9,148.8,210.9l0,0
								c0,0,26-2.7,40.6-7.2s32.6-31.8,32.6-31.8L833.5,624.2L833.5,624.2z"/>
						</g>
						<path class="st30" d="M252.3,742.7c0,0,113.2,17.8,142.6,20.5c29.4,2.7,80.7,2.1,97.8,0c17.1-2.1,139.2-20.5,139.2-20.5"/>
						<path class="st30" d="M44,636c0,0,20.3,22.2,34.9,26.7c14.6,4.6,40,8.2,40,8.2"/>
						<path class="st30" d="M838.6,637c0,0-18.1,27.2-32.6,31.8c-14.6,4.6-40.6,7.2-40.6,7.2"/>
						<g>
							<defs>
								<path id="SVGID_00000175283797376010646710000001560079876727759520_" d="M833.5,624.2L635.7,233.7c-2-3.9-5.2-6.9-9.2-8.6
									l-31.8-13.8c0,0-57.9-21.4-68.2-20.4l0,0l-24.5-3.5l0,0.2c-0.5-0.7-1-1.4-1.6-2H491c0,0,0,0,0,0c0,0,0-0.1,0-0.1
									s-0.1,0.1-0.4,0.2c0,0-0.1,0-0.1,0.1c0,0,0,0,0,0c-1.6,0.8-6.5,2.9-13.9,5.1c0,0,0,0,0,0c-9,2.6-21.7,5.3-36.7,5.3
									s-27.2-2.6-35.8-5.3c0,0,0,0,0,0c-6.5-2-10.9-4-12.6-4.9c-0.6-0.3-0.9-0.5-0.9-0.5s0,0,0,0h-9.3c-0.6,0.6-1.1,1.3-1.6,2.1
									l0-0.3l-24.5,3.5l0,0l-102.8,35c-3.5,1.2-6.4,3.7-8,7L44.7,636.1c0,0,20.3,22.2,34.9,26.7c14.6,4.6,40,8.2,40,8.2
									l146.7-207.3l-14.4,279.1h1c0,0,113.2,17.8,142.6,20.5c29.4,2.7,80.7,2.1,97.8,0c17.1-2.1,139.2-20.5,139.2-20.5h-1
									c0,0-14.4-270.9-14.4-277.6s148.8,210.9,148.8,210.9l0,0c0,0,26-2.7,40.6-7.2s32.6-31.8,32.6-31.8L833.5,624.2L833.5,624.2z
									"/>
							</defs>
							<clipPath id="SVGID_00000039104947437905328250000016446523675061139894_">
								<use xlink:href="#SVGID_00000175283797376010646710000001560079876727759520_"  style="overflow:visible;"/>
							</clipPath>
							<g style="clip-path:url(#SVGID_00000039104947437905328250000016446523675061139894_);">
								<g class="st10">
									<path class="st11" d="M231.3,259.9L77.4,663.3l-35.6-23.7C41.8,639.6,193.7,272.2,231.3,259.9z"/>
									<path class="st11" d="M647.9,259.9l161.7,416.4l40.1-17.2C849.7,659,685.6,272.2,647.9,259.9L647.9,259.9z"/>
									<path class="st11" d="M293.4,272.5L293.4,272.5c-36.3,157,16.2,324.1-20.2,481.2c-22.4-2.5-44.9-5.1-67.3-7.6
										C264.7,591.6,234.6,427,293.4,272.5L293.4,272.5z"/>
									<path class="st11" d="M595,272.5L595,272.5c36.3,157-16.2,324.1,20.2,481.2c22.4-2.5,44.9-5.1,67.3-7.6
										C623.7,591.6,653.8,427,595,272.5L595,272.5z"/>
								</g>
							</g>
						</g>
					</g>
				</g>
				<g>
					<defs>
						<path id="SVGID_00000049901847774109121690000012211196838336550272_" d="M748.6,456.8l-113-223c-0.3-0.7-0.7-1.4-1.2-2
							c-0.2,2.7-1.7,13.6-12.3,25c-6.2,6.7-13.7,12.1-25.5,15.9l20.8,192.6c3.2,1.6,39.3,52.8,75.1,104.4L748.6,456.8L748.6,456.8z"
							/>
					</defs>
					<clipPath id="SVGID_00000151532938975902977380000012333884283491519150_">
						<use xlink:href="#SVGID_00000049901847774109121690000012211196838336550272_"  style="overflow:visible;"/>
					</clipPath>
					<g style="clip-path:url(#SVGID_00000151532938975902977380000012333884283491519150_);">
						<path class="st44" d="M507.9,278.6h1.6h37.5c45.9-0.5,63.1-8.7,75.4-21.9c12.3-13.2,12.3-25.6,12.3-25.6"/>
						<path class="st44" d="M244.8,231c0,0,0,12.4,12.3,25.6c12.3,13.2,29.5,21.4,75.4,21.9h39.9"/>
						<g>
							<g>
								<path class="st26" d="M50.8,626.2c0.3,0,0.7,0.1,1,0.1"/>
								<path class="st27" d="M54,626.6c29.2,3.4,53.9,15.6,71.6,31.7"/>
								<path class="st26" d="M126.4,659c0.3,0.2,0.5,0.5,0.8,0.7"/>
							</g>
							<path class="st26" d="M52.4,621.1c32.1,3.4,58.9,17,77.4,35"/>
							<g>
								<path class="st26" d="M835.3,632c-0.3,0-0.7,0.1-1,0.1"/>
								<path class="st27" d="M832.1,632.3c-29.2,3.4-53.9,15.6-71.6,31.7"/>
								<path class="st26" d="M759.7,664.8c-0.3,0.2-0.5,0.5-0.8,0.7"/>
							</g>
							<path class="st26" d="M833.6,626.8c-32.1,3.4-58.9,17-77.4,35"/>
							<line class="st28" x1="252.1" y1="732.4" x2="631.8" y2="732.4"/>
							<line class="st26" x1="252.1" y1="724" x2="631.8" y2="724"/>
						</g>
						<line class="st29" x1="266.3" y1="463.7" x2="292.1" y2="275"/>
						<line class="st29" x1="617.9" y1="468.8" x2="596.7" y2="272.5"/>
						<line class="st13" x1="44.7" y1="636.1" x2="119.6" y2="671"/>
						<line class="st20" x1="766.1" y1="676.2" x2="839.3" y2="637.2"/>
						<g>
							<path class="st13" d="M490.4,185.8c0.1,0,0.1,0,0.1-0.1C490.5,185.8,490.4,185.8,490.4,185.8z"/>
							<path class="st13" d="M476.5,190.9c7.4-2.2,12.3-4.3,13.9-5.1C488.7,186.6,483.9,188.8,476.5,190.9z"/>
							<path class="st13" d="M833.5,624.2L635.7,233.7c-2-3.9-5.2-6.9-9.2-8.6l-31.8-13.8c0,0-57.9-21.4-68.2-20.4l0,0l-24.5-3.5
								l0,0.2c-0.5-0.7-1-1.4-1.6-2H491c0,0,0,0,0,0c0,0,0-0.1,0-0.1s-0.1,0.1-0.4,0.2c0,0-0.1,0-0.1,0.1c0,0,0,0,0,0
								c-1.6,0.8-6.5,2.9-13.9,5.1c0,0,0,0,0,0c-9,2.6-21.7,5.3-36.7,5.3s-27.2-2.6-35.8-5.3c0,0,0,0,0,0c-6.5-2-10.9-4-12.6-4.9
								c-0.6-0.3-0.9-0.5-0.9-0.5s0,0,0,0h-9.3c-0.6,0.6-1.1,1.3-1.6,2.1l0-0.3l-24.5,3.5l0,0l-102.8,35c-3.5,1.2-6.4,3.7-8,7
								L44.7,636.1c0,0,20.3,22.2,34.9,26.7c14.6,4.6,40,8.2,40,8.2l146.7-207.3l-14.4,279.1h1c0,0,113.2,17.8,142.6,20.5
								c29.4,2.7,80.7,2.1,97.8,0c17.1-2.1,139.2-20.5,139.2-20.5h-1c0,0-14.4-270.9-14.4-277.6s148.8,210.9,148.8,210.9l0,0
								c0,0,26-2.7,40.6-7.2s32.6-31.8,32.6-31.8L833.5,624.2L833.5,624.2z"/>
						</g>
						<path class="st30" d="M252.3,742.7c0,0,113.2,17.8,142.6,20.5c29.4,2.7,80.7,2.1,97.8,0c17.1-2.1,139.2-20.5,139.2-20.5"/>
						<path class="st30" d="M44,636c0,0,20.3,22.2,34.9,26.7c14.6,4.6,40,8.2,40,8.2"/>
						<path class="st30" d="M838.6,637c0,0-18.1,27.2-32.6,31.8c-14.6,4.6-40.6,7.2-40.6,7.2"/>
						<path class="st49" d="M806.2,570.4l-57.4,80.7c10.5,15.4,17.2,25.1,17.2,25.1s6.5-0.7,14.8-1.9c8.3-1.2,18.4-3,25.7-5.3
							c14.6-4.6,32.6-31.8,32.7-31.8l-5.8-13L806.2,570.4L806.2,570.4z"/>
					</g>
				</g>
			</g>
		</g>
	</g>
	<path class="st50" d="M499.9,206.4c0.5,3,0.7,6.5,0.7,10.4c0,22.1-9,47.4-39,64l-0.2-0.5h-40.2l-0.1,0.1
		c-29.6-16.6-38.4-41.7-38.4-63.7c0-3.7,0.2-7,0.7-10c2.9,1.5,22.5,10.6,57.6,10.6C476.6,217.4,497.6,207.5,499.9,206.4L499.9,206.4
		z"/>
	<g>
		<g>
			<g>
				<path d="M459.4,304.9l0.1-0.1c0.3-0.3,0.5-0.7,0.5-1.2l0-2.6c0-0.5-0.2-0.9-0.5-1.2l-1.7-1.5c-0.3-0.2-0.6-0.4-1-0.4l-1.1,0
					c0.3-1.3,0.9-2.4,1.4-3.3l0.1-0.2c0.3-0.5,0.3-1.1,0-1.6c-0.3-0.5-0.8-0.8-1.4-0.7c-0.4,0-1.7-0.5-2.3-1.3
					c-0.4-0.5-0.7-1.3-0.7-2.4c0-0.7-0.5-1.2-1.1-1.4c-0.6-0.2-1.3,0-1.7,0.5c-0.5,0.6-2.1,1.6-3.1,1.6c-1.8,0-3.6-0.7-4.6-1.9
					c-0.3-0.3-0.7-0.5-1.1-0.5s-0.9,0.2-1.1,0.5c-1,1.1-2.8,1.8-4.6,1.8c-1,0-2.6-1-3.1-1.7c-0.4-0.5-1.1-0.8-1.7-0.6
					c-0.6,0.2-1.1,0.7-1.1,1.4c-0.1,1-0.3,1.8-0.8,2.3c-0.7,0.8-2,1.3-2.4,1.3c-0.6,0-1.1,0.2-1.4,0.7c-0.3,0.5-0.3,1.1-0.1,1.6
					l0.1,0.2c0.5,0.9,1.1,2,1.3,3.3l-0.8,0c-0.4,0-0.7,0.1-1,0.4l-1.9,1.6c-0.4,0.3-0.6,0.7-0.6,1.2l-0.1,5.5c0,0.5,0.2,0.9,0.5,1.2
					l2,1.7c0.1,0.1,0.3,0.2,0.4,0.2c0.5,3.1,2.2,5.6,5.2,7.2c2.4,1.4,5.2,1.9,7.1,2.4c0.8,0.2,1.5,0.3,2,0.5c0.1,0,0.3,0.2,0.4,0.3
					c0.3,0.4,0.7,0.6,1.2,0.6l0,0c0.5,0,0.9-0.2,1.2-0.6c0.1-0.1,0.3-0.2,0.4-0.3c0.5-0.1,1.2-0.3,2-0.4c2-0.4,4.7-0.9,7.2-2.2
					c2.9-1.6,4.7-3.9,5.3-7l1.8,0c0.9,0,1.6-0.7,1.6-1.5l0-2C460.4,305.7,460,305.1,459.4,304.9z"/>
				<g>
					<g>
						<g>
							<g>
								<g>
									<g>
										<path id="SVGID_00000152967607851902967410000012005988825395690908_" class="st51" d="M428.5,294.2c1-0.4,2-1,2.7-1.9
											c0.4-0.5,0.7-1,0.9-1.6c1.1,0.7,2.4,1.2,3.5,1.2c2.1,0,4.2-0.6,5.8-1.8c1.5,1.2,3.6,1.9,5.7,1.9c1.1,0,2.4-0.5,3.5-1.1
											c0.2,0.6,0.5,1.2,0.9,1.6c0.7,0.9,1.7,1.6,2.7,2c-0.6,1.1-1.1,2.5-1.2,4.2l1.3,0c0.2-2.2,1.2-3.9,1.9-5.1c0,0,0,0-0.1,0
											c-0.8,0-2.6-0.7-3.5-1.9c-0.6-0.8-1-1.8-1-3.2c-0.8,1-2.8,2.3-4.4,2.2c-2.1,0-4.3-0.8-5.7-2.4c-1.4,1.5-3.7,2.3-5.8,2.3
											c-1.6,0-3.6-1.3-4.3-2.3c-0.1,1.4-0.5,2.5-1.1,3.2c-1,1.2-2.8,1.9-3.6,1.8c0,0,0,0-0.1,0c0.7,1.2,1.6,2.9,1.8,5.1l1.3,0
											C429.5,296.8,429,295.4,428.5,294.2z"/>
									</g>
								</g>
							</g>
						</g>
						<g>
							<g>
								<g>
									<g>
										<path id="SVGID_00000080167701970833894260000011914545518538120836_" class="st51" d="M450.6,314.4
											c-2.1,1.1-4.5,1.6-6.4,1.9c-0.9,0.2-1.7,0.3-2.3,0.5c-0.3,0.1-0.5,0.2-0.8,0.3c-0.2-0.1-0.5-0.3-0.7-0.4
											c-0.6-0.2-1.4-0.4-2.3-0.6c-1.9-0.4-4.3-0.9-6.3-2c-2.2-1.3-3.5-3-3.8-5.4l-1.3,0c0.4,3.3,2.2,5.3,4.5,6.6
											c3.2,1.8,7.1,2.1,8.8,2.7c0.6,0.2,1.1,0.7,1.1,0.8c0.1-0.1,0.6-0.6,1.2-0.8c1.8-0.6,5.6-0.8,8.9-2.5
											c2.3-1.2,4.1-3.2,4.6-6.5l-1.3,0C454.1,311.5,452.8,313.2,450.6,314.4z"/>
									</g>
								</g>
							</g>
						</g>
					</g>
				</g>
			</g>
		</g>
		<g>
			<g>
				<g>
					<g>
						<path class="st51" d="M428.8,302.3l-0.2-0.9l-1.8,0l-0.4,0.3l0,3.9l0.4,0.3l1.4,0l0.4-0.3l0-1.2l-1.2,0l0-1.5l3.7,0l-0.1,5.2
							l-1.9,0l-0.2-0.7l-0.8,0.7l-2.3,0l-2-1.7l0.1-5.5l1.9-1.6l3.7,0l1.7,1.5l0,1.7L428.8,302.3z"/>
					</g>
				</g>
				<g>
					<g>
						<path class="st51" d="M438,302.4l-0.2-0.9l-2.1,0l0,1.4l2.1,0l0,1.5l-2.1,0l0,1.5l2.1,0l0.3-0.9l1.8,0l0,3.1l-7.7-0.1l0-1.9
							l0.9-0.2l0-4.5l-0.9-0.3l0-1.9l7.6,0.1l0,3.1L438,302.4z"/>
					</g>
				</g>
				<g>
					<g>
						<path class="st51" d="M449.7,306.4l0,1.9l-4.4,0l0-1.9l0.7-0.2l-0.2-0.8l-1.9,0l-0.2,0.8l0.6,0.3l0,1.9l-3.7,0l0-1.9l1-0.2
							l1.3-4.5l-0.8-0.3l0-1.9l5,0.1l1.6,6.7L449.7,306.4z M444.3,303.8l1.1,0l-0.5-2L444.3,303.8z"/>
					</g>
				</g>
				<g>
					<g>
						<path class="st51" d="M450.5,308.3l0-1.9l0.9-0.2l0-4.5l-0.9-0.3l0-1.9l6.4,0.1l1.7,1.5l0,2.6l-1.2,1l0.9,1.5l0.7,0.1l0,2
							l-2.4,0l-1.9-3.5l-0.6,0l0,1.3l0.9,0.3l0,1.9L450.5,308.3z M454,303.1l1.8,0l0.3-0.3l0-0.9l-0.3-0.3l-1.8,0L454,303.1z"/>
					</g>
				</g>
			</g>
			<g>
				<g>
					<g>
						<path class="st51" d="M432.1,297.5c-0.2,0-0.3,0-0.4,0s-0.2-0.1-0.3-0.1s-0.1-0.2-0.1-0.3c0-0.1,0-0.3,0-0.4l0-1
							c0-0.2,0-0.3,0-0.4c0-0.1,0.1-0.2,0.1-0.3c0.1-0.1,0.2-0.1,0.3-0.1c0.1,0,0.2,0,0.4,0l1.6,0c0.1,0,0.2,0,0.3,0
							c0.1,0,0.1,0.1,0.2,0.1c0.1,0,0.1,0.1,0.1,0.1c0,0,0.1,0.1,0.1,0.1l-0.4,0.4c0-0.1-0.1-0.1-0.1-0.1c-0.1,0-0.1-0.1-0.2-0.1
							l-1.5,0c-0.1,0-0.2,0-0.3,0.1s-0.1,0.1-0.1,0.3l0,1c0,0.1,0,0.1,0,0.2c0,0,0,0.1,0,0.1c0,0,0.1,0.1,0.1,0.1c0,0,0.1,0,0.2,0
							l1.5,0c0.1,0,0.2,0,0.2-0.1c0.1,0,0.1-0.1,0.1-0.1l0.3,0.4c0,0,0,0.1-0.1,0.1c0,0-0.1,0.1-0.1,0.1c-0.1,0-0.1,0.1-0.2,0.1
							s-0.2,0-0.3,0L432.1,297.5z"/>
					</g>
				</g>
				<g>
					<g>
						<path class="st51" d="M435.6,297.6c-0.2,0-0.3,0-0.4-0.1c-0.1,0-0.2-0.1-0.3-0.2s-0.1-0.2-0.1-0.3c0-0.1,0-0.2,0-0.4l0-1.9
							l0.5,0l0,1.9c0,0.1,0,0.2,0.1,0.3c0,0.1,0.1,0.1,0.2,0.1l1.4,0c0.1,0,0.2,0,0.2-0.1s0.1-0.1,0.1-0.3l0-1.9l0.5,0l0,1.9
							c0,0.2,0,0.3,0,0.4s-0.1,0.2-0.1,0.3c-0.1,0.1-0.2,0.1-0.3,0.2s-0.2,0-0.4,0L435.6,297.6z"/>
					</g>
				</g>
				<g>
					<g>
						<path class="st51" d="M441.1,296.8c0,0.1,0,0.3-0.1,0.4c0,0.1-0.1,0.2-0.2,0.2c-0.1,0.1-0.2,0.1-0.3,0.1c-0.1,0-0.3,0-0.4,0
							l-2,0c0-0.1,0-0.2,0-0.3c0-0.1,0-0.2,0-0.3l1.9,0c0.1,0,0.1,0,0.2,0s0.1,0,0.1,0c0,0,0-0.1,0.1-0.1s0-0.1,0-0.1
							c0-0.1,0-0.2-0.1-0.2c-0.1,0-0.1-0.1-0.3-0.1l-1.1,0c-0.2,0-0.3,0-0.4,0s-0.2-0.1-0.3-0.1c-0.1-0.1-0.1-0.1-0.1-0.2
							s0-0.2,0-0.3l0-0.1c0-0.1,0-0.3,0-0.4c0-0.1,0.1-0.2,0.2-0.2s0.2-0.1,0.3-0.1c0.1,0,0.3,0,0.4,0l1.9,0c0,0.1,0,0.2,0,0.3
							c0,0.1,0,0.2,0,0.3l-1.9,0c-0.1,0-0.2,0-0.3,0.1c0,0-0.1,0.1-0.1,0.2c0,0.1,0,0.2,0.1,0.2c0,0,0.1,0.1,0.3,0.1l1.1,0
							c0.2,0,0.3,0,0.4,0c0.1,0,0.2,0.1,0.3,0.1c0.1,0.1,0.1,0.1,0.2,0.2S441.1,296.6,441.1,296.8L441.1,296.8z"/>
					</g>
				</g>
				<g>
					<g>
						<path class="st51" d="M442.4,297.6l0-2.2l-1,0l0-0.5l2.6,0l0,0.5l-1,0l0,2.2L442.4,297.6z"/>
					</g>
				</g>
				<g>
					<g>
						<path class="st51" d="M445.1,297.7c-0.2,0-0.3,0-0.4,0c-0.1,0-0.2-0.1-0.3-0.2c-0.1-0.1-0.1-0.2-0.1-0.3c0-0.1,0-0.3,0-0.4
							l0-1c0-0.2,0-0.3,0-0.4s0.1-0.2,0.1-0.3c0.1-0.1,0.2-0.1,0.3-0.1c0.1,0,0.3,0,0.4,0l1.5,0c0.2,0,0.3,0,0.4,0
							c0.1,0,0.2,0.1,0.3,0.2c0.1,0.1,0.1,0.2,0.1,0.3c0,0.1,0,0.3,0,0.4l0,1c0,0.2,0,0.3,0,0.4s-0.1,0.2-0.1,0.3s-0.2,0.1-0.3,0.1
							c-0.1,0-0.2,0-0.4,0L445.1,297.7z M446.9,295.8c0-0.1,0-0.2-0.1-0.3c0,0-0.1-0.1-0.3-0.1l-1.5,0c-0.1,0-0.2,0-0.3,0.1
							c0,0-0.1,0.1-0.1,0.3l0,1c0,0.1,0,0.1,0,0.2c0,0,0,0.1,0.1,0.1s0.1,0,0.1,0.1c0,0,0.1,0,0.2,0l1.5,0c0.1,0,0.2,0,0.3-0.1
							c0,0,0.1-0.1,0.1-0.3L446.9,295.8z"/>
					</g>
				</g>
				<g>
					<g>
						<path class="st51" d="M450.7,297.7l0-1.8l-0.9,1.8l-0.5,0l-0.9-1.8l0,1.8l-0.5,0l0-2.8l0.6,0l1,2.2l1.1-2.2l0.6,0l0,2.8
							L450.7,297.7z"/>
					</g>
				</g>
			</g>
			<g>
				<g>
					<g>
						<path class="st51" d="M432,312.3l0-0.7l-0.3,0.7l-0.2,0l-0.3-0.7l0,0.7l-0.2,0l0-1l0.2,0l0.4,0.8l0.4-0.8l0.2,0l0,1L432,312.3
							z"/>
					</g>
				</g>
				<g>
					<g>
						<path class="st51" d="M433.4,312.3l-0.1-0.2l-0.6,0l-0.1,0.2l-0.2,0l0.6-1l0.2,0l0.5,1L433.4,312.3z M433,311.5l-0.2,0.4
							l0.5,0L433,311.5z"/>
					</g>
				</g>
				<g>
					<g>
						<path class="st51" d="M433.7,312.3l0-1l0.9,0c0.1,0,0.1,0,0.2,0c0,0,0.1,0,0.1,0.1s0,0.1,0.1,0.1s0,0.1,0,0.2l0,0.4
							c0,0.1,0,0.1,0,0.2s0,0.1-0.1,0.1c0,0-0.1,0-0.1,0.1c0,0-0.1,0-0.2,0L433.7,312.3z M434.7,311.6c0-0.1,0-0.1,0-0.1s0,0-0.1,0
							l-0.7,0l0,0.6l0.7,0c0,0,0.1,0,0.1,0s0-0.1,0-0.1L434.7,311.6z"/>
					</g>
				</g>
				<g>
					<g>
						<path class="st51" d="M435.1,312.3l0-1l1,0l0,0.2l-0.8,0l0,0.2l0.8,0l0,0.2l-0.8,0l0,0.2l0.8,0l0,0.2L435.1,312.3z"/>
					</g>
				</g>
				<g>
					<g>
						<path class="st51" d="M436.9,311.9l0,0.4l-0.2,0l0-1l1,0l0,0.2l-0.8,0l0,0.2l0.7,0l0,0.2L436.9,311.9z"/>
					</g>
				</g>
				<g>
					<g>
						<path class="st51" d="M438.1,312.3c-0.1,0-0.1,0-0.2,0c0,0-0.1,0-0.1-0.1s0-0.1-0.1-0.1s0-0.1,0-0.2l0-0.4c0-0.1,0-0.1,0-0.2
							c0,0,0-0.1,0.1-0.1c0,0,0.1,0,0.1-0.1c0,0,0.1,0,0.2,0l0.5,0c0.1,0,0.1,0,0.2,0c0,0,0.1,0,0.1,0.1s0,0.1,0.1,0.1
							c0,0,0,0.1,0,0.2l0,0.4c0,0.1,0,0.1,0,0.2s0,0.1-0.1,0.1c0,0-0.1,0-0.1,0.1c0,0-0.1,0-0.2,0L438.1,312.3z M438.8,311.7
							c0-0.1,0-0.1,0-0.1s0,0-0.1,0l-0.5,0c0,0-0.1,0-0.1,0c0,0,0,0.1,0,0.1l0,0.4c0,0,0,0,0,0.1s0,0,0,0c0,0,0,0,0,0s0,0,0.1,0
							l0.5,0c0,0,0.1,0,0.1,0s0-0.1,0-0.1L438.8,311.7z"/>
					</g>
				</g>
				<g>
					<g>
						<path class="st51" d="M440,312.4l-0.4-0.3l-0.3,0l0,0.3l-0.2,0l0-1l0.8,0c0.1,0,0.1,0,0.1,0c0,0,0.1,0,0.1,0.1s0,0.1,0,0.1
							s0,0.1,0,0.1l0,0.1c0,0.1,0,0.1,0,0.2c0,0,0,0.1-0.1,0.1c0,0-0.1,0-0.1,0s-0.1,0-0.2,0l0.4,0.3L440,312.4z M440.1,311.7
							c0,0,0-0.1,0-0.1s0,0-0.1,0l-0.6,0l0,0.3l0.6,0c0,0,0.1,0,0.1,0S440.1,311.8,440.1,311.7L440.1,311.7z"/>
					</g>
				</g>
				<g>
					<g>
						<path class="st51" d="M441.8,312.4l0-0.1C441.8,312.3,441.8,312.3,441.8,312.4C441.8,312.3,441.8,312.3,441.8,312.4
							c-0.1,0-0.1,0-0.1,0c0,0,0,0-0.1,0l-0.4,0c-0.1,0-0.1,0-0.2,0c0,0-0.1,0-0.1-0.1s0-0.1,0-0.1c0,0,0-0.1,0-0.2l0-0.4
							c0-0.1,0-0.1,0-0.2c0,0,0-0.1,0.1-0.1s0.1,0,0.1-0.1s0.1,0,0.2,0l0.5,0c0,0,0.1,0,0.1,0c0,0,0.1,0,0.1,0c0,0,0,0,0,0
							c0,0,0,0,0,0l-0.1,0.1c0,0,0,0,0-0.1s0,0-0.1,0l-0.5,0c0,0-0.1,0-0.1,0s0,0.1,0,0.1l0,0.3c0,0,0,0.1,0,0.1s0,0,0,0
							c0,0,0,0,0,0c0,0,0,0,0.1,0l0.5,0c0.1,0,0.1,0,0.1,0c0,0,0,0,0-0.1l0-0.1l-0.4,0l0-0.2l0.6,0l0,0.6L441.8,312.4z"/>
					</g>
				</g>
				<g>
					<g>
						<path class="st51" d="M443.1,312.4l-0.4-0.3l-0.3,0l0,0.3l-0.2,0l0-1l0.8,0c0.1,0,0.1,0,0.1,0c0,0,0.1,0,0.1,0.1s0,0.1,0,0.1
							s0,0.1,0,0.1l0,0.1c0,0.1,0,0.1,0,0.2c0,0,0,0.1-0.1,0.1c0,0-0.1,0-0.1,0s-0.1,0-0.2,0l0.4,0.3L443.1,312.4z M443.1,311.7
							c0,0,0-0.1,0-0.1s0,0-0.1,0l-0.6,0l0,0.3l0.6,0c0,0,0.1,0,0.1,0S443.1,311.8,443.1,311.7L443.1,311.7z"/>
					</g>
				</g>
				<g>
					<g>
						<path class="st51" d="M443.5,312.4l0-1l1,0l0,0.2l-0.8,0l0,0.2l0.8,0l0,0.2l-0.8,0l0,0.2l0.8,0l0,0.2L443.5,312.4z"/>
					</g>
				</g>
				<g>
					<g>
						<path class="st51" d="M445.6,312.4l-0.1-0.2l-0.6,0l-0.1,0.2l-0.2,0l0.6-1l0.2,0l0.5,1L445.6,312.4z M445.2,311.6L445,312
							l0.5,0L445.2,311.6z"/>
					</g>
				</g>
				<g>
					<g>
						<path class="st51" d="M446.1,312.4l0-0.8l-0.4,0l0-0.2l0.9,0l0,0.2l-0.4,0l0,0.8L446.1,312.4z"/>
					</g>
				</g>
				<g>
					<g>
						<path class="st51" d="M447.7,312.5l-0.7-0.8l0,0.8l-0.2,0l0-1l0.2,0l0.7,0.7l0-0.7l0.2,0l0,1L447.7,312.5z"/>
					</g>
				</g>
				<g>
					<g>
						<path class="st51" d="M448.1,312.5l0-1l1,0l0,0.2l-0.8,0l0,0.2l0.8,0l0,0.2l-0.8,0l0,0.2l0.8,0l0,0.2L448.1,312.5z"/>
					</g>
				</g>
				<g>
					<g>
						<path class="st51" d="M450.3,312.2c0,0.1,0,0.1,0,0.1c0,0,0,0.1-0.1,0.1c0,0-0.1,0-0.1,0c0,0-0.1,0-0.2,0l-0.7,0
							c0,0,0-0.1,0-0.1c0,0,0-0.1,0-0.1l0.7,0c0,0,0,0,0.1,0c0,0,0,0,0,0s0,0,0,0c0,0,0,0,0-0.1c0,0,0-0.1,0-0.1c0,0-0.1,0-0.1,0
							l-0.4,0c-0.1,0-0.1,0-0.2,0c0,0-0.1,0-0.1-0.1s0-0.1-0.1-0.1c0,0,0-0.1,0-0.1v0c0-0.1,0-0.1,0-0.1c0,0,0-0.1,0.1-0.1
							c0,0,0.1,0,0.1,0c0,0,0.1,0,0.2,0l0.7,0c0,0,0,0.1,0,0.1s0,0.1,0,0.1l-0.7,0c0,0-0.1,0-0.1,0c0,0,0,0,0,0.1s0,0.1,0,0.1
							c0,0,0.1,0,0.1,0l0.4,0c0.1,0,0.1,0,0.2,0s0.1,0,0.1,0c0,0,0,0,0.1,0.1C450.3,312.1,450.3,312.1,450.3,312.2L450.3,312.2z"/>
					</g>
				</g>
				<g>
					<g>
						<path class="st51" d="M451.5,312.2c0,0.1,0,0.1,0,0.1c0,0,0,0.1-0.1,0.1c0,0-0.1,0-0.1,0s-0.1,0-0.2,0l-0.7,0c0,0,0-0.1,0-0.1
							c0,0,0-0.1,0-0.1l0.7,0c0,0,0,0,0.1,0c0,0,0,0,0,0s0,0,0,0c0,0,0,0,0-0.1c0,0,0-0.1,0-0.1c0,0-0.1,0-0.1,0l-0.4,0
							c-0.1,0-0.1,0-0.2,0c0,0-0.1,0-0.1-0.1s0-0.1-0.1-0.1c0,0,0-0.1,0-0.1v0c0-0.1,0-0.1,0-0.1c0,0,0-0.1,0.1-0.1c0,0,0.1,0,0.1,0
							c0,0,0.1,0,0.2,0l0.7,0c0,0,0,0.1,0,0.1s0,0.1,0,0.1l-0.7,0c0,0-0.1,0-0.1,0c0,0,0,0,0,0.1s0,0.1,0,0.1c0,0,0.1,0,0.1,0l0.4,0
							c0.1,0,0.1,0,0.2,0s0.1,0,0.1,0c0,0,0,0,0.1,0.1C451.5,312.1,451.5,312.1,451.5,312.2L451.5,312.2z"/>
					</g>
				</g>
			</g>
			<g>
				<g>
					<rect x="437.8" y="309.7" class="st51" width="6.9" height="0.5"/>
				</g>
			</g>
		</g>
	</g>
</g>
</svg>
