<?xml version="1.0" encoding="UTF-8"?>
<svg id="Layer_1" data-name="Layer 1" xmlns="http://www.w3.org/2000/svg" viewBox="0 0 1500 1500">
  <defs>
    <style>
      .cls-1, .cls-2 {
        fill: #898989;
      }

      .cls-3, .cls-2 {
        stroke-width: 0px;
      }
    </style>
  </defs>
  <g>
    <path class="cls-3" d="m549.4,485.78l.66-.56c2.09-1.77,3.3-4.36,3.33-7.09l.17-16.09c.03-2.74-1.14-5.36-3.19-7.18l-10.08-8.89c-1.7-1.5-3.88-2.33-6.14-2.36l-6.49-.07c1.78-7.98,5.49-14.49,8.58-19.91l.81-1.42c1.69-2.98,1.63-6.64-.15-9.56-1.76-2.89-4.94-4.6-8.3-4.52-2.17-.13-10.27-3.05-14.2-8.07-2.6-3.31-4.07-8.15-4.38-14.36-.2-3.96-2.86-7.38-6.65-8.55-3.79-1.17-7.91.17-10.3,3.34-2.92,3.87-12.82,9.96-19.05,9.9-10.98-.12-21.66-4.5-27.86-11.43-1.77-1.97-4.28-3.11-6.93-3.14-2.65-.03-5.19,1.06-7,2.99-6.35,6.8-17.12,10.95-28.1,10.83-6.23-.07-16-6.38-18.83-10.3-2.32-3.22-6.41-4.64-10.23-3.56-3.82,1.08-6.55,4.44-6.83,8.4-.45,6.21-2.02,11.01-4.69,14.26-4.04,4.94-12.23,7.69-14.36,7.76-3.35-.16-6.59,1.49-8.41,4.34-1.84,2.89-1.98,6.55-.35,9.56l.78,1.43c2.98,5.49,6.55,12.07,8.16,20.09l-4.99-.05c-2.24-.02-4.42.75-6.14,2.18l-11.79,9.81c-2.13,1.77-3.37,4.39-3.4,7.15l-.36,33.64c-.03,2.77,1.16,5.41,3.25,7.22l12.02,10.45c.72.63,1.53,1.12,2.39,1.5,3.1,19.16,13.63,33.95,31.35,44.01,14.85,8.42,31.39,11.84,43.47,14.33,4.96,1.02,9.24,1.91,11.97,2.84.84.29,1.96,1.17,2.45,1.66,1.75,2.34,4.5,3.75,7.45,3.78h0c2.95.03,5.73-1.32,7.53-3.62.5-.48,1.64-1.34,2.49-1.61,2.75-.87,7.05-1.67,12.03-2.58,12.13-2.23,28.74-5.29,43.76-13.4,17.69-9.54,28.49-23.85,32.15-42.56l10.81.12c5.21.06,9.48-4.12,9.54-9.33l.13-12.47c.04-4-2.43-7.53-6.08-8.92Z"/>
    <g>
      <path class="cls-1" d="m361.38,420.94c5.87-2.32,12.18-6.2,16.55-11.54,2.34-2.86,4.21-6.15,5.61-9.86,6.57,4.21,14.48,7.33,21.39,7.4,13.01.14,25.6-3.91,35.07-11.06,9.31,7.35,21.82,11.67,34.82,11.81,6.91.07,14.89-2.88,21.55-6.94,1.32,3.74,3.13,7.08,5.4,9.98,4.26,5.44,10.48,9.45,16.3,11.9-3.42,6.76-6.79,15.3-7.6,25.71l7.89.08c1.19-13.56,7.28-23.47,11.47-30.86-.11,0-.22,0-.33,0-4.66-.05-15.75-4.29-21.54-11.69-3.63-4.64-5.94-11.1-6.38-19.7-4.59,6.09-17.22,13.75-26.68,13.65-12.81-.14-26.29-5.07-34.79-14.57-8.71,9.32-22.29,13.96-35.1,13.82-9.46-.1-21.92-8.04-26.38-14.22-.62,8.59-3.07,15.01-6.8,19.56-5.95,7.27-17.12,11.27-21.79,11.22-.12,0-.23,0-.33-.01,4.03,7.48,9.91,17.52,10.8,31.1l7.89.08c-.59-10.42-3.77-19.04-7.05-25.87Z"/>
      <path class="cls-1" d="m495.63,543.73c-12.62,6.81-27.07,9.47-38.69,11.61-5.55,1.02-10.35,1.91-14.13,3.11-1.62.51-3.17,1.25-4.57,2.08-1.39-.87-2.92-1.63-4.53-2.18-3.76-1.28-8.53-2.27-14.06-3.41-11.56-2.39-25.95-5.36-38.43-12.44-13.47-7.64-21.06-18.52-23.03-33.1l-7.93-.09c2.33,19.89,13.42,32.28,27.08,40.02,19.65,11.15,43.22,12.83,53.83,16.45,3.54,1.21,6.49,4.18,6.96,4.94.48-.74,3.49-3.65,7.06-4.78,10.68-3.4,34.29-4.57,54.17-15.29,13.82-7.45,25.17-19.6,27.93-39.43l-7.93-.09c-2.28,14.53-10.1,25.25-23.73,32.6Z"/>
    </g>
  </g>
  <g>
    <g>
      <path class="cls-2" d="m363.56,469.97l-1.45-5.64-11.15-.12-2.2,1.75-.26,23.78,2.24,1.88,8.74.09,2.36-1.98.08-7.39-7.08-.08.1-9.24,22.6.24-.34,31.87-11.83-.13-1.46-4.25-5.02,4.18-13.94-.15-12.02-10.45.36-33.64,11.79-9.81,22.38.24,10.23,8.84-.11,10.14-14.01-.15Z"/>
      <path class="cls-2" d="m419.39,470.57l-1.45-5.64-12.66-.14-.09,8.78,12.66.14-.1,9.24-12.66-.14-.1,9.39,12.66.14,1.57-5.6,11.15.12-.2,18.86-46.56-.5.13-11.7,5.74-1.48.29-27.33-5.71-1.6.13-11.78,46.49.5-.2,18.86-11.08-.12Z"/>
      <path class="cls-2" d="m490.56,494.74l-.12,11.62-26.75-.29.13-11.7,4.01-1.5-1.3-4.79-11.38-.12-1.33,4.76,3.68,1.58-.13,11.7-22.6-.24.13-11.7,5.82-1.48,7.98-27.25-4.88-1.59.13-11.78,30.44.33,9.73,40.83,6.46,1.61Zm-33.13-15.99l6.71.07-3.26-12.12-3.44,12.05Z"/>
      <path class="cls-2" d="m495.11,506.42l.13-11.7,5.74-1.48.29-27.33-5.71-1.6.13-11.78,39.18.42,10.08,8.89-.17,16.09-7.53,6.39,5.63,9.38,3.98.81-.13,12.47-14.32-.15-11.83-21.15-3.92-.04-.08,7.78,5.71,1.6-.13,11.7-27.05-.29Zm21.66-31.56l10.7.12,1.83-1.53.06-5.75-1.79-1.57-10.7-.12-.1,8.85Z"/>
    </g>
    <g>
      <path class="cls-2" d="m383.26,440.9c-1.02-.01-1.86-.11-2.53-.3-.67-.19-1.2-.49-1.6-.91-.4-.42-.68-.99-.84-1.69-.16-.71-.24-1.58-.23-2.63l.06-5.95c.01-1.05.11-1.92.29-2.63.18-.7.47-1.27.88-1.69.41-.42.95-.72,1.62-.88.67-.16,1.52-.24,2.54-.23l9.49.1c.62,0,1.17.1,1.63.28.47.18.86.39,1.19.65.32.26.58.53.78.82.19.29.34.55.43.78l-2.14,2.14c-.14-.33-.38-.63-.7-.9-.33-.27-.81-.41-1.45-.42l-9.24-.1c-.74,0-1.26.14-1.55.45-.3.31-.45.86-.46,1.67l-.06,5.97c0,.36.02.67.06.93.05.26.14.49.28.67.14.18.34.32.6.41.26.09.6.14,1.03.15l9.37.1c.66,0,1.14-.12,1.45-.39.31-.27.55-.56.7-.89l2.09,2.16c-.1.23-.25.49-.45.77-.2.28-.47.55-.8.8-.33.25-.73.46-1.2.63-.47.17-1.02.25-1.64.24l-9.59-.1Z"/>
      <path class="cls-2" d="m404.47,441.13c-.93-.01-1.72-.12-2.37-.32-.65-.2-1.17-.52-1.56-.96-.4-.44-.68-.99-.85-1.67-.17-.67-.25-1.49-.24-2.46l.12-11.56,3.29.04-.12,11.56c0,.72.12,1.24.39,1.57s.73.49,1.38.49l8.26.09c.66,0,1.12-.15,1.39-.46.27-.32.41-.84.42-1.56l.12-11.56,3.32.04-.12,11.56c-.01.97-.11,1.79-.3,2.46-.19.67-.48,1.22-.89,1.65-.41.43-.94.74-1.6.93-.66.19-1.45.28-2.39.27l-8.26-.09Z"/>
      <path class="cls-2" d="m438.23,436.6c0,.9-.12,1.66-.32,2.28-.2.62-.52,1.12-.96,1.5-.44.38-1.01.65-1.72.82-.71.16-1.56.24-2.56.23l-11.95-.13c.04-.56.08-1.11.13-1.66.05-.55.09-1.1.13-1.66l11.51.12c.44,0,.82-.02,1.12-.07.3-.05.54-.15.72-.3.17-.15.3-.34.38-.57.08-.24.12-.54.12-.9,0-.7-.14-1.19-.45-1.47-.31-.27-.9-.42-1.77-.42l-6.86-.07c-1.02-.01-1.86-.11-2.54-.3-.68-.19-1.22-.47-1.64-.85-.41-.38-.71-.86-.88-1.44-.17-.58-.26-1.25-.25-2.02v-.57c.02-.84.11-1.56.3-2.16.19-.6.5-1.09.93-1.47.43-.37.99-.64,1.69-.82.7-.17,1.56-.25,2.6-.24l11.85.13c-.07.57-.14,1.13-.21,1.68-.07.55-.15,1.11-.24,1.68l-11.43-.12c-.82,0-1.37.12-1.66.4-.29.28-.44.75-.45,1.42,0,.67.13,1.15.41,1.44.28.29.84.44,1.65.45l6.76.07c1.05.01,1.93.11,2.65.29.72.18,1.3.45,1.74.82.44.37.75.82.94,1.37.19.55.28,1.2.27,1.93v.59Z"/>
      <path class="cls-2" d="m445.9,441.58l.15-13.57-6.17-.07.04-3.34,15.66.17-.04,3.34-6.17-.07-.15,13.57-3.32-.04Z"/>
      <path class="cls-2" d="m462.67,441.76c-1.03-.01-1.88-.11-2.55-.3-.67-.19-1.21-.5-1.61-.93-.41-.43-.69-1-.84-1.71-.16-.71-.23-1.58-.22-2.61l.06-5.95c.01-1.03.1-1.9.27-2.6.17-.7.46-1.27.88-1.69.41-.42.96-.72,1.63-.89.67-.17,1.53-.25,2.56-.24l8.92.1c1,.01,1.84.11,2.52.3.68.19,1.22.5,1.63.93.41.43.69,1,.85,1.71.16.71.24,1.58.23,2.61l-.06,5.95c-.01,1.03-.11,1.9-.29,2.6-.18.7-.48,1.27-.89,1.69-.41.42-.96.72-1.64.89-.68.17-1.52.25-2.52.24l-8.92-.1Zm11.01-11.29c0-.84-.13-1.41-.42-1.71-.29-.31-.81-.46-1.54-.47l-8.9-.1c-.74,0-1.26.14-1.55.44-.3.3-.45.87-.46,1.7l-.06,5.95c0,.43.02.77.09,1.05.06.27.17.49.32.65.15.17.36.28.61.35.25.07.57.1.95.11l8.9.1c.75,0,1.28-.13,1.57-.43.29-.29.44-.86.45-1.69l.06-5.95Z"/>
      <path class="cls-2" d="m496.59,442.12l.12-11.06-5.48,11.01-3.07-.03-5.22-11.12-.12,11.06-3.05-.03.18-16.91,3.64.04,6.17,13.59,6.49-13.45,3.56.04-.18,16.91-3.05-.03Z"/>
    </g>
    <g>
      <path class="cls-2" d="m382.72,530.62l.04-4.08-2.02,4.05h-1.13s-1.92-4.11-1.92-4.11l-.04,4.08h-1.12s.07-6.24.07-6.24h1.34s2.27,5.02,2.27,5.02l2.39-4.96h1.31s-.07,6.25-.07,6.25h-1.12Z"/>
      <path class="cls-2" d="m391.18,530.71l-.76-1.46-3.76-.04-.79,1.44h-1.39s3.48-6.21,3.48-6.21h1.28s3.35,6.28,3.35,6.28l-1.39-.02Zm-2.6-5.04l-1.44,2.57,2.83.03-1.39-2.6Z"/>
      <path class="cls-2" d="m393.21,530.73l.07-6.23,5.24.06c.38,0,.7.04.95.11.25.07.45.18.59.35.15.16.25.37.31.63.06.26.09.58.08.96l-.02,2.19c0,.38-.04.7-.11.96-.07.26-.17.47-.32.62-.15.16-.35.27-.6.33-.25.06-.57.09-.95.09l-5.24-.06Zm6.02-4.14c0-.31-.05-.52-.16-.63-.11-.11-.3-.17-.57-.17l-4.01-.04-.04,3.78,4.01.04c.28,0,.47-.05.58-.16.11-.11.16-.32.17-.62l.02-2.19Z"/>
      <path class="cls-2" d="m401.47,530.82l.07-6.23,5.99.06v1.23s-4.78-.05-4.78-.05v1.38s4.61.05,4.61.05v1.01s-4.64-.05-4.64-.05l-.02,1.39,4.76.05v1.22s-6-.06-6-.06Z"/>
      <path class="cls-2" d="m412.47,528.46l-.03,2.48h-1.22s.07-6.25.07-6.25l5.85.06v1.23s-4.64-.05-4.64-.05l-.02,1.43,4.53.05v1.09s-4.54-.05-4.54-.05Z"/>
      <path class="cls-2" d="m419.89,531.02c-.38,0-.69-.04-.94-.11-.25-.07-.45-.18-.59-.34-.15-.16-.25-.37-.31-.63-.06-.26-.08-.58-.08-.96l.02-2.19c0-.38.04-.7.1-.96.06-.26.17-.47.32-.62.15-.16.35-.27.6-.33.25-.06.56-.09.94-.09l3.29.04c.37,0,.68.04.93.11.25.07.45.18.6.34.15.16.25.37.31.63.06.26.09.58.08.96l-.02,2.19c0,.38-.04.7-.11.96-.07.26-.18.47-.33.62-.15.16-.35.27-.61.33-.25.06-.56.09-.93.09l-3.29-.04Zm4.06-4.16c0-.31-.05-.52-.16-.63-.11-.11-.3-.17-.57-.17l-3.28-.04c-.27,0-.46.05-.57.16-.11.11-.17.32-.17.63l-.02,2.19c0,.16,0,.29.03.39.02.1.06.18.12.24.06.06.13.1.23.13.09.02.21.04.35.04l3.28.04c.28,0,.47-.05.58-.16s.16-.32.17-.62l.02-2.19Z"/>
      <path class="cls-2" d="m431.55,531.15l-2.13-2.06-1.97-.02-.02,2.04h-1.23s.07-6.25.07-6.25l5.09.05c.33,0,.61.04.84.11.23.07.41.18.54.34s.24.35.3.6c.06.25.09.55.09.9v.38c0,.38-.05.69-.13.93-.08.24-.2.43-.37.57-.17.14-.39.23-.66.28-.27.05-.59.07-.98.07l2.29,2.08-1.72-.02Zm.35-4.09c0-.3-.03-.53-.1-.68-.07-.15-.23-.22-.5-.23l-3.82-.04-.02,1.93,3.82.04c.22,0,.37-.05.47-.16.09-.11.14-.3.15-.57v-.3Z"/>
      <path class="cls-2" d="m442.63,531.26l-.03-.76c-.02.09-.06.18-.13.27-.06.09-.15.17-.25.24s-.22.13-.36.17c-.14.04-.3.06-.47.06l-2.65-.03c-.39,0-.7-.04-.95-.11-.25-.07-.45-.18-.59-.34-.14-.16-.24-.37-.3-.62-.05-.26-.08-.58-.08-.97l.02-2.19c0-.37.04-.69.1-.95.06-.26.16-.46.31-.62.15-.16.35-.27.6-.34.25-.07.57-.1.96-.09l3.16.03c.23,0,.43.04.6.1.17.07.31.15.43.24.12.09.22.2.29.3s.12.2.16.29l-.78.79c-.06-.12-.15-.23-.26-.33s-.29-.15-.53-.16l-3.07-.03c-.28,0-.48.05-.58.16-.1.11-.16.32-.16.62l-.02,2.01c0,.22,0,.39.03.52.02.13.06.23.11.3.06.07.13.12.23.14.09.02.21.03.36.04l2.84.03c.34,0,.58-.04.72-.14.13-.1.2-.24.2-.44v-.8s-2.33-.03-2.33-.03v-1.01s3.5.04,3.5.04l-.04,3.62h-1.03Z"/>
      <path class="cls-2" d="m450.05,531.34l-2.13-2.06-1.97-.02-.02,2.04h-1.23s.07-6.25.07-6.25l5.09.05c.33,0,.61.04.84.11.23.07.41.18.54.34.14.15.24.35.3.6.06.25.09.55.09.9v.38c0,.38-.05.69-.13.93-.08.24-.2.43-.37.57-.17.14-.39.23-.66.28-.27.05-.59.07-.98.07l2.29,2.08-1.72-.02Zm.35-4.09c0-.3-.03-.53-.1-.68-.07-.15-.23-.22-.5-.23l-3.82-.04-.02,1.93,3.82.04c.22,0,.37-.05.47-.16s.14-.3.15-.57v-.3Z"/>
      <path class="cls-2" d="m452.52,531.37l.07-6.23,5.99.06v1.23s-4.78-.05-4.78-.05v1.38s4.61.05,4.61.05v1.01s-4.64-.05-4.64-.05v1.39s4.75.05,4.75.05v1.22s-6-.06-6-.06Z"/>
      <path class="cls-2" d="m465.73,531.51l-.76-1.46-3.76-.04-.79,1.44h-1.39s3.48-6.21,3.48-6.21h1.28s3.35,6.28,3.35,6.28l-1.39-.02Zm-2.6-5.04l-1.44,2.57,2.83.03-1.39-2.6Z"/>
      <path class="cls-2" d="m468.59,531.54l.05-5-2.27-.02v-1.23s5.78.06,5.78.06v1.23s-2.29-.02-2.29-.02l-.05,5h-1.22Z"/>
      <path class="cls-2" d="m478.38,531.65l-4.34-4.64-.05,4.59h-1.17s.07-6.24.07-6.24h1.31s4.23,4.57,4.23,4.57l.05-4.51h1.18s-.07,6.24-.07,6.24h-1.2Z"/>
      <path class="cls-2" d="m480.64,531.67l.07-6.23,5.99.06v1.23s-4.78-.05-4.78-.05v1.38s4.61.05,4.61.05v1.01s-4.64-.05-4.64-.05v1.39s4.75.05,4.75.05v1.22s-6-.06-6-.06Z"/>
      <path class="cls-2" d="m494.03,530.01c0,.33-.04.61-.12.84-.07.23-.19.41-.35.55-.16.14-.37.24-.63.3-.26.06-.57.09-.94.09l-4.4-.05c.01-.21.03-.41.05-.61.02-.2.03-.41.05-.61l4.24.05c.16,0,.3,0,.41-.03.11-.02.2-.06.26-.11.06-.05.11-.12.14-.21.03-.09.04-.2.04-.33,0-.26-.05-.44-.17-.54-.11-.1-.33-.15-.65-.16l-2.53-.03c-.37,0-.69-.04-.94-.11-.25-.07-.45-.17-.6-.31-.15-.14-.26-.32-.33-.53-.06-.21-.09-.46-.09-.74v-.21c0-.31.04-.57.11-.8.07-.22.18-.4.34-.54.16-.14.37-.24.62-.3.26-.06.58-.09.96-.09l4.37.05c-.03.21-.05.42-.08.62-.03.2-.06.41-.09.62l-4.21-.05c-.3,0-.51.05-.61.15-.11.1-.16.28-.16.52,0,.25.05.42.15.53.1.11.31.16.61.17l2.49.03c.39,0,.71.04.98.11.27.07.48.17.64.3.16.13.28.3.35.51.07.2.1.44.1.71v.22Z"/>
      <path class="cls-2" d="m501.37,530.09c0,.33-.04.61-.12.84-.07.23-.19.41-.35.55-.16.14-.37.24-.63.3-.26.06-.57.09-.94.08l-4.4-.05c.01-.21.03-.41.05-.61.02-.2.03-.41.05-.61l4.24.05c.16,0,.3,0,.41-.03.11-.02.2-.06.26-.11.06-.05.11-.12.14-.21.03-.09.04-.2.04-.33,0-.26-.05-.44-.17-.54s-.33-.15-.65-.16l-2.53-.03c-.37,0-.69-.04-.94-.11-.25-.07-.45-.17-.6-.31-.15-.14-.26-.32-.33-.53-.06-.21-.09-.46-.09-.74v-.21c0-.31.04-.57.11-.8.07-.22.18-.4.34-.54.16-.14.37-.24.62-.3.26-.06.58-.09.96-.09l4.37.05c-.03.21-.05.42-.08.62-.03.2-.06.41-.09.62l-4.21-.05c-.3,0-.51.05-.61.15-.11.1-.16.28-.16.52,0,.25.05.42.15.53.1.11.31.16.61.17l2.49.03c.39,0,.71.04.98.11.27.07.48.17.64.3.16.13.28.3.35.51.07.2.1.44.1.71v.22Z"/>
    </g>
    <rect class="cls-2" x="418.34" y="514.63" width="41.72" height="3.09"/>
  </g>
</svg>