<?xml version="1.0" encoding="iso-8859-1"?>
<!-- Generator: Adobe Illustrator 28.0.0, SVG Export Plug-In . SVG Version: 6.00 Build 0)  -->
<svg version="1.1" xmlns="http://www.w3.org/2000/svg" xmlns:xlink="http://www.w3.org/1999/xlink" x="0px" y="0px"
	 viewBox="0 0 1500 1500" enable-background="new 0 0 1500 1500" xml:space="preserve">
<g id="Layer_1">
	<g>
		<g>
			<g>
				<path d="M454.237,340.649c0.227-0.073,0.466-0.11,0.71-0.11c1.304,0,2.365,1.062,2.365,2.367c0,1.007-0.642,1.905-1.597,2.235
					l-0.306,0.106l0.044,1.085l0.602-0.208c1.374-0.474,2.297-1.767,2.297-3.218c0-1.878-1.527-3.406-3.404-3.406
					c-0.279,0-0.553,0.034-0.819,0.101l-5.349-2.096l0.396-0.155c0.166-0.063,0.293-0.199,0.349-0.375l1.711-5.575
					c0.038-0.13,0.031-0.265-0.02-0.387l0.167-0.545l-0.342,0.134l0.767-2.497l-0.87-0.709l-1.473,4.797l0.499-0.195l-1.37,4.464
					l-2.667,1.043l8.157,3.195L454.237,340.649z"/>
				<path d="M491.081,364.232l0.525-0.158c0.141-0.044,0.259-0.138,0.35-0.293c0.064-0.129,0.08-0.277,0.039-0.434l-0.126-0.422
					c-4.17-14.742-9.968-24.964-17.234-30.383c-1.283-0.958-2.627-1.769-4-2.412l4.398-14.998c0.057-0.189,0.015-0.392-0.112-0.542
					l-0.001-0.001l0.147-0.498l-0.363,0.284l-0.097-0.096l-0.196,0.154l-1.076,3.287l-0.288,0.159l-3.479,11.731
					c-0.041-0.017-0.081-0.032-0.121-0.048c-3.044-1.22-6.155-1.587-9.34-1.076c-0.479,0.076-0.938,0.172-1.356,0.284
					c-0.213,0.054-0.402,0.105-0.573,0.155c-0.97-0.163-1.951,0.096-2.71,0.718c-0.797,0.652-1.255,1.615-1.255,2.641
					c0,1.877,1.528,3.404,3.406,3.404c1.128,0,2.192-0.571,2.823-1.504c0.488-0.106,0.985-0.185,1.48-0.23
					c0.181-0.017,0.36-0.03,0.533-0.039c1.657-0.052,3.331,0.26,4.977,0.934c0.176,0.072,0.354,0.148,0.529,0.228l-8.783,29.943
					c-1.244,0.905-8.315,5.887-18.191,9.631c-9.876-3.743-16.947-8.726-18.191-9.631l-8.792-29.977
					c0.158-0.071,0.309-0.136,0.456-0.194c1.587-0.649,3.215-0.969,4.828-0.937c0.723,0.03,1.46,0.129,2.174,0.292
					c0.632,0.922,1.687,1.485,2.809,1.485c1.878,0,3.406-1.527,3.406-3.404c0-1.025-0.457-1.987-1.253-2.64
					c-0.758-0.621-1.739-0.879-2.709-0.719c-0.669-0.197-1.37-0.354-2.087-0.466c-3.072-0.479-6.162-0.11-9.18,1.1
					c-0.015,0.006-0.03,0.012-0.045,0.018l-3.208-11.013l-0.844-3.437l-0.516-0.409l-0.084,0.115l-0.306-0.233l0.136,0.465
					l-0.024,0.032c-0.106,0.145-0.141,0.327-0.092,0.513l3.862,14.456c-1.419,0.652-2.809,1.483-4.137,2.476
					c-7.266,5.419-13.064,15.641-17.232,30.375l-0.127,0.426c-0.095,0.307,0.079,0.635,0.392,0.732l0.521,0.156l-0.887,4.442
					c-0.054,0.284,0.105,0.562,0.38,0.663l1.839,0.653c0.063,0.022,0.129,0.034,0.2,0.034l0.172-0.014l0.099-0.052
					c0.148-0.078,0.256-0.214,0.293-0.364l1.2-4.378l0.478,0.144c0.155,0.046,0.324,0.026,0.452-0.049
					c0.141-0.079,0.244-0.213,0.282-0.364c0.088-0.331,2.204-8.181,6.199-15.868c2.374-4.563,4.929-8.163,7.593-10.697
					c1.26-1.2,2.561-2.169,3.873-2.889l8.813,30.053l0.094,0.209l0.118,0.088c0.807,0.6,8.188,5.978,18.795,9.961l0.142,0.058h0.108
					l0.207-0.038c10.62-3.991,18.03-9.379,18.829-9.972l0.179-0.16l8.835-30.125c1.255,0.706,2.497,1.638,3.7,2.777
					c2.674,2.532,5.235,6.13,7.612,10.696c4.083,7.84,6.198,15.826,6.218,15.901c0.039,0.156,0.143,0.291,0.283,0.369
					c0.14,0.077,0.307,0.095,0.453,0.049l0.479-0.144l1.202,4.388c0.044,0.147,0.146,0.274,0.313,0.366
					c0.078,0.036,0.165,0.055,0.25,0.055l2.046-0.689c0.272-0.102,0.431-0.391,0.371-0.665L491.081,364.232z M408.236,337.535
					c-2.761,2.627-5.393,6.33-7.823,11.004c-3.48,6.694-5.578,13.602-6.13,15.526l-0.495-0.148c-0.148-0.039-0.305-0.02-0.431,0.05
					c-0.134,0.071-0.237,0.196-0.288,0.36l-1.19,4.349l-0.772-0.274l0.889-4.459c0.063-0.296-0.115-0.596-0.406-0.682l-0.471-0.14
					c4.095-14.42,9.737-24.393,16.771-29.64c5.723-4.269,10.946-4.246,13.569-3.849l0.101,0.003c0.664,0.107,1.321,0.26,1.952,0.451
					l0.182,0.039l0.117-0.025c1.398-0.306,2.698,0.796,2.698,2.184c0,1.231-1.002,2.233-2.235,2.233
					c-0.81,0-1.558-0.442-1.952-1.153c-0.08-0.144-0.217-0.249-0.395-0.291l-0.032,0.081l-0.004-0.006l-0.09,0.051l0.021-0.148
					l-0.272-0.035l-0.009,0.006c-0.735-0.156-1.475-0.25-2.202-0.28C415.485,332.585,411.747,334.194,408.236,337.535z
					 M489.946,368.677l-1.191-4.344c-0.042-0.161-0.151-0.295-0.257-0.346c-0.091-0.059-0.198-0.089-0.308-0.089l-0.649,0.168
					c-0.552-1.928-2.652-8.845-6.148-15.562c-2.438-4.684-5.079-8.388-7.847-11.008c-3.525-3.339-7.271-4.938-11.136-4.75
					c-0.747,0.035-1.506,0.138-2.257,0.305c-0.056,0.001-0.122,0.011-0.209,0.03c-0.156,0.039-0.291,0.143-0.369,0.285
					c-0.396,0.711-1.145,1.153-1.955,1.153c-1.232,0-2.235-1.002-2.235-2.233c0-1.232,1.002-2.235,2.235-2.235
					c0.155,0,0.308,0.017,0.485,0.055l0.172,0.015l0.104-0.031c0.189-0.059,0.405-0.118,0.667-0.184
					c0.371-0.1,0.79-0.188,1.256-0.263l0.021-0.004h0.006l0.055-0.008c2.604-0.394,7.828-0.417,13.55,3.851
					c7.033,5.249,12.675,15.218,16.771,29.64l-0.472,0.14c-0.288,0.085-0.463,0.374-0.407,0.677l0.892,4.465L489.946,368.677z"/>
				<path d="M427.624,340.641l0.15,0.045l8.123-3.183l-2.662-1.043l-1.372-4.463l0.503,0.197l-1.126-3.667l-0.87,0.71l0.419,1.364
					l-0.346-0.135l0.167,0.545c-0.051,0.125-0.058,0.266-0.016,0.392l1.708,5.556c0.048,0.178,0.18,0.324,0.35,0.389l0.397,0.156
					l-5.329,2.087c-0.259-0.061-0.521-0.092-0.781-0.092c-1.878,0-3.406,1.528-3.406,3.406c0,1.416,0.899,2.7,2.307,3.217
					l0.578,0.165v-1.054l-0.296-0.109c-0.927-0.344-1.549-1.235-1.549-2.218C424.573,341.372,426.102,340.186,427.624,340.641z"/>
			</g>
			<g>
				<path fill="#FFFFFF" d="M491.179,363.123l0.091,0.304l-0.907,0.269c-0.065,0.019-0.104,0.086-0.091,0.153l0.968,4.85
					l-1.603,0.569l-1.321-4.82c-0.009-0.033-0.032-0.063-0.063-0.079c-0.019-0.012-0.042-0.018-0.063-0.018
					c-0.012,0-0.026,0.002-0.039,0.005l-0.923,0.276c-0.295-1.079-2.422-8.586-6.238-15.919c-2.415-4.638-5.024-8.301-7.757-10.888
					c-3.43-3.249-7.064-4.808-10.802-4.627c-0.743,0.035-1.495,0.139-2.239,0.308c-0.021-0.005-0.044-0.007-0.069-0.002l-0.07,0.016
					c-0.035,0.009-0.065,0.033-0.083,0.065c-0.476,0.856-1.376,1.387-2.351,1.387c-1.481,0-2.689-1.206-2.689-2.687
					s1.207-2.689,2.689-2.689c0.186,0,0.369,0.019,0.562,0.062c0.021,0.003,0.044,0.003,0.065-0.004
					c0.195-0.06,0.418-0.121,0.682-0.188c0.399-0.107,0.833-0.197,1.292-0.271l0.076-0.014c0.007-0.002,0.014,0,0.021,0
					c2.673-0.404,8.033-0.432,13.89,3.936C481.341,338.442,487.052,348.536,491.179,363.123z M457.69,334.274
					c0.025-0.04,0.025-0.091,0.002-0.134l-1.627-2.87c-0.025-0.04-0.069-0.067-0.116-0.067c-0.047,0-0.091,0.026-0.114,0.067
					c-0.179,0.316-0.271,0.657-0.271,1.014c0,1.105,0.901,2.026,2.01,2.053h0.002C457.623,334.337,457.665,334.312,457.69,334.274z"
					/>
			</g>
			<g>
				<path d="M451.471,327.203l-0.158,0.072l0.033-0.111c0.011-0.035,0.037-0.065,0.07-0.081"/>
			</g>
			<g>
				<path d="M457.692,334.14c0.023,0.042,0.023,0.093-0.002,0.134c-0.025,0.039-0.067,0.063-0.114,0.063h-0.002
					c-1.109-0.026-2.01-0.947-2.01-2.053c0-0.357,0.091-0.698,0.271-1.014c0.023-0.04,0.067-0.067,0.114-0.067
					c0.047,0,0.091,0.026,0.116,0.067L457.692,334.14z M457.337,334.051l-1.379-2.432c-0.086,0.213-0.13,0.436-0.13,0.666
					C455.827,333.167,456.486,333.914,457.337,334.051z"/>
			</g>
			<g>
				<path d="M455.957,331.619l1.379,2.432c-0.851-0.137-1.509-0.884-1.509-1.766C455.827,332.054,455.871,331.831,455.957,331.619z"
					/>
			</g>
			<g>
				<path d="M457.765,342.906c0,1.234-0.798,2.283-1.903,2.664v0.137l-0.153,0.042l-0.204-0.079
					c-0.181,0.035-0.369,0.056-0.559,0.056c-0.938,0-1.768-0.462-2.281-1.169l-5.822-2.281l-0.121-0.047
					c0.012-0.032,0.035-0.056,0.065-0.07c0.032-0.016,0.07-0.018,0.105-0.005l5.822,2.281c0.023,0.011,0.042,0.026,0.058,0.046
					c0.506,0.698,1.32,1.114,2.174,1.114c0.17,0,0.35-0.018,0.534-0.053l0.346-0.098c1.077-0.373,1.806-1.392,1.806-2.538
					c0-1.481-1.206-2.689-2.687-2.689c-0.278,0-0.55,0.042-0.808,0.127c-0.028,0.009-0.06,0.007-0.088-0.004l-6.926-2.713
					c-0.051-0.019-0.084-0.069-0.084-0.123s0.033-0.102,0.084-0.123l1.731-0.677l1.611-5.251l-0.244,0.097
					c-0.047,0.019-0.102,0.009-0.139-0.026c-0.014-0.014-0.026-0.032-0.033-0.049l0.123-0.047l0.499-0.195l-1.71,5.571l-0.499,0.197
					l-1.292,0.504l1.014,0.397l5.912,2.316c0.267-0.086,0.552-0.132,0.849-0.132C456.5,340.085,457.765,341.35,457.765,342.906z"/>
			</g>
			<g>
				<path fill="#FFFFFF" d="M457.634,342.906c0,1.146-0.729,2.165-1.806,2.538l-0.346,0.098c-0.185,0.035-0.364,0.053-0.534,0.053
					c-0.854,0-1.668-0.417-2.174-1.114c-0.016-0.019-0.035-0.035-0.058-0.046l-5.822-2.281c-0.035-0.012-0.074-0.011-0.105,0.005
					c-0.03,0.014-0.053,0.039-0.065,0.07l-5.81-2.274l-5.804,2.274c-0.012-0.032-0.035-0.056-0.065-0.07
					c-0.033-0.016-0.072-0.018-0.105-0.005l-5.743,2.248c-0.025,0.011-0.046,0.026-0.06,0.047c-0.61,0.868-1.684,1.311-2.754,1.086
					l-0.373-0.109c-1.051-0.39-1.759-1.402-1.759-2.52c0-1.481,1.207-2.689,2.689-2.689c0.26,0,0.522,0.039,0.778,0.116
					c0.028,0.009,0.058,0.007,0.086-0.004l6.899-2.703c0.049-0.019,0.083-0.069,0.083-0.123s-0.033-0.102-0.083-0.123l-1.731-0.677
					l-1.611-5.249l0.248,0.097c0.047,0.018,0.1,0.009,0.137-0.026c0.016-0.014,0.026-0.03,0.033-0.049l9.134,3.578l9.138-3.58
					c0.007,0.018,0.019,0.035,0.033,0.049c0.037,0.035,0.091,0.046,0.139,0.026l0.244-0.097l-1.611,5.251l-1.731,0.677
					c-0.051,0.021-0.084,0.069-0.084,0.123s0.033,0.104,0.084,0.123l6.926,2.713c0.028,0.011,0.06,0.012,0.088,0.004
					c0.258-0.084,0.531-0.127,0.808-0.127C456.428,340.217,457.634,341.424,457.634,342.906z M457.001,342.906
					c0-0.752-0.411-1.445-1.075-1.806c-0.04-0.021-0.09-0.021-0.13,0.004c-0.04,0.023-0.065,0.067-0.065,0.112v3.381
					c0,0.047,0.025,0.09,0.065,0.114c0.021,0.012,0.044,0.018,0.067,0.018c0.023,0,0.044-0.005,0.063-0.016
					C456.59,344.35,457.001,343.658,457.001,342.906z M426.096,344.559v-3.309c0-0.047-0.025-0.091-0.067-0.114
					c-0.04-0.023-0.091-0.023-0.132,0.002c-0.624,0.369-1.012,1.047-1.012,1.768c0,0.722,0.388,1.399,1.012,1.768
					c0.021,0.012,0.044,0.018,0.067,0.018c0.023,0,0.046-0.005,0.065-0.018C426.071,344.651,426.096,344.607,426.096,344.559z"/>
			</g>
			<g>
				<path d="M455.926,341.099c0.664,0.362,1.075,1.054,1.075,1.806c0,0.752-0.411,1.444-1.075,1.806
					c-0.019,0.011-0.04,0.016-0.063,0.016c-0.023,0-0.046-0.005-0.067-0.018c-0.04-0.025-0.065-0.067-0.065-0.114v-3.381
					c0-0.046,0.025-0.09,0.065-0.112C455.836,341.078,455.885,341.078,455.926,341.099z M456.869,342.906
					c0-0.729-0.408-1.364-1.007-1.691v3.381C456.461,344.269,456.869,343.633,456.869,342.906z"/>
			</g>
			<g>
				<path d="M455.862,341.215c0.599,0.327,1.007,0.961,1.007,1.691c0,0.728-0.408,1.364-1.007,1.69V341.215z M456.737,342.906
					c0-0.578-0.279-1.116-0.743-1.452v2.903C456.458,344.023,456.737,343.484,456.737,342.906z"/>
			</g>
			<g>
				<path d="M455.994,341.454c0.464,0.336,0.743,0.873,0.743,1.452s-0.279,1.118-0.743,1.452V341.454z"/>
			</g>
			<g>
				<polygon points="455.862,345.707 455.862,345.809 455.709,345.749 				"/>
			</g>
			<g>
				<path d="M455.709,345.749l-0.167,0.047c-0.213,0.042-0.409,0.061-0.596,0.061c-0.926,0-1.807-0.445-2.364-1.191l-5.655-2.216
					l-2.94,9.581h6.629c0.483-0.32,1.046-0.49,1.627-0.49c1.629,0,2.952,1.323,2.952,2.951c0,1.627-1.323,2.952-2.952,2.952
					c-0.582,0-1.144-0.169-1.627-0.49h-8.14l-1.436,4.674c-0.018,0.056-0.069,0.093-0.127,0.093c-0.058,0-0.109-0.037-0.125-0.093
					l-1.436-4.674h-8.157c-0.485,0.322-1.046,0.49-1.627,0.49c-1.627,0-2.952-1.325-2.952-2.952c0-1.627,1.325-2.951,2.952-2.951
					c0.582,0,1.142,0.17,1.627,0.49h6.646l-2.942-9.581l-5.574,2.183c-0.554,0.768-1.444,1.225-2.388,1.225
					c-0.2,0-0.409-0.023-0.622-0.069l-0.174-0.051l0.2-0.077c0.192,0.04,0.392,0.065,0.596,0.065c0.952,0,1.794-0.476,2.304-1.202
					l5.743-2.248l3.035,9.887h-6.864c-0.453-0.309-1-0.49-1.587-0.49c-1.555,0-2.82,1.265-2.82,2.819c0,1.555,1.265,2.82,2.82,2.82
					c0.587,0,1.133-0.181,1.587-0.49h8.294l1.464,4.768l1.464-4.768h8.279c0.452,0.309,0.998,0.49,1.587,0.49
					c1.555,0,2.82-1.265,2.82-2.82c0-1.553-1.265-2.819-2.82-2.819c-0.589,0-1.135,0.181-1.587,0.49h-6.848l3.035-9.887l5.822,2.281
					c0.513,0.706,1.343,1.169,2.281,1.169c0.19,0,0.378-0.021,0.559-0.056L455.709,345.749z"/>
			</g>
			<g>
				<path d="M452.244,351.673c1.555,0,2.82,1.265,2.82,2.819c0,1.555-1.265,2.82-2.82,2.82c-0.589,0-1.135-0.181-1.587-0.49h-8.279
					h-0.137l0.012-0.039c0.016-0.054,0.067-0.093,0.125-0.093h8.279c0.026,0,0.053,0.009,0.076,0.023
					c0.446,0.306,0.968,0.467,1.511,0.467c1.483,0,2.689-1.206,2.689-2.689c0-1.481-1.206-2.687-2.689-2.687
					c-0.543,0-1.065,0.162-1.511,0.467c-0.023,0.016-0.049,0.023-0.076,0.023h-6.848c-0.042,0-0.081-0.019-0.105-0.053
					c-0.018-0.023-0.026-0.051-0.025-0.079h0.13h6.848C451.109,351.854,451.655,351.673,452.244,351.673z"/>
			</g>
			<g>
				<path fill="#FFFFFF" d="M452.244,351.805c1.483,0,2.689,1.206,2.689,2.687c0,1.483-1.206,2.689-2.689,2.689
					c-0.543,0-1.065-0.162-1.511-0.467c-0.023-0.014-0.049-0.023-0.076-0.023h-8.279c-0.058,0-0.109,0.039-0.125,0.093l-0.012,0.039
					h-2.652l-0.012-0.039c-0.018-0.054-0.069-0.093-0.127-0.093h-8.294c-0.026,0-0.053,0.009-0.074,0.023
					c-0.448,0.306-0.972,0.467-1.513,0.467c-1.481,0-2.689-1.206-2.689-2.689c0-1.481,1.207-2.687,2.689-2.687
					c0.541,0,1.065,0.162,1.513,0.467c0.023,0.016,0.047,0.023,0.074,0.023h6.864c0.042,0,0.081-0.019,0.107-0.053
					c0.018-0.023,0.026-0.051,0.025-0.079h5.527c-0.002,0.028,0.007,0.056,0.025,0.079c0.025,0.033,0.063,0.053,0.105,0.053h6.848
					c0.026,0,0.053-0.007,0.076-0.023C451.179,351.966,451.701,351.805,452.244,351.805z M454.298,354.491
					c0-0.766-0.423-1.462-1.105-1.819c-0.04-0.021-0.09-0.021-0.13,0.004c-0.039,0.025-0.063,0.067-0.063,0.112v3.407
					c0,0.046,0.025,0.09,0.063,0.112c0.021,0.014,0.046,0.019,0.069,0.019c0.021,0,0.042-0.005,0.062-0.014
					C453.875,355.957,454.298,355.259,454.298,354.491z M428.83,356.205v-3.425c0-0.046-0.023-0.088-0.063-0.112
					c-0.039-0.023-0.088-0.026-0.128-0.005c-0.694,0.355-1.125,1.054-1.125,1.829c0,0.777,0.431,1.478,1.125,1.831
					c0.019,0.009,0.04,0.014,0.06,0.014c0.025,0,0.047-0.007,0.069-0.019C428.807,356.293,428.83,356.251,428.83,356.205z"/>
			</g>
			<g>
				<path d="M453.193,352.673c0.682,0.357,1.105,1.053,1.105,1.819c0,0.768-0.423,1.466-1.105,1.822
					c-0.019,0.009-0.04,0.014-0.062,0.014c-0.023,0-0.047-0.005-0.069-0.019c-0.039-0.023-0.063-0.067-0.063-0.112v-3.407
					c0-0.046,0.025-0.088,0.063-0.112C453.103,352.652,453.152,352.652,453.193,352.673z M454.166,354.491
					c0-0.74-0.42-1.381-1.035-1.703v3.407C453.746,355.874,454.166,355.233,454.166,354.491z"/>
			</g>
			<g>
				<path d="M453.131,352.789c0.615,0.322,1.035,0.963,1.035,1.703c0,0.742-0.42,1.383-1.035,1.705V352.789z M454.035,354.491
					c0-0.592-0.29-1.137-0.771-1.469v2.94C453.745,355.63,454.035,355.085,454.035,354.491z"/>
			</g>
			<g>
				<path d="M453.263,353.022c0.482,0.332,0.771,0.877,0.771,1.469c0,0.594-0.29,1.139-0.771,1.471V353.022z"/>
			</g>
			<g>
				<path d="M451.471,327.203l-1.297,4.225l-0.123,0.047c-0.011-0.026-0.011-0.056-0.002-0.086l1.264-4.114L451.471,327.203z"/>
			</g>
			<g>
				<path d="M451.313,327.275l-1.264,4.114c-0.009,0.03-0.009,0.06,0.002,0.086l-9.138,3.58l-9.134-3.578
					c0.011-0.026,0.012-0.056,0.004-0.086l-1.278-4.163l10.454,4.787L451.313,327.275z"/>
			</g>
			<g>
				<path d="M446.844,342.277l-3.035,9.887h-0.13c0-0.014,0.002-0.026,0.005-0.039l3.035-9.887c0.002-0.004,0.002-0.007,0.004-0.009
					L446.844,342.277z"/>
			</g>
			<g>
				<path d="M446.723,342.229c-0.002,0.002-0.002,0.005-0.004,0.009l-3.035,9.887c-0.004,0.012-0.005,0.025-0.005,0.039h-5.527
					c0-0.014-0.002-0.026-0.005-0.039l-3.035-9.887c-0.002-0.004-0.002-0.007-0.004-0.009l5.804-2.274L446.723,342.229z"/>
			</g>
			<g>
				<polygon points="442.379,356.822 440.915,361.589 439.451,356.822 439.59,356.822 440.915,361.141 442.241,356.822 				"/>
			</g>
			<g>
				<polygon points="442.241,356.822 440.915,361.141 439.59,356.822 				"/>
			</g>
			<g>
				<path d="M440.989,375.532l0.054,0.146c-0.072,0.03-0.116,0.046-0.127,0.049L440.989,375.532z"/>
			</g>
			<g>
				<path d="M439.577,356.783l0.012,0.039h-0.139h-8.294c-0.453,0.309-1,0.49-1.587,0.49c-1.555,0-2.82-1.265-2.82-2.82
					c0-1.553,1.265-2.819,2.82-2.819c0.587,0,1.133,0.181,1.587,0.49h6.864h0.132c0.002,0.028-0.007,0.056-0.025,0.079
					c-0.026,0.033-0.065,0.053-0.107,0.053h-6.864c-0.026,0-0.051-0.007-0.074-0.023c-0.448-0.306-0.972-0.467-1.513-0.467
					c-1.481,0-2.689,1.206-2.689,2.687c0,1.483,1.207,2.689,2.689,2.689c0.541,0,1.065-0.162,1.513-0.467
					c0.021-0.014,0.047-0.023,0.074-0.023h8.294C439.509,356.69,439.56,356.729,439.577,356.783z"/>
			</g>
			<g>
				<path d="M438.147,352.124c0.004,0.012,0.005,0.025,0.005,0.039h-0.132l-3.035-9.887l0.123-0.047
					c0.002,0.002,0.002,0.005,0.004,0.009L438.147,352.124z"/>
			</g>
			<g>
				<path d="M435.109,342.229l-0.123,0.047l-5.743,2.248c-0.51,0.726-1.351,1.202-2.304,1.202c-0.204,0-0.404-0.025-0.596-0.065
					l-0.2,0.077l-0.179-0.053v-0.137c-1.075-0.399-1.845-1.432-1.845-2.643c0-1.555,1.265-2.82,2.82-2.82
					c0.283,0,0.557,0.044,0.815,0.121l5.889-2.306l1.01-0.397l-1.288-0.504l-0.501-0.197l-1.712-5.571l0.503,0.197l0.123,0.047
					c-0.007,0.019-0.018,0.035-0.033,0.049c-0.037,0.035-0.09,0.044-0.137,0.026l-0.248-0.097l1.611,5.249l1.731,0.677
					c0.049,0.021,0.083,0.069,0.083,0.123s-0.033,0.104-0.083,0.123l-6.899,2.703c-0.028,0.011-0.058,0.012-0.086,0.004
					c-0.257-0.077-0.518-0.116-0.778-0.116c-1.481,0-2.689,1.207-2.689,2.689c0,1.118,0.708,2.13,1.759,2.52l0.373,0.109
					c1.07,0.225,2.144-0.218,2.754-1.086c0.014-0.021,0.035-0.037,0.06-0.047l5.743-2.248c0.033-0.012,0.072-0.011,0.105,0.005
					C435.073,342.173,435.096,342.197,435.109,342.229z"/>
			</g>
			<g>
				<path d="M431.782,331.39c0.009,0.03,0.007,0.06-0.004,0.086l-0.123-0.047l-1.313-4.276l0.162,0.074L431.782,331.39z"/>
			</g>
			<g>
				<path d="M428.83,352.78v3.425c0,0.046-0.023,0.088-0.063,0.112c-0.021,0.012-0.044,0.019-0.069,0.019
					c-0.019,0-0.04-0.005-0.06-0.014c-0.694-0.353-1.125-1.054-1.125-1.831c0-0.775,0.431-1.474,1.125-1.829
					c0.04-0.021,0.09-0.018,0.128,0.005C428.807,352.692,428.83,352.734,428.83,352.78z M428.698,356.205v-3.425
					c-0.624,0.318-1.053,0.966-1.053,1.712C427.645,355.238,428.074,355.887,428.698,356.205z"/>
			</g>
			<g>
				<path d="M428.698,352.78v3.425c-0.624-0.318-1.053-0.966-1.053-1.713C427.645,353.746,428.074,353.098,428.698,352.78z
					 M428.566,355.975v-2.965c-0.49,0.332-0.789,0.882-0.789,1.481C427.777,355.092,428.076,355.644,428.566,355.975z"/>
			</g>
			<g>
				<path d="M428.566,353.01v2.965c-0.49-0.33-0.789-0.882-0.789-1.483C427.777,353.892,428.076,353.342,428.566,353.01z"/>
			</g>
			<g>
				<path fill="#FFFFFF" d="M424.273,329.596c1.483,0,2.689,1.207,2.689,2.689s-1.205,2.687-2.689,2.687
					c-0.974,0-1.875-0.531-2.349-1.387c-0.018-0.032-0.047-0.056-0.084-0.065c-0.026-0.005-0.054-0.012-0.083-0.019l-0.051-0.011
					c-0.033-0.009-0.065-0.003-0.093,0.012c-0.763-0.172-1.534-0.276-2.293-0.308c-3.725-0.155-7.351,1.415-10.77,4.669
					c-2.724,2.592-5.326,6.254-7.734,10.885c-3.806,7.323-5.926,14.807-6.221,15.884l-0.923-0.276
					c-0.033-0.009-0.07-0.005-0.102,0.012c-0.03,0.016-0.053,0.046-0.063,0.079l-1.32,4.82l-1.603-0.569l0.966-4.85
					c0.014-0.067-0.026-0.134-0.091-0.153l-0.905-0.269l0.091-0.306c4.126-14.587,9.837-24.681,16.972-30.004
					c5.857-4.369,11.217-4.34,13.89-3.936c0.016,0.002,0.033,0,0.051-0.005c0.713,0.112,1.416,0.274,2.088,0.478
					c0.023,0.007,0.044,0.007,0.067,0.004C423.904,329.615,424.089,329.596,424.273,329.596z M426.329,332.285
					c0-0.357-0.09-0.699-0.271-1.014c-0.023-0.04-0.067-0.067-0.114-0.067c-0.047,0-0.091,0.026-0.114,0.067l-1.627,2.87
					c-0.023,0.042-0.023,0.093,0.002,0.134c0.023,0.039,0.067,0.063,0.112,0.063c0.002,0,0.002,0,0.004,0
					C425.428,334.311,426.329,333.39,426.329,332.285z"/>
			</g>
			<g>
				<polygon points="426.143,345.738 425.964,345.809 425.964,345.686 				"/>
			</g>
			<g>
				<path d="M426.059,331.271c0.181,0.315,0.271,0.657,0.271,1.014c0,1.105-0.901,2.026-2.009,2.053c-0.002,0-0.002,0-0.004,0
					c-0.046,0-0.09-0.025-0.112-0.063c-0.025-0.04-0.025-0.091-0.002-0.134l1.627-2.87c0.023-0.04,0.067-0.067,0.114-0.067
					C425.992,331.204,426.036,331.23,426.059,331.271z M424.556,334.051c0.852-0.137,1.51-0.884,1.51-1.766
					c0-0.23-0.044-0.453-0.13-0.666L424.556,334.051z"/>
			</g>
			<g>
				<path d="M426.096,341.25v3.309c0,0.047-0.025,0.091-0.067,0.114c-0.019,0.012-0.042,0.018-0.065,0.018
					c-0.023,0-0.046-0.005-0.067-0.018c-0.624-0.369-1.012-1.046-1.012-1.768c0-0.72,0.388-1.399,1.012-1.768
					c0.04-0.025,0.091-0.025,0.132-0.002C426.071,341.159,426.096,341.203,426.096,341.25z M425.964,344.559v-3.309
					c-0.566,0.336-0.947,0.951-0.947,1.655S425.398,344.225,425.964,344.559z"/>
			</g>
			<g>
				<path d="M426.066,332.285c0,0.882-0.657,1.629-1.51,1.766l1.379-2.432C426.022,331.831,426.066,332.054,426.066,332.285z"/>
			</g>
			<g>
				<path d="M425.964,341.25v3.309c-0.566-0.334-0.947-0.949-0.947-1.654S425.398,341.586,425.964,341.25z M425.832,344.31v-2.808
					c-0.427,0.337-0.684,0.858-0.684,1.404C425.148,343.454,425.405,343.972,425.832,344.31z"/>
			</g>
			<g>
				<path d="M425.832,341.502v2.808c-0.427-0.337-0.684-0.856-0.684-1.404C425.148,342.359,425.405,341.839,425.832,341.502z"/>
			</g>
		</g>
	</g>
</g>
<g id="name" display="none">
</g>
<g id="number" display="none">
</g>
</svg>
